<?xml version="1.0" encoding="utf-8"?>
<!-- Generator: Adobe Illustrator 25.4.1, SVG Export Plug-In . SVG Version: 6.00 Build 0)  -->
<svg version="1.1" id="Layer_1" xmlns="http://www.w3.org/2000/svg" xmlns:xlink="http://www.w3.org/1999/xlink" x="0px" y="0px"
	 viewBox="0 0 750 500" style="enable-background:new 0 0 750 500;" xml:space="preserve">
<style type="text/css">
	.st0{opacity:0.1;}
	.st1{fill:#005586;}
	.st2{opacity:0.15;}
	.st3{fill:none;stroke:#008DA3;stroke-width:0.7285;stroke-linecap:round;stroke-miterlimit:10;}
	.st4{fill:#052669;}
	.st5{fill:#09347A;}
	.st6{fill:#11448E;}
	.st7{fill:#3171AF;}
	.st8{fill:#205AA0;}
	.st9{fill:#EF7F1A;}
	.st10{fill:#E8C0A8;}
	.st11{fill:#2D2A25;}
	.st12{fill:#EFEDED;}
	.st13{fill:#EAE7E4;}
	.st14{fill:#00283E;}
	.st15{fill:#333232;}
	.st16{fill:#1D1D1B;}
	.st17{fill:#454444;}
	.st18{fill:#6B686C;}
	.st19{fill:#CF9F82;}
	.st20{fill:#F2842A;}
	.st21{fill:#D0904B;}
	.st22{fill:#003C48;}
	.st23{fill:url(#SVGID_1_);}
	.st24{fill:none;stroke:#4B2B19;stroke-width:0.801;stroke-miterlimit:10;}
	.st25{fill:#A56052;}
	.st26{fill:#CDCAC8;}
	.st27{fill:none;stroke:#00425C;stroke-width:0.75;stroke-linecap:round;stroke-miterlimit:10;stroke-dasharray:7.064,7.064;}
	.st28{fill:#00425C;}
	.st29{fill:none;stroke:#004D6E;stroke-miterlimit:10;}
	.st30{fill:#004D6E;}
	.st31{fill:none;stroke:#052669;stroke-miterlimit:10;}
	.st32{fill:none;stroke:#052669;stroke-width:1;stroke-miterlimit:9.9998;}
	.st33{fill:#0F4396;}
</style>
<g id="OBJECTS">
	<g>
		<g class="st0">
			<g>
				<path class="st1" d="M329.7,416c-45.2,8.3-74.4-20.2-141.1-32.4c-25-4.6-50.5-11-70.8-26.3c-17.9-13.5-38.1-52-26.8-82.9
					c17.8-48.6,115.9-87.5,145.6-119.8S288.6,63.9,338,63s76.2,39.8,101.1,56.2c20.4,13.4,47.3,11.3,70.8,4.6
					c23.5-6.6,70.4-23.7,105-2.2c30.6,19,24.2,61.5,12.4,80.2c-23.1,36.8-48.8,50.8-49.2,71.9c-0.6,29.5,17.4,36.4,33.5,69.8
					c10.6,22,2.5,55.8-17.4,73.1c-19.8,17.4-57,19-83.3,7.1c-19.8-9-63.7-31.6-85.4-32.1C403.1,391,374.9,407.6,329.7,416z"/>
			</g>
			<g>
				<circle class="st1" cx="425.7" cy="97.5" r="29.9"/>
				<path class="st1" d="M490.5,100.5c0,3.8-3.1,7-7,7c-3.9,0-7-3.1-7-7c0-3.8,3.1-7,7-7C487.4,93.5,490.5,96.6,490.5,100.5z"/>
				<circle class="st1" cx="639" cy="185.7" r="8"/>
				<circle class="st1" cx="646.2" cy="172.9" r="1.7"/>
				<ellipse class="st1" cx="614.7" cy="359.3" rx="10.7" ry="10.7"/>
				<path class="st1" d="M630.1,337.7c0,1.8-1.4,3.2-3.2,3.2s-3.2-1.4-3.2-3.2s1.4-3.2,3.2-3.2C628.6,334.5,630.1,336,630.1,337.7z"
					/>
				<path class="st1" d="M654.5,362.5c0,2.7-2.2,4.9-4.9,4.9s-4.9-2.2-4.9-4.9s2.2-4.9,4.9-4.9C652.2,357.6,654.5,359.8,654.5,362.5
					z"/>
				<circle class="st1" cx="228.8" cy="156.1" r="11.1"/>
				<circle class="st1" cx="228.2" cy="131.1" r="3.2"/>
				<path class="st1" d="M257.5,120.2c0,1.7-1.3,3-3,3c-1.6,0-3-1.3-3-3s1.3-3,3-3C256.1,117.2,257.5,118.6,257.5,120.2z"/>
				
					<ellipse transform="matrix(0.2298 -0.9732 0.9732 0.2298 -173.1677 292.0098)" class="st1" cx="97.9" cy="255.4" rx="13.7" ry="13.7"/>
				<path class="st1" d="M73.1,281.7c0,1.5-1.2,2.8-2.8,2.8s-2.8-1.2-2.8-2.8s1.2-2.8,2.8-2.8S73.1,280.2,73.1,281.7z"/>
				<circle class="st1" cx="94.5" cy="337.5" r="6"/>
			</g>
		</g>
		<g class="st2">
			<line class="st3" x1="125.2" y1="399.4" x2="632" y2="399.4"/>
			<line class="st3" x1="125.2" y1="341.5" x2="632" y2="341.5"/>
			<line class="st3" x1="125.2" y1="283.7" x2="632" y2="283.7"/>
			<line class="st3" x1="125.2" y1="225.9" x2="632" y2="225.9"/>
			<line class="st3" x1="125.2" y1="168" x2="632" y2="168"/>
		</g>
		<g>
			<rect x="148.6" y="194.9" class="st4" width="45.9" height="245.6"/>
			<rect x="204.4" y="263.7" class="st5" width="45.9" height="176.8"/>
			<rect x="258" y="343.2" class="st6" width="46" height="97.3"/>
			<rect x="314.2" y="410.8" class="st7" width="46" height="29.6"/>
			<rect x="370.5" y="372.6" class="st8" width="46" height="67.9"/>
			<rect x="426.3" y="327.1" class="st6" width="46" height="113.4"/>
			<rect x="483.2" y="266.7" class="st5" width="46" height="173.8"/>
			<rect x="540.3" y="218.1" class="st4" width="46" height="222.4"/>
		</g>
		<g>
			<g>
				<path class="st9" d="M420.1,183.6c3.1,0.1,26.2-12.2,42.3-21.8c-2.6-7.6-8.2-11.8-8.2-11.8s-46.9,18.7-49.9,21.1
					C401.4,173.6,420.1,183.6,420.1,183.6z"/>
				<path class="st10" d="M506.8,126.8c2.6-1.3,1.5,0.9,0.2,2.3c-1.3,1.4-6,4.3-6,4.3s1.3,0.6,3.5,2.5c1,0.8,2.1,7.9-11.4,7.3
					c-5.9-0.3-5.2-6-5.2-6S504.1,128.1,506.8,126.8z"/>
				<path class="st9" d="M450.1,158.4c2.2,5.8,7.9,6.5,12.9,3.1c5-3.3,31.6-18.2,31.6-18.2c-0.2-2.4-2-6.2-4.2-7.8
					c0,0-28.1,10.8-34.1,13.4C450.5,151.4,448.6,154.3,450.1,158.4z"/>
			</g>
			<g>
				<g>
					<path class="st11" d="M453.7,318.1c0,0-7.7-3.7-9-6.4c0,0-4.2,0-5.5,4.2c0,0-5.8,1-8.8-2.4l-0.7,11l34.9,0
						C463.7,322,463,319.3,453.7,318.1z"/>
					<path class="st12" d="M429.8,324.6l-0.2,2.5l35.3,0c0-1,0.3-1.5-0.2-2.5L429.8,324.6z"/>
				</g>
			</g>
			<g>
				<g>
					<path class="st11" d="M391.5,368.4l-1.7-6.7c0,0-1.6-4.6-6.6-4.6c-5,0-6.6,4.6-6.6,4.6l-1.2,8.8l2.9-0.1L391.5,368.4z"/>
				</g>
				<g>
					<path class="st13" d="M395.3,370.2c0.1,0.5,0.1,1.4-0.5,2.4h-16.6c0,0,0-1,0-2.4L395.3,370.2z"/>
					<path class="st11" d="M378.2,370.1c0.1-1.5,3.1-5.9,8.3-5.9c6.6,0,8.1,3.7,8.7,5.6c0,0,0.1,0.2,0.1,0.4l-17.1,0
						C378.2,370.2,378.2,370.2,378.2,370.1z"/>
				</g>
			</g>
			<path class="st14" d="M426.5,243.1l0.6,21.7l-18.1,4.5l-17.7,91.1c0,0-6.5,3-16.2-0.6l9.8-116.7L426.5,243.1L426.5,243.1z"/>
			<path class="st14" d="M401.7,265.5c0,0,41.2,9.5,47.2,10.9c8.4,1.9,19.5-10.7,10.9-14.3c-18.1-7.6-33-12.6-33-12.6l-22,6.7
				C404.7,256.1,402.5,259.8,401.7,265.5z"/>
			<g>
				<path class="st15" d="M399.4,314.8h-50.6c-1.2,0-2.2-1-2.2-2.2v-28.9h55v28.9C401.6,313.8,400.6,314.8,399.4,314.8z"/>
				<path class="st16" d="M399.1,291h-50c-1.4,0-2.5-1.1-2.5-2.5v-12.7c0-1.4,1.1-2.5,2.5-2.5h50c1.4,0,2.5,1.1,2.5,2.5v12.7
					C401.6,289.9,400.5,291,399.1,291z"/>
				<path class="st17" d="M399.1,290h-50c-1.4,0-2.5-1.1-2.5-2.5v-12.7c0-1.4,1.1-2.5,2.5-2.5h50c1.4,0,2.5,1.1,2.5,2.5v12.7
					C401.6,288.8,400.5,290,399.1,290z"/>
				<path class="st17" d="M374.1,284.1c-5.4,0-9.9-4.4-9.9-9.9s4.4-9.9,9.9-9.9s9.9,4.4,9.9,9.9S379.5,284.1,374.1,284.1z
					 M374.1,267.5c-3.7,0-6.7,3-6.7,6.7c0,3.7,3,6.7,6.7,6.7c3.7,0,6.7-3,6.7-6.7C380.8,270.5,377.8,267.5,374.1,267.5z"/>
				<path class="st18" d="M377,293.8h-6.3c-0.3,0-0.5-0.2-0.5-0.5v-4c0-0.3,0.2-0.5,0.5-0.5h6.3c0.3,0,0.5,0.2,0.5,0.5v4
					C377.6,293.5,377.3,293.8,377,293.8z"/>
				<path class="st17" d="M400.6,297.7c0,0,0,12,0,13.4s-1,3.2-3.7,3.2s-15.4,0-15.4,0s13.8-0.7,14.8-0.9c1-0.2,2.9-0.9,3.1-2.6
					C399.6,308.9,400.6,297.7,400.6,297.7z"/>
			</g>
			<g>
				<path class="st10" d="M407.1,165.1l0.2,7.7l-11.5,0.4l-0.2-10C400.3,165.6,405.1,165.4,407.1,165.1z"/>
				<path class="st19" d="M395.5,163.1l-0.2-7.7l11.5-0.4l0.2,10.1C405.1,165.4,400.3,165.6,395.5,163.1z"/>
			</g>
			<path class="st10" d="M402.3,174.6c-6.8,0-8.5-4.2-8.7-5.5c4.8-1.1,9.6-1.5,15.6-0.6C409.4,169.9,409,174.6,402.3,174.6z"/>
			<path class="st20" d="M392.5,168.8c0.4-0.1,4.1-0.3,4.5-0.4c0.3,1.3,4.4,4.6,7.2,4.7c4.6,0.1,4.4-3.2,4.2-4.8
				c0.5,0.1,1.1-0.3,1.6,0c2.1,1.1,8,7.2,11.5,20.5c2.8,10.5,6,35.7,6.1,60.2c0,0-15.9,6.9-44.8,1.4c0,0,0.1-59.8,0.6-66.4
				C383.9,177.4,386.8,170.8,392.5,168.8z"/>
			<path class="st4" d="M402.4,176.9l2.8,1.7l6.8,55.7l4.2,7.3c0,0,3.7-6.6,3.5-8.4c-0.2-1.8-10.3-51.7-12-55
				c0.7-1.2,1.3-2.6,1.3-2.6s-3-4.2-3.9-4.1C404.1,171.7,402.4,176.9,402.4,176.9z"/>
			<g>
				<path class="st10" d="M376.4,256.3L376.4,256.3c0,0,2,1,2.8,2.3s1.5,3,1.9,4.4c0.8,2.8,0.9,5.6,1.1,6.1c0.2,0.5-0.6,1.3-1.4,1.1
					c-0.8-0.3-1.3-3.1-1.4-3.8c-0.2-1.1-0.2-2.2-0.6-1.8c-0.4,0.4-0.4,2.2-0.5,3.5c0,0.3-0.1,0.8-0.1,1c-0.2,1.2-0.5,1.1-1.3,1
					c-0.6-0.1-1-0.2-0.9-1c0-0.2,0.1-0.5,0.1-0.7c-0.1,0.3-0.1,0.6-0.3,1c-0.4,0.8-2.2,0.9-2.3-0.4c0-0.6,0-1.1,0-1
					c0,0.3-0.1,0.6-0.2,1.2c-0.1,0.8-2.1,1.2-2.1-0.1c0-0.9,0.1-1.6,0-1.9c-0.1,0.5-0.1,1.2-0.2,1.6c-0.1,0.7-0.1,1.1-0.6,1.1
					c-0.5,0-1.1,0.1-1.1-0.3c-0.4-2.4-0.1-6,0-7.1c0.1-1.1,1.1-3.8,1.4-4.5c0-0.3,0-0.5,0-0.9c0-0.8,0.4-1.1,1.2-1.3l2.6-0.6
					C375.3,255,376.2,255.5,376.4,256.3z"/>
				<path class="st9" d="M379.2,258.6c0.4-1.5,5.4-38.2,6-41.5c0.5-3.4,6.2-23.1,8.7-31.7c1.8-6.2,0.2-13.4-5.2-14.3
					c-6.1-1.1-10.6,4.4-12,12c-0.8,4.3-6.2,30.2-6.4,33.3s-0.4,38.3-0.6,41.8C369.7,259.1,379,259.4,379.2,258.6z"/>
			</g>
			<path class="st9" d="M395.6,166.9c-1.3,0.3-2,1.6-2,1.6s2.5,7.5,7.9,11.5c2.1-3.2,3.8-8.5,3.8-8.5S398.8,170,395.6,166.9z"/>
			<path class="st9" d="M405,171.7l4.6,5.9c0,0,2.2-5.1,0.3-9.3c-0.7-0.4-2.9-1.7-2.9-1.7S406.8,170.4,405,171.7z"/>
			<g>
				<path class="st10" d="M394,160.9c0,0,26.7,4.2,30.3-3.4c0.5-1.1-0.2-8.8-1-14.2c-1.2-8-4-17.9-8.3-23.5
					c-7.2-9.2-25.2-18.7-33.8-11.1C372.7,116.4,355.9,139.5,394,160.9z"/>
				<path class="st10" d="M414.5,130.2C414.5,130.2,414.5,130.2,414.5,130.2l-0.1-1.5c4,1.9,8.1,2.8,12.1,3.9
					c-3.7,8.5-12.1,5.7-13.6-2.1C413.5,130.2,414.1,130.2,414.5,130.2C415,130.3,414.9,130.2,414.5,130.2z"/>
				<path class="st21" d="M403.5,109.9l1.4,0.5C404.6,110.5,404.1,110.2,403.5,109.9z"/>
				<path class="st22" d="M392.4,144c1.2,5.4,4.2,16.1,1.2,19.3c-6.6-2.4-15-6.5-20.5-11.1c-5.3-4.5-9-16-7.9-26.2
					s6.8-14.3,11.1-16.4c3.5-1.7,10.6-4.5,15.6-4.2c2.3,0.1,4.8,0.6,7,1.3c1.3,0.4,3.4,2.3,5,3.3l-0.7-0.3
					c-1.9,3.5-11.2,1.9-11.8,5.9c-0.7,4.7,6.9,14.7,6.8,19.4C398.2,139.1,392.8,138.8,392.4,144z"/>
				<path class="st10" d="M390,142.3c2.5,2.9,7.5,4.9,9.4,3.3s1.5-5.3-1-8.1c-2.4-2.9-6.7-6.1-9.1-3.8
					C387.6,135.4,387.6,139.4,390,142.3z"/>
				<path class="st22" d="M380.8,107.9c-2.4,0.8-2,1.6,0.3,3.4c1.6,1.2,8,6.6,9.7,5.4l1,0.8c3.1-0.3,6.8-1.6,9.7-2.7
					c1.6-0.6,5-1.6,6.4-2.7c3.5-2.7,5.2-15,0.9-16.3s-5.5,3.6-5.5,3.6s2.8-5.9-2.3-6.3c-5.1-0.4-5.1,6.8-5.1,6.8s0.2-1.4-0.8-1.3
					c-1.1,0-0.2,1.6-1.6,2.9C388.7,105.7,384.5,106.6,380.8,107.9z"/>
				<g>
					
						<linearGradient id="SVGID_1_" gradientUnits="userSpaceOnUse" x1="-13846.6143" y1="3772.7832" x2="-13845.5479" y2="3766.0132" gradientTransform="matrix(0.9421 -0.3353 -0.3353 -0.9421 14720.5762 -963.5905)">
						<stop  offset="0" style="stop-color:#C9926A"/>
						<stop  offset="1" style="stop-color:#C9926A;stop-opacity:0"/>
					</linearGradient>
					<path class="st23" d="M413.7,122.6c0.9,1.4,3.9,6.5-0.2,8.8s-5.8-4.9-5.8-4.9S411.8,123.7,413.7,122.6z"/>
					<path class="st22" d="M412.6,122.7c-4.6,1.9-6.9,5.6-2.8,3.6C413.9,124.3,415,121.7,412.6,122.7z"/>
					<path class="st24" d="M412,131.5c0.2-2.9,3.2-3.2,4-1.1"/>
				</g>
				<g>
					<path class="st25" d="M410.2,145.9c-0.2,0.9,0.3,1.9,0.9,2.5c0.6,0.7,1.4,1.1,2.3,1.4c0.9,0.2,1.8,0.2,2.8,0.2
						c0.5,0,0.9-0.1,1.4-0.1c0.5-0.1,0.9-0.2,1.4-0.2c-0.4,0.2-0.9,0.4-1.4,0.5c-0.5,0.1-0.9,0.2-1.4,0.3c-1,0.2-2,0.1-3-0.1
						c-1-0.2-1.9-0.8-2.5-1.6c-0.3-0.4-0.5-0.9-0.6-1.4C410,146.8,409.9,146.3,410.2,145.9z"/>
				</g>
			</g>
			<polygon class="st26" points="375.3,370.4 375.3,372.6 378.2,372.6 378.2,370.3 			"/>
			<path class="st14" d="M441.7,273.6c0,0-7,23.6-11.9,42.3c6.5,3.6,17.4,2,19.2-1.1c6.3-21.9,14.4-46.8,13.9-48.1
				C461.5,262.8,441.7,273.6,441.7,273.6z"/>
		</g>
		<g>
			<g>
				<path class="st27" d="M139,173.8c16.8,0,44.4-7.4,97,49.2c49.1,52.9,73.1,109.9,98.4,117.1"/>
				<g>
					<polygon class="st28" points="332.7,343.4 339.7,340.9 334,336.1 					"/>
				</g>
			</g>
		</g>
		<g>
			<g>
				<line class="st27" x1="470.8" y1="271.2" x2="569.9" y2="175.7"/>
				<g>
					<polygon class="st28" points="571.7,179.1 573.8,171.9 566.5,173.7 					"/>
				</g>
			</g>
		</g>
		<g>
			<polyline class="st29" points="125.4,130.9 125.4,440.3 639.8,440.3 			"/>
			<path class="st30" d="M645.2,440.5c0,1.9-1.5,3.4-3.4,3.4s-3.4-1.5-3.4-3.4c0-1.9,1.5-3.4,3.4-3.4
				C643.7,437.1,645.2,438.6,645.2,440.5z"/>
			<circle class="st30" cx="125.5" cy="130.8" r="3.4"/>
		</g>
		<g>
			<polygon class="st4" points="620.2,247.7 603.5,247.7 608.4,252.5 597.8,263.1 604.7,270 615.3,259.5 620.2,264.3 			"/>
			<polygon class="st5" points="499.7,203.5 482.2,203.5 487.3,208.6 476.2,219.7 483.5,227 494.6,215.9 499.7,221 			"/>
			<polygon class="st5" points="570,134.2 558,134.2 561.5,137.7 537.8,161.5 542.8,166.5 566.5,142.7 570,146.2 			"/>
			<polygon class="st4" points="608.3,131.8 600.5,131.8 602.8,134.1 587.4,149.5 590.7,152.7 606,137.3 608.3,139.6 			"/>
			<polygon class="st6" points="532.3,191.3 528.2,191.3 529.4,192.5 523,198.9 524.7,200.6 531.1,194.2 532.3,195.4 			"/>
			<polygon class="st4" points="624.9,210 620.8,210 622,211.2 615.6,217.6 617.3,219.3 623.7,212.9 624.9,214.1 			"/>
		</g>
		<g>
			<path class="st31" d="M468.4,116.3c0,2.1-1.7,3.8-3.8,3.8s-3.8-1.7-3.8-3.8c0-2.1,1.7-3.8,3.8-3.8
				C466.7,112.5,468.4,114.2,468.4,116.3z"/>
			<circle class="st31" cx="534.8" cy="87.2" r="9.3"/>
			<path class="st31" d="M615,104.8c0,2.1-1.7,3.8-3.8,3.8c-2.1,0-3.8-1.7-3.8-3.8c0-2.1,1.7-3.8,3.8-3.8
				C613.2,100.9,615,102.7,615,104.8z"/>
			<circle class="st31" cx="663.8" cy="186.6" r="3.3"/>
			<circle class="st31" cx="610" cy="309.5" r="2.2"/>
			<path class="st31" d="M679.7,291.9c0,0-0.2,0-0.5,0s-0.5,0-0.5,0s0.2,0,0.5,0S679.7,291.9,679.7,291.9z"/>
			<circle class="st31" cx="451.4" cy="203.6" r="3.3"/>
			<path class="st31" d="M342.7,186c0,1.8-1.5,3.3-3.3,3.3s-3.3-1.5-3.3-3.3c0-1.8,1.5-3.3,3.3-3.3
				C341.2,182.7,342.7,184.2,342.7,186z"/>
			<path class="st31" d="M335,132.2c0,1.5-1.2,2.7-2.7,2.7s-2.7-1.2-2.7-2.7c0-1.5,1.2-2.7,2.7-2.7S335,130.7,335,132.2z"/>
			<circle class="st31" cx="306.2" cy="262.6" r="6.9"/>
			<path class="st31" d="M277.4,322.4c0,0.8-0.6,1.4-1.4,1.4s-1.4-0.6-1.4-1.4s0.6-1.4,1.4-1.4C276.8,321,277.4,321.6,277.4,322.4z"
				/>
			<path class="st31" d="M197.3,149.2c0,0.9-0.7,1.6-1.6,1.6c-0.9,0-1.6-0.7-1.6-1.6c0-0.9,0.7-1.6,1.6-1.6S197.3,148.3,197.3,149.2
				z"/>
			<path class="st31" d="M248.9,134.7c0,0.8-0.6,1.4-1.4,1.4s-1.4-0.6-1.4-1.4s0.6-1.4,1.4-1.4S248.9,133.9,248.9,134.7z"/>
			<path class="st31" d="M252.2,82.6c0,2.3-1.8,4.1-4.1,4.1s-4.1-1.8-4.1-4.1c0-2.3,1.8-4.1,4.1-4.1S252.2,80.3,252.2,82.6z"/>
			<path class="st31" d="M93,220.9c0,1.1-0.9,1.9-1.9,1.9s-1.9-0.9-1.9-1.9s0.9-1.9,1.9-1.9C92.1,218.9,93,219.8,93,220.9z"/>
			<path class="st31" d="M80.9,307.3c0,1.8-1.5,3.3-3.3,3.3s-3.3-1.5-3.3-3.3s1.5-3.3,3.3-3.3C79.4,304,80.9,305.5,80.9,307.3z"/>
			<circle class="st31" cx="54.3" cy="260.4" r="5.8"/>
			<circle class="st31" cx="76.5" cy="407.7" r="1.1"/>
			<path class="st31" d="M113.3,395.7c0,2.1-1.7,3.8-3.8,3.8c-2.1,0-3.8-1.7-3.8-3.8s1.7-3.8,3.8-3.8S113.3,393.5,113.3,395.7z"/>
			<ellipse class="st32" cx="671.5" cy="267.8" rx="7.7" ry="7.7"/>
			<path class="st31" d="M713.2,232.7c0,0.9-0.7,1.6-1.7,1.6c-0.9,0-1.7-0.7-1.7-1.6c0-0.9,0.7-1.6,1.7-1.6
				C712.5,231,713.2,231.8,713.2,232.7z"/>
			<path class="st31" d="M712.6,120.7c0,2.4-2,4.4-4.4,4.4c-2.4,0-4.4-2-4.4-4.4s2-4.4,4.4-4.4C710.7,116.3,712.6,118.3,712.6,120.7
				z"/>
			<path class="st31" d="M685.8,380.3c0,2.7-2.2,4.9-4.9,4.9s-4.9-2.2-4.9-4.9s2.2-4.9,4.9-4.9S685.8,377.6,685.8,380.3z"/>
		</g>
	</g>
	<rect x="794.4" y="21.4" class="st9" width="48.9" height="48.9"/>
	<rect x="794.4" y="80.3" class="st4" width="48.9" height="48.9"/>
	<rect x="794.4" y="147.2" class="st33" width="48.9" height="48.9"/>
	<rect x="794.4" y="208.2" class="st33" width="48.9" height="48.9"/>
</g>
</svg>
