<?xml version="1.0" encoding="utf-8"?>
<!-- Generator: Adobe Illustrator 25.4.1, SVG Export Plug-In . SVG Version: 6.00 Build 0)  -->
<svg version="1.1" xmlns="http://www.w3.org/2000/svg" xmlns:xlink="http://www.w3.org/1999/xlink"
	x="0px" y="0px"
	viewBox="60 0 980 800" style="enable-background:new 0 0 550 800;" xml:space="preserve">
<style type="text/css">
	.st0{fill:#F1F2F2;}
	.st1{fill:#3B455A;}
	.st2{fill:#C67A6D;}
	.st3{fill:#CCD2D9;}
	.st4{fill:#7FC5A3;}
	.st5{fill:#BABCBE;}
	.st6{fill:#686E72;}
	.st7{fill:#777F87;}
	.st8{fill:#E1CFB5;}
	.st9{fill:#8EC3CB;}
	.st10{fill:#EFBFA5;}
	.st11{fill:#EF7F1A;}
	.st12{fill:#FFFFFF;}
	.st13{fill:#052669;}
	.st14{opacity:0.1;fill:#272525;}
	.st15{opacity:0.2;fill:#FFFFFF;}
	.st16{fill:#474EBB;}
	.st17{fill:#CAC8D6;}
	.st18{opacity:0.1;}
	.st19{fill:#F7F7F7;}
</style>
<g id="shadow">
	<g>
		<path class="st0" d="M521.68,690.81c-27.63,0.07-55.27,0.62-82.85,3.16c-10.4,0.96-20.58,3.07-31.01,3.92
			c-20.82,1.7-41.27,4.87-62.17,6.33c-16.83,1.18-33.73,1.87-50.5,3.37c-15.73,1.4-33.15,1.08-48.76-1.24
			c-11.56-1.71-23.17-2.68-34.53-5.43c-12.71-3.08-26.52-5.28-39.76-5.2c-18.88,0.11-37.27,0.13-55.35,5.56
			c-6.34,1.91-14.11,5.04-18.93,9.05c-11.03,9.16-12.52,32.03-1.51,41.54c18.55,16,58.13,22.27,84.13,22.57
			c28.49,0.32,56.16-1.43,84.69-2.46c26.51-0.96,52.95-2.32,79.5-2.27c54.23,0.1,108.47,0,162.6-3
			c50.86-2.82,101.85-1.85,152.82-1.85c52.27,0,104.18,0.34,156.08,6.1c22.61,2.51,45.64,3.39,68.37,5.14
			c20.35,1.57,39.91-0.03,60.18-1.49c17.02-1.22,33.93-4.84,49.39-10.97c12.24-4.85,34.06-19.91,37.81-31.48
			c10.52-32.44-148.3-31.66-172.69-31.59c-27.28,0.08-54.78,0.83-82.03-0.04c-11.47-0.36-22.76-2.22-33.95-4.26
			c-11.15-2.03-22.38-1.51-33.68-2.36c-47.14-3.55-94.38-3.03-141.67-3.03C552.48,690.88,537.08,690.77,521.68,690.81z"/>
	</g>
</g>
<g id="object">
	<g>
		<g>
			<path class="st1" d="M171.77,350.9c-0.19,0.8-0.35,1.71,0.09,2.4c0.39,0.61,1.13,0.88,1.82,1.08
				c16.17,4.87,33.52,0.57,49.86-3.74c2.73-0.72,5.46-1.44,8.17-2.22c1.32-0.38,2.69-0.8,3.73-1.7c1.46-1.25,2.07-3.24,2.23-5.15
				c0.39-4.54-1.31-8.97-3.09-13.16c-4.55-10.73-9.79-21.16-15.68-31.22c-0.75-1.29-1.54-2.59-2.65-3.58
				c-2.2-1.95-5.42-2.38-8.3-1.8s-5.49,2.04-8.02,3.54c-8.88,5.26-14.78,10.66-16.6,20.83C181.17,328.29,174.63,338.99,171.77,350.9
				z"/>
			<path class="st2" d="M233.51,293.14c-6.91-24.56-37.74-17.53-44.93,3.48c-4.33,12.66,3.52,29.67,15.55,36.06
				c-0.4,3.28,0.39,11.86,0.56,11.86c4.31,0,8.63-0.01,12.94-0.01c0.11-3.2,0.04-6.41-0.18-9.6c1.51-0.27,3.03-0.7,4.56-1.36
				c7.05-3.02,11.72-10.19,13.26-17.71C236.8,308.35,235.59,300.52,233.51,293.14z"/>
			<g>
				<g id="XMLID_361_">
					<g id="XMLID_363_">
						<polygon class="st1" points="204.41,744.21 203.62,752.29 187.04,759.3 179.92,750.68 188.61,743.14 205.2,736.13 						"/>
					</g>
					<g id="XMLID_362_">
						<polygon class="st3" points="218.27,580.39 205.49,741.66 189.51,743.8 176.28,606.35 165.34,562.75 						"/>
					</g>
				</g>
				<g id="XMLID_358_">
					<g id="XMLID_360_">
						<polygon class="st3" points="251.63,537.19 263.84,727.84 251.49,732.41 221.11,587.41 204.4,545.43 						"/>
					</g>
					<g id="XMLID_359_">
						<polygon class="st1" points="252.79,738.75 270.11,743.98 276.44,734.36 267,727.67 251.24,730.6 						"/>
					</g>
				</g>
				<g id="XMLID_357_">
					<path class="st4" d="M234.66,338.41c-3.33-0.42-6.74-0.06-10.08,0.4c-10.08,1.4-20.01,3.81-29.6,7.16
						c-3.09,1.08-6.17,2.27-8.98,3.95c-13.66,8.15-12.56,20.92-15.06,35.13c-1.75,9.91-4.31,20.09-5,30.14
						c-1.8,26.22-10.04,52.74-21.41,76.75c-4.79,10.12-10.5,19.89-13.91,30.54c-5.65,17.65-5.63,38.45-4.04,56.72
						c16.07,4.36,31.13,12.52,47.66,14.63c13.6,1.74,27.33-0.73,40.99-1.92c16.15-1.41,32.42-1.03,48.59-2.26
						c16.17-1.23,32.51-4.16,46.82-11.68c-1.48,0.78-21.96-53.99-23.41-58.89c-2.42-8.22-3.72-16.72-5.07-25.17
						c-6.71-41.75-15.19-83.4-28.82-123.55c-3.5-10.31-4.2-29.15-17.26-31.72C235.61,338.54,235.13,338.47,234.66,338.41z"/>
				</g>
				<g id="XMLID_354_">
					<g id="XMLID_356_">
						<path class="st1" d="M210.79,286.53c7.48,1.34,16.7,7.65,18.5,15.43c0.87,3.75-0.37,7.2,0.72,11.17
							c2.12,7.85-7.5,19.4,2.02,24.85c4.9,2.8,11.01,1.89,16.59,0.9c0.68-0.12,1.38-0.25,1.92-0.68c0.88-0.7,1.03-2.01,0.69-3.07
							c-0.33-1.07-1.05-1.96-1.67-2.89c-6.55-9.71-4.96-23.63-7.5-34.69c-2.54-11.04-8.55-22.03-19.63-26.56
							c-5.53,3.53-9.54,9.28-10.92,15.63L210.79,286.53z"/>
					</g>
					<g id="XMLID_355_">
						<path class="st1" d="M183.54,347.64c3.53-2.17,7-4.43,9.04-8.48c3.31-6.54,1.91-16.7,2.31-23.79
							c0.41-7.48,1.1-15.62,6.3-21.08c3.39-3.56,7.57-4.54,12.29-5.02c3.23-0.32,3.46,0.87,6.04-1.07c1.98-1.49,3.43-5.56,3.72-7.89
							c0.48-3.93-1.44-7.88-4.29-10.67c-4.38-4.3-9.3-6.2-15.32-5.83c-21.11,1.32-35.86,14.97-40.04,35.77
							c-2.01,10,1.04,20.69-1.19,30.34c-1.38,5.96-4.81,10.14-5.8,16.44c-2.58,16.36-9.78,37.6-7.66,54.12
							c0.08,0.61,0.21,1.28,0.71,1.65c1.02,0.75,2.35-0.38,3.1-1.4c4.35-5.94,8.69-11.87,13.04-17.81c1.71-2.33,3.43-4.7,4.42-7.41
							c2.46-6.73,0.17-14.98,4.42-20.79C176.94,351.57,180.27,349.65,183.54,347.64z"/>
					</g>
				</g>
				<g id="XMLID_352_">
					<g id="XMLID_353_">
						<polygon class="st4" points="161.83,354.72 118.24,435.29 166.93,471.04 178.23,460 150.65,434.77 192.56,402.32 
							187.61,349.48 						"/>
					</g>
				</g>
			</g>
			<g>
				<path class="st5" d="M222.32,333.93c8.85,0,16.02-7.17,16.02-16.02h3.19c0,10.61-8.6,19.21-19.21,19.21V333.93z"/>
				<path class="st6" d="M213.89,332.64h6c1.65,0,2.98,1.34,2.98,2.98v0.46c0,1.65-1.34,2.98-2.98,2.98h-6
					c-1.65,0-2.98-1.34-2.98-2.98v-0.46C210.91,333.98,212.25,332.64,213.89,332.64z"/>
				<g>
					<path class="st5" d="M238.15,306.14v-13.18c0-14.24-11.55-25.79-25.79-25.79c-14.24,0-25.79,11.55-25.79,25.79v13.18h-5.67
						v-13.28c0-17.37,14.08-31.45,31.45-31.45c17.37,0,31.45,14.08,31.45,31.45v13.28H238.15z"/>
				</g>
				<g>
					<path class="st5" d="M173.38,303.81c-0.97,1.47-0.97,2.47-0.97,3.71v2.41v2.41c0,1.24,0,2.24,0.97,3.71l1.59,1.86v-7.98v-7.98
						L173.38,303.81z"/>
					<path class="st6" d="M183.53,321.76h-3.04c-3.05,0-5.52-2.47-5.52-5.52v-12.62c0-3.05,2.47-5.52,5.52-5.52h3.04
						c3.05,0,5.52,2.47,5.52,5.52v12.62C189.05,319.28,186.58,321.76,183.53,321.76z"/>
				</g>
				<g>
					<path class="st7" d="M251.79,303.81c0.97,1.47,0.97,2.47,0.97,3.71v2.41v2.41c0,1.24,0,2.24-0.97,3.71l-1.59,1.86v-7.98v-7.98
						L251.79,303.81z"/>
					<path class="st6" d="M241.65,321.76h3.04c3.05,0,5.52-2.47,5.52-5.52v-12.62c0-3.05-2.47-5.52-5.52-5.52h-3.04
						c-3.05,0-5.52,2.47-5.52,5.52v12.62C236.13,319.28,238.6,321.76,241.65,321.76z"/>
				</g>
			</g>
		</g>
		<g>
			<polygon class="st8" points="552.96,389.94 537.03,383.71 534.14,386.83 534.14,391.98 526.04,391.98 526.76,401.3 
				534.14,404.11 549.67,402.01 			"/>
			<g id="XMLID_148_">
				<g id="XMLID_335_">
					<g id="XMLID_349_">
						<g id="XMLID_351_">
							<path class="st1" d="M686.17,715.79c1.58-1.74,3.43-2.7,5.52-2.37c2.01,0.32,3.81,1.68,4.64,3.5
								c0.56,1.24,0.68,2.62,0.8,3.98c0.58,7.01,0.53,23.64-8.8,26.03c-3.92,1.01-7.17-1.78-8.21-5.3
								C678.53,736.32,680.87,721.63,686.17,715.79z"/>
						</g>
						<g id="XMLID_350_">
							<path class="st2" d="M682.85,610.12l0.49,42.73c-0.57,18.98,2.4,38.06,1.83,57.04c-0.13,4.36-1.27,8.97-0.17,13.29
								c1.08,4.23,4.51,4.98,8.04,2.84c4.73-2.87,3.97-9.57,4.75-14.47c2.16-13.44,4.7-26.82,6.96-40.24
								c1.11-6.58-1.18-15.8-0.68-22.46c0,0,6.9-35.81,6.9-35.81L682.85,610.12z"/>
						</g>
					</g>
					<g id="XMLID_348_">
						<polygon class="st9" points="731.66,541.08 713.07,623.69 709.12,701.69 679.63,701.03 671.61,482.83 728.77,483.87 						"/>
					</g>
					<g id="XMLID_343_">
						<g id="XMLID_345_">
							<g id="XMLID_347_">
								<path class="st1" d="M643.99,714.24c1.65-1.65,3.54-2.5,5.61-2.04c1.99,0.43,3.73,1.9,4.48,3.77
									c0.51,1.28,0.57,2.67,0.62,4.03c0.28,7.04-0.49,23.69-9.89,25.53c-3.95,0.77-7.07-2.2-7.96-5.79
									C635.5,734.34,638.46,719.77,643.99,714.24z"/>
							</g>
							<g id="XMLID_346_">
								<path class="st2" d="M659.53,616.12l-2.5,42.66c-0.2,11.85-1.78,23.62-3.01,35.39c-1.14,10.94,0.63,22.33-5.08,32.28
									c-1.79,3.12-5.42,5.2-7.95,1.41c-1.95-2.92-0.79-7.79-1.17-11.11c-1.53-13.52-3.43-27.01-5.06-40.52
									c-0.8-6.63,1.92-15.73,1.74-22.41l-5.21-36.09L659.53,616.12z"/>
							</g>
						</g>
						<g id="XMLID_344_">
							<polygon class="st9" points="622.22,536.03 619.82,616.22 632.4,697.3 662.4,698.2 661.07,610.45 676.94,537.67 
								682.27,490.03 634.68,484.42 							"/>
						</g>
					</g>
					<g id="XMLID_342_">
						<polygon class="st3" points="659.87,320.32 711.14,319.09 740.87,374.38 730.3,426.17 728.42,488.14 655.28,489.14 
							631.22,485.23 637.61,419.01 633.94,330.56 						"/>
					</g>
					<g id="XMLID_341_">
						<polygon class="st3" points="658.02,353.82 631.31,407.21 602.51,412.93 544.85,404.11 551.93,386.08 604.8,386.08 
							634.66,330.56 						"/>
					</g>
					<g id="XMLID_336_">
						<g id="XMLID_340_">
							<path class="st2" d="M663.08,277.36c7.73-22.47,37.4-14.05,43.51,5.96c3.99,13.05-6.09,29.99-19.62,33.74
								c-0.06,0.51-0.1,0.99-0.11,1.4c-0.01,2.1-0.27,4.16-0.58,6.25c-0.12,0.78-11.95-1.49-13.27-1.75
								c-0.46-0.09-0.98-0.22-1.23-0.6c-0.48-0.74,0.3-2.93,0.39-3.76c0.1-0.97,0.2-1.95,0.31-2.92
								c-6.67-3.26-10.88-10.19-12.06-17.25C659.25,291.33,660.75,284.11,663.08,277.36z"/>
						</g>
						<g id="XMLID_337_">
							<g id="XMLID_339_">
								<path class="st1" d="M682.43,257.05c1.59,1.62,2.22,3.87,2.67,6.03c0.27,1.29,0.51,2.63,0.23,3.91
									c-1.1,5.1-6.16,4.83-10.07,6.48c-4.83,2.03-8.99,5.76-11.69,10.06c-4.23,6.73-2.33,15.4-0.61,22.82
									c0.6,2.62,1.82,6.51-0.21,8.84c-2.06,2.37-6.83,2.01-9.3,0.79c-2.26-1.12-4.11-3.18-6.59-3.59
									c-2.62-0.44-6.17,0.71-7.39-1.69c-0.34-0.67-0.37-1.49-0.8-2.1c-1.45-2.07-5.05,0.35-7.1-1.11
									c-1.26-0.9-1.25-2.81-0.82-4.33c0.42-1.52,1.14-3.05,0.84-4.59c-0.25-1.33-1.21-2.37-1.8-3.58
									c-1.17-2.38-0.76-5.48,0.97-7.49c3.23-3.74,9.48-3.03,12.94-6.54c1.8-1.83,2.5-4.47,3.17-6.97c0.67-2.5,1.48-5.14,3.41-6.83
									c2.38-2.09,5.82-1.74,8.17-4.22c1.38-1.46,2.3-3.36,3.85-4.63c2.04-1.67,6.03-2.96,8.57-3.81
									C674.92,253.13,679.42,253.99,682.43,257.05z"/>
							</g>
							<g id="XMLID_338_">
								<path class="st1" d="M701.2,292.91c0.14,7.4-3.54,15.39-0.13,21.9c3.44,6.57,12.01,7.75,19.32,8.1
									c1.2,0.06,16.62,1.39,16.69,1.1c1.15-5.15,2.35-10.41,5.04-14.93c2.69-4.52,7.19-8.27,12.35-8.59
									c-1.49-0.26-2.24-2.08-2.07-3.61c0.17-1.54,0.97-2.92,1.43-4.4c1.13-3.63,0.03-7.86-2.7-10.4
									c-5.45-5.08-15.34-2.97-20.02-8.81c-2.9-3.62-2.55-8.87-4.07-13.29c-2.94-8.55-12.29-10.33-19.29-14.19
									c-7.38-4.07-14.33-6.31-22.86-4.89c-10.56,1.76-18.41,12.51-14.34,22.63c5.23,12.98,26.11,11.86,30.03,25.04
									C700.99,289.98,701.17,291.43,701.2,292.91z"/>
							</g>
						</g>
					</g>
				</g>
				<g id="XMLID_334_">
					<polygon class="st9" points="695.97,320.02 680.07,342.5 672.59,341.89 660.13,319.09 					"/>
				</g>
			</g>
		</g>
		<g>
			<polygon class="st10" points="339.42,286.95 329.52,268.87 339.25,250.23 349.4,255.6 348.18,270.92 353.53,276.14 
				351.45,289.28 			"/>
			<g>
				<g>
					<g>
						<polygon class="st1" points="491.49,457.84 492.83,574.19 480.43,723.96 463.57,723.96 443.4,585.78 420.33,447.37 						"/>
						<polygon class="st1" points="463.67,731.07 481.9,740.18 491.02,731.07 481.9,721.95 463.67,721.95 						"/>
					</g>
					<g>
						<polygon class="st1" points="375.9,457.84 375.57,525.15 386.94,723.96 403.8,723.96 432,592.03 447.06,447.37 						"/>
						<polygon class="st1" points="403.7,731.07 385.47,740.18 376.36,731.07 385.47,721.95 403.7,721.95 						"/>
					</g>
				</g>
				<path class="st11" d="M358.37,498.37c-0.36,10.68-0.13,24.96,4.37,25.5c0.84,0.1,1.65-0.27,2.39-0.63
					c7.82-3.8,13.39-9.17,21.1-12.84c8.08-3.85,17.26-5.86,26.23-7.25c13.38-2.14,26.98-3.42,40.45-3.54
					c11.58-0.1,23.61,5.18,34.56,8.08c4.21,1.12,7.64,4.19,11.14,6.6c5.17,3.56,7.43,4.96,6.73-2.3
					c-1.15-11.85-2.34-23.71-3.8-35.53c-2.91-23.58-6.87-47.1-13.57-69.93c-2.56-8.72-5.51-17.32-8.46-25.91
					c-3.59-10.47-7.19-20.93-10.78-31.4c-4.47-13.01-12.01-22.17-25.21-26.72c-11.41-3.93-25.58-5.01-36.68,0.5
					c-12.34,6.12-18.2,26.97-24.19,38.11c-5.25,9.76-11.87,36.39-13.84,46.91c-2.37,12.67-4.55,25.28-6.27,37.85
					c-1.91,13.93-3.25,27.81-3.64,41.62C358.85,489,358.54,493.27,358.37,498.37z"/>
				<path class="st12" d="M419.31,324.83l22.78,0.22c0,0,24.45,85.43,25.34,100.16c0.88,14.45,7.06,73.06,7.06,73.06
					s-25.23,0.59-54.3,4.14c-28.42,6.08-30.81,2.49-30.81,2.49s15.34-61.6,15.85-79.3c0.52-18.1,2.84-77.89,2.84-77.89
					L419.31,324.83z"/>
				<g>
					<path class="st10" d="M425.04,324.61c0.27,0.23,0.58,0.42,0.93,0.53c0.71,0.23,1.48,0.15,2.22,0.06
						c3.01-0.36,6.03-0.71,9.04-1.07c-0.99-9.23,4.4-11.32,9.66-17.25c5.33-6.02,3.69-14.13,3.39-21.49
						c-0.09-2.05-0.19-4.16-1.05-6.02c-1.52-3.26-5.06-5.07-8.5-6.14c-8.78-2.73-18.82-2.06-26.55,2.92
						c-2.06,1.32-3.98,2.99-5.09,5.17c-1.72,3.36-1.28,7.36-0.8,11.11c0.74,5.75,2.44,11.4,5.69,16.24
						c3.03,4.52,8.81,6.68,9.47,12.1C423.61,322.16,424.04,323.73,425.04,324.61z"/>
					<g>
						<path class="st1" d="M408.54,285.73c0.51,2.32,1.59,4.67,1.03,6.97c-3.68-1.25-6.09-5.02-7.4-8.85
							c-0.59-1.74-1.02-3.57-0.87-5.41c0.15-1.84,0.95-3.68,2.4-4.72c2.02-1.45,5.65-0.88,6.23,1.75
							C410.51,278.11,407.76,282.24,408.54,285.73z"/>
						<path class="st1" d="M388.98,265.36c0.09-2.78,1.15-5.26,3.63-6.94c2.14-1.45,4.61-2.64,5.91-4.94
							c1.01-1.78,1.16-3.99,2.16-5.78c1.81-3.24,5.74-4.19,9.16-5.29c8.55-2.75,13.16-5.92,22.22-2.4
							c6.44,2.5,14.77,2.84,20.75,6.48c2.5,1.52,4.62,3.97,6.37,6.7c6.04,9.44,7.49,22.72,3.56,32.57c-0.88,2.2-2,4.23-3.2,6.17
							c-2.39,3.88-4.95,8.66-9.19,10.56c-0.27-1.83-1.63-2.84-2.05-4.64c-0.31-1.29-0.2-2.65-0.14-3.98
							c0.26-5.18,1.85-13.37-3.32-15.94c-6.54-3.25-18.81-0.32-25.11,2.43c-5.57,2.43-14.98,5.6-20.92,2.99
							C393.28,280.94,388.79,271.29,388.98,265.36z"/>
					</g>
				</g>
			</g>
			<polygon class="st11" points="406.84,322.99 366.62,356.77 357.24,287.72 335.93,283.59 332.2,377.43 355,398.85 396.48,378.36 
							"/>
		</g>
		<g>
			<g>
				<g id="XMLID_146_">
					<circle id="XMLID_147_" class="st13" cx="569.65" cy="490.87" r="143.88"/>
				</g>
				<g>
					<path class="st12" d="M603.42,394.89c-4.31-3.81-10.27-5.72-17.89-5.72c-6.3,0-12.01,1.33-17.15,3.98
						c-5.14,2.65-9.15,6.17-12.05,10.56c-2.9,4.39-4.35,9.24-4.35,14.54c0,5.96,2.15,10.85,6.46,14.66
						c4.31,3.81,10.35,5.72,18.14,5.72c6.29,0,11.97-1.28,17.02-3.85c5.05-2.57,9.03-6.09,11.93-10.56
						c2.9-4.47,4.35-9.28,4.35-14.41C609.88,403.67,607.73,398.7,603.42,394.89z"/>
					<path class="st12" d="M599.84,565.56c0,0-22.91,9.13-20.83-2.64l15.69-88.91c1.96-11.08-6.57-21.24-17.82-21.24h-24.9h-2.48
						h-16.24l-1.31,5.54c0,0,16.41,0.89,13.91,15.07c-5.7,32.28-16.09,91.15-16.1,91.21c-1.39,7.9,1.42,16.11,7.37,21.5
						c8.89,8.07,21.09,7.54,31.86,4.1c3.59-1.15,34.87-15.14,34.82-15.26L599.84,565.56z"/>
				</g>
				<path class="st14" d="M652.76,373.46c16.65,23.48,26.47,52.13,26.47,83.1c0,79.46-64.42,143.88-143.88,143.88
					c-30.97,0-59.63-9.82-83.1-26.46c26.07,36.76,68.92,60.77,117.41,60.77c79.46,0,143.88-64.42,143.88-143.88
					C713.53,442.38,689.51,399.53,652.76,373.46z"/>
			</g>
			<path class="st15" d="M601.88,368.01c0.65,0,1.29,0,1.94,0.01c-12.48-4.51-25.95-6.97-39.99-6.97
				c-39.6,0-74.62,19.54-95.91,49.49c-0.76,0.23-1.31,0.98-1.31,1.86v0.03c-12.8,18.78-20.29,41.45-20.29,65.87
				c0,0.54,0.01,1.09,0.02,1.63C467.99,414.9,529.44,368.01,601.88,368.01z"/>
		</g>
		<g>
			<path class="st11" d="M74.33,239.99c-3.11,25.21-0.38,65.21,26.74,119.2c27.12,53.98,57.57,80.06,79.66,92.62
				c15.78,8.97,35.71,9.17,52.73,0.62l9.5-4.77c7.72-3.88,11.04-12.87,7.41-20.08l-22.71-45.2c-3.62-7.22-12.82-9.92-20.54-6.04
				l-13.28,6.67c-4.38,2.2-9.52,2.18-13.57-0.14c-20.65-11.82-36.86-44.93-36.86-44.93s-16.89-32.77-14.04-56.39
				c0.56-4.64,3.61-8.77,7.99-10.97l13.28-6.67c7.72-3.88,11.04-12.87,7.41-20.08l-22.71-45.2c-3.62-7.22-12.82-9.92-20.54-6.04
				l-9.5,4.77C88.3,205.87,76.55,221.97,74.33,239.99z"/>
			<path class="st14" d="M91.25,337.72c2.86,6.9,6.09,14.03,9.82,21.46c27.12,53.98,57.57,80.06,79.66,92.62
				c15.78,8.97,35.71,9.16,52.73,0.62l9.5-4.77c2.45-1.23,4.39-3.01,5.88-5.05C163.79,457.04,92.58,339.93,91.25,337.72z"/>
		</g>
		<g id="XMLID_144_">
			<g id="XMLID_145_">
				<path class="st2" d="M175.15,474.84c2.58,3.29,12.5,8.2,16.84,6.99c10.01-2.79-1.86-9.67-5.43-12.97
					c1.53-0.9,3.04-1.72,4.34-2.88c1.2-1.06-12.36-7.51-14.41-7.29c-4.91,0.52-5.57,3.58-8.38,7.23
					C170.52,468.83,172.82,471.86,175.15,474.84z"/>
			</g>
		</g>
		<g>
			<path class="st5" d="M439.55,310.47c9.32,0,16.87-7.55,16.87-16.87h3.35c0,11.17-9.05,20.22-20.22,20.22V310.47z"/>
			<path class="st6" d="M430.68,309.12h6.32c1.74,0,3.14,1.41,3.14,3.14v0.48c0,1.74-1.41,3.14-3.14,3.14h-6.32
				c-1.74,0-3.14-1.41-3.14-3.14v-0.48C427.53,310.52,428.94,309.12,430.68,309.12z"/>
			<g>
				<path class="st5" d="M456.21,281.22v-13.87c0-14.99-12.15-27.14-27.14-27.14s-27.14,12.15-27.14,27.14v13.87h-5.96v-13.98
					c0-18.29,14.82-33.11,33.11-33.11s33.11,14.82,33.11,33.11v13.98H456.21z"/>
			</g>
			<g>
				<path class="st5" d="M388.03,278.77c-1.03,1.54-1.03,2.6-1.03,3.9v2.53c0,0,0,2.53,0,2.53c0,1.31,0,2.36,1.03,3.9l1.67,1.96
					v-8.4v-8.4L388.03,278.77z"/>
				<path class="st6" d="M398.72,297.66h-3.2c-3.21,0-5.81-2.6-5.81-5.81v-13.29c0-3.21,2.6-5.81,5.81-5.81h3.2
					c3.21,0,5.81,2.6,5.81,5.81v13.29C404.53,295.06,401.92,297.66,398.72,297.66z"/>
			</g>
			<g>
				<path class="st5" d="M470.57,278.77c1.03,1.54,1.03,2.6,1.03,3.9v2.53c0,0,0,2.53,0,2.53c0,1.31,0,2.36-1.03,3.9l-1.67,1.96
					v-8.4v-8.4L470.57,278.77z"/>
				<path class="st6" d="M459.89,297.66h3.2c3.21,0,5.81-2.6,5.81-5.81v-13.29c0-3.21-2.6-5.81-5.81-5.81h-3.2
					c-3.21,0-5.81,2.6-5.81,5.81v13.29C454.08,295.06,456.68,297.66,459.89,297.66z"/>
			</g>
		</g>
		<g>
			<path class="st5" d="M692.01,316.68c8.86,0,16.04-7.18,16.04-16.04h3.19c0,10.62-8.61,19.23-19.23,19.23V316.68z"/>
			<path class="st6" d="M683.58,315.4h6.01c1.65,0,2.99,1.34,2.99,2.99v0.46c0,1.65-1.34,2.99-2.99,2.99h-6.01
				c-1.65,0-2.99-1.34-2.99-2.99v-0.46C680.59,316.73,681.93,315.4,683.58,315.4z"/>
			<g>
				<path class="st5" d="M707.86,288.87v-13.19c0-14.26-11.56-25.81-25.81-25.81c-14.26,0-25.81,11.56-25.81,25.81v13.19h-5.67
					v-13.29c0-17.39,14.09-31.48,31.48-31.48c17.39,0,31.48,14.09,31.48,31.48v13.29H707.86z"/>
			</g>
			<g>
				<path class="st5" d="M643.03,286.54c-0.97,1.47-0.97,2.47-0.97,3.71v2.41v2.41c0,1.24,0,2.24,0.97,3.71l1.59,1.86v-7.99v-7.99
					L643.03,286.54z"/>
				<path class="st6" d="M653.19,304.5h-3.04c-3.05,0-5.53-2.47-5.53-5.53v-12.64c0-3.05,2.47-5.53,5.53-5.53h3.04
					c3.05,0,5.53,2.47,5.53,5.53v12.64C658.71,302.03,656.24,304.5,653.19,304.5z"/>
			</g>
			<g>
				<path class="st5" d="M721.51,286.54c0.97,1.47,0.97,2.47,0.97,3.71v2.41v2.41c0,1.24,0,2.24-0.97,3.71l-1.59,1.86v-7.99v-7.99
					L721.51,286.54z"/>
				<path class="st6" d="M711.36,304.5h3.04c3.05,0,5.53-2.47,5.53-5.53v-12.64c0-3.05-2.47-5.53-5.53-5.53h-3.04
					c-3.05,0-5.53,2.47-5.53,5.53v12.64C705.83,302.03,708.31,304.5,711.36,304.5z"/>
			</g>
		</g>
		<polygon class="st10" points="502.17,226.92 497.41,207.68 481.03,200.76 477.93,211.83 486.72,222.9 487.94,232.7 		"/>
		<polygon class="st11" points="447.06,324.34 498.29,303.74 482.23,222.99 500.71,220.79 531.67,305.06 525.29,330.59 
			467.32,369.64 		"/>
		<path class="st4" d="M620.17,27.42l-277.69,1.2c-14.38,0.06-26.1,11.88-26.04,26.26l0.59,137.82
			c0.06,14.38,11.88,26.1,26.26,26.04l192.39-0.83l45.72,61.7l7.99-61.93l31.58-0.14c14.38-0.06,26.1-11.88,26.04-26.26
			l-0.59-137.82C646.37,39.07,634.55,27.36,620.17,27.42z"/>
		<g>
			<g id="XMLID_143_">
				<polygon class="st2" points="713.96,448.79 718.84,455.94 708.95,468.82 697.95,467.93 692.53,459.44 699.45,454.48 
					698.48,452.46 699.87,449.46 				"/>
			</g>
			<g id="XMLID_142_">
				<polygon class="st3" points="712.84,322.91 769.62,388.23 772.4,416.84 716.39,461.06 706.34,446.52 742.56,407.84 
					707.47,373.49 				"/>
			</g>
		</g>
		<g>
			<g>
				<path class="st1" d="M879.43,746.23l14.48-13.37c4.2-2.13,8.65-3.61,12.25-3.57c2.62,0.03,4.79,0.87,6.09,2.86
					c1.26,1.91,1.51,4.42,0.66,6.45c-0.31,0.74-0.76,1.41-1.26,2.04l0,0c0,0-0.01,0.01-0.01,0.01c-0.43,0.54-0.9,1.05-1.37,1.56
					c-0.3,0.32-0.63,0.67-0.98,1.03c-3,3.25-8.02,8.54-10.01,9.73c-2.92,1.75-9.36,6.43-16.96,1.17c0.03-0.03,0.06-0.05,0.09-0.07
					C879.65,752.18,878.84,749.11,879.43,746.23z"/>
				<path class="st10" d="M890.8,629.76l1.17,16.78l5.74,81.71l-5.74,9.51c0,0-1.17,7.6,7.6,7.02c2.61-0.17,11.85-11.92,11.85-11.92
					l-1.34-5.38l6.5-61.35l-0.06-17.82l3.11-19.79L890.8,629.76z"/>
			</g>
			<g>
				<path class="st1" d="M982.59,725.48c2.7-0.85,5.21-0.72,7.22,0.88c1.93,1.53,3.04,4.02,2.85,6.4c-0.13,1.62-0.82,3.12-1.49,4.58
					c-3.5,7.58-13.3,24.72-24.56,21.57c-4.73-1.32-6.52-6.15-5.56-10.41C962.49,742.08,973.57,728.32,982.59,725.48z"/>
			</g>
			<path class="st10" d="M925.87,619.95l1.96,24.17l47.44,85.42c0,0-6.82,11.91-2.49,12.95c4.32,1.03,17.01-2.57,17.03-16.03
				c-4.99-16.29-24.59-71.61-24.59-71.61l-9.18-14.28l0.13-26.83L925.87,619.95z"/>
			<path class="st3" d="M979.47,539.05c0.37-7.12-1.9-25.71-4.25-32.37c-8.53-24.29-10.18-36.26-10.18-56.03
				c0-19.77-3.81-81.54-3.81-81.54l-17.89-19.2l-36.53,1.03l-20.28,6.69c0,0-4.29,78.86-5.51,104.27
				c-0.87,18.14-2.13,33.85-3.79,54.86c0,0-4.65,47.94,2.53,99.32c0,0,1.6,17.06,2.32,18.56c0.1,0.51,0.15,0.78,0.15,0.78
				s0.29,0,0.29,0l81.22,0l0-29.28c2.7-9.4,5.27-18.84,7.73-28.31C974.62,565.81,978.78,552.28,979.47,539.05z"/>
			<path class="st13" d="M962.29,355.44l6.94,8.28c0,0-3.62,74.34-4.18,86.93c-0.56,12.6,15.67,62.94,15.67,62.94l-67.24,8.77
				c0,0-9.89-53.76-12.74-80.47c-2.85-26.71,37.84-91.81,37.84-91.81L962.29,355.44z"/>
			<path class="st16" d="M894.88,354.17l-13.72,6.51c0,0,1.93,80.25-1.59,100.63c-2.15,12.42-10.5,52.66-10.5,52.66l21.72,7.43
				c0,0,13.37-50.33,16.03-77.03c2.66-26.71-0.24-93.12-0.24-93.12L894.88,354.17z"/>
			<g>
				<g>
					<path class="st1" d="M897.54,324.78c-1.78,6.89,2.31,13.71,5.89,19.52c1.46,2.38,3.73,5.68,1.84,8.39
						c-2.11,3.04-7.36,2.43-9.67,0.16c-1.63-1.6-2.43-3.78-3.13-5.9c-3.12-9.5-7.47-22.8-6.61-32.78c0.68-8,10.5-22.22,20.61-17.13
						c1.84,0.92,3.01,2.66,4.02,4.36c0.6,1.02,1.18,2.09,1.3,3.25c0.48,4.63-3.99,5.83-6.93,8.32
						C901.24,316.04,898.68,320.37,897.54,324.78z"/>
					<path class="st10" d="M914.41,349.55c-6.75-0.86-12.4-5.58-15.42-11.26c-3.02-5.68-3.74-12.22-3.62-18.6
						c0.39-21.22,28.53-22.4,39.47-7.15C944.38,325.83,934.05,352.04,914.41,349.55z"/>
					<path class="st1" d="M933.62,322.55c0.23,2.57,1.54,5.29,1.9,7.93c0.66,4.86-0.42,11.17,1.35,15.61
						c4.93-0.68,10.93-3.76,14.59-7.15c3.73-3.46,3.06-8.6,3.9-13.69c0.77-4.71,1.76-9.45,1.49-14.21
						c-1.47-26.1-27.52-40.37-50.46-28.6c-8.68,4.45-12.48,15.77-6.09,23.21c6.87,8,20.82,4.53,29.05,10.47
						C931.17,317.44,932.57,319.8,933.62,322.55z"/>
				</g>
				<path class="st10" d="M913.85,347.36c0.34,1.58,0.69,3.16,1.03,4.74c0.16,0.72,0.1,2.8,0.72,3.29c0.32,0.26,0.81,0.22,1.23,0.17
					c1.22-0.15,12.14-1.54,12.02-2.23c-0.32-1.86-0.68-3.69-1.26-5.46c-0.47-1.44-0.65-4.14-1.52-5.23
					c-1.85,1.27-3.77,2.05-5.96,2.67c-2.11,0.6-4.23,1.16-6.36,1.69C913.8,347.11,913.82,347.23,913.85,347.36z"/>
			</g>
			<polygon class="st10" points="870.16,254.44 876.85,234.71 894.61,228.91 896.88,240.78 886.7,251.59 884.56,261.75 			"/>
			<polygon class="st13" points="906.3,372.07 868.64,337.35 891.39,252.08 872.24,248.15 832.37,333.67 836.8,360.97 
				894.06,406.99 			"/>
			<g>
				<path class="st5" d="M910.17,348.55c-9.05,0-16.39-7.34-16.39-16.39h-3.26c0,10.85,8.8,19.65,19.65,19.65V348.55z"/>
				<path class="st6" d="M918.79,347.23h-6.14c-1.69,0-3.05,1.37-3.05,3.05v0.47c0,1.69,1.37,3.05,3.05,3.05h6.14
					c1.69,0,3.05-1.37,3.05-3.05v-0.47C921.85,348.6,920.48,347.23,918.79,347.23z"/>
				<g>
					<path class="st5" d="M893.98,320.12v-13.48c0-14.57,11.81-26.38,26.38-26.38c14.57,0,26.38,11.81,26.38,26.38v13.48h5.8v-13.58
						c0-17.77-14.41-32.18-32.18-32.18c-17.77,0-32.18,14.41-32.18,32.18v13.58H893.98z"/>
				</g>
				<g>
					<path class="st17" d="M960.24,317.73c1,1.5,1,2.52,1,3.79v2.46v2.46c0,1.27,0,2.29-1,3.79l-1.63,1.91v-8.16v-8.16
						L960.24,317.73z"/>
					<path class="st6" d="M949.86,336.1h3.11c3.12,0,5.65-2.53,5.65-5.65v-12.92c0-3.12-2.53-5.65-5.65-5.65h-3.11
						c-3.12,0-5.65,2.53-5.65,5.65v12.92C944.21,333.57,946.74,336.1,949.86,336.1z"/>
				</g>
				<g>
					<path class="st17" d="M880.02,317.73c-1,1.5-1,2.52-1,3.79v2.46v2.46c0,1.27,0,2.29,1,3.79l1.63,1.91v-8.16v-8.16
						L880.02,317.73z"/>
					<path class="st6" d="M890.4,336.1h-3.11c-3.12,0-5.65-2.53-5.65-5.65v-12.92c0-3.12,2.53-5.65,5.65-5.65h3.11
						c3.12,0,5.65,2.53,5.65,5.65v12.92C896.04,333.57,893.52,336.1,890.4,336.1z"/>
				</g>
			</g>
			<g>
				<g>
					<g>
						<path class="st11" d="M817.22,295.13c-8.27-1.99-16.09-0.79-23.23,3.58c-7.14,4.37-11.78,10.78-13.77,19.05
							c-2,8.28-0.79,16.1,3.58,23.23c4.37,7.14,10.78,11.77,19.05,13.77c3.28,0.79,6.49,1.08,9.62,0.86
							c4.75-0.33,9.3-1.81,13.62-4.44c7.14-4.37,11.77-10.78,13.77-19.05c1.99-8.27,0.79-16.08-3.58-23.24
							C831.89,301.76,825.48,297.13,817.22,295.13z"/>
					</g>
					<g class="st18">
						<g>
							<path d="M836.27,308.9c-4.38-7.14-10.79-11.77-19.05-13.77c-2.67-0.64-5.29-0.95-7.86-0.93c5.28,2.49,9.56,6.35,12.75,11.56
								c4.37,7.15,5.57,14.97,3.58,23.24c-1.99,8.27-6.63,14.68-13.77,19.05c-4.31,2.63-8.87,4.12-13.62,4.44
								c-0.58,0.04-1.17,0.06-1.76,0.06c1.96,0.93,4.07,1.67,6.31,2.21c3.28,0.79,6.49,1.08,9.62,0.86
								c4.75-0.33,9.3-1.81,13.62-4.44c7.14-4.37,11.77-10.78,13.77-19.05C841.84,323.87,840.64,316.05,836.27,308.9z"/>
						</g>
					</g>
					<g>
						<path class="st11" d="M973.78,83.89c-14.15-21.21-36.49-35.61-66.38-42.81c-29.89-7.2-56.47-4.59-79.01,7.76
							c-19.59,10.74-33.34,27.62-40.85,50.17c-1.27,3.8-0.88,7.99,1.07,11.49c1.94,3.5,5.29,6.05,9.18,6.99l17.8,4.29
							c7.1,1.71,14.35-2.19,16.84-9.07c4.43-12.21,11.31-20.76,21.04-26.13c11.78-6.51,26.44-7.71,43.59-3.58
							c17.09,4.12,29.45,12.04,36.72,23.55c7.24,11.47,8.87,25.78,4.83,42.54c-5.56,23.1-15.93,37.07-30.81,41.51
							c-15.67,4.68-38.21,3.38-67.05-3.87l-7.7-1.86c-7.69-1.85-15.45,2.9-17.3,10.58l-16.16,67.08c-0.9,3.72-0.29,7.58,1.71,10.84
							c2,3.27,5.15,5.56,8.88,6.46l18.06,4.35c1.46,0.35,2.91,0.46,4.33,0.37c6.08-0.42,11.47-4.72,12.97-10.95l10.47-43.44
							c0.13-0.54,0.67-0.88,1.21-0.77c33.86,7.21,61.51,5.96,82.17-3.7c21.98-10.27,36.94-31.36,44.49-62.67
							C991.39,131.83,988,105.21,973.78,83.89z"/>
					</g>
					<g class="st18">
						<g>
							<path d="M973.78,83.89c-14.15-21.21-36.49-35.61-66.38-42.81c-18.5-4.46-35.74-5.15-51.54-2.1
								c8.43,0.38,17.17,1.66,26.22,3.84c29.89,7.2,52.23,21.61,66.38,42.81c14.21,21.32,17.61,47.94,10.09,79.13
								c-7.54,31.31-22.51,52.4-44.49,62.67c-6.35,2.97-13.35,5.14-21,6.51c18,0.49,33.5-2.26,46.31-8.25
								c21.98-10.27,36.94-31.36,44.49-62.67C991.39,131.83,988,105.21,973.78,83.89z"/>
						</g>
					</g>
				</g>
			</g>
			<g>
				<g>
					<g>
						<path class="st1" d="M928.87,598.8l-118.77-3.85c-0.96-0.03-1.72-0.84-1.69-1.8l6.56-202.02c0.03-0.96,0.84-1.72,1.8-1.69
							l118.77,3.85c0.96,0.03,1.72,0.84,1.69,1.8l-6.56,202.02C930.64,598.07,929.84,598.83,928.87,598.8z"/>
					</g>
					
						<rect x="821.02" y="402.01" transform="matrix(0.9995 0.0324 -0.0324 0.9995 16.2009 -28.0648)" class="st19" width="104.18" height="166.6"/>
					<path class="st19" d="M882.34,588.98l-25.16-0.82c-0.61-0.02-1.09-0.53-1.07-1.14l0.21-6.5c0.02-0.61,0.53-1.09,1.14-1.07
						l25.16,0.82c0.61,0.02,1.09,0.53,1.07,1.14l-0.21,6.5C883.46,588.52,882.95,589,882.34,588.98z"/>
				</g>
			</g>
			<g>
				<polygon class="st10" points="954.75,484.22 946.28,503.25 928.05,507.39 926.89,495.36 938.02,485.53 941.09,475.61 				"/>
				<polygon class="st13" points="946.4,367.79 971.75,422.9 941.09,475.61 953.66,487.27 996.8,433.12 1003.31,414.52 
					969.23,363.72 				"/>
			</g>
		</g>
		<g>
			<polygon class="st2" points="279.73,319.73 277.94,311.9 279.87,310.02 283.73,313.4 288.71,303.36 296.91,298.46 301.17,303.08 
				294.14,313.83 289.55,320.61 285.65,334.85 278.9,332.77 			"/>
			<path class="st4" d="M269.52,361.67c2.64-12.88,4.66-25.88,6.05-38.95c5.45-0.44,11.01,0.42,16.07,2.48
				c1.36,23.08,0.3,46.3-3.17,69.16c-0.15,0.98-0.36,2.06-1.14,2.67c-0.66,0.51-1.55,0.56-2.38,0.56c-8.08,0-15.96-2.37-23.6-5
				c-11.65-4.01-23.08-8.67-34.21-13.96c1.24-7.04,1.5-14.25,0.79-21.36c-0.98-9.83,1.28-23.27,13.38-15.7
				C244.58,343.63,270.08,358.96,269.52,361.67z"/>
		</g>
	</g>
</g>
</svg>