<?xml version="1.0" encoding="utf-8"?>
<!-- Generator: Adobe Illustrator 25.4.1, SVG Export Plug-In . SVG Version: 6.00 Build 0)  -->
<svg version="1.1" id="Illustration" xmlns="http://www.w3.org/2000/svg" xmlns:xlink="http://www.w3.org/1999/xlink" x="0px"
	 y="0px" viewBox="0 0 3710 3710" style="enable-background:new 0 0 710 3710;" xml:space="preserve">
<style type="text/css">
	.st0{fill:url(#SVGID_1_);}
	.st1{fill:url(#SVGID_00000137854680222978231930000003312510850689888443_);}
	.st2{fill:#BDFBFA;}
	.st3{fill:url(#SVGID_00000152943772047803293200000012306668916012628660_);}
	.st4{fill:#91FAF7;}
	.st5{fill:#7DE8F4;}
	.st6{fill:url(#SVGID_00000057866960578352871860000013361888835518726800_);}
	.st7{filter:url(#Adobe_OpacityMaskFilter);}
	.st8{filter:url(#Adobe_OpacityMaskFilter_00000155136494350299741550000009849885539402986411_);}
	
		.st9{mask:url(#SVGID_00000024713857556481029930000007930835932437696447_);fill:url(#SVGID_00000036967357674664433420000013888359936251409820_);}
	.st10{opacity:0.53;fill:url(#SVGID_00000047745632771491742270000002510349266117930373_);}
	.st11{fill:url(#SVGID_00000155143071838490982610000003465510965931612550_);}
	.st12{fill:url(#SVGID_00000152954628228128661770000000171509592207389063_);}
	.st13{fill:url(#SVGID_00000168828946404448662890000004071701354220352660_);}
	.st14{fill:url(#SVGID_00000093174640128848391070000002838557403131742871_);}
	.st15{fill:url(#SVGID_00000109003384719477423790000005874960224999859346_);}
	.st16{opacity:0.78;fill:#FFFFFF;}
	.st17{fill:url(#SVGID_00000065766140079160986410000012590179769019073726_);}
	.st18{fill:url(#SVGID_00000051345538171371803460000014337840191244692133_);}
	.st19{fill:url(#SVGID_00000104691394694712909690000011838237240033994924_);}
	.st20{fill:#FFFFFF;}
	.st21{fill:url(#SVGID_00000116926511534745994540000011506243942501651856_);}
	.st22{fill:url(#SVGID_00000044157150040903331560000014022064241097747866_);}
	.st23{fill:url(#SVGID_00000029021253896594453670000007003069595746592407_);}
	.st24{fill:url(#SVGID_00000052802904312847665030000003510562943281203886_);}
	.st25{fill:url(#SVGID_00000125581399907692764950000003372097364549273224_);}
	.st26{fill:url(#SVGID_00000179637118818074939050000013774474433228646311_);}
	.st27{fill:url(#SVGID_00000169538073580883189350000012189416418265109942_);}
	.st28{fill:url(#SVGID_00000163043108657702682050000006133755978926634403_);}
	.st29{fill:url(#SVGID_00000053506905751715957250000013807341251563902374_);}
	.st30{fill:url(#SVGID_00000156572083377088442350000014518776664311292555_);}
	.st31{fill:url(#SVGID_00000039128726399906049140000002197673796983252382_);}
	.st32{fill:url(#SVGID_00000121976110718041870060000001539299752486475429_);}
	.st33{fill:url(#SVGID_00000061430599801386777530000008986542135575176348_);}
	.st34{fill:url(#SVGID_00000107547124280544823120000002848830203824966802_);}
	.st35{fill:url(#SVGID_00000010991154611125352810000013269733720255631751_);}
	.st36{fill:url(#SVGID_00000074422822089951678250000016491823223788576670_);}
	.st37{fill:url(#SVGID_00000110453469201717885050000001465816055661148802_);}
	.st38{fill:url(#SVGID_00000066482006275533695830000015899109641875705781_);}
	.st39{fill:url(#SVGID_00000071525345705546349310000006516238033764814485_);}
	.st40{fill:url(#SVGID_00000077311472856276898790000001596347199010941882_);}
	.st41{fill:url(#SVGID_00000173158797230068534450000012700974955869249167_);}
	.st42{fill:url(#SVGID_00000183240500729189620600000003978417852513283504_);}
	.st43{fill:url(#SVGID_00000025418035310695109960000000573876188295734695_);}
	.st44{fill:url(#SVGID_00000099631445276759846530000001506474762048193708_);}
	.st45{fill:url(#SVGID_00000078751496274399854930000015266710189624517040_);}
	.st46{fill:url(#SVGID_00000170973232989625098140000013808887643699602059_);}
	.st47{fill:url(#SVGID_00000124874147551962046890000001398829300390097331_);}
	.st48{fill:url(#SVGID_00000018925669974782706600000002053904672458006919_);}
	.st49{fill:url(#SVGID_00000126283796192660242330000004559318501851445646_);}
	.st50{fill:url(#SVGID_00000168821548295857372070000013740953782545865389_);}
	.st51{fill:url(#SVGID_00000116193418413246103080000012062426626194737289_);}
	.st52{fill:url(#SVGID_00000153664175181963597500000001402134477397068728_);}
	.st53{fill:url(#SVGID_00000085955986316543348840000006229928559689072265_);}
	.st54{fill:url(#SVGID_00000007395975822396999170000018259583465005462452_);}
	.st55{fill:url(#SVGID_00000043447591139257105290000015626367450339385775_);}
	.st56{fill:url(#SVGID_00000102516611009837792260000007146345669728725408_);}
	.st57{fill:url(#SVGID_00000138555762625595548710000008246441571126881983_);}
	.st58{fill:url(#SVGID_00000127021242680870031520000013161509870548366496_);}
	.st59{fill:url(#SVGID_00000034088485250526633230000006184217164858744238_);}
	.st60{fill:url(#SVGID_00000029742812600632125950000009209562637288211845_);}
	.st61{fill:url(#SVGID_00000158030538161073335980000015200713292201137803_);}
	.st62{fill:url(#SVGID_00000181791535346619719450000012702188152270312875_);}
	.st63{fill:url(#SVGID_00000143576286723214085510000018396419502042524344_);}
	.st64{fill:url(#SVGID_00000105401663810380860070000000454821257310409149_);}
	.st65{fill:url(#SVGID_00000140709831795312063540000011767328021786329260_);}
	.st66{fill:url(#SVGID_00000029751670781009325470000013904121157116992945_);}
	.st67{fill:url(#SVGID_00000017488485176298509390000009612216754570542242_);}
	.st68{fill:url(#SVGID_00000020357633956716601390000010844115935494395296_);}
</style>
<g>
	<linearGradient id="SVGID_1_" gradientUnits="userSpaceOnUse" x1="3397.7593" y1="3498.6121" x2="1540.7953" y2="1521.8446">
		<stop  offset="0" style="stop-color:#DAFCFE"/>
		<stop  offset="1" style="stop-color:#E9FDFD"/>
	</linearGradient>
	<path class="st0" d="M2840.21,2705.54c-68.55,70.66-129.89,112.2-176.85,143.55c-458.01,305.82-981.57,217.67-1143.44,187.55
		c-261.16-48.61-481.61-82.9-671.02-254.02c-430.4-388.85-409.46-1200.01-80.59-1702.49c38.99-59.58,367.37-546.34,892.06-614.93
		c12.83-1.68,22.41-2.63,30.8-3.52c81.17-8.59,584.15-53.95,994.29,289.66c58.71,49.19,153.19,137.91,240.8,273.22
		C3246.6,1519.32,3247.62,2285.6,2840.21,2705.54z"/>
	<g>
		
			<linearGradient id="SVGID_00000089559536689431383790000001013449204071436967_" gradientUnits="userSpaceOnUse" x1="2421.4595" y1="2151.8665" x2="3017.4019" y2="2151.8665">
			<stop  offset="0" style="stop-color:#4FADFF"/>
			<stop  offset="1" style="stop-color:#4095E2"/>
		</linearGradient>
		<path style="fill:url(#SVGID_00000089559536689431383790000001013449204071436967_);" d="M2591.85,1409.78l233.62-54.39
			c0,0,156.2-14.04,177.32,124.79c21.12,138.83,15,961.35,8.39,1130.98c-2.18,55.91-1.91,107.57,2.85,152.62
			c9.91,93.83-63.3,175.79-157.64,177.43l-434.92,7.53L2591.85,1409.78z"/>
		<g>
			<path class="st2" d="M2467.56,3015.58c0,0,46.67-654.39,378.61-1053.29c4.33-5.2,11.82-3.9,14.11,2.5
				C2896.46,2065.84,3099.76,2715.67,2467.56,3015.58z"/>
			
				<linearGradient id="SVGID_00000090283123519223187950000008076647646833452437_" gradientUnits="userSpaceOnUse" x1="2480.5415" y1="2567.3408" x2="2831.8562" y2="2567.3408">
				<stop  offset="0" style="stop-color:#DAFCFE"/>
				<stop  offset="1" style="stop-color:#E9FDFD"/>
			</linearGradient>
			<path style="fill:url(#SVGID_00000090283123519223187950000008076647646833452437_);" d="M2831.85,2152.19
				c-2.8,38.18-8.32,75.85-14.73,113.46c-6.62,37.55-14.4,74.9-23.56,111.94c-18.27,74.08-41.12,147.13-69.23,218.22
				c-14.17,35.49-29.2,70.67-46.02,105.01c-8.15,17.29-17.25,34.13-25.97,51.14c-9.26,16.73-18.31,33.58-28.34,49.88
				c-38.85,65.85-84.36,127.91-136.31,183.76c-1.55,1.66-4.15,1.76-5.82,0.21c-1.57-1.46-1.74-3.85-0.47-5.52l0.04-0.05
				c46.23-59.92,87.88-122.91,124-189.03c9.31-16.36,17.59-33.3,26.46-49.9c8.24-16.94,16.85-33.68,24.52-50.88
				c3.85-8.59,8.03-17.03,11.76-25.68l11.37-25.86c3.73-8.65,7.23-17.39,10.85-26.08c3.67-8.67,7.09-17.45,10.47-26.24
				c7.02-17.48,13.54-35.16,20.13-52.82c6.28-17.77,12.56-35.54,18.43-53.46c12.11-35.72,22.87-71.89,33.25-108.18
				c10.17-36.35,19.63-72.94,28.12-109.76c8.66-36.77,16.34-73.9,22.87-111.04l0.02-0.12c0.39-2.24,2.53-3.74,4.77-3.34
				C2830.55,2148.2,2831.99,2150.11,2831.85,2152.19z"/>
		</g>
		<g>
			<path class="st4" d="M2508.7,2943.95c0,0,342.19-575.59,714.48-584.6c6.61-0.16,11.62,5.91,10.26,12.37
				C3217.6,2446.96,3106.75,2840.81,2508.7,2943.95z"/>
			<path class="st2" d="M3144.36,2450.67c-22.56,23.68-45.79,46.47-69.34,69.03c-11.89,11.14-23.79,22.27-35.81,33.28
				c-12.12,10.88-24.11,21.93-36.35,32.68c-48.85,43.14-99.23,84.57-150.93,124.27c-25.65,20.11-52.23,39-78.45,58.35l-40.12,27.95
				c-6.7,4.64-13.35,9.35-20.12,13.88l-20.48,13.36c-54.1,36.41-110.63,69.05-167.56,100.75c-1.99,1.11-4.49,0.39-5.6-1.59
				c-1.09-1.96-0.41-4.42,1.51-5.55l0.11-0.06l42.01-24.64l21-12.32c6.94-4.21,13.75-8.63,20.63-12.93l41.27-25.84
				c13.6-8.85,27.04-17.97,40.56-26.94l20.26-13.5l19.94-13.96l39.86-27.97c26.06-19.36,52.46-38.26,77.95-58.38
				c25.83-19.67,51.09-40.07,76.37-60.44l37.44-31.15l36.98-31.7c12.32-10.58,24.37-21.45,36.57-32.17
				c12.09-10.84,24.06-21.8,36.03-32.77c23.83-22.02,47.52-44.33,70.27-67.34l0.06-0.06c1.6-1.62,4.2-1.63,5.82-0.03
				C3145.87,2446.49,3145.9,2449.05,3144.36,2450.67z"/>
		</g>
		<path class="st5" d="M2116.91,1421.07c0,0,425.38,23.37,708.55-65.68c0,0-188.25-12.9-188.25,421.72
			c0,332.29,49.28,966.54,6.25,1086.94c-43.03,120.4-203.92,282.24-434.56,143.15C1978.27,2868.11,2116.91,1421.07,2116.91,1421.07z
			"/>
		
			<linearGradient id="SVGID_00000156589595039188707150000009326056896167786926_" gradientUnits="userSpaceOnUse" x1="2503.8081" y1="1242.8999" x2="1654.1923" y2="-523.1577">
			<stop  offset="0" style="stop-color:#4095E2"/>
			<stop  offset="1" style="stop-color:#4FADFF"/>
		</linearGradient>
		<path style="fill:url(#SVGID_00000156589595039188707150000009326056896167786926_);" d="M2003.82,769.47
			c0,0,469.34,51.16,529.8-28.39c0,0-48.1-143.17-190.93-133.65C2199.87,616.96,2003.82,769.47,2003.82,769.47z"/>
		<path class="st4" d="M477.36,930.55c40.93,459.95,126.89,1432.82,164.29,1906.73c8.34,105.65,93.02,189.1,198.78,195.89
			c376.74,24.18,1224.59,71.1,1549.96,27.45h0c-74.53-36.74-121.47-112.9-120.79-195.99l17.28-2126.56
			c0.61-75.14,75.45-129.14,145.82-102.77c44.33,16.61,77.9,52,100.92,105.79c-30.72-89.52-79.03-155.01-190.93-133.65
			c0,0-1094.37,10.94-1625.43,43.87C572.97,660.25,464.55,786.54,477.36,930.55z"/>
		<defs>
			<filter id="Adobe_OpacityMaskFilter" filterUnits="userSpaceOnUse" x="519.16" y="655.56" width="1768.54" height="2390.98">
				<feFlood  style="flood-color:white;flood-opacity:1" result="back"/>
				<feBlend  in="SourceGraphic" in2="back" mode="normal"/>
			</filter>
		</defs>
		
			<mask maskUnits="userSpaceOnUse" x="519.16" y="655.56" width="1768.54" height="2390.98" id="SVGID_00000031914441552296838920000003096024448535954351_">
			<g class="st7">
				<defs>
					
						<filter id="Adobe_OpacityMaskFilter_00000125598034205597748980000014090305950881701812_" filterUnits="userSpaceOnUse" x="519.16" y="655.56" width="1768.54" height="2390.98">
						<feFlood  style="flood-color:white;flood-opacity:1" result="back"/>
						<feBlend  in="SourceGraphic" in2="back" mode="normal"/>
					</filter>
				</defs>
				
					<mask maskUnits="userSpaceOnUse" x="519.16" y="655.56" width="1768.54" height="2390.98" id="SVGID_00000031914441552296838920000003096024448535954351_">
					<g style="filter:url(#Adobe_OpacityMaskFilter_00000125598034205597748980000014090305950881701812_);">
					</g>
				</mask>
				
					<linearGradient id="SVGID_00000067928038411034838930000010817475279890318248_" gradientUnits="userSpaceOnUse" x1="2068.2991" y1="1106.5225" x2="-196.0579" y2="4004.2043">
					<stop  offset="0" style="stop-color:#FFFFFF"/>
					<stop  offset="1" style="stop-color:#000000"/>
				</linearGradient>
				
					<path style="mask:url(#SVGID_00000031914441552296838920000003096024448535954351_);fill:url(#SVGID_00000067928038411034838930000010817475279890318248_);" d="
					M748.08,712.17l1470.51-56.61c-60.65,449.01-35.05,1363.4-11.91,2264.54c1.37,53.42,32.7,101.5,81.02,124.34l0,0
					c0,0-980.82,11.3-1402.26-18.59c-99.23-7.04-180.18-82.12-194.92-180.5c-57.86-386.09-196.28-1383.49-167.47-1911.53
					C529.66,812.89,627.07,716.83,748.08,712.17z"/>
			</g>
		</mask>
		
			<linearGradient id="SVGID_00000040550805010588121640000003012266464143713160_" gradientUnits="userSpaceOnUse" x1="2068.2991" y1="1106.5225" x2="-196.0579" y2="4004.2043">
			<stop  offset="0" style="stop-color:#FFFFFF"/>
			<stop  offset="1" style="stop-color:#FFFFFF"/>
		</linearGradient>
		<path style="opacity:0.53;fill:url(#SVGID_00000040550805010588121640000003012266464143713160_);" d="M748.08,712.17
			l1470.51-56.61c-60.65,449.01-35.05,1363.4-11.91,2264.54c1.37,53.42,32.7,101.5,81.02,124.34l0,0c0,0-980.82,11.3-1402.26-18.59
			c-99.23-7.04-180.18-82.12-194.92-180.5c-57.86-386.09-196.28-1383.49-167.47-1911.53C529.66,812.89,627.07,716.83,748.08,712.17z
			"/>
		<g>
			
				<linearGradient id="SVGID_00000120545672213886490770000009170897451147835046_" gradientUnits="userSpaceOnUse" x1="728.2858" y1="1481.8649" x2="963.3754" y2="1481.8649">
				<stop  offset="0" style="stop-color:#DAFCFE"/>
				<stop  offset="1" style="stop-color:#E9FDFD"/>
			</linearGradient>
			<path style="fill:url(#SVGID_00000120545672213886490770000009170897451147835046_);" d="M728.62,1408.64l17.16,164.71
				c3.15,30.19,28.01,53.48,58.34,54.64l95.9,3.68c34.59,1.33,63.35-26.35,63.35-60.97v-177.69c0-35.67-30.46-63.73-66.01-60.81
				l-113.06,9.29C750.2,1344.31,725.07,1374.61,728.62,1408.64z"/>
			
				<linearGradient id="SVGID_00000085957148882416745500000012728992678275735465_" gradientUnits="userSpaceOnUse" x1="1032.3932" y1="1379.6897" x2="2028.5472" y2="1379.6897">
				<stop  offset="0" style="stop-color:#DAFCFE"/>
				<stop  offset="1" style="stop-color:#E9FDFD"/>
			</linearGradient>
			<path style="fill:url(#SVGID_00000085957148882416745500000012728992678275735465_);" d="M1065.85,1357.87
				c159.61-4.96,772.33-24.88,927.05-29.92c19.52-0.63,35.65,15.01,35.65,34.54l0,0c0,18.59-14.7,33.84-33.28,34.53l-926.45,34.4
				c-17.85,0.66-33.26-12.38-35.55-30.09l-0.58-4.48C1030.06,1376.6,1045.44,1358.5,1065.85,1357.87z"/>
			
				<linearGradient id="SVGID_00000106842121157107376270000005992055852253846154_" gradientUnits="userSpaceOnUse" x1="1050.655" y1="1539.606" x2="1719.2996" y2="1539.606">
				<stop  offset="0" style="stop-color:#DAFCFE"/>
				<stop  offset="1" style="stop-color:#E9FDFD"/>
			</linearGradient>
			<path style="fill:url(#SVGID_00000106842121157107376270000005992055852253846154_);" d="M1055.83,1575.01L1055.83,1575.01
				c2.71,4.54,7.65,7.28,12.94,7.17l636.15-13.82c7.99-0.17,14.38-6.7,14.38-14.7v-41.94c0-8.33-6.92-15-15.25-14.69l-618.41,23.12
				C1058.1,1521.19,1041.71,1551.34,1055.83,1575.01z"/>
		</g>
		<g>
			
				<linearGradient id="SVGID_00000152238132966556362340000012473099733389601921_" gradientUnits="userSpaceOnUse" x1="728.2858" y1="1939.009" x2="963.3754" y2="1939.009">
				<stop  offset="0" style="stop-color:#DAFCFE"/>
				<stop  offset="1" style="stop-color:#E9FDFD"/>
			</linearGradient>
			<path style="fill:url(#SVGID_00000152238132966556362340000012473099733389601921_);" d="M728.62,1865.78l17.16,164.71
				c3.15,30.19,28.01,53.48,58.34,54.64l95.9,3.68c34.59,1.33,63.35-26.35,63.35-60.97v-177.69c0-35.67-30.46-63.73-66.01-60.81
				l-113.06,9.29C750.2,1801.46,725.07,1831.75,728.62,1865.78z"/>
			
				<linearGradient id="SVGID_00000067237439453550619860000011478052056059990933_" gradientUnits="userSpaceOnUse" x1="1032.3932" y1="1836.8341" x2="2028.5472" y2="1836.8341">
				<stop  offset="0" style="stop-color:#DAFCFE"/>
				<stop  offset="1" style="stop-color:#E9FDFD"/>
			</linearGradient>
			<path style="fill:url(#SVGID_00000067237439453550619860000011478052056059990933_);" d="M1065.85,1815.01
				c159.61-4.96,772.33-24.88,927.05-29.92c19.52-0.64,35.65,15.01,35.65,34.54v0c0,18.59-14.7,33.84-33.28,34.53l-926.45,34.39
				c-17.85,0.66-33.26-12.38-35.55-30.09l-0.58-4.48C1030.06,1833.74,1045.44,1815.65,1065.85,1815.01z"/>
			<path class="st16" d="M1055.83,2032.16L1055.83,2032.16c2.71,4.54,7.65,7.28,12.94,7.17l636.15-13.82
				c7.99-0.17,14.38-6.7,14.38-14.69v-41.94c0-8.33-6.92-15-15.25-14.69l-618.41,23.12
				C1058.1,1978.33,1041.71,2008.48,1055.83,2032.16z"/>
		</g>
		<g>
			
				<linearGradient id="SVGID_00000181774037162932219160000016370536552263588497_" gradientUnits="userSpaceOnUse" x1="728.2858" y1="2396.1533" x2="963.3754" y2="2396.1533">
				<stop  offset="0" style="stop-color:#DAFCFE"/>
				<stop  offset="1" style="stop-color:#E9FDFD"/>
			</linearGradient>
			<path style="fill:url(#SVGID_00000181774037162932219160000016370536552263588497_);" d="M728.62,2322.93l17.16,164.71
				c3.15,30.19,28.01,53.48,58.34,54.64l95.9,3.68c34.59,1.33,63.35-26.35,63.35-60.97v-177.69c0-35.67-30.46-63.73-66.01-60.81
				l-113.06,9.29C750.2,2258.6,725.07,2288.89,728.62,2322.93z"/>
			
				<linearGradient id="SVGID_00000147942552521035786990000004223585234040689579_" gradientUnits="userSpaceOnUse" x1="1032.3932" y1="2293.9783" x2="2028.5472" y2="2293.9783">
				<stop  offset="0" style="stop-color:#DAFCFE"/>
				<stop  offset="1" style="stop-color:#E9FDFD"/>
			</linearGradient>
			<path style="fill:url(#SVGID_00000147942552521035786990000004223585234040689579_);" d="M1065.85,2272.16
				c159.61-4.96,772.33-24.88,927.05-29.92c19.52-0.63,35.65,15.01,35.65,34.54l0,0c0,18.59-14.7,33.84-33.28,34.53l-926.45,34.39
				c-17.85,0.66-33.26-12.38-35.55-30.09l-0.58-4.48C1030.06,2290.89,1045.44,2272.79,1065.85,2272.16z"/>
			
				<linearGradient id="SVGID_00000152971621580258964960000008427683900644368788_" gradientUnits="userSpaceOnUse" x1="1050.655" y1="2453.8945" x2="1719.2996" y2="2453.8945">
				<stop  offset="0" style="stop-color:#DAFCFE"/>
				<stop  offset="1" style="stop-color:#E9FDFD"/>
			</linearGradient>
			<path style="fill:url(#SVGID_00000152971621580258964960000008427683900644368788_);" d="M1055.83,2489.3L1055.83,2489.3
				c2.71,4.54,7.65,7.28,12.94,7.17l636.15-13.82c7.99-0.17,14.38-6.7,14.38-14.69v-41.94c0-8.33-6.92-15-15.25-14.69l-618.41,23.12
				C1058.1,2435.48,1041.71,2465.63,1055.83,2489.3z"/>
		</g>
		<path class="st20" d="M2581.97,2371.15c-3.89,0-7.08-3.12-7.16-7.02c0-0.22-0.44-22.77-2.61-100.07c-0.11-3.95,3-7.25,6.95-7.36
			c3.86-0.2,7.25,3,7.36,6.95c2.17,77.39,2.61,99.98,2.62,100.2c0.07,3.95-3.07,7.22-7.02,7.29
			C2582.06,2371.15,2582.01,2371.15,2581.97,2371.15z"/>
		<path class="st20" d="M2576.76,2182.48c-3.86,0-7.03-3.06-7.15-6.94c-1.54-50.31-3.94-105.93-6.48-164.82
			c-3.43-79.56-6.98-161.84-8.85-241.09c-4.94-209.17,29.56-289.46,59.38-319.99c16.2-16.59,29.78-17.07,31.28-17.07
			c3.95,0,7.16,3.21,7.16,7.16c0,3.91-3.13,7.08-7.02,7.16c-1.63,0.12-83.88,9.15-76.48,322.41c1.87,79.12,5.41,161.32,8.84,240.81
			c2.54,58.93,4.94,114.6,6.48,165c0.12,3.95-2.98,7.25-6.94,7.37C2576.91,2182.48,2576.84,2182.48,2576.76,2182.48z"/>
		
			<linearGradient id="SVGID_00000078015561926701030550000018406356853188351883_" gradientUnits="userSpaceOnUse" x1="1837.3134" y1="2297.5972" x2="1524.3291" y2="3098.926">
			<stop  offset="0" style="stop-color:#052669"/>
			<stop  offset="1" style="stop-color:#0F3D91"/>
		</linearGradient>
		<path style="fill:url(#SVGID_00000078015561926701030550000018406356853188351883_);" d="M1539.33,2953.92
			c-7.26,0-14.52-3.43-22.2-10.48c-28.19-25.9-35.47-65.71-37.45-103.57c-13.01,14.56-26.32,28.74-39.48,42.76l-7.28-6.83
			c15.45-16.47,31.12-33.16,46.23-50.4c-1.25-51.86,1.14-104.27,7.11-155.82c3.66-31.61,8.94-65.05,22.64-95.56
			c4.37-9.73,11.61-23.67,24.08-32.39c13.01-9.1,30.06-10.09,41.48-2.42c12.83,8.62,16.29,24.96,17.77,36.5
			c8.72,67.82-17.74,129.99-41.47,170.19c-17.62,29.85-38.95,57.16-61.54,83.13c1.17,38.76,6.54,81.22,34.66,107.05
			c5.92,5.44,11.08,8.02,15.91,7.84c7.93-0.29,14.34-7.98,19.57-15.46c23.77-34.05,42.26-70.97,55.19-110.12
			c1.51-11.78,4.8-23.34,9.81-34.12l9.38,3.28c-2.72,11.18-5.86,22.2-9.41,33.05c-1.32,11.09-0.92,22.38,1.28,33.35
			c1.17,5.83,6.09,25.07,20.29,27.78c10.6,2,21.64-6.01,33.84-24.55l50-76.01l-6.32,27.21c-2.23,9.61-5.97,32.55,7.44,38.06
			c7.63,3.14,15.7-1.4,25.04-6.67c9.29-5.23,18.88-10.65,29.79-9.19l5.15,0.69l-0.88,5.11c-0.51,2.93-4.55,28.66,8.8,31.61
			c6.11,1.36,11.22-2.88,18.92-10c6.05-5.6,12.31-11.38,20.55-13.38l2.35,9.71c-5.71,1.38-10.76,6.05-16.11,11
			c-7.6,7.03-16.19,14.99-27.86,12.42c-15.2-3.36-18.93-20.48-17.29-37.19c-5.99,0.87-12.11,4.32-18.51,7.93
			c-10.14,5.71-21.64,12.18-33.74,7.2c-9.99-4.11-15.4-14.03-15.81-28.23l-23.17,35.22c-9.35,14.22-24.07,32.7-44.06,28.88
			c-13.72-2.61-24.27-15.93-28.22-35.62c-0.55-2.74-1-5.51-1.34-8.28c-12.26,30.45-27.95,59.42-46.93,86.6
			c-6.25,8.95-15.01,19.28-27.39,19.73C1539.88,2953.91,1539.6,2953.92,1539.33,2953.92z M1556.71,2543.98
			c-6.56,0-13.19,2.46-18,5.83c-10.44,7.3-16.81,19.65-20.7,28.3c-13.14,29.27-18.26,61.82-21.83,92.62
			c-5.5,47.41-7.93,95.57-7.26,143.34c19.56-23.07,37.89-47.23,53.25-73.25c22.94-38.86,48.53-98.83,40.17-163.84
			c-1.97-15.27-6.24-24.64-13.44-29.48C1565.19,2545.01,1560.96,2543.98,1556.71,2543.98z"/>
		<path class="st16" d="M1977.61,1152.06l-1171.46,34.76c-42.08,1.25-77.42-31.41-79.48-73.46l-4.3-87.63
			c-2.12-43.31,31.8-79.9,75.15-81.04l1177.28-31.13c44.02-1.16,80.11,34.63,79.31,78.65l-1.52,84
			C2051.84,1117.45,2018.84,1150.83,1977.61,1152.06z"/>
	</g>
	<g>
		
			<linearGradient id="SVGID_00000136387593744600377500000017563852115604503699_" gradientUnits="userSpaceOnUse" x1="-2032.577" y1="-10440.4424" x2="-1975.7598" y2="-10440.4424" gradientTransform="matrix(-0.9813 0.1926 -0.1926 -0.9813 -2396.9971 -7779.7432)">
			<stop  offset="0" style="stop-color:#FEBAE5"/>
			<stop  offset="1" style="stop-color:#FF8ECF"/>
		</linearGradient>
		<path style="fill:url(#SVGID_00000136387593744600377500000017563852115604503699_);" d="M1608.6,2075.02
			c0,0-39.07-25.63-44.48-19.72c-1.93,2.1-6.42,9.25-10.61,17.05c-2.96,5.5-2.04,12.28,2.3,16.77l10.07,10.41
			c9.6,9.92,25.84,9.21,34.31-1.69C1604.46,2092.34,1607.87,2084.93,1608.6,2075.02z"/>
		<g>
			<g>
				
					<linearGradient id="SVGID_00000155144539350456312930000016871725981814080183_" gradientUnits="userSpaceOnUse" x1="271.3094" y1="2017.9856" x2="530.0306" y2="2017.9856" gradientTransform="matrix(1 0 0 1 1290.1023 0)">
					<stop  offset="0" style="stop-color:#FEBAE5"/>
					<stop  offset="1" style="stop-color:#FF8ECF"/>
				</linearGradient>
				<path style="fill:url(#SVGID_00000155144539350456312930000016871725981814080183_);" d="M1648.44,2026.33
					c0,0-13.41-35.3-29.07-32.06c-15.66,3.23-32.8,15.26-32.8,15.26l-25.16,34.03c0,0,70.63,27.82,95.47,11.88
					c0,0,72.14,12.47,163.25-2.48c-13.19-27.84-21.05-55.72-25.66-77.36C1748.32,2001.72,1698.62,2021.23,1648.44,2026.33z"/>
				
					<linearGradient id="SVGID_00000104666952581621574690000002322819972863106195_" gradientUnits="userSpaceOnUse" x1="2329.041" y1="1149.5902" x2="2171.4387" y2="1460.3558">
					<stop  offset="0" style="stop-color:#052669"/>
					<stop  offset="1" style="stop-color:#0F3D91"/>
				</linearGradient>
				<path style="fill:url(#SVGID_00000104666952581621574690000002322819972863106195_);" d="M2030.6,1770.31
					c0,0-103.29,130.1-236.13,205.29c4.62,21.64,12.48,49.51,25.66,77.36c68.91-11.31,148.66-38.29,216.27-98.25L2030.6,1770.31z"/>
			</g>
			
				<linearGradient id="SVGID_00000048472327747357838140000011041979488684449939_" gradientUnits="userSpaceOnUse" x1="2580.6934" y1="1277.2151" x2="2423.0916" y2="1587.9795">
				<stop  offset="0" style="stop-color:#052669"/>
				<stop  offset="1" style="stop-color:#0F3D91"/>
			</linearGradient>
			<path style="fill:url(#SVGID_00000048472327747357838140000011041979488684449939_);" d="M2159.41,2346.94
				c-20.2-95.95-40.4-151.5-108.04-333.37c-21.29-57.23-40.61-115.14-31.27-175.49l10.49-67.77c0,0,131.45-44.48,277.15-1.87
				c0,0,198.79,86.36,63.77,512.85C2310.65,2349.38,2239.43,2368.79,2159.41,2346.94z"/>
			
				<linearGradient id="SVGID_00000097480924289921549190000013658702782618815617_" gradientUnits="userSpaceOnUse" x1="850.1963" y1="1759.2114" x2="808.7088" y2="1634.7488" gradientTransform="matrix(1 0 0 1 1290.1023 0)">
				<stop  offset="0" style="stop-color:#FEBAE5"/>
				<stop  offset="1" style="stop-color:#FF8ECF"/>
			</linearGradient>
			<path style="fill:url(#SVGID_00000097480924289921549190000013658702782618815617_);" d="M2052.97,1683.81l34.08,81.88
				c2.15,5.17,6.81,8.86,12.33,9.8c19.65,3.37,67.18,8.63,98.39-11.89c3.72-2.45,4.67-7.5,2.12-11.15l-62.97-90.41L2052.97,1683.81z
				"/>
			<g>
				
					<linearGradient id="SVGID_00000183950367466290395930000017902120947554905237_" gradientUnits="userSpaceOnUse" x1="2043.3904" y1="1606.4731" x2="2192.5046" y2="1671.3057">
					<stop  offset="0" style="stop-color:#FEBAE5"/>
					<stop  offset="1" style="stop-color:#FF8ECF"/>
				</linearGradient>
				<path style="fill:url(#SVGID_00000183950367466290395930000017902120947554905237_);" d="M2088.22,1558.53
					c-1.43,1.35-60.41,117.17-60.41,117.17l66.85,32.27l72.21-101.47C2166.87,1606.5,2112.18,1535.97,2088.22,1558.53z"/>
				
					<linearGradient id="SVGID_00000043441331584093815020000013615079607546123913_" gradientUnits="userSpaceOnUse" x1="4959.7886" y1="5818.8735" x2="5137.915" y2="5818.8735" gradientTransform="matrix(-0.6854 -0.7281 -0.7281 0.6854 9787.373 1318.7853)">
					<stop  offset="0" style="stop-color:#052669"/>
					<stop  offset="1" style="stop-color:#0F3D91"/>
				</linearGradient>
				<path style="fill:url(#SVGID_00000043441331584093815020000013615079607546123913_);" d="M2136.49,1618.68l-33.34,55.58
					c-0.51,0.84-1.11,1.61-1.83,2.28c-3.97,3.69-17.55,14.44-28.05-0.19c-8.95-12.47-17.34-23.8-26.34-28.48
					c-5.25-2.73-11.72-0.55-14.39,4.74c-5.49,10.89-16.13,33.08-22.82,54.13c-1.68,5.27,1.05,10.94,6.18,13.02
					c13.54,5.48,40.29,15.4,64.03,18.68c3.9,0.54,7.76-1.11,10.08-4.29c10.21-13.99,39-53.1,48.83-62.88
					c9.13-9.09,25.97-5.67,33.57-3.48c2.88,0.83,5.95,0.43,8.52-1.12c7.7-4.64,21.14-16.19,8.85-35.75
					c-3.06-4.86-1.5-11.34,3.3-14.5c8.6-5.66,17.93-16.27,9.04-33.47c-9-17.41-25.07-18.97-36.02-17.63
					c-4.84,0.59-9.76-1.95-11.62-6.46c-0.83-2.01-2.46-3.72-5.5-4.33c-5.74-1.16-9.5-6.41-8.38-12.16
					c1.93-9.85,0.48-22.65-15.25-31.29c-28.84-15.86-54.11,9.98-60.53,31.79c-6.43,21.81,25.83,37.23,46.11,39.8
					c14.9,1.89,23.07,18.15,26.36,26.65C2138.48,1612.4,2138.19,1615.84,2136.49,1618.68z"/>
				
					<linearGradient id="SVGID_00000037667755727487406330000004444278838107478182_" gradientUnits="userSpaceOnUse" x1="2034.0984" y1="1627.8447" x2="2183.2126" y2="1692.677">
					<stop  offset="0" style="stop-color:#FEBAE5"/>
					<stop  offset="1" style="stop-color:#FF8ECF"/>
				</linearGradient>
				<path style="fill:url(#SVGID_00000037667755727487406330000004444278838107478182_);" d="M2124.8,1687.89
					c0,0,14.35-33.76,30.76-32.38c16.42,1.38,29.34,17.73,8.99,36.12C2139.25,1714.5,2124.8,1687.89,2124.8,1687.89z"/>
			</g>
			<g>
				
					<linearGradient id="SVGID_00000134236080055146521700000018182448105512236716_" gradientUnits="userSpaceOnUse" x1="2427.2026" y1="3201.5259" x2="2612.5193" y2="3201.5259" gradientTransform="matrix(-1 0 0 1 4753.7588 0)">
					<stop  offset="0" style="stop-color:#4095E2"/>
					<stop  offset="1" style="stop-color:#4FADFF"/>
				</linearGradient>
				<path style="fill:url(#SVGID_00000134236080055146521700000018182448105512236716_);" d="M2146.47,3192.56
					c31.75,2.74,86.85,7.2,130.28,9.11c26.11,1.15,41.14-1.41,49.8-4.87c-0.01,0.98-0.04,1.9-0.08,2.75
					c-0.21,4.57-3.92,8.23-8.54,8.49c-82.08,4.58-147.35,1.59-170.59,0.17c-4.81-0.29-7.67-5.51-5.21-9.61
					C2143.37,3196.55,2144.86,3194.55,2146.47,3192.56z"/>
				
					<linearGradient id="SVGID_00000035508885695905793160000006798749529967120797_" gradientUnits="userSpaceOnUse" x1="2773.8545" y1="3028.145" x2="2102.8403" y2="3219.3999">
					<stop  offset="0" style="stop-color:#052669"/>
					<stop  offset="1" style="stop-color:#0F3D91"/>
				</linearGradient>
				<path style="fill:url(#SVGID_00000035508885695905793160000006798749529967120797_);" d="M2276.76,3201.68
					c-43.44-1.91-98.54-6.37-130.28-9.11c31.21-38.29,130.28-64.1,130.28-64.1h27.98c19.24,27.74,22.03,54.15,21.82,68.34
					C2317.9,3200.27,2302.87,3202.83,2276.76,3201.68z"/>
				
					<linearGradient id="SVGID_00000042729801871082792580000006735987503198140803_" gradientUnits="userSpaceOnUse" x1="2444.3115" y1="3114.4993" x2="2496.512" y2="3114.4993" gradientTransform="matrix(-1 0 0 1 4753.7588 0)">
					<stop  offset="0" style="stop-color:#FEBAE5"/>
					<stop  offset="1" style="stop-color:#FF8ECF"/>
				</linearGradient>
				<path style="fill:url(#SVGID_00000042729801871082792580000006735987503198140803_);" d="M2309.45,3082.78l-2.62,51.81
					c-0.28,5.61-4.48,10.33-10.1,11.13c-5.59,0.8-13.08,0.9-21.02-1.74c-4.88-1.63-8.51-5.74-9.41-10.76l-9.05-50.44H2309.45z"/>
			</g>
			<g>
				<g>
					
						<linearGradient id="SVGID_00000138554741908277751350000017667902791456067231_" gradientUnits="userSpaceOnUse" x1="2057.7585" y1="3197.5293" x2="2128.7744" y2="3197.5293" gradientTransform="matrix(-1 0 0 1 4753.7588 0)">
						<stop  offset="0" style="stop-color:#4095E2"/>
						<stop  offset="1" style="stop-color:#4FADFF"/>
					</linearGradient>
					<path style="fill:url(#SVGID_00000138554741908277751350000017667902791456067231_);" d="M2672.88,3201.29
						c13.77-1.92,20-9.07,22.61-16.72c0.02,0.07,0.04,0.14,0.05,0.21c2.02,8.07-2.67,16.42-12.06,20.4
						c-11.35,4.8-23.75,5.62-33.39,5.23c-10.33-0.43-19.82-4.7-25.03-11.55l-0.08-0.1
						C2635.36,3203.89,2649.92,3204.49,2672.88,3201.29z"/>
					
						<linearGradient id="SVGID_00000137123031111995197720000017730761446335923390_" gradientUnits="userSpaceOnUse" x1="2399.7751" y1="2989.2722" x2="2817.9429" y2="3261.5679">
						<stop  offset="0" style="stop-color:#052669"/>
						<stop  offset="1" style="stop-color:#0F3D91"/>
					</linearGradient>
					<path style="fill:url(#SVGID_00000137123031111995197720000017730761446335923390_);" d="M2607.96,3082.45h23.07
						c35.15-0.72,57.22,73.42,64.44,102.12c-2.61,7.65-8.84,14.8-22.61,16.72c-22.96,3.2-37.52,2.6-47.89-2.53
						c-18.99-24.99-28.4-61.58-32.93-82.94C2586.91,3091.52,2607.96,3082.45,2607.96,3082.45z"/>
				</g>
				
					<linearGradient id="SVGID_00000062881163503483710150000003801751898041670069_" gradientUnits="userSpaceOnUse" x1="2112.4563" y1="3070.9836" x2="2174.8403" y2="3070.9836" gradientTransform="matrix(-1 0 0 1 4753.7588 0)">
					<stop  offset="0" style="stop-color:#FEBAE5"/>
					<stop  offset="1" style="stop-color:#FF8ECF"/>
				</linearGradient>
				<path style="fill:url(#SVGID_00000062881163503483710150000003801751898041670069_);" d="M2628.07,3034.35l12.81,50.96
					c1.57,6.25-1.42,12.71-7.2,15.68c-7.17,3.68-17.26,7.54-26.53,6.43c-4.36-0.53-7.99-3.6-9.43-7.71l-18.81-53.62L2628.07,3034.35
					z"/>
			</g>
			
				<linearGradient id="SVGID_00000006682227792406377830000007558604898362873001_" gradientUnits="userSpaceOnUse" x1="-229.3423" y1="3162.5823" x2="722.5837" y2="1846.499" gradientTransform="matrix(-1 0 0 1 2420.7585 0)">
				<stop  offset="0" style="stop-color:#052669"/>
				<stop  offset="1" style="stop-color:#0F3D91"/>
			</linearGradient>
			<path style="fill:url(#SVGID_00000006682227792406377830000007558604898362873001_);" d="M2643.36,3049.08
				c-15.94,14.14-67.79,16.01-67.79,16.01c-186.78-448.29-264.65-571.7-264.65-571.7c26.97,169.21,5.81,603.53,5.81,603.53
				c-30.82,13.6-70.56,0-70.56,0c-2.5-277.01-41.5-574.67-91.8-765.13c126.24-2.84,194.85-30.36,216.77-47.69
				C2476.36,2453.75,2643.36,3049.08,2643.36,3049.08z"/>
			<g>
				
					<linearGradient id="SVGID_00000132807191600615370840000011365704397267170489_" gradientUnits="userSpaceOnUse" x1="-29.7992" y1="3626.4214" x2="-35.5883" y2="3091.8918" gradientTransform="matrix(0.9919 -0.127 0.127 0.9919 1989.9969 -609.5969)">
					<stop  offset="0" style="stop-color:#FF8ECF"/>
					<stop  offset="1" style="stop-color:#FE62A8"/>
				</linearGradient>
				<path style="fill:url(#SVGID_00000132807191600615370840000011365704397267170489_);" d="M2122.56,2457.06l23.23,144.48
					c4.05,25.19,27.39,42.67,52.83,39.56l347.67-42.41c17.01-2.07,29.91-16.28,30.25-33.33c0.74-37.33-0.72-103.77-16.39-164.3
					L2122.56,2457.06z"/>
				<path class="st20" d="M2210.35,2631.42c-0.57,0-1.06-0.43-1.14-1c-0.08-0.63,0.37-1.2,1-1.27l9.08-1.11
					c0.66-0.07,1.2,0.37,1.27,0.99c0.08,0.63-0.37,1.2-0.99,1.27l-9.08,1.11C2210.44,2631.41,2210.39,2631.42,2210.35,2631.42z
					 M2189.16,2631.02c-0.09,0-0.18-0.01-0.28-0.04c-3.02-0.75-5.99-1.81-8.81-3.15c-0.57-0.27-0.81-0.96-0.54-1.52
					c0.28-0.57,0.97-0.81,1.52-0.54c2.68,1.28,5.5,2.28,8.38,3c0.61,0.15,0.99,0.77,0.83,1.39
					C2190.14,2630.67,2189.67,2631.02,2189.16,2631.02z M2240.62,2627.72c-0.57,0-1.06-0.43-1.14-1.01c-0.08-0.62,0.37-1.2,1-1.27
					l9.08-1.11c0.61-0.09,1.19,0.37,1.27,1c0.08,0.62-0.37,1.2-1,1.27l-9.08,1.11C2240.71,2627.72,2240.67,2627.72,2240.62,2627.72z
					 M2270.9,2624.03c-0.57,0-1.06-0.43-1.13-1c-0.08-0.63,0.37-1.2,0.99-1.27l9.08-1.11c0.66-0.1,1.2,0.37,1.27,1
					c0.08,0.63-0.37,1.2-0.99,1.27l-9.08,1.11C2270.99,2624.03,2270.94,2624.03,2270.9,2624.03z M2301.17,2620.34
					c-0.57,0-1.06-0.43-1.13-1c-0.08-0.63,0.37-1.2,0.99-1.27l9.08-1.11c0.66-0.07,1.2,0.37,1.27,0.99c0.08,0.63-0.37,1.2-0.99,1.27
					l-9.08,1.11C2301.26,2620.33,2301.21,2620.34,2301.17,2620.34z M2331.44,2616.65c-0.57,0-1.06-0.43-1.13-1
					c-0.08-0.63,0.37-1.2,0.99-1.27l9.08-1.11c0.66-0.09,1.2,0.37,1.27,1c0.08,0.63-0.37,1.2-1,1.27l-9.08,1.11
					C2331.53,2616.64,2331.49,2616.65,2331.44,2616.65z M2164.1,2614.67c-0.34,0-0.68-0.15-0.9-0.45c-1.91-2.47-3.57-5.15-4.94-7.96
					c-0.28-0.57-0.04-1.25,0.53-1.53c0.57-0.27,1.25-0.04,1.53,0.53c1.3,2.67,2.88,5.22,4.69,7.56c0.39,0.5,0.3,1.22-0.2,1.6
					C2164.59,2614.59,2164.34,2614.67,2164.1,2614.67z M2361.71,2612.95c-0.57,0-1.06-0.43-1.13-1c-0.08-0.63,0.37-1.2,0.99-1.27
					l9.08-1.11c0.66-0.1,1.2,0.37,1.27,1c0.08,0.63-0.37,1.2-1,1.27l-9.08,1.11C2361.8,2612.95,2361.76,2612.95,2361.71,2612.95z
					 M2391.98,2609.26c-0.57,0-1.06-0.43-1.13-1c-0.08-0.63,0.37-1.2,0.99-1.27l9.08-1.11c0.61-0.07,1.19,0.37,1.27,0.99
					c0.08,0.63-0.37,1.2-1,1.27l-9.08,1.11C2392.08,2609.26,2392.03,2609.26,2391.98,2609.26z M2422.26,2605.57
					c-0.57,0-1.06-0.43-1.14-1c-0.08-0.63,0.37-1.2,1-1.27l9.08-1.11c0.66-0.08,1.2,0.37,1.27,1c0.08,0.63-0.37,1.2-0.99,1.27
					l-9.08,1.11C2422.35,2605.57,2422.3,2605.57,2422.26,2605.57z M2452.53,2601.87c-0.57,0-1.06-0.43-1.13-1
					c-0.08-0.63,0.37-1.2,0.99-1.27l9.08-1.11c0.66-0.1,1.2,0.37,1.27,1c0.08,0.63-0.37,1.2-0.99,1.27l-9.08,1.11
					C2452.62,2601.87,2452.57,2601.87,2452.53,2601.87z M2482.8,2598.18c-0.57,0-1.06-0.43-1.13-1c-0.08-0.63,0.37-1.2,1-1.27
					l9.08-1.11c0.66-0.07,1.2,0.37,1.27,0.99c0.08,0.63-0.37,1.2-0.99,1.27l-9.08,1.11
					C2482.89,2598.18,2482.85,2598.18,2482.8,2598.18z M2513.07,2594.49c-0.57,0-1.06-0.43-1.13-1c-0.08-0.63,0.37-1.2,0.99-1.27
					l9.08-1.11c0.66-0.08,1.2,0.37,1.27,0.99c0.08,0.63-0.37,1.2-1,1.27l-9.08,1.11
					C2513.16,2594.49,2513.12,2594.49,2513.07,2594.49z M2543.21,2590.09c-0.47,0-0.92-0.3-1.08-0.77c-0.21-0.6,0.11-1.25,0.71-1.45
					c2.78-0.96,5.42-2.3,7.84-3.99c0.51-0.36,1.23-0.24,1.59,0.28c0.36,0.52,0.24,1.23-0.28,1.59c-2.6,1.81-5.43,3.25-8.41,4.28
					C2543.46,2590.07,2543.33,2590.09,2543.21,2590.09z M2154.03,2586.32c-0.55,0-1.04-0.4-1.13-0.96l-1.45-9.03
					c-0.1-0.62,0.32-1.21,0.95-1.31c0.63-0.1,1.21,0.32,1.31,0.95l1.45,9.03c0.1,0.62-0.32,1.21-0.95,1.31
					C2154.15,2586.31,2154.09,2586.32,2154.03,2586.32z M2563.76,2569.06c-0.11,0-0.23-0.02-0.34-0.06
					c-0.6-0.19-0.94-0.83-0.74-1.43c0.88-2.8,1.37-5.72,1.44-8.68c0.02-0.62,0.53-1.12,1.14-1.12c0.01,0,0.02,0,0.03,0
					c0.63,0.02,1.13,0.54,1.12,1.17c-0.08,3.17-0.6,6.31-1.55,9.31C2564.69,2568.75,2564.24,2569.06,2563.76,2569.06z
					 M2149.2,2556.21c-0.55,0-1.04-0.4-1.13-0.96l-1.45-9.03c-0.1-0.62,0.32-1.21,0.95-1.31c0.65-0.11,1.21,0.33,1.31,0.95
					l1.45,9.03c0.1,0.62-0.32,1.21-0.95,1.31C2149.32,2556.2,2149.25,2556.21,2149.2,2556.21z M2565.38,2538.72
					c-0.63,0-1.14-0.51-1.14-1.14c-0.03-2.95-0.07-6-0.14-9.14c-0.01-0.63,0.49-1.15,1.12-1.17c0.68-0.11,1.15,0.49,1.17,1.12
					c0.07,3.15,0.11,6.21,0.14,9.17C2566.52,2538.2,2566.02,2538.72,2565.38,2538.72
					C2565.38,2538.72,2565.38,2538.72,2565.38,2538.72z M2144.35,2526.1c-0.55,0-1.04-0.4-1.13-0.96l-1.45-9.03
					c-0.1-0.62,0.32-1.21,0.95-1.31c0.63-0.09,1.21,0.32,1.31,0.95l1.45,9.03c0.1,0.62-0.32,1.21-0.95,1.31
					C2144.47,2526.09,2144.41,2526.1,2144.35,2526.1z M2564.48,2508.23c-0.6,0-1.11-0.47-1.14-1.09c-0.15-2.99-0.33-6.03-0.52-9.12
					c-0.04-0.63,0.44-1.18,1.07-1.22c0.76,0.05,1.18,0.44,1.22,1.07c0.2,3.1,0.37,6.15,0.52,9.15c0.03,0.63-0.45,1.17-1.08,1.2
					C2564.52,2508.23,2564.5,2508.23,2564.48,2508.23z M2139.51,2495.99c-0.55,0-1.04-0.4-1.13-0.96l-1.45-9.03
					c-0.1-0.62,0.32-1.21,0.95-1.31c0.65-0.1,1.21,0.33,1.31,0.95l1.45,9.03c0.1,0.62-0.32,1.21-0.95,1.31
					C2139.63,2495.98,2139.57,2495.99,2139.51,2495.99z M2562.25,2477.81c-0.58,0-1.08-0.44-1.14-1.03c-0.29-3-0.61-6.03-0.95-9.08
					c-0.07-0.63,0.38-1.19,1.01-1.26c0.62-0.08,1.19,0.38,1.26,1.01c0.35,3.06,0.66,6.1,0.96,9.12c0.06,0.63-0.4,1.19-1.03,1.25
					C2562.32,2477.8,2562.29,2477.81,2562.25,2477.81z M2134.67,2465.88c-0.55,0-1.04-0.4-1.13-0.96l-1.64-10.2l8.38-1.07
					c0.65-0.1,1.2,0.37,1.28,0.99c0.08,0.63-0.36,1.2-0.99,1.28l-6.03,0.77l1.26,7.87c0.1,0.62-0.32,1.21-0.95,1.31
					C2134.79,2465.87,2134.73,2465.88,2134.67,2465.88z M2161.6,2453.21c-0.57,0-1.06-0.42-1.13-1c-0.08-0.63,0.36-1.2,0.99-1.28
					l9.08-1.16c0.73-0.09,1.2,0.37,1.28,0.99c0.08,0.63-0.36,1.2-0.99,1.28l-9.08,1.16
					C2161.69,2453.21,2161.65,2453.21,2161.6,2453.21z M2191.85,2449.34c-0.57,0-1.06-0.42-1.13-1c-0.08-0.63,0.36-1.2,0.99-1.28
					l9.07-1.16c0.72-0.09,1.2,0.36,1.28,0.99c0.08,0.63-0.36,1.2-0.99,1.28l-9.08,1.16
					C2191.95,2449.34,2191.9,2449.34,2191.85,2449.34z M2558.52,2447.54c-0.56,0-1.04-0.41-1.13-0.97c-0.45-3-0.94-6.01-1.45-9.02
					c-0.1-0.62,0.32-1.21,0.94-1.32c0.65-0.1,1.22,0.32,1.32,0.94c0.51,3.02,1,6.04,1.45,9.06c0.09,0.62-0.33,1.21-0.96,1.3
					C2558.64,2447.53,2558.58,2447.54,2558.52,2447.54z M2222.1,2445.47c-0.57,0-1.06-0.42-1.14-1c-0.08-0.63,0.36-1.2,0.99-1.28
					l9.08-1.16c0.72-0.08,1.2,0.37,1.28,0.99c0.08,0.63-0.36,1.2-0.99,1.28l-9.08,1.16
					C2222.2,2445.47,2222.15,2445.47,2222.1,2445.47z M2252.35,2441.6c-0.57,0-1.06-0.42-1.14-1c-0.08-0.63,0.36-1.2,0.99-1.28
					l9.08-1.16c0.71-0.07,1.2,0.37,1.28,0.99c0.08,0.63-0.36,1.2-0.99,1.28l-9.08,1.16C2252.45,2441.6,2252.4,2441.6,2252.35,2441.6
					z M2282.6,2437.73c-0.57,0-1.06-0.42-1.13-1c-0.08-0.63,0.36-1.2,0.99-1.28l9.08-1.16c0.71-0.06,1.2,0.37,1.28,0.99
					c0.08,0.63-0.36,1.2-0.99,1.28l-9.07,1.16C2282.7,2437.73,2282.65,2437.73,2282.6,2437.73z M2312.85,2433.86
					c-0.57,0-1.06-0.42-1.14-1c-0.08-0.63,0.36-1.2,0.99-1.28l9.08-1.16c0.7-0.1,1.2,0.37,1.28,0.99c0.08,0.63-0.36,1.2-0.99,1.28
					l-9.07,1.16C2312.95,2433.86,2312.9,2433.86,2312.85,2433.86z M2343.1,2429.99c-0.57,0-1.06-0.42-1.13-1
					c-0.08-0.63,0.36-1.2,0.99-1.28l9.07-1.16c0.65-0.09,1.2,0.36,1.28,0.99c0.08,0.63-0.36,1.2-0.99,1.28l-9.08,1.16
					C2343.2,2429.99,2343.15,2429.99,2343.1,2429.99z M2373.35,2426.12c-0.57,0-1.06-0.42-1.13-1c-0.08-0.63,0.36-1.2,0.99-1.28
					l9.08-1.16c0.69-0.08,1.2,0.37,1.28,0.99c0.08,0.63-0.36,1.2-0.99,1.28l-9.08,1.16
					C2373.45,2426.11,2373.4,2426.12,2373.35,2426.12z M2403.6,2422.25c-0.57,0-1.06-0.42-1.14-1c-0.08-0.63,0.36-1.2,0.99-1.28
					l9.08-1.16c0.73-0.07,1.2,0.37,1.28,0.99c0.08,0.63-0.36,1.2-0.99,1.28l-9.08,1.16
					C2403.7,2422.24,2403.65,2422.25,2403.6,2422.25z M2433.85,2418.37c-0.57,0-1.06-0.42-1.13-1c-0.08-0.63,0.36-1.2,0.99-1.28
					l9.08-1.16c0.72-0.06,1.2,0.37,1.28,0.99c0.08,0.63-0.36,1.2-0.99,1.28l-9.08,1.16
					C2433.95,2418.37,2433.9,2418.37,2433.85,2418.37z M2553,2417.55c-0.53,0-1-0.36-1.12-0.9c-0.65-2.97-1.34-5.94-2.05-8.89
					c-0.15-0.61,0.23-1.23,0.84-1.38c0.63-0.16,1.24,0.23,1.38,0.84c0.72,2.97,1.41,5.95,2.07,8.94c0.13,0.61-0.26,1.23-0.87,1.36
					C2553.17,2417.54,2553.08,2417.55,2553,2417.55z M2464.1,2414.51c-0.57,0-1.06-0.42-1.14-1c-0.08-0.63,0.36-1.2,0.99-1.28
					l9.08-1.16c0.72-0.1,1.2,0.37,1.28,0.99c0.08,0.63-0.36,1.2-0.99,1.28l-9.08,1.16C2464.2,2414.5,2464.15,2414.51,2464.1,2414.51
					z M2494.35,2410.63c-0.57,0-1.06-0.42-1.13-1c-0.08-0.63,0.36-1.2,0.99-1.28l9.08-1.16c0.71-0.09,1.2,0.37,1.28,0.99
					c0.08,0.63-0.36,1.2-0.99,1.28l-9.07,1.16C2494.45,2410.63,2494.4,2410.63,2494.35,2410.63z M2524.6,2406.76
					c-0.57,0-1.06-0.42-1.13-1c-0.08-0.63,0.36-1.2,0.99-1.28l9.07-1.16c0.71-0.09,1.2,0.37,1.28,0.99c0.08,0.63-0.36,1.2-0.99,1.28
					l-9.08,1.16C2524.7,2406.76,2524.65,2406.76,2524.6,2406.76z"/>
				
					<linearGradient id="SVGID_00000058553824408079937770000001072858534612260277_" gradientUnits="userSpaceOnUse" x1="-123.865" y1="2981.7615" x2="-126.4379" y2="2919.3694" gradientTransform="matrix(0.9919 -0.127 0.127 0.9919 1989.9969 -609.5969)">
					<stop  offset="0" style="stop-color:#E13D92"/>
					<stop  offset="1" style="stop-color:#E95AAB"/>
				</linearGradient>
				<path style="fill:url(#SVGID_00000058553824408079937770000001072858534612260277_);" d="M2210.9,2338.72l-0.39-11.32
					c0.84-2.82,3.05-5.03,5.88-5.86c10.6-3.11,37.06-9.57,51.22-1.57l3.59,12.75L2210.9,2338.72z"/>
				
					<linearGradient id="SVGID_00000005262881693000326270000006689813812516079014_" gradientUnits="userSpaceOnUse" x1="-127.1197" y1="2888.0925" x2="-114.2567" y2="3066.8879" gradientTransform="matrix(0.9919 -0.127 0.127 0.9919 1989.9969 -609.5969)">
					<stop  offset="0" style="stop-color:#E13D92"/>
					<stop  offset="1" style="stop-color:#E95AAB"/>
				</linearGradient>
				<path style="fill:url(#SVGID_00000005262881693000326270000006689813812516079014_);" d="M2243.33,2323.63
					c-2.41,0.93-4.91,1.24-7.49,0.95c-3.12-0.36-5.6-2.79-6-5.89l-4.48-35.03l17.83-2.28l4.48,35.01
					C2248.06,2319.49,2246.27,2322.5,2243.33,2323.63z"/>
				
					<linearGradient id="SVGID_00000093177914061103378720000007849318892048086916_" gradientUnits="userSpaceOnUse" x1="49.9388" y1="2974.6057" x2="47.3659" y2="2912.2141" gradientTransform="matrix(0.9919 -0.127 0.127 0.9919 1989.9969 -609.5969)">
					<stop  offset="0" style="stop-color:#E13D92"/>
					<stop  offset="1" style="stop-color:#E95AAB"/>
				</linearGradient>
				<path style="fill:url(#SVGID_00000093177914061103378720000007849318892048086916_);" d="M2383.59,2316.62l-0.39-11.32
					c0.84-2.82,3.05-5.03,5.88-5.86c10.6-3.11,37.06-9.57,51.22-1.57l3.59,12.75L2383.59,2316.62z"/>
				
					<linearGradient id="SVGID_00000065072869965684030590000002140138016470420654_" gradientUnits="userSpaceOnUse" x1="46.217" y1="2875.6355" x2="59.0798" y2="3054.4297" gradientTransform="matrix(0.9919 -0.127 0.127 0.9919 1989.9969 -609.5969)">
					<stop  offset="0" style="stop-color:#E13D92"/>
					<stop  offset="1" style="stop-color:#E95AAB"/>
				</linearGradient>
				<path style="fill:url(#SVGID_00000065072869965684030590000002140138016470420654_);" d="M2416.02,2301.53
					c-2.41,0.93-4.91,1.24-7.49,0.95c-3.12-0.36-5.6-2.79-6-5.89l-4.96-38.73l17.83-2.28l4.95,38.7
					C2420.76,2297.39,2418.97,2300.4,2416.02,2301.53z"/>
				
					<linearGradient id="SVGID_00000041292859235694300020000000996244059031672505_" gradientUnits="userSpaceOnUse" x1="-25.1778" y1="2788.5774" x2="-42.5399" y2="2915.8992" gradientTransform="matrix(0.9919 -0.127 0.127 0.9919 1989.9969 -609.5969)">
					<stop  offset="0" style="stop-color:#E13D92"/>
					<stop  offset="1" style="stop-color:#E95AAB"/>
				</linearGradient>
				<path style="fill:url(#SVGID_00000041292859235694300020000000996244059031672505_);" d="M2224.64,2292.47l190.93-30.88
					c4.35-0.7,7.66-4.33,7.86-8.72c0.28-6.14,0.06-15.24-2.51-24.38c-2.93-10.39-13.04-17.1-23.83-15.98
					c-35.88,3.73-126.94,15.4-174.58,41.68c-5.04,2.78-8.4,7.82-9.03,13.52c-0.61,5.43-0.56,12.58,2.03,19.53
					C2216.88,2290.93,2220.74,2293.1,2224.64,2292.47z"/>
				
					<linearGradient id="SVGID_00000029756530876404742440000000438500060882109606_" gradientUnits="userSpaceOnUse" x1="2245.0664" y1="2248.9829" x2="2186.2429" y2="1914.9111">
					<stop  offset="0" style="stop-color:#FEBAE5"/>
					<stop  offset="1" style="stop-color:#FF8ECF"/>
				</linearGradient>
				<path style="fill:url(#SVGID_00000029756530876404742440000000438500060882109606_);" d="M2219.94,2285.13
					c-1.39,0-2.64-0.95-2.97-2.36c-0.07-0.32-1.78-7.82-0.74-15.39c0.86-6.21,4.98-11.64,10.77-14.17
					c10.38-4.55,30.31-12.56,47.17-15.2c1.68-0.22,3.22,0.88,3.49,2.54c0.26,1.66-0.88,3.22-2.54,3.49
					c-16.78,2.63-37.53,11.2-45.67,14.76c-3.86,1.69-6.6,5.3-7.17,9.42c-0.88,6.43,0.62,13.12,0.64,13.19
					c0.38,1.64-0.65,3.28-2.29,3.65C2220.4,2285.11,2220.17,2285.13,2219.94,2285.13z"/>
				
					<linearGradient id="SVGID_00000145058837660017598300000018136645064491776918_" gradientUnits="userSpaceOnUse" x1="-19.9506" y1="2887.7532" x2="-83.6167" y2="3481.9702" gradientTransform="matrix(0.9919 -0.127 0.127 0.9919 1989.9969 -609.5969)">
					<stop  offset="0" style="stop-color:#FF8ECF"/>
					<stop  offset="1" style="stop-color:#FE62A8"/>
				</linearGradient>
				<path style="fill:url(#SVGID_00000145058837660017598300000018136645064491776918_);" d="M2121.38,2345.74
					c61.84-8.72,329.46-45.82,408.5-46.39c6.81-0.05,12.9,4.15,15.19,10.53c7.26,20.21,22.7,67.33,27.73,115.35
					c0.68,6.54-3.39,12.64-9.67,14.69l-173.38,56.35l-63.12,8.08l-194.14-13.41c-6.84-0.47-12.49-5.49-13.7-12.21
					c-4.31-23.93-13.47-80.21-11.61-117.43C2107.58,2353.39,2113.5,2346.85,2121.38,2345.74z"/>
				<path class="st20" d="M2326.33,2489.97l-9.35-0.62c-0.63-0.05-1.11-0.59-1.06-1.22c0.05-0.63,0.64-1.06,1.22-1.06l9.13,0.63
					l4.89-0.65c0.73-0.06,1.2,0.37,1.28,0.99c0.08,0.63-0.36,1.2-0.99,1.28L2326.33,2489.97z M2295.75,2487.88
					c-0.03,0-0.05,0-0.08,0l-9.13-0.63c-0.63-0.05-1.11-0.59-1.06-1.22c0.05-0.63,0.63-1.07,1.22-1.06l9.13,0.63
					c0.63,0.05,1.11,0.59,1.06,1.22C2296.85,2487.42,2296.35,2487.88,2295.75,2487.88z M2352.47,2486.62c-0.57,0-1.06-0.42-1.14-1
					c-0.08-0.63,0.36-1.2,0.99-1.28l9.08-1.16c0.72-0.09,1.2,0.37,1.28,0.99c0.08,0.63-0.36,1.2-0.99,1.28l-9.07,1.16
					C2352.56,2486.62,2352.51,2486.62,2352.47,2486.62z M2265.33,2485.78c-0.03,0-0.05,0-0.08,0l-9.13-0.63
					c-0.63-0.05-1.11-0.59-1.06-1.22c0.05-0.63,0.62-1.08,1.22-1.06l9.13,0.63c0.63,0.05,1.11,0.59,1.06,1.22
					C2266.43,2485.32,2265.93,2485.78,2265.33,2485.78z M2234.91,2483.68c-0.03,0-0.05,0-0.08,0l-9.13-0.63
					c-0.63-0.05-1.11-0.59-1.06-1.22c0.05-0.63,0.6-1.08,1.22-1.06l9.13,0.63c0.63,0.05,1.11,0.59,1.06,1.22
					C2236.01,2483.22,2235.51,2483.68,2234.91,2483.68z M2382.72,2482.75c-0.57,0-1.06-0.42-1.13-1c-0.08-0.63,0.36-1.2,0.99-1.28
					l3.64-0.46l5.01-1.65c0.6-0.18,1.25,0.14,1.44,0.73c0.2,0.6-0.14,1.25-0.73,1.44l-5.22,1.69l-3.84,0.51
					C2382.81,2482.75,2382.76,2482.75,2382.72,2482.75z M2204.48,2481.58c-0.03,0-0.05,0-0.08,0l-9.13-0.63
					c-0.63-0.05-1.11-0.59-1.06-1.22c0.05-0.63,0.6-1.01,1.22-1.06l9.13,0.63c0.63,0.05,1.11,0.59,1.06,1.22
					C2205.58,2481.12,2205.08,2481.58,2204.48,2481.58z M2174.06,2479.48c-0.03,0-0.05,0-0.08,0l-9.13-0.63
					c-0.63-0.05-1.11-0.59-1.06-1.22c0.05-0.63,0.59-1.02,1.22-1.06l9.13,0.63c0.63,0.05,1.11,0.59,1.06,1.22
					C2175.16,2479.02,2174.66,2479.48,2174.06,2479.48z M2143.63,2477.38c-0.03,0-0.05,0-0.08,0l-9.13-0.63
					c-0.63-0.05-1.11-0.59-1.06-1.22c0.05-0.63,0.65-1.02,1.22-1.06l9.13,0.63c0.63,0.05,1.11,0.59,1.06,1.22
					C2144.73,2476.92,2144.23,2477.38,2143.63,2477.38z M2411.87,2473.99c-0.48,0-0.93-0.31-1.09-0.79c-0.2-0.6,0.14-1.25,0.73-1.44
					l8.7-2.83c0.6-0.18,1.25,0.14,1.44,0.73c0.2,0.6-0.14,1.25-0.74,1.44l-8.7,2.83
					C2412.11,2473.97,2411.99,2473.99,2411.87,2473.99z M2440.88,2464.56c-0.48,0-0.93-0.31-1.09-0.79c-0.2-0.6,0.14-1.25,0.73-1.44
					l8.7-2.83c0.59-0.18,1.25,0.14,1.44,0.73c0.2,0.6-0.14,1.25-0.73,1.44l-8.7,2.83
					C2441.11,2464.54,2440.99,2464.56,2440.88,2464.56z M2130.46,2456.23c-0.56,0-1.04-0.4-1.13-0.97
					c-0.46-2.89-0.92-5.92-1.39-9.07c-0.09-0.62,0.34-1.21,0.97-1.3c0.6-0.1,1.21,0.34,1.3,0.97c0.46,3.13,0.93,6.16,1.38,9.04
					c0.1,0.62-0.33,1.21-0.95,1.31C2130.57,2456.22,2130.51,2456.23,2130.46,2456.23z M2469.88,2455.14c-0.48,0-0.93-0.31-1.09-0.79
					c-0.2-0.6,0.14-1.25,0.74-1.44l8.7-2.83c0.61-0.18,1.25,0.14,1.44,0.73c0.2,0.6-0.14,1.25-0.73,1.44l-8.7,2.83
					C2470.12,2455.12,2470,2455.14,2469.88,2455.14z M2498.88,2445.71c-0.48,0-0.93-0.31-1.09-0.79c-0.2-0.6,0.14-1.25,0.73-1.44
					l8.7-2.83c0.6-0.18,1.25,0.14,1.44,0.73c0.2,0.6-0.14,1.25-0.73,1.44l-8.7,2.83C2499.12,2445.69,2499,2445.71,2498.88,2445.71z
					 M2527.89,2436.28c-0.48,0-0.93-0.31-1.09-0.79c-0.2-0.6,0.14-1.25,0.73-1.44l8.7-2.83c0.6-0.18,1.25,0.14,1.44,0.73
					c0.2,0.6-0.14,1.25-0.73,1.44l-8.7,2.83C2528.12,2436.26,2528,2436.28,2527.89,2436.28z M2556.89,2426.86
					c-0.48,0-0.93-0.31-1.09-0.79c-0.14-0.43-0.01-0.87,0.29-1.17c-0.29-2.61-0.61-5.21-0.96-7.81c-0.08-0.63,0.36-1.2,0.98-1.29
					c0.64-0.1,1.2,0.36,1.29,0.98c0.39,2.88,0.74,5.78,1.06,8.67l0.1,0.93l-1.31,0.42
					C2557.13,2426.84,2557.01,2426.86,2556.89,2426.86z M2126.2,2426.01c-0.57,0-1.06-0.43-1.14-1c-0.37-3.01-0.72-6.05-1.05-9.11
					c-0.07-0.63,0.39-1.19,1.01-1.26c0.67-0.04,1.19,0.39,1.26,1.01c0.33,3.05,0.68,6.08,1.05,9.08c0.08,0.63-0.37,1.2-1,1.27
					C2126.29,2426.01,2126.25,2426.01,2126.2,2426.01z M2552.81,2397.01c-0.54,0-1.02-0.38-1.12-0.93c-0.58-3.01-1.18-6-1.8-8.95
					c-0.13-0.62,0.26-1.23,0.88-1.36c0.65-0.12,1.23,0.27,1.36,0.88c0.63,2.97,1.23,5.97,1.81,8.99c0.12,0.62-0.29,1.22-0.91,1.34
					C2552.95,2397,2552.88,2397.01,2552.81,2397.01z M2123.23,2395.65c-0.6,0-1.1-0.46-1.14-1.07c-0.21-3.09-0.39-6.15-0.53-9.17
					c-0.03-0.63,0.46-1.17,1.09-1.19c0.69-0.12,1.17,0.46,1.19,1.09c0.14,2.99,0.32,6.04,0.53,9.11c0.04,0.63-0.43,1.17-1.06,1.22
					C2123.28,2395.64,2123.25,2395.65,2123.23,2395.65z M2546.15,2367.24c-0.51,0-0.98-0.34-1.11-0.86
					c-0.77-3.02-1.56-5.97-2.34-8.83c-0.17-0.61,0.19-1.24,0.8-1.4c0.63-0.18,1.24,0.2,1.4,0.8c0.79,2.88,1.57,5.84,2.35,8.86
					c0.16,0.61-0.21,1.24-0.82,1.4C2546.33,2367.22,2546.24,2367.24,2546.15,2367.24z M2122.51,2365.16c-0.01,0-0.03,0-0.05,0
					c-0.63-0.02-1.12-0.56-1.1-1.19l0.08-1.95c0.05-1.08,0.86-1.97,1.91-2.12l5.64-0.79c0.63-0.14,1.21,0.34,1.29,0.97
					c0.09,0.63-0.35,1.2-0.97,1.29l-5.63,0.79l-0.04,1.9C2123.63,2364.67,2123.12,2365.16,2122.51,2365.16z M2150.32,2358.43
					c-0.56,0-1.05-0.42-1.13-0.99c-0.09-0.62,0.35-1.2,0.98-1.29l9.07-1.25c0.68-0.11,1.2,0.35,1.29,0.98
					c0.09,0.63-0.35,1.2-0.98,1.29l-9.07,1.25C2150.42,2358.43,2150.37,2358.43,2150.32,2358.43z M2180.54,2354.28
					c-0.57,0-1.05-0.42-1.13-0.99c-0.09-0.63,0.35-1.2,0.98-1.29l9.07-1.24c0.65-0.08,1.2,0.36,1.29,0.98
					c0.08,0.62-0.35,1.2-0.98,1.29l-9.07,1.23C2180.64,2354.27,2180.59,2354.28,2180.54,2354.28z M2210.78,2350.2
					c-0.57,0-1.06-0.42-1.13-0.99c-0.08-0.63,0.36-1.2,0.98-1.29l9.08-1.21c0.6-0.08,1.2,0.36,1.28,0.99
					c0.08,0.62-0.36,1.2-0.99,1.28l-9.07,1.21C2210.88,2350.19,2210.83,2350.2,2210.78,2350.2z M2241.02,2346.18
					c-0.57,0-1.06-0.42-1.14-0.99c-0.08-0.63,0.36-1.2,0.99-1.28l9.08-1.19c0.63-0.1,1.2,0.36,1.28,0.99
					c0.08,0.63-0.36,1.2-0.99,1.28l-9.08,1.19C2241.12,2346.18,2241.07,2346.18,2241.02,2346.18z M2271.28,2342.25
					c-0.57,0-1.06-0.42-1.13-1c-0.08-0.63,0.36-1.2,0.99-1.28l9.08-1.17c0.66-0.09,1.2,0.37,1.28,0.99c0.08,0.62-0.36,1.2-0.99,1.28
					l-9.07,1.17C2271.37,2342.24,2271.32,2342.25,2271.28,2342.25z M2301.73,2338.37l-0.29-2.27l9.02-1.13
					c0.65-0.08,1.2,0.37,1.28,0.99c0.08,0.63-0.37,1.2-0.99,1.28L2301.73,2338.37z M2537.8,2337.9c-0.49,0-0.94-0.32-1.09-0.8
					c-0.97-3.11-1.91-6.01-2.79-8.7c-0.2-0.6,0.13-1.25,0.73-1.44c0.6-0.2,1.25,0.13,1.44,0.73c0.89,2.7,1.83,5.62,2.81,8.73
					c0.19,0.6-0.15,1.25-0.75,1.43C2538.03,2337.88,2537.91,2337.9,2537.8,2337.9z M2301.53,2337.24h0.03H2301.53z M2331.8,2334.64
					c-0.57,0-1.06-0.43-1.13-1c-0.08-0.63,0.37-1.2,0.99-1.27l9.08-1.11c0.61-0.06,1.19,0.37,1.27,1c0.08,0.62-0.37,1.2-1,1.27
					l-9.08,1.11C2331.89,2334.64,2331.84,2334.64,2331.8,2334.64z M2362.07,2331c-0.57,0-1.07-0.43-1.13-1.01
					c-0.07-0.63,0.37-1.2,1-1.27l9.09-1.06c0.67-0.08,1.2,0.38,1.27,1c0.07,0.63-0.37,1.2-1,1.27l-9.09,1.06
					C2362.16,2331,2362.12,2331,2362.07,2331z M2392.37,2327.51c-0.58,0-1.07-0.43-1.14-1.02c-0.07-0.63,0.38-1.19,1.01-1.26
					l9.09-1.01c0.63-0.05,1.2,0.38,1.26,1.01c0.07,0.63-0.38,1.19-1.01,1.26l-9.09,1.01
					C2392.46,2327.51,2392.42,2327.51,2392.37,2327.51z M2422.69,2324.2c-0.58,0-1.08-0.44-1.14-1.02
					c-0.06-0.63,0.39-1.19,1.02-1.26l9.1-0.95c0.62-0.06,1.19,0.39,1.26,1.02c0.07,0.63-0.39,1.19-1.02,1.26l-9.09,0.95
					C2422.77,2324.19,2422.73,2324.2,2422.69,2324.2z M2453.04,2321.14c-0.59,0-1.08-0.45-1.14-1.04c-0.06-0.63,0.4-1.19,1.03-1.25
					c3.11-0.3,6.15-0.58,9.11-0.85c0.66-0.08,1.19,0.41,1.24,1.03c0.06,0.63-0.41,1.19-1.03,1.24c-2.97,0.27-6,0.56-9.11,0.85
					C2453.11,2321.14,2453.07,2321.14,2453.04,2321.14z M2483.42,2318.44c-0.59,0-1.09-0.46-1.14-1.05
					c-0.05-0.63,0.42-1.18,1.05-1.23c3.15-0.25,6.19-0.49,9.13-0.7c0.73,0.05,1.18,0.43,1.23,1.06c0.05,0.63-0.43,1.18-1.06,1.23
					c-2.94,0.21-5.97,0.45-9.12,0.7C2483.48,2318.44,2483.45,2318.44,2483.42,2318.44z M2513.85,2316.42
					c-0.61,0-1.11-0.48-1.14-1.09c-0.03-0.63,0.46-1.17,1.09-1.2c3.27-0.16,6.33-0.28,9.16-0.36c0.01,0,0.03,0,0.04,0
					c0.62,0,1.12,0.49,1.14,1.11c0.02,0.63-0.48,1.16-1.11,1.18c-2.83,0.08-5.87,0.2-9.12,0.36
					C2513.89,2316.42,2513.87,2316.42,2513.85,2316.42z"/>
				
					<linearGradient id="SVGID_00000090263090393036663240000007626177700336093844_" gradientUnits="userSpaceOnUse" x1="-15.3359" y1="2961.0835" x2="-40.4173" y2="3159.8044" gradientTransform="matrix(0.9919 -0.127 0.127 0.9919 1989.9969 -609.5969)">
					<stop  offset="0" style="stop-color:#E13D92"/>
					<stop  offset="1" style="stop-color:#E95AAB"/>
				</linearGradient>
				<path style="fill:url(#SVGID_00000090263090393036663240000007626177700336093844_);" d="M2387.2,2523.53l-55.3,7.08
					c-7.25,0.93-14.04-3.68-15.81-10.73l-13.2-52.39c-2.1-8.35,3.59-16.65,12.17-17.75l66.43-8.5c8.4-1.07,15.91,5.25,16.24,13.68
					l2.06,53.82C2400.07,2516.15,2394.61,2522.58,2387.2,2523.53z"/>
				
					<linearGradient id="SVGID_00000045601056009152888720000009686886196344295573_" gradientUnits="userSpaceOnUse" x1="-69.0901" y1="3116.9963" x2="3.8435" y2="3116.9963" gradientTransform="matrix(0.9919 -0.127 0.127 0.9919 1989.9969 -609.5969)">
					<stop  offset="0" style="stop-color:#FF8ECF"/>
					<stop  offset="1" style="stop-color:#FE62A8"/>
				</linearGradient>
				<path style="fill:url(#SVGID_00000045601056009152888720000009686886196344295573_);" d="M2379.14,2514.61l-42.09,5.39
					c-5.52,0.71-10.69-2.8-12.04-8.17l-10.04-39.88c-1.6-6.35,2.74-12.67,9.26-13.51l50.56-6.47c6.39-0.82,12.11,4,12.36,10.41
					l1.57,40.96C2388.94,2509,2384.78,2513.89,2379.14,2514.61z"/>
			</g>
			
				<linearGradient id="SVGID_00000129203991406726379370000003562278284069304997_" gradientUnits="userSpaceOnUse" x1="2396.0161" y1="2120.72" x2="2254.75" y2="2392.386">
				<stop  offset="0" style="stop-color:#FEBAE5"/>
				<stop  offset="1" style="stop-color:#FF8ECF"/>
			</linearGradient>
			<path style="fill:url(#SVGID_00000129203991406726379370000003562278284069304997_);" d="M2346.25,2090.59
				c13.04,53.89,13.39,106.62,11.4,125.81c-0.75,7.24-6.57,12.89-13.82,13.4c-8.25,0.58-19.47,1.33-29.5,1.91
				c-11.02,0.64-23.26-6.33-31.44-12.15c-4.18-2.97-9.58,1.66-7.25,6.22c4.02,7.86,11,14.06,17.93,19.32
				c4.17,3.17,18.02,8.79,17.06,15.03c-0.31,1.97-1.49,3.68-2.77,5.21c-7.7,9.24-19.35,14.17-30.84,17.7
				c-1.44,0.44-2.97,0.91-3.98,2.03c-0.29,7.44,22.58,15.69,28.49,17.65c8.84,2.94,18.22,4.18,27.51,3.2
				c23.01-2.42,44.26-18.31,56.66-37.46c33.13-51.2,50.26-113.02,56.52-160.3C2411.4,2077.36,2364.87,2085.17,2346.25,2090.59z"/>
			<g>
				
					<linearGradient id="SVGID_00000128469029452957112630000017916371124796718781_" gradientUnits="userSpaceOnUse" x1="2680.4897" y1="1327.8269" x2="2522.8879" y2="1638.5913">
					<stop  offset="0" style="stop-color:#052669"/>
					<stop  offset="1" style="stop-color:#0F3D91"/>
				</linearGradient>
				<path style="fill:url(#SVGID_00000128469029452957112630000017916371124796718781_);" d="M2442.22,2113.04
					c24.58-185.68-118.51-328.46-118.51-328.46l-85.14,99.25c64.64,80.57,95.36,154.39,109.4,212.38
					C2366.58,2090.79,2411.4,2082.23,2442.22,2113.04z"/>
				
					<linearGradient id="SVGID_00000091009396717381954210000002308673314039104131_" gradientUnits="userSpaceOnUse" x1="2730.9832" y1="1486.4933" x2="1836.2012" y2="2498.4973">
					<stop  offset="0" style="stop-color:#4095E2"/>
					<stop  offset="1" style="stop-color:#4FADFF"/>
				</linearGradient>
				<path style="fill:url(#SVGID_00000091009396717381954210000002308673314039104131_);" d="M2345.94,2095.3
					c-2.38,0-4.54-1.62-5.12-4.03c-17.3-71.48-53.77-142.24-108.38-210.32c-1.82-2.27-1.46-5.59,0.81-7.41
					c2.27-1.82,5.59-1.46,7.41,0.81c55.59,69.3,92.74,141.44,110.41,214.44c0.68,2.83-1.06,5.68-3.88,6.36
					C2346.77,2095.26,2346.35,2095.3,2345.94,2095.3z"/>
			</g>
		</g>
		<g>
			<g>
				
					<linearGradient id="SVGID_00000127745215523529306260000015250594711279430317_" gradientUnits="userSpaceOnUse" x1="-218.7589" y1="3152.7793" x2="-97.1893" y2="3152.7793" gradientTransform="matrix(1 0 0 1 1290.1023 0)">
					<stop  offset="0" style="stop-color:#052669"/>
					<stop  offset="1" style="stop-color:#0F3D91"/>
				</linearGradient>
				<path style="fill:url(#SVGID_00000127745215523529306260000015250594711279430317_);" d="M1192.91,3196.07
					c0.01-0.91-0.05-1.82-0.28-2.75c-13.69-54.28-81.65-88.1-81.65-88.1l-26.93,2.11c-15.48,47.85-13.49,77.19-11.01,90.26
					c0.07,0.37,0.18,0.71,0.28,1.07C1095.54,3200.65,1141.26,3201.94,1192.91,3196.07z"/>
				
					<linearGradient id="SVGID_00000106113554617807688880000014916870143508911769_" gradientUnits="userSpaceOnUse" x1="85.5845" y1="3009.3616" x2="-356.6896" y2="3356.6365" gradientTransform="matrix(1 0 0 1 1290.1023 0)">
					<stop  offset="0" style="stop-color:#4095E2"/>
					<stop  offset="1" style="stop-color:#4FADFF"/>
				</linearGradient>
				<path style="fill:url(#SVGID_00000106113554617807688880000014916870143508911769_);" d="M1073.32,3198.66
					c1.2,4.37,4.42,7.76,8.55,8.63c31.6,6.65,81.83,1.3,102.91-1.46c4.65-0.61,8.05-4.91,8.13-9.77
					C1141.26,3201.94,1095.54,3200.65,1073.32,3198.66z"/>
				
					<linearGradient id="SVGID_00000128444298581491904410000016777451485062202272_" gradientUnits="userSpaceOnUse" x1="-184.9516" y1="3014.3777" x2="-208.1734" y2="3217.0422" gradientTransform="matrix(1 0 0 1 1290.1023 0)">
					<stop  offset="0" style="stop-color:#A2256A"/>
					<stop  offset="1" style="stop-color:#C03C85"/>
				</linearGradient>
				<path style="fill:url(#SVGID_00000128444298581491904410000016777451485062202272_);" d="M1073.22,3067.22l11.41,54.91
					c0.84,4.02,3.93,7.04,7.67,7.39c4.58,0.43,11.11,0.68,17.67-0.28c5.88-0.86,9.98-6.84,8.94-13.26l-7.93-48.75H1073.22z"/>
				
					<linearGradient id="SVGID_00000127045129188084620510000008448000106748844957_" gradientUnits="userSpaceOnUse" x1="164.1521" y1="3109.2776" x2="-278.1228" y2="3456.5532" gradientTransform="matrix(1 0 0 1 1290.1023 0)">
					<stop  offset="0" style="stop-color:#4095E2"/>
					<stop  offset="1" style="stop-color:#4FADFF"/>
				</linearGradient>
				<path style="fill:url(#SVGID_00000127045129188084620510000008448000106748844957_);" d="M1309.54,3197.97
					c-29.74-0.83-45.13-4.34-53.08-7.59c-0.02,2.96,0,5.97,0.09,9.08c0.1,3.33,2.57,5.99,5.6,5.97l163.3-1.05
					c5.21-0.03,8.26-6.08,6-10.86C1410.05,3195.3,1355.52,3199.26,1309.54,3197.97z"/>
				
					<linearGradient id="SVGID_00000004503881472900232800000012304117012648000930_" gradientUnits="userSpaceOnUse" x1="-33.6407" y1="3155.8691" x2="141.3573" y2="3155.8691" gradientTransform="matrix(1 0 0 1 1290.1023 0)">
					<stop  offset="0" style="stop-color:#052669"/>
					<stop  offset="1" style="stop-color:#0F3D91"/>
				</linearGradient>
				<path style="fill:url(#SVGID_00000004503881472900232800000012304117012648000930_);" d="M1431.46,3193.53
					c-0.2-0.42-0.37-0.84-0.65-1.23c-14.42-20.15-51.15-60.28-123.73-77.68l-34.82-1.1c0,0-15.5,26.95-15.8,76.87
					c7.95,3.25,23.34,6.75,53.08,7.59C1355.52,3199.26,1410.05,3195.3,1431.46,3193.53z"/>
				
					<linearGradient id="SVGID_00000098200486023833251740000008118313814729526430_" gradientUnits="userSpaceOnUse" x1="110.5274" y1="2982.9355" x2="87.3052" y2="3185.6033" gradientTransform="matrix(0.998 -0.0629 0.0629 0.998 993.2088 65.7657)">
					<stop  offset="0" style="stop-color:#A2256A"/>
					<stop  offset="1" style="stop-color:#C03C85"/>
				</linearGradient>
				<path style="fill:url(#SVGID_00000098200486023833251740000008118313814729526430_);" d="M1264.25,3062.37
					c0.55,2.57,7.79,41.63,10.6,56.78c0.67,3.6,3.47,6.24,6.81,6.43c5.96,0.33,15.58,0.37,23.85-1.87
					c4.46-1.21,7.46-5.76,7.14-10.81l-3.9-61.8L1264.25,3062.37z"/>
				
					<linearGradient id="SVGID_00000067926954352292107960000005085412995031909251_" gradientUnits="userSpaceOnUse" x1="1098.74" y1="3246.1304" x2="1270.663" y2="1987.9596">
					<stop  offset="0" style="stop-color:#4FADFF"/>
					<stop  offset="1" style="stop-color:#4095E2"/>
				</linearGradient>
				<path style="fill:url(#SVGID_00000067926954352292107960000005085412995031909251_);" d="M1237.87,2341.01
					c0,0,47.9,329.13,82.46,720.8c0.64,7.29-5.17,13.64-12.33,15.15c-10.56,2.22-26.08,4.86-38.93,4.5
					c-6.86-0.19-12.59-5.28-13.75-12.04c-11.78-69.06-95.8-439.67-117.86-521.24c0,0-25.33,346.49-17.23,526.25
					c0.2,4.47-3.07,8.35-7.52,8.86c-6.74,0.78-17.53,1.37-31.26-0.09c-5.21-0.55-9.41-4.49-10.16-9.68
					c-8.39-58.44-56.67-406.33-54.61-656.93c0.12-14.13,16.58-130.24,16.58-130.24L1237.87,2341.01z"/>
			</g>
			
				<linearGradient id="SVGID_00000065038142112947720580000000651540999459605695_" gradientUnits="userSpaceOnUse" x1="3007.7036" y1="-850.519" x2="2272.969" y2="-104.6855" gradientTransform="matrix(0.991 -0.1339 0.1339 0.991 690.6002 157.8111)">
				<stop  offset="0" style="stop-color:#FF8ECF"/>
				<stop  offset="1" style="stop-color:#FE62A8"/>
			</linearGradient>
			<path style="fill:url(#SVGID_00000065038142112947720580000000651540999459605695_);" d="M1026.07,2359.98
				c-4.92-1.75-8.36-6.21-8.89-11.41c-6.37-61.8-37.21-444.96,157.49-602.57c0,0,11.17-29.21,102.94,42.6
				c91.78,71.81,42.64,147.08,20.67,250.9c-26.59,125.63-73.24,228.32-52.6,305.63c1.42,5.33-1.38,10.94-6.56,12.85
				C1167.82,2384.24,1096.8,2385.11,1026.07,2359.98z"/>
			
				<linearGradient id="SVGID_00000001632835557995235980000006177970601836581787_" gradientUnits="userSpaceOnUse" x1="1175.5846" y1="1861.944" x2="1300.62" y2="1580.6144">
				<stop  offset="0" style="stop-color:#A2256A"/>
				<stop  offset="1" style="stop-color:#C03C85"/>
			</linearGradient>
			<path style="fill:url(#SVGID_00000001632835557995235980000006177970601836581787_);" d="M1250.61,1631.19
				c-0.06,5.45-77.81,115.88-77.81,115.88s13.95,27.48,80.58,49.8l57.51-118.24L1250.61,1631.19z"/>
			<g>
				
					<linearGradient id="SVGID_00000130637886112971527490000002868638660499851651_" gradientUnits="userSpaceOnUse" x1="1134.1946" y1="1421.4891" x2="1311.7745" y2="1692.2982">
					<stop  offset="0" style="stop-color:#A2256A"/>
					<stop  offset="1" style="stop-color:#C03C85"/>
				</linearGradient>
				<path style="fill:url(#SVGID_00000130637886112971527490000002868638660499851651_);" d="M1311.83,1567.91
					c0,0,27.66,63.55,29.52,96.9c1.86,33.35,9.04,55-29.52,61.71c-38.57,6.72-71.06-12.5-88.66-45.72c0,0-27.58-51.2-21.39-72.16
					C1207.97,1587.68,1311.83,1567.91,1311.83,1567.91z"/>
				
					<linearGradient id="SVGID_00000083788638357506740690000003979530964986086559_" gradientUnits="userSpaceOnUse" x1="1150.8195" y1="1468.8466" x2="1284.1656" y2="1625.0264">
					<stop  offset="0" style="stop-color:#052669"/>
					<stop  offset="1" style="stop-color:#0F3D91"/>
				</linearGradient>
				<path style="fill:url(#SVGID_00000083788638357506740690000003979530964986086559_);" d="M1236.35,1656.92l2.2-0.97
					c2.79-1.23,3.99-4.56,2.59-7.27c-5.44-10.51-16.04-34.59-2.34-40.2c17.65-7.24,87.57-21.5,102.65-46.31
					c14.5-23.84,1.65-54.62-17.65-63.38c-1.29-0.59-2.82-0.12-3.48,1.13l-1.61,3.04c-1.1,2.08-4.18,1.77-4.83-0.5l0,0
					c-0.63-2.17-3.52-2.59-4.72-0.68c-4.64,7.42-17.16,19.46-50.63,25.63c-47.58,8.78-79.03,28.04-79.82,60.91
					c-0.05,2.09-2.27,3.25-4.06,2.16c-3.51-2.14-9.13-3.15-16.65,3.17c-13.07,10.99-7.72,39.49,20.92,62.93
					c1.36,1.11,1.35,3.24-0.12,4.2c-5.19,3.38-12.93,11.42,7.12,22.15c20.75,11.09,36.24,10.18,42.21,9.2
					c1.48-0.24,2.44-1.68,2.12-3.15l-6.37-28.9c-0.36-1.64,0.88-3.18,2.56-3.18H1236.35z"/>
				
					<linearGradient id="SVGID_00000123429328636982144290000017251878050069930635_" gradientUnits="userSpaceOnUse" x1="1087.76" y1="1451.9381" x2="1265.3401" y2="1722.7473">
					<stop  offset="0" style="stop-color:#A2256A"/>
					<stop  offset="1" style="stop-color:#C03C85"/>
				</linearGradient>
				<path style="fill:url(#SVGID_00000123429328636982144290000017251878050069930635_);" d="M1237.55,1663.02
					c0,0-10.55-40.59-28.75-29.21c-18.2,11.38,9.44,45.48,24.08,47L1237.55,1663.02z"/>
			</g>
			<g>
				
					<linearGradient id="SVGID_00000035524488716142055210000014713083650900466101_" gradientUnits="userSpaceOnUse" x1="2139.479" y1="1079.9685" x2="1404.7434" y2="1825.803">
					<stop  offset="0" style="stop-color:#FF8ECF"/>
					<stop  offset="1" style="stop-color:#FE62A8"/>
				</linearGradient>
				<path style="fill:url(#SVGID_00000035524488716142055210000014713083650900466101_);" d="M1307.13,1821.91l5.36,143.96
					c15.23,5.24,29.72,9.31,43.52,12.36c8.63-27.8,27.65-61.91,43.21-87.28C1342.03,1870.74,1307.13,1821.91,1307.13,1821.91z"/>
				
					<linearGradient id="SVGID_00000035497417949512457830000016430134227602270083_" gradientUnits="userSpaceOnUse" x1="1696.2726" y1="1807.3691" x2="1356.9987" y2="1976.1392">
					<stop  offset="0" style="stop-color:#A2256A"/>
					<stop  offset="1" style="stop-color:#C03C85"/>
				</linearGradient>
				<path style="fill:url(#SVGID_00000035497417949512457830000016430134227602270083_);" d="M1592.69,1819.47
					c-78.46,84.71-141.96,89.7-193.46,71.49c-15.57,25.37-34.58,59.48-43.21,87.28c209.52,46.19,258.86-146.42,258.86-146.42
					L1592.69,1819.47z"/>
				
					<linearGradient id="SVGID_00000146490833020959259930000003450521312102290817_" gradientUnits="userSpaceOnUse" x1="1691.3059" y1="1765.0409" x2="1575.2563" y2="1886.2482">
					<stop  offset="0" style="stop-color:#A2256A"/>
					<stop  offset="1" style="stop-color:#C03C85"/>
				</linearGradient>
				<path style="fill:url(#SVGID_00000146490833020959259930000003450521312102290817_);" d="M1608.6,1810.47
					c0,0,9.04-9.71,25.76-6.66c16.73,3.05,31.62,8.86,42.04,0c10.42-8.86,14.09,3.03,14.09,3.03l-31.21,23.72L1608.6,1810.47z"/>
				
					<linearGradient id="SVGID_00000166663332337009766210000005116178566598797232_" gradientUnits="userSpaceOnUse" x1="1697.8853" y1="1805.3689" x2="1358.6124" y2="1974.1384">
					<stop  offset="0" style="stop-color:#A2256A"/>
					<stop  offset="1" style="stop-color:#C03C85"/>
				</linearGradient>
				<path style="fill:url(#SVGID_00000166663332337009766210000005116178566598797232_);" d="M1589.94,1827.06
					c0,0,6.19-25.89,24.85-22.34c18.66,3.55,61.03,26.59,71.95,22.34c10.92-4.24,24.88-14.4,32.04-10.81l-12.62,15.69
					c0,0,32.44-18.71,38.02-7.21l-53.97,30.37C1690.21,1855.09,1611.25,1847.19,1589.94,1827.06z"/>
			</g>
			
				<linearGradient id="SVGID_00000015337799343279280600000001795021889411686825_" gradientUnits="userSpaceOnUse" x1="1839.663" y1="2091.7253" x2="855.0616" y2="1913.682">
				<stop  offset="0" style="stop-color:#A2256A"/>
				<stop  offset="1" style="stop-color:#C03C85"/>
			</linearGradient>
			<path style="fill:url(#SVGID_00000015337799343279280600000001795021889411686825_);" d="M1220.04,2010.33
				c0,0,147.51,123.54,306.79,69.63c9.88-3.34,20.68-2.62,29.9,2.25l45.79,24.19c19.22,10.15,43.02,3.49,54.18-15.17
				c6.36-10.64,11.79-22.8,12.87-34.44l-89.6-36.27l6.61-10.99c0,0-43.75-3.71-55.2,27.65c0,0-83.33,34.66-223.85-119.91
				C1307.52,1917.27,1243.75,1971.49,1220.04,2010.33z"/>
			
				<linearGradient id="SVGID_00000046327357202067393880000000584043282083113117_" gradientUnits="userSpaceOnUse" x1="1490.1113" y1="1341.505" x2="601.147" y2="3019.5527">
				<stop  offset="0" style="stop-color:#E13D92"/>
				<stop  offset="1" style="stop-color:#E95AAB"/>
			</linearGradient>
			<path style="fill:url(#SVGID_00000046327357202067393880000000584043282083113117_);" d="M1212.1,2009.06
				c-0.49,0-0.98-0.14-1.41-0.43c-62.11-41.96-91.33-109.69-91.61-110.38c-0.54-1.29,0.06-2.77,1.34-3.31
				c1.29-0.55,2.76,0.05,3.31,1.34c0.28,0.67,28.96,67.06,89.79,108.17c1.16,0.78,1.46,2.35,0.68,3.51
				C1213.71,2008.67,1212.91,2009.06,1212.1,2009.06z"/>
			
				<linearGradient id="SVGID_00000130624930693241399350000009778712335393258390_" gradientUnits="userSpaceOnUse" x1="1493.2131" y1="1343.1514" x2="604.249" y2="3021.1987">
				<stop  offset="0" style="stop-color:#E13D92"/>
				<stop  offset="1" style="stop-color:#E95AAB"/>
			</linearGradient>
			<path style="fill:url(#SVGID_00000130624930693241399350000009778712335393258390_);" d="M1304.61,1915.18
				c-0.83,0-1.64-0.41-2.13-1.16c-0.19-0.29-19.16-29.83-55.3-94.54c-11.11-19.9-25.72-32.5-43.41-37.45
				c-29.3-8.19-57.53,7.52-57.81,7.68c-1.22,0.67-2.75,0.27-3.44-0.95c-0.69-1.21-0.27-2.75,0.95-3.44
				c1.22-0.69,30.26-16.94,61.62-8.16c19.06,5.32,34.7,18.73,46.51,39.86c36.05,64.55,54.95,93.98,55.14,94.27
				c0.75,1.17,0.42,2.73-0.75,3.49C1305.55,1915.05,1305.08,1915.18,1304.61,1915.18z"/>
		</g>
	</g>
</g>
</svg>
