<?xml version="1.0" encoding="utf-8"?>
<!-- Generator: Adobe Illustrator 25.4.1, SVG Export Plug-In . SVG Version: 6.00 Build 0)  -->
<svg version="1.1" id="Layer_1" xmlns="http://www.w3.org/2000/svg" xmlns:xlink="http://www.w3.org/1999/xlink" x="0px" y="0px"
	 viewBox="0 0 750 500" style="enable-background:new 0 0 750 500;" xml:space="preserve">
<style type="text/css">
	.st0{fill:#FDF0E2;}
	.st1{fill:#F7F0FD;}
	.st2{fill:#FFD386;}
	.st3{fill:#0C2D41;}
	.st4{fill:#EDBE72;}
	.st5{fill:#BDBEC0;}
	.st6{fill:#533238;}
	.st7{fill:#684048;}
	.st8{fill:#FFAF66;}
	.st9{fill:#553568;}
	.st10{fill:#442B56;}
	.st11{fill:#E89B5B;}
	.st12{fill:#FFFFFF;}
	.st13{fill:#113F56;}
	.st14{fill:#5E3C77;}
	.st15{fill:#4C3363;}
	.st16{fill:#EF7F1A;}
	.st17{fill:#F9A86B;}
	.st18{fill:#E99C5B;}
	.st19{fill:#744E96;}
	.st20{fill:#D32F5A;}
	.st21{fill:#EF4572;}
	.st22{fill:#09212D;}
	.st23{fill:#7C71CD;}
	.st24{fill:#6962BC;}
	.st25{fill:#F7527E;}
	.st26{fill:#24283F;}
	.st27{fill:#373E5B;}
	.st28{fill:#56AECE;}
	.st29{fill:#4198AF;}
	.st30{fill:#AEAEAF;}
	.st31{fill:#80878E;}
	.st32{fill:#64676C;}
	.st33{fill:#92D8FE;}
	.st34{fill:#FFF252;}
	.st35{fill:#73CDE5;}
	.st36{fill:#FF9750;}
</style>
<g id="OBJECTS">
	<g>
		<path class="st0" d="M648,283.9c-1.6-19-20.3-18.8-20-37.8c0.3-17,38.2-30.2,34.4-46.8c-6.6-28.9-52.7-14.6-57.4-28.4
			c-3.5-10.3,3.4-15.1,12.1-21.9c38.7-30.7-39.2-55.8-86.2-39.3c-17.7,6.2-35.5,3.6-53-3.3c-7.6-3-13.9-8.3-20.9-12.4
			c-16.4-9.6-37.2-12.1-55.5-6.7c-11.6,3.4-22.1,9.7-33.8,12.7c-16.2,4.1-34.2,1.2-48.2-7.7L294,92.9c-18.4-3.2-37.6-1.6-55.1,4.6
			c-6.6,2.3-13.3,5.6-16.5,11.6c-2.8,5.3-2.3,11.8-5.1,17.2c-3.7,7.1-12.2,10.3-19.9,13c-13.4,4.6-26.7,9.2-40,13.7
			c-15.6,5.3-32,11.3-42.1,23.9s-10,34.1,4.4,41.9c5.6,3,12.4,3.5,18.1,6.3s10.4,9.8,7,15.1c-1.5,2.3-4.1,3.6-6.5,4.9
			c-13.1,7-25.2,15.8-35.6,26.2c-7.9,7.8-15,16.9-17.5,27.5s0.9,23.1,10.3,29.1c7.7,4.9,17.5,4.6,26.7,4.8
			c21.4,0.2,42.8,3.3,63.4,8.9c12.8,3.5,26.2,8.7,33.4,19.5c4.4,6.6,6.1,14.8,11.4,20.9c7.2,8.3,19.5,10.8,30.7,9.9
			c11.2-0.9,21.9-4.5,33-6.2c27.6-4.1,55.2,4.1,82.6,9.2c51.1,9.5,104.3,8.2,154.8-3.8c6.2-1.5,14-5.3,12.8-11.4
			c-1.1-5.8-9.3-7.2-13.1-11.9c-6.1-7.5,1.9-18,9.8-23.7c12.7-9,26.8-16,41.8-20.8c19.6-6.2,26.8-7.2,45.5-15.6
			C638.5,302.9,648.9,294.5,648,283.9z"/>
		<g>
			<ellipse class="st1" cx="351.1" cy="440" rx="259.4" ry="26.8"/>
			<g>
				<path class="st2" d="M486.7,305.4c0,6.1-1.2,42.2-19,50.4c-18.9,8.7-98.4,14.7-109-1.2c-1.5-2.3-2.9-4.8-3.3-7.5
					c-0.2-1.5-0.2-3,0.2-4.5c0.2-0.7,0.4-1.3,0.7-1.9c1.1-2.1,2.9-3.8,4.7-5.4c8.7-7.5,18.2-13.1,28-19c7-4.2,14.5-9.9,15.7-18.5
					c2.4-16.9-10.9-37.1-3-53.9c1.4-3.1,4.1-5.4,6.8-7.4c15.9-11.6,56.4-5.2,59.4-4C490.8,241.8,486.8,281.2,486.7,305.4z"/>
				<g>
					<rect x="424.7" y="348.6" class="st3" width="7.8" height="76"/>
					<path class="st3" d="M440.7,423.2l-12.1-5.4l-12.2,5.3c-3.6,1.5-7.2,2.8-11,3.5c-8.3,1.7-13.6,4.3-13.6,7.2
						c0,5.1,16.4,9.3,36.6,9.3c20.2,0,36.6-4.1,36.6-9.3c0-2.9-5.1-5.4-13.1-7.1C448,426,444.3,424.8,440.7,423.2z"/>
				</g>
				<path class="st4" d="M486.7,305.4c0,6.1-1.2,42.2-19,50.4c-18.9,8.7-98.4,14.7-109-1.2c-1.5-2.3-2.9-4.8-3.3-7.5
					c-0.2-1.5-0.2-3,0.2-4.5c1.9,0.2,3.8,0.8,5.8,1.6c28.8,11.7,93.1,2.4,103.8-9.3c10.7-11.7,14.7-56.6,2.7-77.1
					c-12-20.5,0-25.3,0-25.3C490.8,241.8,486.8,281.2,486.7,305.4z"/>
			</g>
			<g>
				<rect x="234.2" y="348.6" class="st3" width="7.8" height="76"/>
				<path class="st2" d="M180,305.4c0,6.1,1.2,42.2,19,50.4c18.9,8.7,98.4,14.7,109-1.2c1.5-2.3,2.9-4.8,3.3-7.5
					c0.2-1.5,0.2-3-0.2-4.5c-0.2-0.7-0.4-1.3-0.7-1.9c-1.1-2.1-2.9-3.8-4.7-5.4c-8.7-7.5-18.2-13.1-28-19c-7-4.2-14.5-9.9-15.7-18.5
					c-2.4-16.9,10.9-37.1,3-53.9c-1.4-3.1-4.1-5.4-6.8-7.4c-15.9-11.6-56.4-5.2-59.4-4C176,241.8,179.9,281.2,180,305.4z"/>
				<path class="st4" d="M180,305.4c0,6.1,1.2,42.2,19,50.4c18.9,8.7,98.4,14.7,109-1.2c1.5-2.3,2.9-4.8,3.3-7.5
					c0.2-1.5,0.2-3-0.2-4.5c-1.9,0.2-3.8,0.8-5.8,1.6c-28.8,11.7-93.1,2.4-103.8-9.3c-10.7-11.7-14.7-56.6-2.7-77.1
					c12-20.5,0-25.3,0-25.3C176,241.8,179.9,281.2,180,305.4z"/>
				<path class="st3" d="M226.1,423.2l12.1-5.4l12.2,5.3c3.6,1.5,7.2,2.8,11.1,3.5c8.3,1.7,13.6,4.3,13.6,7.2
					c0,5.1-16.4,9.3-36.6,9.3s-36.6-4.1-36.6-9.3c0-2.9,5.1-5.4,13.1-7.1C218.8,426,222.5,424.8,226.1,423.2z"/>
			</g>
			<g>
				<g>
					<path class="st5" d="M280.2,439.9c11,1.5,44.5,0.9,46.4-1.5c4.1-5.1-4.4-9.5-25.4-14.5c-0.6-0.1-3.5-4.4-3.9-6.8
						c-3.7-0.2-10.5,5.1-14.2,5C283,424.5,278.9,439.8,280.2,439.9z"/>
					<path class="st5" d="M236.3,444.3c-0.1,8.8,21.8,8.3,29.5,3.4c2.6-1.6,2.8-4.2,0.3-7.4c-3.6-4.7-6.6-7.9-10.4-12.2
						c-2.3-2.6-5-5.7-4.2-9.1c-0.1,0.5-9.4-0.3-10.5,0c-4.9,1.1-2.4-0.5-3.2,3.5C236.4,428.7,236.3,443.9,236.3,444.3z"/>
					<path class="st6" d="M321,338.9c3.7,20-16.4,48.3-21.1,83.4c-5.3,3-12.3,2.5-16.7-0.3c-0.9-31.9,4.5-59,9.8-70.5
						c0.5-1-16.3-7.9-23-10.9c-5.3-2.4-10.8-4.9-14.9-9.1c-7.1-7.4-8.4-18.6-7.6-28.8c0.1-1,0.2-2,0.9-2.7c0.7-0.7,1.8-0.8,2.8-0.9
						c11.3-1,21.9-0.5,33.7,8.6C290.2,311.9,320,333.7,321,338.9z"/>
					<path class="st7" d="M236.7,347c5,3,10.5,5.5,10.5,8.9c-0.1,8-4.1,22.9-6,30.7c-2.8,11.7-4.1,23.7-4,35.7
						c1.2,4.8,13.2,6.1,15.9,0.2c8.2-18,16.5-37.6,25.4-55.3c3.4-6.9,5.8-11.7,4.6-17.1c-1.4-6.5-25.6-27.6-26.6-31.9
						c-1-4.3-0.6-8.7-0.2-13.1c-13.7-1.2-27.4-2.4-41.2-3.6c-3.2-0.3-7.2,2.4-7.9,5.1c-1.1,4.1-0.2,16.6,4,23.4
						C219.7,344,228.6,342.1,236.7,347z"/>
				</g>
				<g>
					<path class="st8" d="M317.4,176.1c0.8-0.5,1.7-0.9,2.3-1.6c0.8-0.8,1.1-2.1,2.2-2.6c1.5-0.6,4.9-1.2,3.1,2.1
						c-0.9,1.6-5.3,4.5-4.4,4.1c2.5-0.9,4.9-0.6,7.3-1.8c1.3-0.6,1.5-5,1.6-6.8c0.1-1.8,0.6-3.8,2.3-3.3c1.1,0.3,2,14.2,1.5,14.8
						c-2.3,2.4-6.4,4.6-8,6.2c-1.2,1.2,0.7,3.7-1.5,5.2c-2,1.3-8.1,6-10,0C312.6,188.7,313.9,178.4,317.4,176.1z"/>
					<path class="st9" d="M303,236.3c9.9-10.6,6.6-31.6,9-47.3c2.6-1.9,10.2-1.1,14,0c0,16.9,3.4,44.8-3.2,57.3
						c-1.8,3.4-3.8,6.9-7,9.2c-4.7,3.3-11.1,3.2-16.6,1.3c-5.4-1.9-10.2-5.2-15.3-8c-5.1-2.8-10.5-5.2-15-8.9
						c-8.1-6.6-12.7-26.8,2.9-27.3C283.2,212.3,297,228.2,303,236.3z"/>
				</g>
				<g>
					<path class="st9" d="M202.2,224.9c-2.3,5.9-0.5,10.7-0.8,17c-0.4,10-0.8,20.2,1.6,29.9c1.2,4.9,3.1,9.6,4,14.6
						c0.9,5.1,0.8,10.3,0.1,15.4c-0.2,1.6-0.5,3.3,0.1,4.9c1,2.8,4.4,3.9,7.3,4.6c10.7,2.5,21.7,4.4,32.7,3.9
						c12.7-0.6,24.9-4.4,37.4-6.6c2.2-1.5-11.6-11-7.4-32.4c2.2-11.2,4.5-22.4,4.8-33.8c0.2-8.6-1.4-17-3-25.4
						c-0.3-1.8-0.7-3.6-1.9-5c-1.6-1.9-4.3-2.3-6.8-2.6c-13.1-1.7-25.6-6.5-39.9-4c-7.7,1.3-16.4,3.6-19.4,5.5
						C206.4,213.5,204.7,218.6,202.2,224.9z"/>
					<g>
						<g>
							<path class="st10" d="M228.1,211.2c1.3,3.8,3,7.2,5.4,10.4c2,2.8,4.2,5.7,7.7,6.5c0.6,0.1,0.8-0.7,0.2-0.9
								c-6.3-2.5-10.2-10.3-12.6-16.3C228.6,210.6,227.9,210.7,228.1,211.2L228.1,211.2z"/>
						</g>
						<g>
							<path class="st10" d="M228.9,248c2.5,3.7,6.1,7.6,10.4,9c0.2,0.1,0.3-0.3,0.2-0.4c-3.7-2.8-7.2-5.1-10-9
								C229.2,247.3,228.7,247.6,228.9,248L228.9,248z"/>
						</g>
						<g>
							<path class="st10" d="M229,256.8c2.5,2,5.2,4.2,8.2,5.3c0.3,0.1,0.5-0.4,0.2-0.5c-2.6-1.8-5.5-3.2-8-5.2
								C229.1,256.1,228.7,256.5,229,256.8L229,256.8z"/>
						</g>
						<g>
							<path class="st10" d="M226.6,295.9c6.2,2.1,12.6,3.8,19.1,4.9c5,0.8,10.4,1.9,15.3,0.9c0.4-0.1,0.3-0.8-0.1-0.8
								c-11.1,1.4-23.7-2.2-34.1-5.5C226.4,295.3,226.2,295.8,226.6,295.9L226.6,295.9z"/>
						</g>
					</g>
				</g>
				<g>
					<path class="st11" d="M230.2,205.2c0.4,1.6,3.6,8.3,4.5,9.7c6.2,9.8,13.4,11.2,19.2,11.3c9.4,0.1,15.8-17.1,15.7-18.1
						c-0.1-1.3-4.6-0.6-5.4-1.8c-2.1-3.4,0.3-15.1-0.5-15c-7.4,1-24.1-13.7-25.3-4.8c-0.8,5.6-0.8,11.5-3.8,15.7
						C232.8,205.1,230.2,205.2,230.2,205.2z"/>
					<path class="st8" d="M242.6,194.1c2.8,3.2,11,10.4,17.6,7.7c2.5-1,4.6-2.8,6.4-4.8c6.3-7.1,6.2-17.6,6.3-32.1
						c0.1-6.9-5.2-7.7-11.6-10.1c-7.3-2.8-19.1-2.8-22.5,4.4C234.6,167.9,236.3,186.8,242.6,194.1z"/>
					<path class="st12" d="M254.6,189c0,0,0.1,9.3,2.5,9.1c2.2-0.2,4.4-5.5,4.4-7.6C261.4,190.5,257,190.8,254.6,189z"/>
					<path class="st3" d="M239.8,174.8c1.2-8.4,1.5-17.4,4.7-15.8c8.4,4.1,20.1,7.1,28.4,5.8c2.7-4.1,4.3-9.1,1.2-14.3
						c-3.9-6.4-29.9-10.7-34.1-0.4c-8.8-0.7-10,7.4-10.2,10.5c-0.7,8.2,1.4,12.1,2.4,19.1c2.3,0.4,4.7,1.2,6.7,2.1
						C238.9,180.7,240.1,177.9,239.8,174.8z"/>
					<path class="st8" d="M241.1,177.8c-0.9-3.4-3.9-7.4-7-5.6c-3.9,2.2-2.1,8.5-0.1,11.7c1,1.6,2.6,2.9,4.5,2.8
						C242.6,186.4,241.1,177.8,241.1,177.8z"/>
					<circle class="st3" cx="253" cy="176.1" r="1.4"/>
					<g>
						<path class="st11" d="M260.1,174.5c-0.5,2.3-0.5,4.7,0.2,7c0.3,1,1.2,2.2,0.9,3.1c-0.6,1.8-2.8,1.5-4.2,1.4
							c-0.3,0-0.4,0.3-0.4,0.5c0.7,3,4.9,0.4,6-1c0.8-1.1,0.3-1.6-0.2-2.8c-1.2-2.6-1.4-5.3-1.1-8.1
							C261.3,174,260.2,173.9,260.1,174.5L260.1,174.5z"/>
					</g>
					<g>
						<path class="st3" d="M250.2,170.9c1.7-0.9,4.2-1.3,5.8,0c1.5,1.2,3.6-0.9,2.1-2.1c-2.7-2.2-6.4-1.6-9.1,0.5
							C248.1,170,249.3,171.4,250.2,170.9L250.2,170.9z"/>
					</g>
					<circle class="st3" cx="267.4" cy="176.1" r="1.4"/>
					<g>
						<path class="st3" d="M271.7,170.6c-1.3-3.2-4.6-3.2-7.4-2c-1.7,0.8-0.2,3.4,1.5,2.6c1.3-0.6,3.1-1.3,4.1,0.2
							C270.4,172.2,272.1,171.7,271.7,170.6L271.7,170.6z"/>
					</g>
					<g>
						<path class="st11" d="M238,175.7c-0.9-0.5-2.1-0.9-3-0.2c-0.8,0.6-0.7,1.6-0.7,2.5c0,1.9,0.5,4.9,3,4.9c0.4,0,0.6-0.6,0.2-0.8
							c-1.4-0.6-2-1.5-2.1-3c0-0.4-0.1-0.9,0-1.4c-0.1-0.8,0.4-1.2,1.4-1.4c0.3,0.1,0.6,0.2,0.9,0.3
							C238.2,176.8,238.5,176,238,175.7L238,175.7z"/>
					</g>
					<g>
						<path class="st13" d="M248.5,154.5c5.6,3.8,13.3,6.9,20.2,5.8c0.4-0.1,0.2-0.6-0.1-0.6c-7.3-0.9-13.3-1.7-19.8-5.7
							C248.5,153.8,248.2,154.3,248.5,154.5L248.5,154.5z"/>
					</g>
					<g>
						<path class="st13" d="M249.4,151.1c4,0.4,7.9,1.1,11.7,2.4c3.3,1.1,6.3,3,9.6,4.2c0.2,0.1,0.4-0.2,0.2-0.4
							c-5.6-4.9-14.4-6.5-21.6-6.8C249,150.5,249,151,249.4,151.1L249.4,151.1z"/>
					</g>
					<g>
						<path class="st13" d="M233.9,166.1c-0.1-2.1-0.2-4.3,0.5-6.3c0.8-2.3,2.2-3,4.1-4.3c0.2-0.1,0.1-0.5-0.1-0.5
							c-1.9-0.1-3.5,1.8-4.3,3.3c-1.2,2.4-1.1,5.2-0.9,7.8C233.2,166.6,233.9,166.6,233.9,166.1L233.9,166.1z"/>
					</g>
					<g>
						<path class="st13" d="M237,165.8c0-1.6,0.4-3.1,1.1-4.6c0.7-1.4,1.7-2.2,2.7-3.3c0.3-0.4-0.1-0.9-0.5-0.7
							c-2.9,1.5-4.2,5.5-3.8,8.6C236.5,166.1,237,166.1,237,165.8L237,165.8z"/>
					</g>
					<g>
						<path class="st13" d="M249.4,147.1c7.7-0.6,13.4,2.1,20.2,5.2c0.4,0.2,0.8-0.3,0.4-0.6c-5.4-4.7-13.8-5.6-20.6-4.9
							C249.2,146.8,249.2,147.1,249.4,147.1L249.4,147.1z"/>
					</g>
				</g>
				<g>
					<g>
						<path class="st8" d="M262.4,271.4c0.9,0,10.7,8,10.6,9.6c-0.3,2.5-8.3-1.9-9.3-2c-1-0.1-5.9,1.5-6.8,2c-3.4,1.5-6-0.3-9.6-1.3
							c-5.2-1.4-7.9-5-5.8-10C248.5,272,253.2,271.7,262.4,271.4z"/>
						<path class="st14" d="M198.2,230.4c-5,12.7-7.4,27.3-7.5,40.9c-0.1,7,3.1,9.6,4.6,9.7c19.1,1.2,37.4,1.7,56.5,0
							c0.8-5.3-0.7-5.9,0.1-11.2c-13.1-0.2-31.2-8-40.8-6.4c1.9-4.8,13-22.4,15.8-33c1.4-5.3,1.8-12.4-2.3-16.1
							c-4.9-4.5-9.2-5-13.7-3.6C201,213.8,200.3,225.1,198.2,230.4z"/>
					</g>
					<g>
						<g>
							<path class="st9" d="M199.7,269.9c1.5-1.5,3.2-2.7,5.2-3.5c1.6-0.7,3.4-0.7,5-1.4c0.3-0.1,0.2-0.6-0.1-0.6
								c-3.7-1-8.4,2.5-10.8,5C198.7,269.7,199.3,270.3,199.7,269.9L199.7,269.9z"/>
						</g>
						<g>
							<path class="st9" d="M199,265.3c1.3-0.5,2.7-0.9,4.1-1c1.2-0.1,2.5,0.1,3.8-0.2c0.2,0,0.3-0.4,0.1-0.6c-2.4-1.2-6,0-8.1,1.2
								C198.5,264.9,198.7,265.4,199,265.3L199,265.3z"/>
						</g>
						<g>
							<path class="st9" d="M246.1,272.8c0.7,0,1.4,0.1,2.1,0.3c0.6,0.2,1.1,0.5,1.8,0.6c0.4,0,0.7-0.5,0.4-0.8
								c-0.9-1.2-3-1.3-4.3-1.3C245.4,271.6,245.4,272.7,246.1,272.8L246.1,272.8z"/>
						</g>
						<g>
							<path class="st9" d="M246.1,275.7c1-0.1,1.9,0,2.9,0.3c0.2,0.1,0.5,0,0.6-0.2c0.1-0.1,0.2-0.2,0.2-0.4c0-0.3-0.2-0.5-0.5-0.6
								c-1.1-0.3-2.2-0.3-3.4-0.1C245.4,274.7,245.5,275.7,246.1,275.7L246.1,275.7z"/>
						</g>
						<g>
							<path class="st9" d="M246.1,279c0.7,0,1.3,0,2,0c0.6,0,1.1,0.1,1.6-0.3c0.2-0.1,0.2-0.5,0-0.6c-0.5-0.4-1-0.4-1.6-0.3
								c-0.7,0-1.3,0-2,0C245.4,277.8,245.4,278.9,246.1,279L246.1,279z"/>
						</g>
					</g>
				</g>
			</g>
			<g>
				<g>
					<path class="st3" d="M545,414.6c-2,3.2-11,7.6-13.8,8.4c-14.4,4-14.2,7.4-10.9,9.9c1.9,1.4,9.7,1.1,24.6,0.9
						c1.8,0,16-1.3,15.9-2c-0.6-7.3-4.5-18.4-5.5-27.3c-0.1-0.6-0.4-1.1-0.9-1.4c-0.4-0.2-0.9-0.2-1.3-0.2c-3.3,0.1-6.7,0.2-10,0.4
						C545.3,403.2,545.6,413.6,545,414.6z"/>
					<path class="st3" d="M499.2,414.8c-2.4,1.3-13.2,5.4-15.8,6.2c-4.7,1.4-12.1,4.4-10.7,8.7c3.6,3.2,11,1.9,15.9,1.9
						c6.1,0,30.5-0.6,30.5-1c0-10.3-3.1-17.5-5.1-26.2c-4.1-0.2-7.7-0.6-11.8-0.4C501.2,408.5,505,411.6,499.2,414.8z"/>
					<g>
						<path class="st14" d="M500.9,411.6c0.2,2.7,15.3,3.5,15.4-1c1.4-35,4.1-125.6,8.3-141.4c1.2-0.8,1.8-0.5,2.6,0.6
							s7.5,96.6,15.9,144c0.4,2,11.2,0.1,14.9-1c-0.3-69,4.4-129.7,2.2-183c-5.7-6.6-30.5-7.4-43.6-6.2c-8.5,0.8-21.6,1-26.6,9.3
							c0,8.3,1,22.6,1,25.5c-0.1,9.9,0.9,19.1,1.4,29C493.5,312.9,499.6,392.2,500.9,411.6z"/>
						<g>
							<g>
								<path class="st15" d="M507,258.2c3.4,4.1,8.8,8.4,14.3,8.8c0.4,0,0.5-0.5,0.2-0.7c-2.4-1.1-5-1.7-7.3-3.1
									c-2.5-1.5-4.7-3.4-6.7-5.5C507.2,257.2,506.7,257.8,507,258.2L507,258.2z"/>
							</g>
							<g>
								<path class="st15" d="M520.2,255.4c0.6,2.3,1,4.8,2,6.9c0.2,0.4,0.9,0.2,0.8-0.2c-0.3-2.3-1.3-4.7-2-6.9
									C520.9,254.6,520.1,254.8,520.2,255.4L520.2,255.4z"/>
							</g>
							<g>
								<path class="st15" d="M540.9,251.5c0.8,2.2,2.3,3.9,4.3,5.1c1.6,0.9,4.4,1.9,6.1,0.8c0.2-0.1,0.2-0.6-0.1-0.6
									c-1.8-0.5-3.5-0.1-5.3-1c-1.9-0.9-3.4-2.5-4.2-4.5C541.7,250.6,540.7,250.9,540.9,251.5L540.9,251.5z"/>
							</g>
							<g>
								<path class="st15" d="M545.9,261.3c1,0.2,2,0.4,3,0.6c0.8,0.2,1.6,0.5,2.4,0.2c0.2-0.1,0.4-0.4,0.2-0.6
									c-0.7-0.5-1.5-0.5-2.3-0.7c-1-0.2-2-0.3-3-0.5C545.6,260.3,545.3,261.2,545.9,261.3L545.9,261.3z"/>
							</g>
						</g>
					</g>
				</g>
				<g>
					<path class="st16" d="M486.3,128.6c0.1,31.4,2.6,75.2,1.1,106.9c-0.4,8.3,7.2,12.1,8.9,12.7c12.4,4.3,24.3,7.1,35.2,0
						c10.4-6.8,11.8-9.1,20.1-16.7c5.1-4.6,10.9,0.2,10.9-0.3c-1.7-32.9-5.9-73.6-7.6-106.6c-0.1-1.8-16-3.5-17.8-3.7
						c-6.4-0.6-12.9-0.4-19.3,0.6C505.6,123.4,494.9,124.7,486.3,128.6z"/>
					<g>
						<path class="st8" d="M589.4,183.2c1.6,9.8-12,40.6-23.2,52.4c-2.5,2.6-4,6.6-5.5,9.8c-0.8,1.8-1.5,3.9-3.3,4.6
							c-1.9,0.8-4-0.4-5.3-1.9c-2.8-3.2-3.4-8-2.5-12.2c1.7-7.6,7.4-6,9.5-9.7c5.3-9.4,11.7-37.5,10.3-39.1
							c-4.7-5.2-13.1-23.7-20-33.6c-1.8-2.6,16-12.7,18.5-9.9C574.2,151.1,587.5,171.2,589.4,183.2z"/>
						<path class="st16" d="M581.8,162.6c-4.8,1.9-21.3,10.3-23.8,7.7c-4.7-4.9-5-11-8.6-16.8c-3.6-5.8-6.2-12.3-6.3-19.1
							c-0.1-5.8,2.8-11.8,9.5-11.1c5,0.6,9.1,5.9,12.2,9.4C566.8,135.3,583,162.1,581.8,162.6z"/>
					</g>
				</g>
				<g>
					<path class="st11" d="M531.4,123.3c2,9.3-17.7,11.8-26,9.5c-0.8-0.2-1.8-0.6-2.1-1.4c-0.5-1.1,0.2-2.3,0.8-3.4
						c2.9-5.6,1-12.4-0.9-18.5c-0.6-1.8,17.1-10.7,18.7-6.4C524.8,111.2,528.2,117.8,531.4,123.3z"/>
					<path class="st17" d="M491.9,110c2.4,4.3,5.4,8.6,9.6,11.1c4.2,2.6,10,3.1,14.1,0.2c4-2.9,5.3-8.2,6-13.1
						c0.7-5.2,1.1-10.6,0-15.8c-1-5.2-3.6-10.2-7.8-13.4c-4.4-3.4-10.5-4.5-15.9-2.8C479.9,81.8,484.9,97.3,491.9,110z"/>
					<path class="st14" d="M478.6,85.5c0.5,1.3-0.7,2.6-1.1,3.9c-1,2.8,2.2,6,5,5c2.5-0.9,4.1-4.3,6.8-4c1.7,0.2,3,2,4.7,2.3
						c4.2,0.7,6-7.4,10.3-6.6c1.4,0.2,2.5,1.5,3.9,1.6c2.6,0.2,4-0.6,5.9,1.2c1.4,1.3,2,8.8,2.8,10.5c1.4,3.7,4.2-0.6,5,0
						c4.8,3.7,6.8-4,5.9-5.9c-0.9-1.9-2.9-4.1-1.8-6.8c0.4-1,1.1-2.3,0.5-3.2c-4.1-7,4.2-10.1-4.1-12.4c-3.3-3.2-3.5-5-7.5-2.7
						c-0.6,0.3-1.2,0.8-1.9,0.8c-1.3,0.1-2.3-1-3.2-1.9c-2.3-2.3-6-4.2-8.8-2.4c-1.2,0.8-1.3,3.5-6,2.6c-7-1.2-4.2,3.2-8.7,3.4
						c-2.8,0.1-4.4-0.8-6.7,0.8c-1.8,1.3-4.3,4.4-4.8,6.5C473.8,83.1,477.3,82.1,478.6,85.5z"/>
					<path class="st8" d="M522.4,90.6c-5.7,0.1-3.9,7.9-3.9,7.9c2.1,10.3,7,3.7,6.9,0.7C525.3,97.1,525.4,90.6,522.4,90.6z"/>
					<path class="st14" d="M497.2,103c0,0.8-0.7,1.5-1.5,1.5c-0.8,0-1.5-0.7-1.5-1.5s0.7-1.5,1.5-1.5
						C496.6,101.6,497.2,102.2,497.2,103z"/>
					<path class="st14" d="M510.1,99.4c0,0.8-0.7,1.5-1.5,1.5c-0.8,0-1.5-0.7-1.5-1.5s0.7-1.5,1.5-1.5
						C509.5,97.9,510.1,98.6,510.1,99.4z"/>
					<g>
						<path class="st18" d="M500.7,101.9c0.9,1.5,1.2,3,1.2,4.7c0,1.2-0.4,2.6-0.3,3.8c0.1,1.9,2.5,2.1,4,1.7
							c0.8-0.2,0.5-1.3-0.2-1.4c-0.5-0.1-1.4,0-1.9-0.3c-0.6-0.4-0.4-0.7-0.3-1.4c0-1,0.1-2,0-3c-0.1-1.7-0.6-3.2-1.5-4.6
							C501.2,100.8,500.4,101.3,500.7,101.9L500.7,101.9z"/>
					</g>
					<path class="st12" d="M511.6,112.3c-4.2,2.7-8.7,2.8-8.7,2.8c1.2,3.6,6.2,5.7,9,3.7C513.6,117.6,511.6,112.3,511.6,112.3z"/>
					<g>
						<path class="st14" d="M490.6,98.9c0.5-0.6,1.2-1.1,2-1.4c0.7-0.3,1.6-0.3,2-1.1c0.1-0.3,0.1-0.7-0.1-0.9
							c-0.9-0.8-2-0.2-2.9,0.3c-0.9,0.6-1.6,1.3-2.2,2.1C489,98.7,490,99.6,490.6,98.9L490.6,98.9z"/>
					</g>
					<g>
						<path class="st14" d="M504.6,93.4c1.2-0.3,2.4-0.5,3.7-0.5c1,0,1.9,0.2,2.7-0.5c0.2-0.2,0.3-0.5,0.1-0.8c-0.7-1-1.9-0.9-3-0.8
							c-1.4,0.2-2.6,0.4-3.9,0.9C503.1,92.2,503.5,93.7,504.6,93.4L504.6,93.4z"/>
					</g>
					<g>
						<path class="st18" d="M520.6,97.2c0-0.4,0.1-0.8,0.2-1.2c1.3-1,2.1-1.1,2.2-0.1c0.2,0.6,0.1,1.3,0.2,1.9
							c0.1,1.2,0.3,3.1-1,3.8c-0.5,0.3-0.1,1.1,0.5,0.8c1.2-0.6,1.5-1.8,1.6-3c0.1-1.3,0.2-3.3-0.4-4.6c-0.5-0.9-1.4-1.4-2.4-1
							c-1.4,0.5-1.7,2.1-1.7,3.4C519.7,97.8,520.5,97.8,520.6,97.2L520.6,97.2z"/>
					</g>
					<g>
						<path class="st19" d="M481.8,78.1c-2.2,0.2-2.5,3.1-0.5,3.9c0.9,0.3,1.7,0.3,2.2,1.3c0.4,0.7,0.5,1.4,1,1.9
							c0.6,0.5,1.7,0.8,2-0.1c0-0.1,0-0.2-0.1-0.3c-0.3-0.1-0.7-0.1-1-0.2c-0.5-0.3-0.6-0.9-0.8-1.4c-0.2-0.5-0.4-1-0.8-1.4
							c-0.5-0.4-1-0.5-1.6-0.7c-0.5-0.2-1.1-0.3-1-1c0-0.5,0.4-0.9,0.8-1C482.5,79,482.4,78.1,481.8,78.1L481.8,78.1z"/>
					</g>
					<g>
						<path class="st19" d="M489.2,77.4c-1,2.3,0.4,5.1,3.1,5.2c0.2,0,0.5-0.1,0.8-0.1c1.4-0.1,1.7,0,2.6,0.9
							c0.4,0.4,0.7,0.7,1.2,0.9c1.4,0.5,2.8-0.3,3.8-1.2c0.4-0.4-0.1-0.9-0.6-0.7c-0.3,0.2-0.7,0.4-1,0.5c-4.7,1.5-1.9-0.2-3-1
							c-0.5-0.4-0.6-0.6-1.2-0.7c-0.5-0.1-1,0-1.5,0.1c-1.9,0.2-4.2-1-3.2-3.4C490.4,77.3,489.5,76.8,489.2,77.4L489.2,77.4z"/>
					</g>
					<g>
						<path class="st19" d="M500,74.9C500,74.9,500.1,74.9,500,74.9c0.3-0.2,0.3-0.5,0-0.7c-0.2-0.1-0.4-0.1-0.6-0.1
							c-0.2,0.1-0.3,0.2-0.4,0.5c-0.1,1,0.5,1.7,1.3,2.1c0.6,0.3,1.2,0.3,1.9,0.3c0.5,0,1.4-0.1,1.8,0.1c0.9,0.5,1.1,1.6,1.3,2.4
							c0.1,1.2,0.3,2.4,1.5,3c0.9,0.4,1.9,0.3,2.3-0.6c0.2-0.3-0.2-0.8-0.6-0.6c-2.1,1.3-2-2.5-2.2-3.2c-0.2-0.6-0.4-1.2-0.9-1.6
							c-0.5-0.4-1-0.6-1.6-0.6c-0.5-0.1-1,0-1.5,0c-0.2,0-0.3,0-0.5,0C501.1,75.9,500.5,75.6,500,74.9c-0.2-0.2-0.3-0.3-0.4-0.5
							c0,0,0,0,0,0.1C499.4,74.7,499.7,75,500,74.9L500,74.9z"/>
					</g>
					<g>
						<path class="st19" d="M511.8,74.9c-0.3,1.5,0.1,3.2,1.4,4.2c0.8,0.6,3.4,1.5,4,0.1c0-0.1,0-0.3-0.1-0.3
							c-0.4-0.3-0.7-0.1-1.2,0c-0.7,0-1.3-0.1-1.9-0.4c-1.2-0.7-1.8-2.1-1.6-3.4C512.4,74.6,511.8,74.6,511.8,74.9L511.8,74.9z"/>
					</g>
					<g>
						<path class="st19" d="M515,84c0.5,0.8,1.1,1.5,1.9,2c0.6,0.4,1.7,1,2.3,0.5c0.1-0.1,0.1-0.3,0.1-0.4c-0.3-0.6-1.2-0.5-1.8-0.8
							c-0.7-0.4-1.3-0.9-1.8-1.6C515.4,83.2,514.7,83.6,515,84L515,84z"/>
					</g>
					<g>
						<path class="st19" d="M518,74c1.2-0.2,2.5,0.4,3,1.6c0.5,1.2-0.1,2-0.4,3.1c-0.1,0.4,0.3,0.8,0.7,0.6c1.4-0.8,1.3-3.2,0.5-4.4
							c-0.9-1.3-2.5-1.9-4-1.5C517.3,73.4,517.6,74,518,74L518,74z"/>
					</g>
				</g>
				<g>
					<path class="st8" d="M474.8,191.2c1.1,4.7,5.4,8.1,9.4,11c4,2.8,15.5,0,20.5-13.7c5.9-16.4,7.6-29.1,6.8-49.2
						c-0.1-2.1,2.7-4.1,2.6-6.8c-0.2-6.9-1.7-6.4-1.3-6.7c3-1.8,3.9-0.8,3.8-4.1c-2.4-3.1-12-3-16.5,4.1c-1,1.7-1.5,3.5-1.4,5.5
						c0.1,1.8,1.5,5.2,1.7,7c1.3,10-1,15.8-4.1,23.9c-3.4,8.6-4.8,11.1-6.6,18.9c0.4-4.4,0.1-11.7-0.5-16.4
						c-3.8,0.4-17.7-3.8-17.9,0.5C471,171.2,474,187.7,474.8,191.2z"/>
					<path class="st16" d="M473.4,143c-3.4,10.3-3.9,21.4-3.2,32.2c7.5-0.2,12.6-0.4,20.1-0.6c0.3-4.1,2.1-23.1,1.1-30.6
						c-0.6-5,0.2-18.1-5.1-15.4C480,131.6,475.6,136.4,473.4,143z"/>
				</g>
				<g>
					<g>
						<path class="st20" d="M515.2,137c4.7,0.8,10.5-0.2,14.5-2.8c2.2-1.4,6.4-4.7,6.2-7.7c0-0.6-0.8-0.7-1-0.1
							c-2.6,7.6-12.5,10.6-19.7,9.8C514.8,136,514.7,136.9,515.2,137L515.2,137z"/>
					</g>
					<g>
						<path class="st20" d="M555.2,161.1c-2.5-7.9-6.1-16.9-4.3-25.2c0.1-0.5-0.6-0.7-0.8-0.2c-3,7.8,1.9,18.2,4.4,25.6
							C554.6,161.7,555.3,161.5,555.2,161.1L555.2,161.1z"/>
					</g>
					<g>
						<path class="st20" d="M544.8,141.6c1.8,7,4.9,15.6,9.5,21.2c0.2,0.3,0.8,0,0.7-0.4c-1.2-3.1-3-6-4.5-9.1
							c-1.8-3.9-3.2-8-4.9-12C545.4,140.8,544.6,141,544.8,141.6L544.8,141.6z"/>
					</g>
					<g>
						<path class="st20" d="M491.9,166.8c0.8-7.1,1.5-14.9,0-21.9c-0.1-0.4-0.6-0.3-0.6,0.1c-0.2,7.3,0.5,14.5-0.1,21.8
							C491.1,167.2,491.8,167.2,491.9,166.8L491.9,166.8z"/>
					</g>
					<g>
						<path class="st20" d="M493.5,162.7c0.3-2.1,0.7-4.2,1-6.3c0.3-1.8,0.8-3.7,0.6-5.6c0-0.4-0.5-0.5-0.7-0.1
							c-0.7,1.7-0.7,3.7-0.9,5.5c-0.3,2.1-0.5,4.2-0.7,6.3C492.7,163,493.5,163.1,493.5,162.7L493.5,162.7z"/>
					</g>
					<g>
						<path class="st20" d="M502.3,238.6c7.5,2.3,15.9,4.1,23.5,1c4-1.6,6.8-4.8,10.1-7.3c4.9-3.8,10.1-4.8,15.9-6.4
							c0.6-0.2,0.5-1-0.2-1.1c-7.5-0.7-14.5,4-19.8,8.7c-8.7,7.6-18.6,6.9-29.2,4C501.9,237.4,501.6,238.4,502.3,238.6L502.3,238.6z
							"/>
					</g>
					<g>
						<path class="st20" d="M509.8,219.4c9.2,6.3,23.4,2.6,27.3-8.3c0.2-0.5-0.5-0.7-0.8-0.4c-3.2,4.3-6,8.1-11.3,9.9
							c-5.1,1.7-10.2,0.8-14.6-2.1C509.8,218.2,509.3,219.1,509.8,219.4L509.8,219.4z"/>
					</g>
					<g>
						<path class="st20" d="M517.2,200.3c7.5-2.3,11.3-12.4,12.5-19.4c0.1-0.7-0.8-1-1.1-0.3c-2.6,6.5-4.1,16.2-11.6,18.9
							C516.5,199.7,516.7,200.5,517.2,200.3L517.2,200.3z"/>
					</g>
				</g>
				<g>
					<g>
						<path class="st15" d="M507,258.2c3.4,4.1,8.8,8.4,14.3,8.8c0.4,0,0.5-0.5,0.2-0.7c-2.4-1.1-5-1.7-7.3-3.1
							c-2.5-1.5-4.7-3.4-6.7-5.5C507.2,257.2,506.7,257.8,507,258.2L507,258.2z"/>
					</g>
					<g>
						<path class="st15" d="M520.2,255.4c0.6,2.3,1,4.8,2,6.9c0.2,0.4,0.9,0.2,0.8-0.2c-0.3-2.3-1.3-4.7-2-6.9
							C520.9,254.6,520.1,254.8,520.2,255.4L520.2,255.4z"/>
					</g>
					<g>
						<path class="st15" d="M540.9,251.5c0.8,2.2,2.3,3.9,4.3,5.1c1.6,0.9,4.4,1.9,6.1,0.8c0.2-0.1,0.2-0.6-0.1-0.6
							c-1.8-0.5-3.5-0.1-5.3-1c-1.9-0.9-3.4-2.5-4.2-4.5C541.7,250.6,540.7,250.9,540.9,251.5L540.9,251.5z"/>
					</g>
					<g>
						<path class="st15" d="M545.9,261.3c1,0.2,2,0.4,3,0.6c0.8,0.2,1.6,0.5,2.4,0.2c0.2-0.1,0.4-0.4,0.2-0.6
							c-0.7-0.5-1.5-0.5-2.3-0.7c-1-0.2-2-0.3-3-0.5C545.6,260.3,545.3,261.2,545.9,261.3L545.9,261.3z"/>
					</g>
				</g>
			</g>
			<g>
				<path class="st16" d="M429.5,192.2c-0.8,2.8-1.9,5.9,3.2,9c2.1,1.3,4.5,2.5,5.5,4.9c1.5,3.5-1.9,7-4,10
					c-3,4.3-3.9,10.5-2.1,15.6c0.5,1.4,1.1,2.7,1.4,4.2c0.2,1.5,0,3-0.4,4.4c-1.6,6.6-6.5,12.1-12.3,14.1s-12.6,0.4-17.2-4.1
					c-5.9-0.1-11.7-3.5-15.2-8.8s2.3-22.5-3.2-18.9c-7.9,5.1,1.2-7.7,1.2-12.9c0-5.3-5.9-8.4-5.6-13.7c0.1-2.5,2.7-5.4,2.7-7.9
					c0-3.7-2.5-7.9-2.5-11.6c-0.2-9.9,6.2-16.2,9.5-18.3c7.5-4.8,22.1-8.4,28.3,2.5c0,0,3.3-0.9,7.8,3.4
					C431.2,168.6,434,176.9,429.5,192.2z"/>
				<g>
					<path class="st11" d="M352.6,425.2c-1.5,4-5.1,6.9-8.9,9c-1.4,0.8-2.9,1.5-3.9,2.8s-1.6,3-0.9,4.4c9.3-2.2,18.7-4.1,28.1-5.8
						c0.5-0.1,1.2-0.2,1.4-0.7c0.2-0.5,0-1-0.1-1.5c-3.1-7.7-2.5-16.7-5.6-24.4c-0.2-0.4-4.1,0.5-4.4,0.3c-0.3-0.2-5.2-0.4-5.6-0.4
						C352.6,408.8,354.3,420.6,352.6,425.2z"/>
					<path class="st16" d="M366.8,428.6c-9.7,5.7-13.2-1.3-14.2-3.4c-2.4-1.5-13,7.1-21.3,9.8c-3,1-4.7,7.4-1.3,8.2
						c9.3,0.3,25.8,0.7,40-0.8C371.7,441.4,369.4,427.1,366.8,428.6z"/>
					<path class="st11" d="M375.5,427.3c-1.5,4-5.1,6.9-8.9,9c-1.4,0.8-2.9,1.5-3.9,2.8s-1.6,3-0.9,4.4c9.3-2.2,18.7-4.1,28.1-5.8
						c0.5-0.1,1.2-0.2,1.4-0.7c0.2-0.5,0-1-0.1-1.5c-3.1-7.7-2.5-16.7-5.6-24.4c-0.2-0.4-4.1,0.5-4.4,0.3c-0.3-0.2-5.2-0.4-5.6-0.4
						C375.6,410.9,377.2,422.7,375.5,427.3z"/>
					<path class="st21" d="M389.8,430.7c-9.7,5.7-13.2-1.3-14.2-3.4c-2.4-1.5-13,7.1-21.3,9.8c-3,1-4.7,7.4-1.3,8.2
						c9.3,0.3,25.8,0.7,40-0.8C394.6,443.5,392.4,429.1,389.8,430.7z"/>
					<path class="st22" d="M342.9,341.8c-1,16.9,5.4,53.3,8.5,74.2c3.8,0.5,11,1.3,14.8,0.6c-1.7-13.7-1.1-30.6-1.1-43.8
						c0-5.7-1.7-16.6,1.1-21.6c2.3-4.1,7.8-6.4,16.5-10.1s18-5.1,27.2-7.5c19-5.1,17.7-23.2,13.8-28.5c-10.8,2-34.6,3.2-45.5,3.6
						C354.6,325.6,343.3,335.1,342.9,341.8z"/>
					<path class="st3" d="M367.8,345.2c-0.9,3.5,5.1,51.5,6.7,71.6c3,1,10.1,0.2,13.3-0.2c1.2-20.1,3.9-28.9,3.9-42.5
						c0-9.4-3-21.2,0.9-23c12.7-5.6,41.9-10.3,51.5-20c5.6-5.6,7.2-12.4,3.7-22.2c-1.1-3-8.1-3.8-11-5c-2.5-1-5.3-0.4-7.9,0.3
						c-8.6,2.1-13.7,0.3-21.4,4.7C395.1,316,372.2,326.9,367.8,345.2z"/>
				</g>
				<path class="st11" d="M379.4,263.4c-5.8,2.4-22.7,6.5-29,5.9c-6.5-0.6-9-0.5-11.9,1.1c-1.3,0.8-2.8,8.1-0.9,7.4
					c0.7-0.3,2.7-4.4,3-3.7c0.3,5.5,2.7,8.7,2.2,1.3c-0.1-1.5,3.1-1,4.4-1c1.1,0-1.6,4.1-0.5,4.1c3.4,0,3.1-2.8,4.7-2.9
					c7.1-0.4,12.4,0.1,16.5,0c9.6-0.1,18.8-1.3,20-3.7c5.7-11.2-0.9-27.3-1.4-39.9c-0.4-10.3-10.9-12.6-10.2-0.6
					C377.2,248.2,379.6,252,379.4,263.4z"/>
				<path class="st23" d="M445,226.3c-0.3,6.3-1.4,10.2-3.5,16.2c-2.9,8.2-6.5,14.4-6.8,22c-1.2,28,10,31,13.2,44.4
					c-23.2,8.2-45.6,5.6-69.5-0.2c1.1-5.5,3.3-11.3,5.4-16.5c1-2.5,6-8.2,6.1-10.9c0.2-8.5,0-14.3-1.5-19.7
					c-1.9-6.8-15.3-7.6-5.6-23.6c0.8-1.3,0.8-2.2,1-5.4c0,0-3.7-0.4-7.5-1.1c0,0-1.1-9.9,4.3-12.8c4-2.1,9.1-4.2,16.1-5.1
					c9.9-1.2,9.8-1.1,19.7-0.1c1.7,0.2,12.9,1.3,17.8,2.6C442.4,218.4,445.2,222,445,226.3z"/>
				<g>
					<path class="st8" d="M427.9,234.2c-2,6.9-8,30.1-9.3,30.1c-18.3,0.3-28.1,4.9-39.5,4.5c-3.1-0.1-9.2-1.7-12.2-1
						c-3,0.7-4.6,6.2-4.2,9.3c1.6,2.7,2.9-4.6,3.6-5c0.4-0.3-0.4,5.2,0,5.7c1.6,2,1.6-2.1,2.2-6c0.1-0.9,1.5,7.6,2.2,6.8
						c0.6-0.8,0.4-5.3,1-5.3c2.8-0.3,1.3,3.1,9,2.6c15.6-1,30.3,7,44.1,2.8c4.4-1.3,7.2-7.5,7.8-8.8c2.1-4.6,10.4-24.2,12.4-28.9
						s2.5-13.9-1-17.5C436.4,215.3,430.4,225.5,427.9,234.2z"/>
					<path class="st23" d="M444.6,241.5c2.7-5.4,4.6-12.6,2.4-16.5c-2.2-3.8-3.6-7.3-12.9-8.9c-8.1-1.4-7.6,16.6-7.8,20.2
						C439,231.3,442.2,240.6,444.6,241.5z"/>
				</g>
				<g>
					<g>
						<path class="st24" d="M385.1,231.3c0.8-2.8,1.4-6.9,0.3-9.6c-0.1-0.3-0.6-0.3-0.6,0.1c-0.1,1.4,0.2,2.9,0.2,4.4
							c0,1.7-0.2,3.3-0.5,5C384.4,231.5,385,231.7,385.1,231.3L385.1,231.3z"/>
					</g>
					<g>
						<path class="st24" d="M384.2,229.6c-0.2-1.4-0.2-3-0.8-4.4c-0.1-0.2-0.5-0.2-0.5,0.1c-0.2,1.5,0.3,3,0.5,4.4
							C383.5,230.1,384.3,230,384.2,229.6L384.2,229.6z"/>
					</g>
					<g>
						<path class="st24" d="M426,233.8c1.1-1.2,0.8-2.8,0.9-4.3c0.1-2.6,1-4.9,1.3-7.4c0-0.3-0.4-0.4-0.5-0.1
							c-0.9,1.5-1.1,3.3-1.4,5c-0.3,2,0.3,4.8-0.6,6.6C425.4,233.7,425.7,234,426,233.8L426,233.8z"/>
					</g>
					<g>
						<path class="st24" d="M423.3,226.6c0,1.4,0,2.8,0.2,4.1c0.1,1.1,0.2,2.3,0.9,3.2c0.2,0.3,0.7,0.2,0.8-0.2
							c0-1.1-0.4-2.1-0.6-3.2c-0.2-1.3-0.4-2.6-0.4-4C424.1,226.1,423.3,226.1,423.3,226.6L423.3,226.6z"/>
					</g>
					<g>
						<path class="st24" d="M389.8,222c0.1,5.4,3.5,9.7,8.8,11c5.6,1.4,14.6,0,17.5-5.6c0.2-0.4-0.3-0.8-0.6-0.4c-7,7-24,8.3-25-4.9
							C390.5,221.6,389.8,221.6,389.8,222L389.8,222z"/>
					</g>
					<g>
						<path class="st24" d="M395.9,246c-1.8,9.7,14,15.3,19.8,8.1c0.3-0.3-0.1-0.9-0.5-0.7c-2.9,1.8-5.5,3.1-9.1,2.6
							c-4.5-0.7-10.2-4.4-9.3-9.7C397,245.6,396,245.4,395.9,246L395.9,246z"/>
					</g>
					<g>
						<path class="st24" d="M388.1,257.2c2,1.2,5.8,1.4,7.1-1c0.2-0.4-0.2-0.7-0.5-0.5c-0.9,0.5-1.7,1.1-2.7,1.3
							c-1.2,0.2-2.3,0-3.4-0.6C388.1,256.1,387.6,256.9,388.1,257.2L388.1,257.2z"/>
					</g>
					<g>
						<path class="st24" d="M390.8,299.6c10.7,4,23.6,5.3,34.5,1.2c0.5-0.2,0.3-1-0.2-0.9c-11.8,2.4-22.5,3-34.1-1
							C390.5,298.9,390.4,299.5,390.8,299.6L390.8,299.6z"/>
					</g>
					<g>
						<path class="st24" d="M398.3,296.8c4.1,1.5,9.1,2.9,13.5,2c0.3-0.1,0.3-0.6,0-0.7c-4.5-0.6-8.9-0.5-13.4-1.9
							C398.1,296.2,398,296.7,398.3,296.8L398.3,296.8z"/>
					</g>
				</g>
				<g>
					<path class="st11" d="M407.4,228.5c-3.7,1.1-8,1.3-11.3-0.8s-5-6.9-2.8-10.1c1-1.4,2.6-2.4,3.4-4c0.6-1.1,0.7-2.5,0.8-3.7
						c0.3-5.9-3.3-16.2,1.4-18.9c4.6-2.6,14.2-1.1,15.1,3.4c0.8,4.1-1,15.2,2.4,19C421.5,219.3,416.9,225.6,407.4,228.5z"/>
					<path class="st8" d="M401.6,206.6c6.8,0.1,13.9-7.4,15.7-12.8c0.8-2.3,1.6-4.7,2-7.1c1.3-6.5,0.4-13.6-3.5-18.9
						c-8.1-11.4-28.3-8.9-29.7,6.3C385.3,183.7,389.5,206.3,401.6,206.6z"/>
					<path class="st16" d="M386.8,183.5c4.3-0.1,8.1-2.7,11.2-5.6c3.2-2.8,6.2-6.1,10-7.9c0.5-0.2,1.1-0.5,1.7-0.4
						c0.6,0.1,1.2,0.5,1.6,1c2.7,2.9,4.2,6.4,5.4,10.2c0.7,2.1-0.1,5.1,1.7,6.5c0.3,0.2,0.6,0.4,1,0.4c0.4,0,0.8-0.3,1.1-0.7
						c2.9-3.2,4.1-7.6,5-11.8c0.6-2.7,1.1-5.5,0.5-8.1s-2.7-5.2-5.5-5.4c-1.9-0.2-4,0.8-5.8-0.2c-0.9-0.5-1.4-1.4-2.1-2.2
						c-4.6-5.1-18.1-1.7-23.2,2.8C383.8,167.1,385.8,183.5,386.8,183.5z"/>
					<path class="st8" d="M423.8,188c0-2.1-0.4-4.7-2.6-5.5c-2-0.8-4.5,0.5-5.4,2.2c-1,1.7-0.4,8.6,1.2,9.1
						C422.2,195.6,423.8,188.8,423.8,188z"/>
					<circle class="st3" cx="405" cy="185" r="1.4"/>
					<path class="st3" d="M393.7,184.9c0,0.8-0.6,1.4-1.4,1.4c-0.8,0-1.4-0.6-1.4-1.4s0.6-1.4,1.4-1.4
						C393.1,183.5,393.7,184.1,393.7,184.9z"/>
					<g>
						<path class="st11" d="M396.9,184.7c-0.6,1-0.5,2-0.5,3.1c0,1.1-0.2,1.6-0.8,2.5c-0.2,0.3-0.4,0.5-0.5,0.8
							c-0.3,1.3,1.6,2.9,2.4,3.7s1.9-0.6,0.9-1.2c-0.2-0.1-0.4-0.1-0.6-0.2c-0.4-0.1-0.6,0.4-0.6,0.8c0,0.2,0.1,0.3,0.1,0.4
							c0.4-0.3,0.8-0.6,1.2-0.9c-0.3-0.3-0.6-0.6-0.9-1c-0.4-0.4-1-0.9-0.9-1.5c0-0.2,0.4-0.5,0.5-0.6c1-1.6,0.3-3.8,0.6-5.5
							C398,184.5,397.2,184.1,396.9,184.7L396.9,184.7z"/>
					</g>
					<g>
						<path class="st16" d="M402.6,178.3c1.5-0.3,3.1,0,4.6,0c0-0.3,0-0.7,0-1c0,0,0,0,0,0c-0.6,0-0.7,0.9-0.1,1c0,0,0,0,0,0
							c0.6,0.1,0.9-0.8,0.3-1c-1.5-0.4-3.5-0.2-5,0.1C401.8,177.6,402,178.4,402.6,178.3L402.6,178.3z"/>
					</g>
					<g>
						<path class="st11" d="M395.3,198c1.4,0.9,2.9,1.2,4.5,0.9c1.4-0.2,3.2-0.9,3.6-2.3c0.1-0.5-0.3-0.9-0.8-0.8
							c-1,0.3-1.8,1.1-2.9,1.4c-1.2,0.3-2.5,0.2-3.7-0.3C395.2,196.4,394.5,197.5,395.3,198L395.3,198z"/>
					</g>
					<g>
						<path class="st12" d="M418.8,193.3c1.3,0,1.3-2,0-2S417.5,193.3,418.8,193.3L418.8,193.3z"/>
					</g>
					<g>
						<path class="st11" d="M418.5,185.3c1.3-1.5,2.6,0.9,2.9,2c0.3,1.1,0.3,2.4-0.7,3.2c-0.3,0.3,0.1,0.9,0.5,0.6
							c1.7-1.2,1.4-3.8,0.6-5.5c-0.7-1.7-2.9-2.7-4.1-1C417.4,185.1,418.1,185.7,418.5,185.3L418.5,185.3z"/>
					</g>
					<g>
						<path class="st25" d="M384.1,179.9c3.6-0.7,6.8-2.1,9.5-4.6c1.5-1.4,2.7-3.2,4.3-4.6c2.4-1.9,5.1-2.2,8-2.8
							c0.5-0.1,0.4-1-0.1-0.9c-3.2,0.4-6.5,1.1-9,3.4c-1.7,1.6-3,3.6-4.8,5.1c-2.4,2-5.1,3.1-8.1,3.7
							C383.4,179.2,383.6,180,384.1,179.9L384.1,179.9z"/>
					</g>
					<g>
						<path class="st25" d="M384.8,170.5c3-1.2,5.3-3.2,7.9-5.1c4.6-3.3,9.3-3.4,14.7-2.6c0.8,0.1,0.9-1,0.1-1.1
							c-3.9-0.5-8.1-0.7-11.9,1c-4.1,1.8-7,5.5-11.1,7.3C384.3,170.2,384.5,170.6,384.8,170.5L384.8,170.5z"/>
					</g>
					<g>
						<path class="st25" d="M394.9,159.2c5.1-1,9.9-1.6,14.9,0.1c0.5,0.2,0.8-0.6,0.4-0.9c-4.9-2.2-10.4-0.9-15.4,0.3
							C394.5,158.8,394.6,159.2,394.9,159.2L394.9,159.2z"/>
					</g>
					<g>
						<path class="st25" d="M413.6,169.6c1.6,0.7,3,1.8,4,3.3c0.8,1.2,1,2.6,1.5,3.9c0.1,0.2,0.5,0.2,0.5-0.1
							c0.3-1.6-0.7-3.4-1.6-4.6c-1.1-1.4-2.6-2.4-4.2-3.1C413.4,168.8,413.3,169.4,413.6,169.6L413.6,169.6z"/>
					</g>
					<g>
						<path class="st25" d="M416.4,166.5c2.1,1,4,2.4,5.4,4.4c1.2,1.7,1.5,3.7,2.5,5.5c0.1,0.3,0.5,0.1,0.5-0.1
							c0.5-4.5-4.4-8.8-8-10.4C416.3,165.7,416,166.3,416.4,166.5L416.4,166.5z"/>
					</g>
					<g>
						<path class="st25" d="M418.4,164c3.3,0.6,6,2.6,7.8,5.3c1.6,2.3,2.3,5.1,3.7,7.5c0.2,0.3,0.6,0.1,0.6-0.2
							c-0.9-5.9-5.9-12.4-12.1-13.1C418.1,163.3,418.1,163.9,418.4,164L418.4,164z"/>
					</g>
					<g>
						<path class="st25" d="M423.7,195c-0.5,2.2-1,4.8,0.7,6.7c0.8,0.9,2,1.3,3,2c2.4,1.7,3,3.9,3.2,6.6c0,0.2,0.3,0.3,0.4,0.1
							c0.6-2-0.1-4.1-1.3-5.8c-0.7-1-1.6-1.5-2.6-2.2c-1.6-1.1-2.7-1.7-3-4c-0.1-1.1,0.1-2.2,0.3-3.2
							C424.5,194.7,423.8,194.5,423.7,195L423.7,195z"/>
					</g>
					<g>
						<path class="st25" d="M418.9,199.7c-0.9,1.5-0.8,3.2-0.1,4.8c0.8,1.6,2.5,3.9,4.1,4.7c0.2,0.1,0.4-0.1,0.4-0.3
							c-0.3-1.2-1.4-2-2.2-3c-1.3-1.6-2.4-3.7-1.4-5.7C420,199.7,419.2,199.2,418.9,199.7L418.9,199.7z"/>
					</g>
					<g>
						<path class="st25" d="M385.3,195.6c-0.6,2-0.2,3.7,0.8,5.6c1.7,3.1,5.9,7.1,2.2,10.4c-0.3,0.3,0.1,0.9,0.5,0.6
							c1.6-1.2,2.2-3,1.8-5c-0.9-4.2-5.7-6.6-4.5-11.4C386,195.4,385.4,195.2,385.3,195.6L385.3,195.6z"/>
					</g>
					<g>
						<path class="st25" d="M393.3,211.6c0.3-0.6,0.6-1.2,0.7-1.9c0.1-0.5,0.2-1.2-0.3-1.5c-0.1-0.1-0.2-0.1-0.3,0
							c-0.4,0.3-0.3,0.7-0.4,1.2c-0.1,0.6-0.2,1.2-0.5,1.8C392.2,211.6,393,212.1,393.3,211.6L393.3,211.6z"/>
					</g>
				</g>
			</g>
			<g>
				<rect x="144.6" y="281" class="st26" width="390" height="11.1"/>
				<rect x="494.9" y="281" class="st27" width="39.8" height="11.1"/>
				<rect x="149.5" y="292.1" class="st28" width="8.5" height="154.7"/>
				<rect x="169.1" y="292.1" class="st29" width="8.5" height="143.4"/>
				<rect x="500.9" y="292.1" class="st28" width="8.5" height="154.7"/>
				<rect x="520.4" y="292.1" class="st29" width="8.5" height="143.4"/>
			</g>
			<g>
				<path class="st30" d="M362.2,194.3H247.8c-2.2,0-3.9,1.8-3.9,3.9v62.2c0,2.2,1.8,3.9,3.9,3.9h114.4c2.2,0,3.9-1.8,3.9-3.9v-62.1
					C366.2,196,364.4,194.3,362.2,194.3z"/>
				<path class="st5" d="M362.2,194.3h-92.9c-2.2,0-3.9,1.8-3.9,3.9v32.6c0,11.2,9.1,20.2,20.2,20.2h76.6c2.2,0,3.9-1.8,3.9-3.9
					v-48.9C366.2,196,364.4,194.3,362.2,194.3z"/>
				<g>
					<path class="st31" d="M305,239.3c-3.4,0-6.2,2.8-6.2,6.2V281h12.4v-35.5C311.2,242.1,308.4,239.3,305,239.3z"/>
					<rect x="303.1" y="277.1" class="st5" width="70.9" height="3.9"/>
					<rect x="281.9" y="277.1" class="st32" width="46.2" height="3.9"/>
				</g>
			</g>
			<g>
				<path class="st33" d="M393.2,95.9c0-27-21.9-49-49-49c-27,0-49,21.9-49,49c0,27,21.9,49,49,49c4.1,0,8.2-0.5,12-1.5
					c4.1,7.6,12,12.3,22,8.9c0,0-8.1-5.6-9-14.3C383.6,129.4,393.2,113.8,393.2,95.9z"/>
				<g>
					<g>
						<path class="st16" d="M356.3,98.7c0,2.9-1.2,5.5-3,7.4c-1.9,1.9-4.5,3.1-7.4,3.1c-5.8,0-10.4-4.7-10.4-10.4
							s4.7-10.4,10.4-10.4l1.1,0.1h0c2.2,0.2,4.3,1.2,5.9,2.6C355,92.8,356.3,95.6,356.3,98.7z"/>
						<path class="st34" d="M352.9,90.9l-6.9,7.8V88.3l1.1,0.1h0C349.2,88.6,351.3,89.5,352.9,90.9z"/>
						<path class="st23" d="M356.3,98.7c0,2.9-1.2,5.5-3,7.4l-7.4-7.4l6.9-7.8C355,92.8,356.3,95.6,356.3,98.7z"/>
					</g>
					<g>
						<path class="st16" d="M329.9,98.7c0,2.9-1.2,5.5-3,7.4c-1.4,1.4-3.2,2.4-5.2,2.8c-0.7,0.2-1.5,0.2-2.2,0.2
							c-5.8,0-10.4-4.7-10.4-10.4s4.7-10.4,10.4-10.4l1.1,0.1h0c2.2,0.2,4.3,1.2,5.9,2.6C328.5,92.8,329.9,95.6,329.9,98.7z"/>
						<path class="st23" d="M329.9,98.7c0,2.9-1.2,5.5-3,7.4l-7.4-7.4l6.9-7.8C328.5,92.8,329.9,95.6,329.9,98.7z"/>
						<path class="st34" d="M326.4,90.9l-6.9,7.8h-10.4c0-5.8,4.7-10.4,10.4-10.4l1.1,0.1h0C322.8,88.6,324.8,89.5,326.4,90.9z"/>
						<path class="st14" d="M326.8,106c-1.4,1.4-3.2,2.4-5.2,2.8c-0.9-3.9-2.2-10.2-2.2-10.2L326.8,106z"/>
					</g>
					<g>
						<path class="st23" d="M372.2,88.3c2.9,0,5.5,1.2,7.4,3.1c1.4,1.4,2.4,3.2,2.8,5.2c0.1,0.7,0.2,1.4,0.2,2.2
							c0,5.8-4.7,10.4-10.4,10.4s-10.4-4.7-10.4-10.4l0-1.1v0c0.2-2.2,1.2-4.3,2.6-5.8C366.4,89.6,369.1,88.3,372.2,88.3z"/>
						<path class="st16" d="M372.2,88.3c2.9,0,5.5,1.2,7.4,3.1l-7.4,7.4l-7.8-6.9C366.4,89.6,369.1,88.3,372.2,88.3z"/>
						<path class="st14" d="M364.5,91.7l7.8,6.9v10.4c-5.8,0-10.4-4.7-10.4-10.4l0-1.1v0C362.1,95.4,363,93.3,364.5,91.7z"/>
						<path class="st34" d="M379.6,91.3c1.4,1.4,2.4,3.2,2.8,5.2c-3.9,0.8-10.2,2.2-10.2,2.2L379.6,91.3z"/>
					</g>
					<g>
						<path class="st12" d="M369.4,127.8c-13.6-0.1-27.2,0-40.9,0.2c0-5.3-0.3-10.6-1-15.8c-0.1-0.4-0.8-0.5-0.7,0
							c0.1,5.3,0.4,10.6,0.7,15.8c-2.9,0.1-5.8,0.1-8.6,0.2c-0.4,0-0.4,0.7,0,0.7c2.9,0,5.8,0,8.7,0c0.1,1.7,0.2,3.4,0.3,5.1
							c0,0.4,0.5,0.4,0.5,0c0.1-1.7,0.1-3.4,0.1-5.1c13.6,0.1,27.2,0.1,40.9,0.1C370.2,129.1,370.2,127.8,369.4,127.8z"/>
						<path class="st12" d="M330.1,124.1c1.5-1.4,3.2-3.7,5.3-4.2c4.3-1.2,3.9,2.7,6.4,4c2.9,1.5,4.2-2.2,5.8-4
							c1.7-2,3.9-2.8,6.1-0.7c0.5,0.5,0.5,1.2,1.1,1.6c0.6,0.4,1.2,0.4,2,0.3c3.3-0.2,7-2.8,10.1-4.9c-0.1,0.2-0.2,0.3-0.3,0.5
							c-0.5,0.8-1.3,1.8-1.5,2.7c-0.1,0.5,0.5,1,0.9,0.5c0.7-0.8,1-1.8,1.5-2.7c0.6-1,1.2-1.9,1.9-2.8c0.2-0.3-0.1-0.9-0.5-0.8
							c-2.2,0.2-4.4,0.5-6.6,0.7c-0.7,0.1-0.7,1.1,0,1.1c1.5-0.1,2.9-0.3,4.4-0.4c-2.4,1.5-4.9,3.1-7.5,4.2
							c-3.2,1.4-3.4,0.3-5.4-1.8c-2.2-2.4-4.7-1.1-6.5,1c-2.7,3.3-3.6,6.1-7.3,1.8c-0.8-0.9-1.1-1.7-2.4-1.9c-3-0.5-6.5,3.2-8.1,5.3
							C329.3,123.9,329.8,124.3,330.1,124.1z"/>
					</g>
					<g>
						<path class="st12" d="M331.5,72.6c-2.7,0-5.6-0.2-8.3,0c-0.5,0.1-0.6,0.6-0.2,0.8c-0.1,0.8-0.2,1.5-0.3,2.3c0,0,0,0.1,0,0.1
							c-0.1,2.2,0,4.3-0.1,6.5c0,0.2,0.2,0.4,0.4,0.4c2.9,0.2,5.8,0.1,8.6,0.2c0.2,0,0.4-0.2,0.4-0.4c0-3.2,0.1-6.3-0.2-9.5
							C331.9,72.8,331.7,72.6,331.5,72.6z M323.3,73.5c0.1,0,0.3,0,0.4,0c1.6,1.6,3.1,3.3,4.5,5c-0.7,0-1.3,0-2,0
							c-0.3-0.5-0.8-0.9-1.3-1.3c-0.5-0.5-1.1-0.9-1.7-1.4C323.3,75.1,323.3,74.3,323.3,73.5z M324.6,77.7c0.3,0.3,0.6,0.6,0.9,0.9
							c-0.7,0-1.4,0.1-2.1,0.2c0-0.8,0-1.5-0.1-2.3C323.8,76.9,324.2,77.3,324.6,77.7z M323.4,79.4c2.6,0.2,5.2,0,7.8,0
							c0,0.9,0,1.8,0,2.7c-2.6,0-5.2-0.1-7.8-0.2C323.5,81.1,323.5,80.3,323.4,79.4z M329.5,73.6c0.3,0.5,0.7,1.1,1,1.6
							c0.2,0.3,0.4,0.6,0.7,0.9c0,0.9,0,1.7,0,2.6c0,0-0.1,0-0.1,0c-0.6-0.7-1.1-1.7-1.7-2.4c-0.7-0.9-1.4-1.8-2.1-2.6
							C328.1,73.6,328.8,73.6,329.5,73.6z M330.9,74.7c-0.3-0.4-0.5-0.7-0.8-1.1c0.3,0,0.6,0,1,0c0,0.5,0.1,1,0.1,1.5
							C331,74.9,331,74.8,330.9,74.7z M327.1,73.6c1.3,1.6,2.5,3.2,3.5,5c-0.5,0-1,0-1.5,0c-1.6-1.8-3.3-3.4-5-5
							C325.1,73.6,326.1,73.6,327.1,73.6z"/>
						<path class="st12" d="M343.9,61.2c-2.8,0-5.5-0.1-8.3,0c-0.5,0-0.6,0.7-0.2,0.8c-0.6,7-0.6,14.1-0.4,21.1
							c0,0.2,0.2,0.4,0.4,0.4c2.9,0.3,5.7,0.4,8.6,0.4c0.2,0,0.4-0.2,0.4-0.4c0-7.3,0.2-14.6-0.2-21.9
							C344.3,61.4,344.1,61.2,343.9,61.2z M335.9,74.2c0.3,0.5,0.6,0.9,0.8,1.4c0.2,0.4,0.5,0.8,0.8,1.1c-0.5,0-1.1,0.1-1.6,0.2
							c0-0.1,0-0.2,0-0.4C335.9,75.7,335.9,74.9,335.9,74.2z M338.2,76.7c-0.2-0.6-0.6-1.2-1-1.7c-0.4-0.7-0.8-1.4-1.4-1.9
							c0-1,0-2,0-3c0.6,1.1,1.2,2.2,1.9,3.3c0.7,1.1,1.3,2.3,2.1,3.3C339.3,76.6,338.7,76.6,338.2,76.7z M340.7,76.6
							c-0.6-1.3-1.6-2.5-2.4-3.7c-0.9-1.3-1.7-2.6-2.6-3.9c0-1,0-2.1,0-3.1c2.2,3.6,4.5,7.2,6.6,10.8
							C341.8,76.6,341.3,76.6,340.7,76.6z M343.2,76.7c-2.1-4.1-4.8-7.7-7.4-11.5c0-1,0-2,0-3.1c0.3,0,0.6,0,0.9,0
							c1.6,2.3,3,4.8,4.4,7.2c0.6,1.1,1.6,3.8,2.7,4.6c0,0.9,0.1,1.8,0.2,2.8C343.6,76.7,343.4,76.7,343.2,76.7z M343.5,64.3
							c0,0.9,0,1.8,0,2.8c-0.4-0.7-0.9-1.4-1.3-2c-0.7-1-1.4-2-2.1-3c0.5,0,1.1,0,1.6,0C344,62,343.6,62.1,343.5,64.3z M339.5,62.1
							c0.7,1.1,1.4,2.3,2.1,3.4c0.6,1,1.1,2.3,2,3.2c0,1.2,0.1,2.4,0.1,3.7c0,0,0,0,0,0c-0.7-1.2-1.5-2.4-2.2-3.6
							c-1.4-2.2-2.8-4.5-4.4-6.6C337.9,62.1,338.7,62.1,339.5,62.1z M343.7,81c-0.4,1.8-0.8,1.9-2.4,2.1c-0.7,0.1-3.5,0.2-4.1-0.2
							c-1.6-0.8-1.3-3.5-1.2-5.4c2.6,0.2,5.4,0,8,0C343.9,78.7,343.9,79.9,343.7,81z"/>
						<path class="st12" d="M356.3,64.2c-2.8,0.1-5.5-0.1-8.3,0c-0.5,0-0.6,0.7-0.2,0.8c-0.6,6-0.6,12.2-0.4,18.2
							c0,0.3,0.2,0.4,0.4,0.4c2.9,0.3,5.7,0.3,8.6,0.4c0.2,0,0.4-0.2,0.4-0.4c0-6.3,0.2-12.6-0.2-18.9
							C356.7,64.3,356.5,64.2,356.3,64.2z M355.6,69.8c-0.4-0.8-1.2-1.6-1.7-2.2c-0.7-0.9-1.5-1.8-2.3-2.6c0.6,0,1.2,0,1.8,0
							c0,0,0,0.1,0,0.1c0.8,1.2,1.6,2.4,2.6,3.4c0,0.4,0,0.8,0,1.2C355.9,69.8,355.8,69.8,355.6,69.8z M355.8,65
							c0.5,0.3,0.1,0.4,0.1,1.2c0,0.5,0,0.9,0.1,1.4c-0.7-0.8-1.4-1.8-2-2.7C354.5,64.9,355.5,64.8,355.8,65z M351,65
							c0.9,0.9,1.7,1.8,2.5,2.8c0.5,0.6,1,1.4,1.5,2c-0.7,0-1.4,0-2.1,0c-0.5-0.9-1.2-1.8-1.8-2.6c-0.5-0.8-1.1-1.5-1.7-2.2
							C349.9,65.1,350.4,65.1,351,65z M348.2,67.5c0.4,0.6,0.8,1.2,1.2,1.8c0.1,0.2,0.3,0.4,0.5,0.7c-0.6,0-1.1,0.1-1.7,0.2
							C348.2,69.2,348.2,68.3,348.2,67.5z M350.7,69.8c-0.4-0.4-0.8-0.9-1.1-1.3c-0.5-0.7-1-1.3-1.5-1.9c0,0,0,0,0,0
							c0-0.5,0-1,0-1.5c0.2,0,0.3,0,0.5,0c0.9,0.9,1.6,2,2.3,3.1c0.4,0.6,0.7,1.2,1.1,1.7C351.6,69.8,351.2,69.8,350.7,69.8z
							 M354.6,83.1c-0.8,0.2-2.1,0.1-2.9,0c-1.3,0.1-2.4-0.3-3.4-1.2c0-0.4,0-0.9,0-1.3c-0.5-2.5-0.1-5.5-0.1-8.1c0-0.6,0-1.2,0-1.8
							c2.6,0.2,5.2,0,7.9,0c0,2.2,0,4.4,0,6.6C356.1,79.3,356.9,82.5,354.6,83.1z"/>
						<path class="st12" d="M369.1,66.5c0-0.2-0.2-0.4-0.4-0.4c-2.8,0.1-5.5-0.1-8.3,0c-0.5,0-0.6,0.7-0.2,0.8
							c-0.5,5.4-0.4,10.8-0.4,16.2c0,0.3,0.2,0.4,0.5,0.5c2.9,0.3,5.7,0.3,8.6,0.3c0.2,0,0.4-0.2,0.4-0.4
							C369.4,77.8,369.5,72.2,369.1,66.5z M360.6,74.8c0-0.1,0-0.3,0-0.4c0.4,0.4,0.7,0.8,1.1,1.2c0.3,0.3,0.6,0.7,1,1.1
							c-0.7,0-1.4,0.1-2,0.2C360.7,76.2,360.7,75.5,360.6,74.8z M363.6,76.6c-0.4-0.6-1-1-1.4-1.5c-0.5-0.5-1-1.1-1.6-1.6
							c0-0.9,0-1.8,0-2.8c0.9,1.2,1.8,2.4,2.7,3.6c0.5,0.7,1,1.6,1.5,2.3C364.4,76.6,364,76.6,363.6,76.6z M365.7,76.6
							c-0.5-1-1.4-2-2.1-2.9c-0.9-1.2-2-2.4-3-3.6c0-1.1,0-2.1,0-3.1c2.3,3.1,4.3,6.7,6.8,9.6C366.8,76.6,366.3,76.6,365.7,76.6z
							 M365.6,66.9c0,0,0.1,0,0.1,0c0.4,0.8,0.9,1.6,1.4,2.4c0.4,0.5,0.8,1.3,1.3,1.7c0,0.5,0,0.9,0,1.3c0,0.4,0,0.8,0,1.2
							c-0.7-1.1-1.6-2.1-2.3-3c-0.9-1.2-1.7-2.3-2.6-3.5C364.3,67,365,66.9,365.6,66.9z M367.8,67c0.2,0.1,0.4,0.1,0.5,0.2
							c0,0-0.1,0.1,0,0.4c0.2,0.5,0.2,1.2,0.2,2c-0.3-0.3-0.5-0.6-0.8-0.9c-0.4-0.6-0.9-1.2-1.3-1.8C366.9,66.8,367.5,66.8,367.8,67
							z M363.2,67c0.9,1.3,1.9,2.6,2.8,3.9c0.8,1.1,1.5,2.5,2.5,3.5c0,0.8,0,1.5,0,2.3c-0.1,0-0.1,0-0.2,0c-2.2-3.3-4.7-6.6-7.3-9.7
							C361.8,67,362.5,67,363.2,67z M368.1,82.7c-1,1-5.4,0.5-6.4-0.3c-1.4-1.1-1-2.1-1-3.8c0-0.4,0-0.7,0-1.1c2.6,0.2,5.2,0,7.8,0
							C368.6,79.1,368.9,81.9,368.1,82.7z"/>
					</g>
					<path class="st12" d="M329.7,64c-0.3-0.7-1-1.2-1.7-1.5c-0.1,0-0.3-0.1-0.4-0.1c-0.2-1.2-0.4-2.4-0.6-3.6
						c0.6,0.1,1.2,0.2,1.6,0.6c0.3,0.2,0.6-0.1,0.4-0.4c-0.5-0.5-1.3-0.8-2.1-1c-0.1-0.7-0.2-1.3-0.3-2c0-0.2-0.4-0.2-0.4,0
						c0,0.6,0.1,1.2,0.1,1.9c-0.4,0-0.7,0-1.1,0c0,0,0,0-0.1,0c-0.1-0.8-0.3-1.7-0.4-2.5c0-0.3-0.5-0.2-0.5,0.1
						c0.1,0.8,0.2,1.7,0.2,2.5c-1.1,0.3-2.4,1-2.4,2.2c-0.1,1.7,1.4,2.4,2.8,2.6c0.1,1,0.1,2,0.2,3c-0.6-0.2-1.2-0.5-1.8-0.9
						c-0.3-0.2-0.8,0.2-0.6,0.6c0.6,0.8,1.5,1.2,2.5,1.4c0,0.7,0.1,1.3,0.1,2c0,0.4,0.6,0.4,0.6,0c0-0.7,0-1.3,0-2
						c0.4,0,0.9,0,1.3-0.1c0.1,0.7,0.2,1.4,0.4,2c0.1,0.4,0.7,0.3,0.7-0.1c0-0.7-0.1-1.4-0.2-2.1C329.3,66.5,330.2,65.2,329.7,64z
						 M325.9,58.7c0.1,0,0.3,0,0.5,0c0.1,1.2,0.2,2.3,0.3,3.5c-0.3,0-0.6,0-1,0c-0.1-1.1-0.2-2.2-0.4-3.3
						C325.5,58.8,325.7,58.7,325.9,58.7z M324.2,61.9c-1.5-0.6-1.4-2-0.1-2.7c0.2-0.1,0.3-0.2,0.5-0.2c0.1,1,0.2,2.1,0.2,3.1
						C324.6,62,324.4,62,324.2,61.9z M326,66.1c0-1-0.1-2.1-0.2-3.1c0.3,0,0.7,0,1,0.1c0.1,1,0.2,2,0.4,3
						C326.8,66.2,326.4,66.2,326,66.1z M328,65.9c-0.1-0.8-0.2-1.7-0.4-2.5c0.1,0,0.2,0.1,0.3,0.1C329.1,64.1,329.1,65.4,328,65.9z"
						/>
					<path class="st12" d="M378,80.2c-0.4,0.3-0.6,0.9-1,1.3c0,0-0.1,0.1-0.1,0.1c0.1-4.2-0.1-8.3-0.2-12.4c0.3,0.4,0.5,0.8,0.8,1.2
						c0.3,0.4,1.1,0.2,0.9-0.4c-0.2-0.6-0.6-1.1-1-1.6c-0.2-0.2-0.4-0.5-0.7-0.7c-0.2-0.5-1-0.4-1,0.2c-0.1,0.2-0.2,0.3-0.3,0.4
						c-0.4,0.6-0.8,1.2-1.2,1.8c-0.1,0.2,0.2,0.5,0.4,0.3c0.3-0.4,0.7-0.8,1-1.2c0,0,0.1-0.1,0.2-0.2c0.2,4.3,0.3,8.6,0.4,12.9
						c-0.4-0.4-0.8-0.8-1.2-1.2c-0.4-0.4-1,0.2-0.6,0.6c0.4,0.4,0.8,0.9,1.2,1.4c0.2,0.3,0.5,0.7,0.9,0.6c0.5,0,0.9-0.5,1.1-0.8
						c0.5-0.6,1-1.2,1.1-2C378.7,80.1,378.2,80,378,80.2z"/>
					<path class="st12" d="M359.2,56.7c-0.5-0.8-1.5-1.5-2.3-2c-0.5-0.4-1,0.5-0.5,0.9c0.4,0.2,0.8,0.6,1.2,1
						c-7.1-0.3-14.2,0-21.3,0c0.1-0.1,0.2-0.2,0.3-0.3c0.3-0.3,0.6-0.5,1-0.8c0.4-0.3-0.1-1-0.5-0.7c-0.6,0.4-1.1,0.8-1.6,1.2
						c-0.4,0.3-0.6,0.7-0.3,1.1c0.3,0.4,0.9,0.8,1.3,1.1c0.5,0.3,1,0.8,1.6,0.7c0.2,0,0.3-0.3,0.2-0.5c-0.3-0.5-0.8-0.7-1.3-1
						c-0.1-0.1-0.4-0.3-0.6-0.4c7.1,0.2,14.2,0.5,21.4,0.5c-0.1,0.1-0.2,0.2-0.2,0.3c-0.4,0.5-0.9,1-0.8,1.6c0,0.1,0.2,0.3,0.4,0.3
						c0.6-0.1,0.9-0.6,1.2-1.1c0.3-0.4,0.6-0.7,0.9-1.1C359.3,57.1,359.4,56.9,359.2,56.7z"/>
					<g>
						<path class="st12" d="M310.2,74.1c0,0.8,0.1,1.6,0.4,2.3c0.1,0.3,0.5,0.3,0.6,0c0.2-0.7,0.2-1.5,0.2-2.3
							c0.7,0,1.5,0.1,2.1-0.2c0.2-0.1,0.2-0.5,0-0.6c-0.6-0.3-1.4-0.2-2.1-0.2c0-0.7-0.1-1.4-0.1-2.1c0-0.6-0.9-0.6-1,0
							c0,0.7-0.1,1.4-0.1,2.1c-0.7,0-1.4,0-2.1,0c-0.6,0-0.5,0.8,0,0.8C308.8,74.1,309.5,74.1,310.2,74.1z"/>
						<path class="st12" d="M313.5,80.6c-1.7,0.1-3.4,0.2-5.1,0.3c-0.5,0-0.6,0.9,0,0.9c1.7,0,3.4,0,5.1,0
							C314.3,81.7,314.3,80.5,313.5,80.6z"/>
					</g>
					<g>
						<path class="st12" d="M315.2,118.3c0.5-0.6,1.3-1.4,1.3-2.2c0-0.2-0.2-0.3-0.4-0.2c-0.7,0.4-1.2,1.3-1.6,2
							c-0.8-0.4-1.5-0.9-2.3-1.3c-0.5-0.3-1,0.5-0.5,0.8c0.7,0.4,1.4,0.9,2.1,1.3c-0.5,0.6-1,1.2-1.6,1.7c-0.3,0.3,0.1,0.7,0.5,0.4
							c0.6-0.6,1.2-1.1,1.8-1.8c0,0,0.1,0.1,0.1,0.1c0.8,0.5,1.5,1.2,2.5,1.2c0.2,0,0.4-0.2,0.2-0.4
							C317,119.2,316,118.8,315.2,118.3z"/>
						<path class="st12" d="M323.2,115.9c-0.5,0.8-1,1.7-1.5,2.6c-0.2-0.4-0.5-0.7-0.7-1c-0.4-0.6-0.8-1.1-1.3-1.6
							c-0.4-0.4-1,0.2-0.6,0.7c0.5,0.5,0.9,1.1,1.2,1.7c0.3,0.4,0.5,1,1,1.3c-0.2,0.4-0.4,0.7-0.5,1.1c-0.6,1.4-1.4,3.1-1.4,4.6
							c0,0.4,0.5,0.5,0.7,0.2c0.8-1.2,1-2.8,1.5-4.2c0.6-1.7,1.4-3.4,2.3-5C324.1,115.8,323.5,115.4,323.2,115.9z"/>
					</g>
				</g>
			</g>
			<g>
				<path class="st33" d="M221.9,117.1c0-27-21.9-49-48.9-49c-27,0-48.9,21.9-48.9,48.9s21.9,48.9,48.9,48.9c4.1,0,8.2-0.5,12-1.5
					c4.1,7.6,12,12.3,22,8.9c0,0-8.1-5.6-9-14.3C212.3,150.6,221.9,135,221.9,117.1z"/>
				<g>
					<g>
						<path class="st23" d="M189.3,99.7l8.2-6.6c0.2-0.2,0.7,0.3,0.6,0.6l-6.6,8.2L189.3,99.7z"/>
						<path class="st12" d="M184,119.1l-15.1,13.1l-10-10l13.1-15.1c2.4-2.3,2.9-2.3,5.8-3.9c2.7-1.5,5.5-2.6,8.5-3.4l3-0.8
							c1.6-0.4,3,1,2.6,2.6l-0.8,3c-0.7,3-1.9,5.9-3.4,8.5C186.3,116.2,186.3,116.8,184,119.1z"/>
						<path class="st16" d="M187.9,113.3c0,0-3.3-4.3-4.5-5.5c-1.2-1.2-5.5-4.5-5.5-4.5c2.7-1.5,5.5-2.6,8.5-3.4l3-0.8
							c1.6-0.4,3,1,2.6,2.6l-0.8,3C190.5,107.8,189.3,110.6,187.9,113.3z"/>
						<path class="st16" d="M158.9,122.2l7.1-8.2c0,0-11.4-5.6-18.3,2.7c-2.5,3-1.9,4.8-0.7,4.8
							C149.1,121.3,154.2,118.1,158.9,122.2z"/>
						<path class="st16" d="M168.9,132.2l8.1-7.1c0,0,5.6,11.4-2.6,18.3c-3,2.5-4.8,1.9-4.8,0.7C169.8,142.1,173,137,168.9,132.2z"
							/>
						<path class="st16" d="M179.7,119.7c-2.3,2.3-6,2.3-8.3,0s-2.3-6,0-8.3s6-2.3,8.3,0S182,117.4,179.7,119.7z"/>
						<circle class="st35" cx="175.6" cy="115.6" r="4.2"/>
						<polygon class="st23" points="163.6,135.5 155.6,127.5 158.9,122.2 168.9,132.2 						"/>
						<path class="st16" d="M157.7,136.1l-2.6-2.6c-0.6-0.6-0.6-1.6,0-2.2l2.2-2.2l4.8,4.8l-2.2,2.2
							C159.3,136.7,158.3,136.7,157.7,136.1z"/>
						<g>
							<path class="st12" d="M176.6,113.5c0.3,0.4,0.4,0.9,0.4,1.4s-0.4,0.9-0.4,1.3c0,0.2,0.2,0.4,0.5,0.4c0.7-0.2,0.9-1.1,0.9-1.7
								c0-0.7-0.2-1.4-0.8-1.8C176.9,112.7,176.4,113.1,176.6,113.5L176.6,113.5z"/>
						</g>
						<g>
							<path class="st12" d="M175.6,117.5c-0.2-0.1-0.3-0.1-0.5-0.1c-0.9,0-0.6,1.4,0.3,1c0.2-0.1,0.3-0.2,0.4-0.3
								C175.9,117.9,175.8,117.6,175.6,117.5L175.6,117.5z"/>
						</g>
						<path class="st36" d="M154.5,132.7c0,0-5,1.5-5.3,5.3c-0.4,3.9-3.7,6.1-4.5,6.3s2.8,0.4,5.3-1.3c0,0-0.6,0.9-2.3,2.6
							c2.7,0.2,10.3-3.1,10.8-8.9L154.5,132.7z"/>
						<path class="st34" d="M155.5,133.8c0,0-3.5,1.2-3.3,3.3s-1.6,3.5-1.6,3.5s5.4,0.5,6.9-4.8L155.5,133.8z"/>
					</g>
					<g>
						<g>
							<path class="st12" d="M186,136.8c8.8-8.8,17.7-17.5,26.2-26.5c0.3-0.3-0.1-0.7-0.4-0.4c-9,8.5-17.7,17.4-26.5,26.2
								C184.8,136.5,185.5,137.2,186,136.8L186,136.8z"/>
						</g>
						<g>
							<path class="st12" d="M135.2,118.2c9.8-9.7,19.9-19.2,29.3-29.3c0.2-0.2-0.1-0.5-0.3-0.3c-10.1,9.4-19.6,19.5-29.3,29.3
								C134.7,118.1,135,118.4,135.2,118.2L135.2,118.2z"/>
						</g>
						<g>
							<path class="st12" d="M162.5,105.8c7.2-7.1,14.7-14,21.4-21.5c0.3-0.3-0.2-0.8-0.5-0.5c-7.5,6.7-14.4,14.2-21.5,21.4
								C161.5,105.5,162.1,106.1,162.5,105.8L162.5,105.8z"/>
						</g>
						<g>
							<path class="st12" d="M166.8,159c3.6-2.6,6.5-6.3,9.5-9.4c0.3-0.3-0.2-0.8-0.5-0.5c-3.2,3-6.9,5.9-9.4,9.5
								C166.3,158.9,166.6,159.2,166.8,159L166.8,159z"/>
						</g>
						<g>
							<path class="st12" d="M141.5,98.4c5.2-4.2,9.7-9.4,14.3-14.2c0.3-0.3-0.2-0.8-0.5-0.5c-4.8,4.6-10.1,9.1-14.2,14.3
								C140.8,98.3,141.2,98.7,141.5,98.4L141.5,98.4z"/>
						</g>
						<g>
							<path class="st12" d="M187.7,150.6c6.7-8.1,14.5-15.2,21.8-22.8c0.2-0.2-0.1-0.6-0.4-0.4c-7.6,7.3-14.7,15.1-22.8,21.8
								C185.3,150,186.9,151.6,187.7,150.6L187.7,150.6z"/>
						</g>
						<g>
							<path class="st12" d="M185.2,93.5c3.3-3.3,6.6-6.6,9.8-9.9c0.2-0.2-0.1-0.6-0.4-0.4c-3.3,3.2-6.6,6.5-9.9,9.8
								C184.4,93.3,184.9,93.8,185.2,93.5L185.2,93.5z"/>
						</g>
						<g>
							<path class="st12" d="M167.2,84c2.3-2.3,4.6-4.5,6.8-6.9c0.3-0.4-0.2-0.9-0.6-0.6c-2.4,2.2-4.6,4.5-6.9,6.8
								C166.2,83.8,166.8,84.4,167.2,84L167.2,84z"/>
						</g>
						<g>
							<path class="st12" d="M137.1,135.7c2.5-2.5,5-5,7.5-7.4c0.4-0.4-0.2-1.1-0.7-0.7c-2.5,2.5-5,5-7.4,7.5
								C136.1,135.5,136.7,136.1,137.1,135.7L137.1,135.7z"/>
						</g>
						<g>
							<path class="st12" d="M155.9,154.9c2.6-3,5.3-6,8-8.9c0.2-0.3-0.1-0.6-0.4-0.4c-3,2.7-5.9,5.4-8.9,8
								C153.6,154.3,155.1,155.8,155.9,154.9L155.9,154.9z"/>
						</g>
						<g>
							<path class="st12" d="M197.6,111.7c3.4-4.4,7.6-8.1,11.3-12.2c0.3-0.3-0.1-0.7-0.4-0.4c-4.1,3.7-7.8,7.9-12.2,11.3
								C195.3,111.1,196.9,112.7,197.6,111.7L197.6,111.7z"/>
						</g>
					</g>
				</g>
			</g>
			<g>
				<path class="st33" d="M565.3,87.1c0-27,21.9-49,49-49c27,0,49,21.9,49,49s-21.9,49-49,49c-4.2,0-8.2-0.5-12-1.5
					c-4.1,7.6-12,12.3-22,8.9c0,0,8.2-5.6,9-14.3C574.9,120.6,565.3,105,565.3,87.1z"/>
				<g>
					<path class="st23" d="M600.7,70.8c0-2.4-0.8-4.7-2.2-6.6l0,0l-0.5-0.6c-2.1-2.5-5.2-4-8.5-4l0,0l0,0l0,0c-0.4,0-0.8,0-1.2,0.1
						c-2.8,0.3-5.5,1.7-7.3,3.9l0,0l-0.5,0.6l0,0c-1.4,1.9-2.2,4.2-2.2,6.6c0,2.4,0.8,4.7,2.1,6.6l0,0l0.5,0.6c2.1,2.6,5.3,4,8.6,4
						l0,0l0,0l0,0c0.5,0,1,0,1.4-0.1c2.4-0.3,4.6-1.4,6.3-3c0.3-0.3,0.6-0.6,0.8-0.9l0.5-0.6l0,0C599.9,75.5,600.7,73.2,600.7,70.8z
						 M596.3,77.8c-0.1,0.1-0.2,0.2-0.3,0.3c-0.2,0.1-0.3,0.3-0.5,0.4c-0.1,0.1-0.2,0.2-0.3,0.2c-0.2,0.1-0.3,0.2-0.5,0.3
						c-0.1,0.1-0.2,0.2-0.4,0.2c-0.2,0.1-0.3,0.2-0.5,0.3c-0.1,0.1-0.3,0.1-0.4,0.2c-0.2,0.1-0.3,0.1-0.5,0.2c0.6-0.8,1.1-1.8,1.5-3
						C595.1,77.2,595.7,77.4,596.3,77.8C596.3,77.8,596.3,77.8,596.3,77.8z M585.1,79.6c-0.2-0.1-0.4-0.2-0.5-0.3
						c-0.1-0.1-0.2-0.1-0.4-0.2c-0.2-0.1-0.3-0.2-0.5-0.3c-0.1-0.1-0.2-0.2-0.3-0.2c-0.2-0.1-0.3-0.3-0.5-0.4
						c-0.1-0.1-0.2-0.2-0.3-0.3c0,0,0-0.1-0.1-0.1c0.6-0.3,1.2-0.6,2-0.8c0.4,1.2,0.9,2.2,1.5,3c-0.2-0.1-0.3-0.1-0.5-0.2
						C585.4,79.7,585.2,79.7,585.1,79.6z M582.7,63.8c0.1-0.1,0.2-0.2,0.3-0.2c0.2-0.1,0.3-0.3,0.5-0.4c0.1-0.1,0.2-0.2,0.3-0.2
						c0.2-0.1,0.3-0.2,0.5-0.3c0.1-0.1,0.2-0.1,0.4-0.2c0.2-0.1,0.3-0.2,0.5-0.3c0.1-0.1,0.2-0.1,0.4-0.2c0.2-0.1,0.3-0.1,0.5-0.2
						c-0.6,0.8-1.1,1.8-1.5,2.9C583.9,64.4,583.2,64.1,582.7,63.8C582.7,63.8,582.7,63.8,582.7,63.8z M593.7,62
						c0.2,0.1,0.3,0.2,0.5,0.3c0.1,0.1,0.2,0.1,0.3,0.2c0.2,0.1,0.3,0.2,0.5,0.3c0.1,0.1,0.2,0.2,0.3,0.2c0.2,0.1,0.3,0.3,0.5,0.4
						c0.1,0.1,0.2,0.2,0.3,0.2c0,0,0,0,0.1,0.1c-0.6,0.3-1.2,0.5-1.9,0.7c-0.4-1.1-0.9-2.1-1.5-2.9c0.2,0.1,0.3,0.1,0.5,0.2
						C593.5,61.9,593.6,62,593.7,62z M595.3,70.1c0-1.5-0.2-2.9-0.5-4.1c0.9-0.3,1.8-0.6,2.5-1c1.1,1.5,1.8,3.3,2,5.2
						C599.2,70.1,595.3,70.1,595.3,70.1z M590.2,61.2c1,0.4,2.1,1.8,2.8,3.7c-0.9,0.2-1.8,0.3-2.8,0.3V61.2z M588.7,65.2
						c-1,0-1.9-0.2-2.8-0.3c0.7-2,1.7-3.3,2.8-3.7V65.2z M588.7,66.7v3.4h-3.7c0-1.4,0.2-2.7,0.5-3.8
						C586.5,66.5,587.6,66.7,588.7,66.7z M588.7,71.6v3.3c-1.1,0-2.2,0.2-3.2,0.4c-0.2-1.1-0.4-2.3-0.5-3.7
						C585,71.6,588.7,71.6,588.7,71.6z M588.7,76.3v4.2c-1.1-0.4-2.1-1.8-2.8-3.8C586.8,76.4,587.8,76.3,588.7,76.3z M590.2,76.3
						c1,0,1.9,0.2,2.8,0.3c-0.7,2-1.7,3.4-2.8,3.8V76.3z M590.2,74.8v-3.3h3.7c0,1.3-0.2,2.6-0.5,3.7
						C592.4,75,591.3,74.9,590.2,74.8z M590.2,70.1v-3.4c1.1,0,2.2-0.2,3.2-0.4c0.3,1.1,0.5,2.4,0.5,3.8L590.2,70.1L590.2,70.1z
						 M584.1,66c-0.3,1.3-0.5,2.7-0.5,4.1h-3.9c0.1-1.9,0.8-3.7,2-5.2C582.4,65.3,583.2,65.7,584.1,66z M583.6,71.6
						c0,1.4,0.2,2.8,0.5,4c-0.9,0.3-1.8,0.6-2.5,1.1c-1.1-1.5-1.7-3.2-1.9-5.1C579.7,71.6,583.6,71.6,583.6,71.6z M594.8,75.6
						c0.3-1.2,0.5-2.6,0.5-4h3.9c-0.1,1.8-0.8,3.6-1.9,5.1C596.6,76.2,595.7,75.8,594.8,75.6z"/>
					<g>
						<g>
							<path class="st34" d="M601,102.6h-1.2c-0.1-0.4-0.3-0.8-0.5-1.1l0.8-0.8c0.3-0.3,0.3-0.7,0-1l-2.8-2.8c-0.3-0.3-0.7-0.3-1,0
								l-0.8,0.8c-0.4-0.2-0.7-0.3-1.1-0.5V96c0-0.4-0.3-0.7-0.7-0.7h-4c-0.4,0-0.7,0.3-0.7,0.7v1.2c-0.4,0.1-0.8,0.3-1.1,0.5
								l-0.8-0.8c-0.3-0.3-0.7-0.3-1,0l-2.8,2.8c-0.3,0.3-0.3,0.7,0,1l0.8,0.8c-0.2,0.4-0.3,0.7-0.5,1.1h-1.2
								c-0.4,0-0.7,0.3-0.7,0.7v4c0,0.4,0.3,0.7,0.7,0.7h1.2c0.1,0.4,0.3,0.8,0.5,1.1l-0.8,0.8c-0.3,0.3-0.3,0.7,0,1l2.8,2.8
								c0.3,0.3,0.7,0.3,1,0l0.8-0.8c0.4,0.2,0.7,0.3,1.1,0.5v1.2c0,0.4,0.3,0.7,0.7,0.7h4c0.4,0,0.7-0.3,0.7-0.7v-1.2
								c0.4-0.1,0.8-0.3,1.1-0.5l0.8,0.8c0.3,0.3,0.7,0.3,1,0l2.8-2.8c0.3-0.3,0.3-0.7,0-1l-0.8-0.8c0.2-0.4,0.3-0.7,0.5-1.1h1.2
								c0.4,0,0.7-0.3,0.7-0.7v-4C601.7,102.9,601.4,102.6,601,102.6z M594.9,105.3c0,1.8-1.4,3.2-3.2,3.2c-1.8,0-3.2-1.4-3.2-3.2
								c0-1.8,1.4-3.2,3.2-3.2C593.5,102.1,594.9,103.5,594.9,105.3z"/>
						</g>
						<g>
							<path class="st16" d="M613.7,113.4c-0.4,0-0.7-0.5-0.3-0.8c0.3-0.3,0.3-0.9,0-1.3l-1-1c-0.3-0.3-0.9-0.3-1.3,0
								c-0.3,0.3-0.8,0.1-0.8-0.3l0,0c0-0.5-0.4-0.9-0.9-0.9h-1.4c-0.5,0-0.9,0.4-0.9,0.9l0,0c0,0.4-0.5,0.7-0.8,0.3
								c-0.3-0.3-0.9-0.3-1.3,0l-1,1c-0.3,0.3-0.3,0.9,0,1.3l0,0c0.3,0.3,0.1,0.8-0.3,0.8c-0.5,0-0.9,0.4-0.9,0.9v1.4
								c0,0.5,0.4,0.9,0.9,0.9c0.4,0,0.7,0.5,0.3,0.8l0,0c-0.3,0.3-0.3,0.9,0,1.3l1,1c0.3,0.3,0.9,0.3,1.3,0
								c0.3-0.3,0.8-0.1,0.8,0.3l0,0c0,0.5,0.4,0.9,0.9,0.9h1.4c0.5,0,0.9-0.4,0.9-0.9l0,0c0-0.4,0.5-0.7,0.8-0.3
								c0.3,0.3,0.9,0.3,1.3,0l1-1c0.3-0.3,0.3-0.9,0-1.3l0,0c-0.3-0.3-0.1-0.8,0.3-0.8c0.5,0,0.9-0.4,0.9-0.9v-1.4
								C614.6,113.8,614.2,113.4,613.7,113.4z M608.6,118.4c-1.9,0-3.4-1.5-3.4-3.4s1.5-3.4,3.4-3.4s3.4,1.5,3.4,3.4
								S610.5,118.4,608.6,118.4z"/>
						</g>
					</g>
					<g>
						<path class="st34" d="M627,112.2v-4.3c-1.7-0.4-2.9-1-3.6-1.7s-1.2-1.7-1.2-2.8c0-1.1,0.4-2.1,1.3-2.8s2-1.2,3.5-1.3v-1.3
							c0-0.5,0.4-0.9,0.9-0.9l0,0c0.5,0,0.9,0.4,0.9,0.9v1.3c1.3,0.1,2.4,0.5,3.2,1.1c0.3,0.2,0.5,0.4,0.7,0.7
							c0.6,0.8,0.1,1.9-1.1,2l0,0c-0.7,0.1-1.3-0.2-1.6-0.7c-0.3-0.4-0.6-0.6-1.1-0.8v4c2,0.4,3.4,1,4.1,1.7
							c0.7,0.7,1.1,1.6,1.1,2.7c0,1.2-0.5,2.3-1.4,3.1c-0.9,0.8-2.2,1.4-3.8,1.6v1c0,0.5-0.4,0.9-0.9,0.9l0,0
							c-0.5,0-0.9-0.4-0.9-0.9v-0.9c-1.5-0.1-2.6-0.6-3.5-1.3c-0.5-0.4-0.9-0.9-1.2-1.4c-0.4-0.8,0.3-1.8,1.4-1.9l0,0
							c0.7-0.1,1.4,0.3,1.7,0.8c0.1,0.2,0.2,0.3,0.4,0.5C626.1,111.7,626.5,112,627,112.2z M627,101.4c-0.5,0.1-0.9,0.4-1.2,0.7
							c-0.3,0.3-0.4,0.7-0.4,1.1c0,0.4,0.1,0.7,0.4,1c0.3,0.3,0.7,0.6,1.2,0.8V101.4z M628.8,112.3c0.6-0.1,1.2-0.3,1.5-0.7
							c0.4-0.4,0.6-0.8,0.6-1.3c0-0.5-0.2-0.8-0.5-1.2c-0.3-0.3-0.9-0.6-1.6-0.8L628.8,112.3L628.8,112.3z"/>
					</g>
					<path class="st12" d="M615,53.5c-4.6,1.6-7.7,4.9-10.7,8.5c-0.6-1.7-1.4-3.2-2.3-4.7c-0.4-0.6-1.4-0.1-1,0.6
						c1,1.9,1.8,3.8,2.3,5.9c0.1,0.5,0.9,0.8,1.3,0.3c1.2-1.3,2.2-2.8,3.5-4.1c2.2-2.2,4.8-3.7,7.4-5.3
						C616,54.3,615.6,53.2,615,53.5z"/>
					<path class="st12" d="M651.8,92.1c-4.8,0.4-9.2,4-11.8,8c-0.5-1.2-1.2-2.3-2.2-3.4c-0.5-0.6-1.3,0.2-0.8,0.8
						c1,1.3,1.7,2.6,2.2,4.1c0.2,0.5,0.8,0.6,1.1,0.2c2.9-4.7,6.8-6.7,11.6-9C652.3,92.6,652.2,92.1,651.8,92.1z"/>
					<path class="st12" d="M647.2,57.2c-4.8,0.4-9.2,4-11.8,8c-0.5-1.2-1.2-2.3-2.2-3.4c-0.5-0.6-1.3,0.2-0.8,0.8
						c1,1.3,1.7,2.6,2.2,4.1c0.2,0.5,0.8,0.6,1.1,0.2c2.9-4.7,6.8-6.7,11.6-9C647.7,57.7,647.5,57.2,647.2,57.2z"/>
					<path class="st12" d="M618.8,88.4c-4.6,0.1-9.2,3.9-12.3,7.2c-0.3-1-0.7-2-1-3.1c-0.2-0.8-1.5-0.5-1.3,0.4
						c0.4,1.4,0.8,2.8,1.3,4.2c0.2,0.5,0.8,0.7,1.2,0.3c1.8-1.9,3.8-3.6,6-5c2-1.2,4.4-1.9,6.3-3.2
						C619.3,88.9,619.2,88.4,618.8,88.4z"/>
					<g>
						
							<rect x="627.1" y="70.1" transform="matrix(0.7071 -0.7071 0.7071 0.7071 131.7275 466.1855)" class="st14" width="3.1" height="8"/>
						<path class="st16" d="M629.8,78.2l5.3,5.3c0.8,0.8,2.1,0.8,2.9,0s0.8-2.1,0-2.9l-5.3-5.3L629.8,78.2z"/>
						<g>
							<path class="st14" d="M628.9,62.2c3.4,3.4,3.4,8.8,0,12.2s-8.8,3.4-12.2,0s-3.4-8.8,0-12.2S625.5,58.9,628.9,62.2z"/>
							<circle class="st35" cx="622.8" cy="68.3" r="6.4"/>
							<g>
								<g>
									<path class="st12" d="M619.9,66.3c0.8-0.7,1.8-1.1,2.9-1.1c0.5,0,1,0.1,1.4,0.3c0.4,0.2,0.7,0.4,1.2,0.4
										c0.2,0,0.3-0.2,0.2-0.3c-0.2-1.1-2.2-1.3-3-1.3c-1.2,0.1-2.4,0.7-3.1,1.7C619.4,66.3,619.7,66.5,619.9,66.3L619.9,66.3z"/>
								</g>
								<g>
									<path class="st12" d="M626.6,68c0.2,0.3,0.2,0.6,0.3,0.8c0.1,0.3,0.3,0.5,0.6,0.3c0.7-0.5,0.2-1.5-0.4-1.8
										C626.7,67,626.3,67.6,626.6,68L626.6,68z"/>
								</g>
							</g>
						</g>
					</g>
					<g>
						<path class="st12" d="M575.8,86.7c0,0-0.1,0-0.2,0c-1.5,0.7-2.6,2.3-1.7,3.9c0.8,1.5,2.9,2.5,4.5,1.6c1.5-0.8,1.7-3,1-4.4
							C578.8,86.7,576.8,85.6,575.8,86.7z M577.7,91.2c-1,0.5-2.4-0.2-2.8-1.2c-0.5-1.1,0.2-2.1,1.1-2.7c0.1,0,0.1-0.1,0.1-0.1
							c1-0.2,1.9-0.1,2.3,1C578.9,89.2,578.7,90.7,577.7,91.2z"/>
						<path class="st12" d="M586.6,92.1c-0.3-0.6-1-1-1.5-1.5c-0.6-0.5-1.1-1-1.7-1.5c0,0,0,0-0.1-0.1c0.2-0.1,0.3-0.2,0.5-0.3
							c0.6-0.5,1.3-0.9,1.8-1.5c0.2-0.2,0-0.4-0.3-0.3c-0.7,0.3-1.2,0.9-1.8,1.4c-0.5,0.4-0.9,0.8-1.4,1.2c0-0.1,0-0.1,0-0.2
							c-0.1-1.1-0.1-2.2-0.3-3.3c-0.1-0.5-0.8-0.3-0.8,0.1c0,1.2,0.1,2.3,0.2,3.5c0.1,1,0,2.1,0.3,3.1c0.1,0.3,0.6,0.4,0.7,0
							c0.2-0.8,0.1-1.7,0-2.6c0.3-0.2,0.5-0.4,0.8-0.6c0,0.1,0,0.1,0.1,0.1c0.5,0.5,1.1,1.1,1.6,1.6c0.5,0.5,1,1.1,1.6,1.4
							C586.4,92.7,586.7,92.4,586.6,92.1z"/>
					</g>
					<g>
						<path class="st12" d="M643.6,72c-0.4,0.7-0.7,1.4-1,2.1c-0.2-0.2-0.5-0.4-0.7-0.5c-0.6-0.4-1.3-0.7-2-1
							c-0.5-0.2-0.6,0.5-0.2,0.7c0.6,0.3,1.3,0.6,1.8,1.1c0.2,0.2,0.5,0.5,0.7,0.7c0,0.1-0.1,0.1-0.1,0.2c-0.4,1.1-1,2.3-0.9,3.5
							c0,0.4,0.6,0.6,0.8,0.2c0.6-0.9,0.8-2.1,1.1-3.2c0.4-1.2,0.8-2.3,1.2-3.5C644.5,71.9,643.8,71.6,643.6,72z"/>
						<path class="st12" d="M649.8,78.6c-0.6-0.3-1.1-0.2-1.8-0.2c-0.3,0-1.8,0.2-2,0c-0.1-0.1,0-1.4,0-1.8c0.4,0,0.8,0.1,1.2,0.1
							c0.5,0.1,0.9,0.2,1.4,0c0.1-0.1,0.2-0.3,0-0.4c-0.4-0.3-0.9-0.3-1.4-0.3c-0.4,0-0.8,0-1.2,0c0-0.6,0.1-1.2,0.2-1.8
							c0.8,0.1,1.7,0.2,2.5,0.2c0.3,0,0.3-0.5,0-0.5c-0.8,0-1.6-0.1-2.5-0.1c-0.1-0.4-0.7-0.6-0.8-0.1c-0.2,0.8-0.3,1.6-0.4,2.4
							c0,0.1,0,0.1,0,0.2c0,0.1,0,0.3,0,0.4c-0.1,0.6-0.3,1.8,0.1,2.3c0.4,0.5,1.1,0.4,1.7,0.4c1,0,2.1,0.2,3-0.2
							C650,79.1,650,78.7,649.8,78.6z"/>
						<path class="st12" d="M656.1,77.6c-0.3-0.9-1.5-1.7-2.4-2c-0.4-0.2-0.9-0.2-1.3-0.5c-0.4-0.3-0.4-0.3-0.1-0.8
							c0.4-0.5,1.2-0.9,1.8-0.8c0.6,0.1,0.8-0.8,0.2-0.9c-1.4-0.3-4.8,1.4-3.1,3.1c0.6,0.6,1.5,0.6,2.3,0.9c0.9,0.4,2.1,1.3,1.1,2.2
							c-0.6,0.6-1.6,0.5-2.3,0.8c-0.3,0.1-0.5,0.6-0.1,0.8C653.7,81.2,656.8,79.4,656.1,77.6z"/>
					</g>
				</g>
			</g>
		</g>
	</g>
</g>
</svg>
