<?xml version="1.0" encoding="utf-8"?>
<!-- Generator: Adobe Illustrator 25.4.1, SVG Export Plug-In . SVG Version: 6.00 Build 0)  -->
<svg version="1.1" id="Слой_1" xmlns="http://www.w3.org/2000/svg" xmlns:xlink="http://www.w3.org/1999/xlink" x="0px" y="0px"
	 viewBox="0 0 2465.4 2000" style="enable-background:new 0 0 2465.4 2000;" xml:space="preserve">
<style type="text/css">
	.st0{fill:url(#SVGID_1_);}
	.st1{fill:url(#SVGID_00000075152582254361037290000015097311833715993759_);}
	.st2{fill:#FFB955;}
	.st3{fill:url(#SVGID_00000111155916027345751830000004374974710585742735_);}
	.st4{fill:#323657;}
	.st5{fill:url(#SVGID_00000016049241107963597040000006861270590941929397_);}
	.st6{fill:#2D3038;}
	.st7{fill:#3F444F;}
	.st8{opacity:0.3;fill:#C2C2C2;enable-background:new    ;}
	.st9{fill:#CAC7D1;}
	.st10{fill:#1D2033;}
	.st11{fill:#EEA987;}
	.st12{fill:#C78D71;}
	.st13{fill:#A09EA6;}
	.st14{fill:#EAE6F2;}
	.st15{fill:#3A4066;}
	.st16{fill:#EFAA88;}
	.st17{fill:url(#SVGID_00000114042420917362610000000017701893218490287745_);}
	.st18{fill:#50558A;}
	.st19{fill:#1A598C;}
	.st20{fill:#BFB9B7;}
	.st21{fill:#F2EBE9;}
	.st22{fill:#3D8ED1;}
	.st23{fill:#F5EEEC;}
	.st24{fill:#DED7D5;}
	.st25{fill:#EEA886;}
	.st26{fill:#FFC355;}
	.st27{fill:#202338;}
	.st28{fill:#2F6B8C;}
	.st29{fill:#292C47;}
	.st30{fill:#A67F37;}
	.st31{fill:#FCCCA2;}
	.st32{fill:#81A358;}
	.st33{fill:#71A334;}
	.st34{fill:#60892C;}
	.st35{fill:#86BC44;}
	.st36{fill:#7BA840;}
	.st37{fill:#70A333;}
	.st38{fill:#699331;}
	.st39{fill:#B1D045;}
	.st40{fill:#9EB24E;}
	.st41{fill:url(#SVGID_00000092443453745584923750000015184869558426688955_);}
	.st42{clip-path:url(#SVGID_00000137094070964244352660000012102352187797748101_);}
	.st43{filter:url(#Adobe_OpacityMaskFilter);}
	.st44{clip-path:url(#SVGID_00000165932953687704885410000013024908462342151324_);}
	.st45{clip-path:url(#SVGID_00000150074463692951176590000000432849105718622653_);}
	
		.st46{clip-path:url(#SVGID_00000118359922978171691720000010997460628034536338_);fill:url(#SVGID_00000101822848584776181930000001853021261501404335_);}
	
		.st47{clip-path:url(#SVGID_00000165932953687704885410000013024908462342151324_);mask:url(#SVGID_00000016777497154849615810000012775725956437402034_);fill:url(#SVGID_00000109027281522512478640000006999693156616976514_);}
	.st48{fill:url(#SVGID_00000021109864377458264430000017731221131721722760_);}
	.st49{fill:#454342;}
	.st50{fill:#918783;}
	.st51{fill:#1D3B54;}
	.st52{fill:#DB9C7C;}
	.st53{fill:#152C3D;}
	.st54{fill:#A77860;}
	.st55{fill:url(#SVGID_00000177454933264770251490000002757349897818542748_);}
	.st56{fill:url(#SVGID_00000132768719615558370440000007746939036429498554_);}
	.st57{fill:url(#SVGID_00000176035672120359671310000005558518831008455574_);}
	.st58{fill:#BFB2AC;}
	.st59{fill:#FFD1A1;}
	.st60{fill:#B37952;}
	.st61{fill:#D6985E;}
	.st62{fill:#807066;}
	.st63{fill:#6E6760;}
	.st64{fill:#918880;}
	.st65{fill:#BC8551;}
	.st66{opacity:0.72;fill:#D9D9D9;enable-background:new    ;}
	.st67{fill:#FFFFFF;}
	.st68{fill:#FFDC7D;}
</style>
<g>
	<g>
		
			<linearGradient id="SVGID_1_" gradientUnits="userSpaceOnUse" x1="1745.1561" y1="1313.9016" x2="1944.4221" y2="1757.8356" gradientTransform="matrix(1 0 0 -1 0 2000)">
			<stop  offset="0" style="stop-color:#FF9F55"/>
			<stop  offset="1" style="stop-color:#EF7F1A"/>
		</linearGradient>
		<path class="st0" d="M2018.2,469.2c5.2-14.2,8.3-28.9,9.3-43.6l29.2-11.6l-6.2-33.5l-6.2-33.5l-31.4-0.5
			c-6.2-13.4-14.3-26-24.2-37.4l12.4-28.8l-28.1-19.4l-28.1-19.4l-22.6,21.8c-14.2-5.2-28.9-8.3-43.6-9.3l-11.7-29.1l-33.6,6.2
			l-33.6,6.2l-0.5,31.4c-13.4,6.2-26,14.3-37.4,24.2l-28.8-12.4l-19.4,28.1l-19.4,28.1l21.8,22.6c-5.2,14.2-8.3,28.9-9.3,43.6
			l-29.2,11.6l6.2,33.5l6.2,33.5l31.4,0.5c6.2,13.4,14.3,26,24.2,37.4l-12.3,28.8l28.1,19.4l28.1,19.4l22.6-21.8
			c14.2,5.2,28.9,8.3,43.6,9.3l11.7,29.2l33.6-6.2l33.5-6.2l0.5-31.4c13.4-6.2,26-14.3,37.4-24.2l28.8,12.4l19.4-28.1l19.4-28.1
			L2018.2,469.2z M1819.8,482.9c-38-26.2-47.6-78.3-21.4-116.3s78.3-47.6,116.3-21.4c38,26.2,47.6,78.3,21.4,116.3
			C1909.9,499.5,1857.8,509.1,1819.8,482.9z"/>
		
			<linearGradient id="SVGID_00000070827437466376855050000010169388183645520280_" gradientUnits="userSpaceOnUse" x1="1657.7864" y1="1729.7957" x2="1839.3954" y2="1954.2844" gradientTransform="matrix(1 0 0 -1 0 2000)">
			<stop  offset="0" style="stop-color:#FF9F55"/>
			<stop  offset="1" style="stop-color:#EF7F1A"/>
		</linearGradient>
		<path style="fill:url(#SVGID_00000070827437466376855050000010169388183645520280_);" d="M1835.4,162.5c2.4-6.6,3.8-13.4,4.3-20.2
			l13.5-5.4l-2.8-15.5l-2.8-15.5l-14.5-0.2c-2.9-6.2-6.6-12-11.2-17.3l5.7-13.3l-13-9l-13-9L1791,67.2c-6.6-2.4-13.4-3.8-20.2-4.3
			l-5.4-13.5l-15.5,2.8l-15.5,2.8l-0.2,14.5c-6.2,2.9-12,6.6-17.3,11.2l-13.3-5.7l-9,13l-9,13l10.1,10.4c-2.4,6.6-3.8,13.4-4.3,20.2
			l-13.5,5.4l2.8,15.5l2.8,15.5l14.5,0.2c2.9,6.2,6.6,12,11.2,17.3l-5.7,13.3l13,9l13,9l10.4-10.1c6.6,2.4,13.4,3.8,20.2,4.3
			l5.4,13.5l15.5-2.9l15.5-2.9l0.2-14.5c6.2-2.9,12-6.6,17.3-11.2l13.3,5.7l9-13l9-13L1835.4,162.5z M1743.6,168.9
			c-17.6-12.1-22-36.2-9.9-53.8s36.2-22,53.8-9.9s22,36.2,9.9,53.8C1785.3,176.6,1761.2,181,1743.6,168.9z"/>
		<g>
			<polygon class="st2" points="1529.1,1121.9 1680,1121.9 1680,1231.3 1552.1,1231.3 1529.1,1254.4 			"/>
		</g>
		<g>
			
				<linearGradient id="SVGID_00000061433694447806637400000002400367617835456443_" gradientUnits="userSpaceOnUse" x1="876.07" y1="1061.125" x2="1835.7899" y2="1061.125" gradientTransform="matrix(1 0 0 -1 0 2000)">
				<stop  offset="0" style="stop-color:#FF9F55"/>
				<stop  offset="1" style="stop-color:#EF7F1A"/>
			</linearGradient>
			<path style="fill:url(#SVGID_00000061433694447806637400000002400367617835456443_);" d="M1078.6,1313.3
				c0-158.5,12.3-226,36.8-285.9c24.5-59.8,75.2-112,151.9-156.5c23-13.8,51.4-29.5,85.2-47.2c33.7-17.6,66.7-38.7,99-63.3
				c32.2-24.5,59.4-53.3,81.7-86.3c22.2-33,33.4-71,33.4-113.9c0-32.2-6.2-60.6-18.4-85.1c-12.3-24.5-28.4-45.2-48.3-62.1
				c-20-16.9-43.4-29.5-70.2-38c-26.9-8.4-54.1-12.7-81.7-12.7c-33.8,0-64.4,5.8-92.1,17.3c-27.6,11.5-52.6,26.1-74.8,43.7
				c-22.3,17.7-42.2,37.6-59.8,59.8c-17.7,22.3-32.6,43.4-44.9,63.3L876.1,408.4c19.9-47.5,46.4-89.8,79.4-126.6
				c33-36.8,70.5-67.9,112.8-93.2c42.2-25.3,87.8-44.5,136.9-57.5c49.1-13,99.7-19.6,151.9-19.6c58.3,0,115.8,8.4,172.6,25.3
				c56.8,16.9,107.8,43.7,153.1,80.6c45.2,36.8,82.1,84,110.5,141.5c28.4,57.5,42.6,126.2,42.6,206c0,49.1-5.8,92.5-17.3,130
				c-11.5,37.6-28,71.7-49.5,102.4c-21.5,30.7-46.8,58.3-75.9,82.8c-29.2,24.6-62.1,48.3-99,71.3c-30.7,18.4-61.4,36.1-92.1,52.9
				c-30.7,16.9-58.7,35.7-84,56.4c-25.3,20.7-46,44.5-62.1,71.3c-16.1,26.9-24.2,59.5-24.2,181.2L1078.6,1313.3L1078.6,1313.3z
				 M1083.2,1766.2v-317.6h255.5v317.6H1083.2z"/>
		</g>
		<g>
			<g>
				<path class="st4" d="M1535.3,945.9c0,0-83.2,73.6-107.8,93.3c-11.4,9.1-38.4,9.8-67.4,9.9c-9.6,0-20.3,0.5-29.9,0c0,0,0,0,0,0
					c-38.1-1.9-71.2-5.4-71.2-5.4s-98.8,5-94-56.3c0,0,11.5-18.5,26.3-22.8c13.6-3.9,79.7,6.9,90.4,7.4
					c11.9,0.5,94.5,16.6,97.6,16.1c3.8-0.6,39.2-21.4,58.2-33c28.9-17.6,56.4-31.8,56.4-31.8L1535.3,945.9z"/>
			</g>
			<g>
				
					<linearGradient id="SVGID_00000031896017040151454040000001516662659495663525_" gradientUnits="userSpaceOnUse" x1="1251.808" y1="1082.3802" x2="1778.6985" y2="974.7598" gradientTransform="matrix(1 0 0 -1 0 2000)">
					<stop  offset="0" style="stop-color:#9A5CFF"/>
					<stop  offset="0.5425" style="stop-color:#695ADC"/>
					<stop  offset="0.9948" style="stop-color:#4059BF"/>
				</linearGradient>
				<polygon style="fill:url(#SVGID_00000031896017040151454040000001516662659495663525_);" points="1696.9,1044.3 1066.5,935.3 
					1081.5,847.1 1711.9,956 				"/>
				
					<rect x="1017.7" y="874.8" transform="matrix(0.1679 -0.9858 0.9858 0.1679 5.8727 1784.7231)" class="st6" width="84.9" height="28.1"/>
				<path class="st7" d="M734.5,490.8c-179.9,0-325.7,145.8-325.7,325.7s145.8,325.7,325.7,325.7c179.9,0,325.7-145.8,325.7-325.7
					S914.3,490.8,734.5,490.8z M734.5,1088.7c-104.2,0-194.7-58.5-240.5-144.5l0,0c-20.3-38.1-31.8-81.5-31.8-127.7
					c0-150.4,121.9-272.2,272.2-272.2c70.6,0,134.9,26.8,183.2,70.9c54.7,49.8,89,121.6,89,201.4
					C1006.7,966.8,884.8,1088.7,734.5,1088.7z"/>
				<path class="st8" d="M917.7,615.1c0,0-353.3-43.8-423.7,329.1l0,0c-20.3-38.1-31.8-81.5-31.8-127.7
					c0-150.4,121.9-272.2,272.2-272.2C805,544.2,869.3,571.1,917.7,615.1z"/>
			</g>
			<g>
				<path class="st9" d="M931.9,1413.1c0,0,32.2,9.8,45.7,7.3c13.5-2.5,6.7-167.8,7.2-202.2c0.4-27.9,15.7-101.6,15.7-101.6
					s0,0,0,0.1c0,0,0,0.1,0,0.1c0,0,0,0.1,0,0.1c1.5,5.5,22.1,82,22.8,118.7c0.8,38.1-5,184-5,184l56.8,5.5l163.2,4l34.1-4
					c0,0-4.1-62.4-5.6-92c-0.9-18.8-4.6-52.5-3.7-85.4c0,0-0.6-34.6,2.8-49.5c0.4-65.8,4.3-130.9,4.3-130.9
					c2.2-29.8,3.7-57.7,4.6-83.7c-7.2-3.8-15.8-8.3-22.8-11.5c-21.4-10.2-51.3-23.9-70.4-32.7c-11.2-5.2-22.2-8.9-22.2-8.9
					s-76.6-7.3-82.8-7c-2,0.1-11.5,3.5-24.1,8.2c-27.2,10.3-79.5,31.3-87.8,37.3c-12.2,8.8-38.1,216.7-39.2,231.3
					C923.6,1226.4,931.9,1413.1,931.9,1413.1z"/>
			</g>
			<path class="st10" d="M1267.5,1399c0,0-112,9.5-210.2,0v32.2c0,0,147.4,21.3,215.1-6.1L1267.5,1399z"/>
			<g>
				<path class="st4" d="M1290.3,1430.9c-7-38.3-14.5-86.3-19.9-130.6v-0.2c-0.5-3.8-0.9-7.5-1.3-11.2c0-0.2,0-0.4-0.1-0.6
					c-1.8-15.7-3.3-30.7-4.3-44.5c-0.8-10.6-0.1-20.8,1.3-30.9c4.3-70.4,6.4-144.6,6.4-144.6c2.2-30.4,8.5-69.8,9.3-96.3
					c-10.4-2-17.3-2.2-26.8-5.5c0,0-61.4-22.3-83-31.5c0,0,18.2,42.8,31.9,138.5c5.2,36.7,15,98.6,22.1,161.8
					c2.8,24.9,7.3,50.1,11.7,73.9s8.6,46.1,10.6,65.1c1.4,12.9,3.7,34,6.1,56.5c0.4,3.5,0.7,6.9,1.1,10.5h36.8
					C1291.7,1437.9,1291,1434.4,1290.3,1430.9z"/>
			</g>
			<path class="st9" d="M1166.2,957.3c0,0,2,29.3-22.7,30c-24.8,0.7-44.5-23.1-44.5-23.1l41.1,10.6l25-21.2L1166.2,957.3z"/>
			<g>
				<path class="st11" d="M1132.8,732.9c0,0,56.8,9.6,47.2,98.6s-59.8,81.2-63.2,81c-3.4-0.1-50.5,1.1-53-107.8
					C1063.8,804.8,1063.1,724.3,1132.8,732.9z"/>
			</g>
			<g>
				<path class="st11" d="M1157.7,886.7c0,0,0,36.7,1.5,44.6c1.6,8.5-45.7,33.2-76.2,4.5c0,0,6.2-40,4.2-54.2
					C1085.3,867.5,1157.7,886.7,1157.7,886.7z"/>
			</g>
			<g>
				<path class="st11" d="M1180.2,810.8c0,0,6.3-6.6,8.5,0.2c2.2,6.8-8,35.4-9.3,38.1c0,0-1.2,2.6-2.7,1.2
					C1175.3,848.8,1180.2,810.8,1180.2,810.8z"/>
			</g>
			<g>
				<path class="st11" d="M1064.5,803.9c0,0-6-6.8-8.5-0.2c-2.5,6.7,6.6,36.6,7.7,38.5c0,0,2,3.1,3.5,1.7
					C1068.7,842.5,1064.5,803.9,1064.5,803.9z"/>
			</g>
			<g>
				<path class="st4" d="M1184.8,798.8c-2,12.2-3.8,21.2-3.8,21.2l-8.3,10.8c0,0,0.5-23.9-0.8-27.6c-0.5-1.4-1-3.9-1.6-6.7
					c-0.9-4.5-1.9-9.6-2.6-11.3c-1.1-2.7-48.7-16.6-91.2,2.9c0,0,0.4,3.7,0.3,7.8c0,4.8-0.5,10.1-2.7,10.9c-4.1,1.5-2.4,28-2.4,28
					l-6.6-7.6c0,0-1.9-13.8-3.8-29.7c0,0,0,0,0-0.1c-0.4-3.7-0.9-7.5-1.3-11.3c-0.9-16,0.6-45,21.4-62.1c14-6,36.5-11.1,73.9,0.3
					c0,0,8.6,0.6,11,2.9C1189.6,752.8,1184.8,798.8,1184.8,798.8z"/>
			</g>
			<path class="st12" d="M1091.2,900.6c0,0,9.1,12.6,30.2,12.1c21.1-0.5,30.2-11.5,30.2-11.5s-10,20.9-30.3,20.7
				C1100.9,921.7,1091.2,900.6,1091.2,900.6z"/>
			<path class="st13" d="M1161.4,959.1l-21.2,15.7c0,0,17.7-37.8,18.1-52.9L1161.4,959.1z"/>
			<polygon class="st14" points="1158.2,921.9 1172.8,935.3 1187.9,980.6 1161.4,959.1 			"/>
			<path class="st11" d="M1155.6,935.4c0,0-5.9,20.6-15.5,39.4c0,0-22.3-19.5-29.3-26.5S1155.6,935.4,1155.6,935.4z"/>
			<path class="st13" d="M1116.9,953l23.3,21.8c0,0-27.5-1.8-32.7-6.4L1116.9,953z"/>
			<path class="st14" d="M1086,912.9c0,0,18.6,30.3,30.9,40.2l-20.7,34.3l-33.1-60.2L1086,912.9z"/>
			<g>
				<path class="st4" d="M1120.4,1131.3c-4.5-86.8-51.9-198.1-57.3-204.1c-4.2,1.6-19.1,7.8-23.8,9.7c-25.6,10.1-78,28.7-85,33.7
					c-12.2,8.8-35.4,226.8-36.8,241.3c-2,20,4.2,210.5,4.2,210.5s31.5,6.9,51.1,8.4c3.9,0.3,7.3,0.4,9.9,0.2
					c-1.2,3.5-2.3,6.9-3.4,10.2h111.5c0.3-3.4,0.7-6.9,1-10.5c1.3-14,2.8-29,4.4-44.6c4.1-40.7,9.7-78.6,14.7-127.2
					C1115.6,1213.5,1121.8,1157.7,1120.4,1131.3z M987.1,1219.7c3-40.6,15.6-92,15.6-92c7,24.4,15.9,135.3,15.9,135.3
					c0,34.8-13.7,94.9-28.4,144.3C993,1357.7,985.2,1244.6,987.1,1219.7z"/>
			</g>
			<g>
				<path class="st4" d="M989.2,1309l-0.7,121.8l-0.1,10.5h-43.9c-7-1.9-14.7-4.4-22.8-7.4l0-3.1l-2.6-194.9L989.2,1309z"/>
			</g>
			<rect x="1135" y="1401" class="st15" width="52.8" height="39.3"/>
			<g>
				<g>
					<path class="st16" d="M1492.2,918.1c0,0-5.2,22.8-0.2,29.2c4.9,6.3,7.3-1.8,7.3-1.8s-2.4,8,3.8,10.7c6.2,2.7,8.4-7,8.4-7
						s-0.2,6.6,6.8,6.9c7.1,0.4,7-8.1,7-8.1s4.9,9.5,10.6,2.9c9.7-11.1,5.8-27.9,5.8-27.9s-1.3-4-8.1-3.8c0,0-2.6-10-13.5-5.9
						c0,0-8.8-8-14.2,0.1C1506.1,913.3,1496.2,905.4,1492.2,918.1z"/>
				</g>
			</g>
			
				<linearGradient id="SVGID_00000155128454353576472880000009335955968620678538_" gradientUnits="userSpaceOnUse" x1="897.05" y1="559.815" x2="1325.4399" y2="559.815" gradientTransform="matrix(1 0 0 -1 0 2000)">
				<stop  offset="0" style="stop-color:#9A5CFF"/>
				<stop  offset="0.9948" style="stop-color:#4059BF"/>
			</linearGradient>
			
				<rect x="897" y="1430.9" style="fill:url(#SVGID_00000155128454353576472880000009335955968620678538_);" width="428.4" height="18.7"/>
		</g>
		<g>
			<g>
				<path class="st11" d="M649.2,1095.6c0,0,31.5,5.3,26.1,54.5c-5.3,49.2-33.1,44.9-35,44.8c-1.9-0.1-27.9,0.6-29.3-59.6
					C611,1135.4,610.6,1090.9,649.2,1095.6z"/>
			</g>
			<g>
				<path class="st11" d="M663,1181.5c0,0-1.2,20.4,0.7,24.8c1.9,4.4-25.1,18.2-42,2.3c0,0,3.4-22.2,2.3-30
					C622.9,1170.9,663,1181.5,663,1181.5z"/>
			</g>
			<g>
				<path class="st11" d="M675.9,1136.2c0,0,3.5-3.7,4.7,0.1c1.2,3.7-4.4,19.9-5.2,21.1c0,0-0.7,1.4-1.5,0.6
					C673.2,1157.3,675.9,1136.2,675.9,1136.2z"/>
			</g>
			<g>
				<path class="st11" d="M611.4,1134.9c0,0-3.3-3.8-4.7-0.1c-1.4,3.7,3.7,20.3,4.3,21.3c0,0,1.1,1.7,1.9,0.9
					C613.8,1156.3,611.4,1134.9,611.4,1134.9z"/>
			</g>
			<path class="st12" d="M626.2,1188.4c0,0,5,7,16.7,6.7s16.7-6.3,16.7-6.3s-5.5,11.6-16.8,11.4
				C631.5,1200.1,626.2,1188.4,626.2,1188.4z"/>
			<path class="st10" d="M545.8,1821.5c0,0-4.3,9.7-7.9,13.5s-17.5,10.7-17.6,22.1c-0.1,12.3,23.4,8.9,32.6,8.5
				c9.2-0.4,9.9-7,13.7-14c3.9-7,7.8-5.8,8.5-11.4c0.7-5.6-3-18.2-3-18.2L545.8,1821.5z"/>
			<path class="st18" d="M545.4,1818l-0.7,5.8c0,0,14.4,4.8,28.1,0.5l-0.8-8L545.4,1818z"/>
			<g>
				<g>
					<g>
						<polygon class="st19" points="1124.7,1844 1121.4,1843.9 1138,1426.4 850.4,1426.4 833.8,1844 830.5,1843.9 847.2,1423.1 
							1141.4,1423.1 						"/>
					</g>
				</g>
			</g>
			<g>
				<g>
					<g>
						<polygon class="st19" points="1151.6,1844 1135,1426.4 847.4,1426.4 864,1843.9 860.7,1844 843.9,1423.1 1138.2,1423.1 
							1154.9,1843.9 						"/>
					</g>
				</g>
			</g>
			<g>
				<g>
					<polygon class="st20" points="862.3,1708.2 1153.3,1708.2 1136.6,1289 845.7,1289 					"/>
				</g>
			</g>
			<g>
				<g>
					<polygon class="st21" points="1114.8,1708.2 823.9,1708.2 840.6,1289 1131.5,1289 					"/>
				</g>
			</g>
			<g>
				<g>
					<polygon class="st22" points="917.1,1581.9 914,1580.8 941.5,1503.4 1001.3,1487.6 1022.8,1402.7 1069,1382.3 1079.3,1316.3 
						1082.6,1316.8 1072,1384.7 1025.7,1405.1 1004.1,1490.3 944.1,1506.2 					"/>
				</g>
			</g>
			<g>
				<path class="st23" d="M1009.7,1483.3c3.1,3.8,2.6,9.5-1.3,12.6s-9.5,2.6-12.6-1.3s-2.6-9.5,1.3-12.6
					C1000.9,1478.9,1006.5,1479.5,1009.7,1483.3z"/>
			</g>
			<g>
				<path class="st22" d="M1009.5,1497.2c-4.5,3.7-11.3,3-15-1.5s-3-11.3,1.5-15c4.5-3.7,11.3-3,15,1.5
					C1014.7,1486.8,1014,1493.5,1009.5,1497.2z M998.1,1483.3c-3.1,2.5-3.6,7.2-1,10.3c2.5,3.1,7.2,3.6,10.3,1
					c3.1-2.5,3.6-7.2,1-10.3S1001.2,1480.8,998.1,1483.3z"/>
			</g>
			<g>
				<path class="st23" d="M1031.4,1398.8c3.1,3.8,2.6,9.5-1.3,12.6s-9.5,2.6-12.6-1.3s-2.6-9.5,1.3-12.6
					C1022.7,1394.3,1028.3,1394.9,1031.4,1398.8z"/>
			</g>
			<g>
				<path class="st22" d="M1031.2,1412.7c-4.6,3.7-11.3,3-15-1.5c-3.7-4.6-3-11.3,1.5-15s11.3-3,15,1.5
					C1036.5,1402.2,1035.8,1409,1031.2,1412.7z M1019.9,1398.8c-3.1,2.5-3.6,7.2-1,10.3c2.5,3.1,7.2,3.6,10.3,1
					c3.1-2.5,3.6-7.2,1-10.3C1027.6,1396.7,1023,1396.2,1019.9,1398.8z"/>
			</g>
			<g>
				<path class="st23" d="M1076.9,1377.8c3.1,3.8,2.6,9.5-1.3,12.6s-9.5,2.6-12.6-1.3s-2.6-9.5,1.3-12.6
					C1068.1,1373.4,1073.7,1374,1076.9,1377.8z"/>
			</g>
			<g>
				<path class="st23" d="M950.1,1499.9c3.1,3.8,2.6,9.5-1.3,12.6s-9.5,2.6-12.6-1.3s-2.6-9.5,1.3-12.6S947,1496.1,950.1,1499.9z"/>
			</g>
			<g>
				<path class="st22" d="M949.9,1513.8c-4.5,3.7-11.3,3-15-1.5c-3.7-4.6-3-11.3,1.5-15s11.3-3,15,1.5S954.5,1510.1,949.9,1513.8z
					 M938.5,1499.9c-3.1,2.5-3.6,7.2-1,10.3c2.5,3.1,7.2,3.6,10.3,1c3.1-2.5,3.6-7.2,1-10.3C946.3,1497.9,941.7,1497.4,938.5,1499.9
					z"/>
			</g>
			<g>
				<g>
					<g>
						<path class="st24" d="M964.1,1398.4h-85.3c-1.2,0-2.3-1-2.3-2.3v-14.1c0-1.2,1-2.3,2.3-2.3h85.3c1.2,0,2.3,1,2.3,2.3v14.1
							C966.4,1397.4,965.4,1398.4,964.1,1398.4z"/>
					</g>
				</g>
			</g>
			<g>
				<g>
					<g>
						<path class="st24" d="M964.1,1365.9h-85.3c-1.2,0-2.3-1-2.3-2.3v-14.1c0-1.2,1-2.3,2.3-2.3h85.3c1.2,0,2.3,1,2.3,2.3v14.1
							C966.4,1364.9,965.4,1365.9,964.1,1365.9z"/>
					</g>
				</g>
			</g>
			<g>
				<path class="st22" d="M1076.7,1391.7c-4.6,3.7-11.3,3-15-1.5c-3.7-4.6-3-11.3,1.5-15c4.6-3.7,11.3-3,15,1.5
					C1081.9,1381.3,1081.2,1388,1076.7,1391.7z M1065.3,1377.8c-3.1,2.5-3.6,7.2-1,10.3c2.5,3.1,7.2,3.6,10.3,1
					c3.1-2.5,3.6-7.2,1-10.3C1073,1375.8,1068.4,1375.3,1065.3,1377.8z"/>
			</g>
			<g>
				<g>
					<polygon class="st22" points="892.7,1656.6 890.7,1655.2 926.2,1605.8 971.9,1606.8 1004.6,1550.8 1041.6,1545.8 
						1062.4,1500.9 1064.7,1502 1043.3,1548 1006.1,1553.1 973.3,1609.3 927.4,1608.3 					"/>
				</g>
			</g>
			<g>
				<path class="st23" d="M978.7,1605.4c1.5,3.4-0.1,7.3-3.5,8.7c-3.4,1.4-7.3-0.1-8.7-3.5c-1.4-3.4,0.1-7.3,3.5-8.7
					C973.4,1600.5,977.3,1602.1,978.7,1605.4z"/>
			</g>
			<g>
				<path class="st22" d="M975.7,1615.3c-4,1.7-8.6-0.2-10.4-4.1c-1.7-4,0.2-8.6,4.1-10.4c4-1.7,8.6,0.2,10.4,4.1
					C981.6,1608.9,979.7,1613.6,975.7,1615.3z M970.5,1603.1c-2.7,1.2-4,4.3-2.8,7.1c1.2,2.7,4.3,4,7.1,2.8c2.7-1.2,4-4.3,2.8-7.1
					C976.4,1603.2,973.2,1601.9,970.5,1603.1z"/>
			</g>
			<g>
				<path class="st23" d="M1011.5,1549.8c1.5,3.4-0.1,7.3-3.5,8.7s-7.3-0.1-8.7-3.5c-1.5-3.4,0.1-7.3,3.5-8.7
					C1006.2,1544.8,1010.1,1546.4,1011.5,1549.8z"/>
			</g>
			<g>
				<path class="st22" d="M1008.5,1559.6c-4,1.7-8.6-0.2-10.4-4.1c-1.7-4,0.1-8.6,4.1-10.4c4-1.7,8.6,0.1,10.4,4.1
					C1014.4,1553.2,1012.5,1557.9,1008.5,1559.6z M1003.3,1547.4c-2.7,1.2-4,4.3-2.8,7.1c1.2,2.7,4.3,4,7.1,2.8
					c2.7-1.2,4-4.3,2.8-7.1C1009.2,1547.5,1006,1546.2,1003.3,1547.4z"/>
			</g>
			<g>
				<path class="st23" d="M1048.1,1544.2c1.4,3.4-0.1,7.3-3.5,8.7c-3.4,1.4-7.3-0.1-8.7-3.5c-1.4-3.4,0.1-7.3,3.5-8.7
					C1042.8,1539.2,1046.7,1540.8,1048.1,1544.2z"/>
			</g>
			<g>
				<path class="st23" d="M933,1605c1.5,3.4-0.1,7.3-3.5,8.7c-3.4,1.4-7.3-0.1-8.7-3.5c-1.5-3.4,0.1-7.3,3.5-8.7
					C927.6,1600.1,931.5,1601.7,933,1605z"/>
			</g>
			<g>
				<path class="st22" d="M930,1614.9c-4,1.7-8.6-0.1-10.4-4.1c-1.7-4,0.1-8.6,4.1-10.3s8.6,0.1,10.4,4.1
					C935.8,1608.5,934,1613.2,930,1614.9z M924.7,1602.7c-2.7,1.2-4,4.3-2.8,7.1c1.2,2.7,4.3,4,7.1,2.8c2.7-1.2,4-4.3,2.8-7.1
					C930.7,1602.8,927.5,1601.5,924.7,1602.7z"/>
			</g>
			<g>
				<path class="st22" d="M1045.1,1554c-4,1.7-8.6-0.1-10.4-4.1c-1.7-4,0.1-8.6,4.1-10.4c4-1.7,8.6,0.1,10.4,4.1
					C1051,1547.7,1049.1,1552.3,1045.1,1554z M1039.9,1541.8c-2.7,1.2-4,4.3-2.8,7.1c1.2,2.7,4.3,4,7.1,2.8c2.7-1.2,4-4.3,2.8-7.1
					C1045.8,1541.9,1042.6,1540.6,1039.9,1541.8z"/>
			</g>
			<g>
				<g>
					<g>
						<path class="st25" d="M831.7,1304.9c0,0,9.5-3,10.2-8.6c0.7-4.8,4.9-10.5,6.3-12.2c1.8-2.3,4.5-11.6,7.5-9.4
							s-3.8,15.4-4.6,18.5s12.1-2.8,15.3-2s11.6,22.8,2.3,25.8c-9.4,3-21.3,0-22.9,0.8c-1.5,0.8-6.7,2.4-6.7,2.4L831.7,1304.9z"/>
					</g>
				</g>
			</g>
			<g>
				<g>
					<g>
						<path class="st25" d="M864,1291.4c0,0,29.3-7.2,31.6-6s2.7,2.8-0.1,3.6s-28.1,7.8-28.1,7.8s36.1-2.7,38.2-2.2
							c1.2,0.3,2,3.4,0.6,3.9c-1.4,0.6-37,5.3-37,5.3s33.7-2.4,35.3-1.5c1.5,0.8,1.4,3.8-1,4.2c-2.5,0.3-33.6,4.4-33.6,4.4
							s24.6-0.2,25.5,1.4c0.6,1,1.3,3.6-5,3.5c-6.4-0.1-21.4,1.1-21.4,1.1L864,1291.4z"/>
					</g>
				</g>
			</g>
			<g>
				<path class="st26" d="M692.7,1273.3c0,0,7.6,13.4,17.8,28.5c0.9,1.4,1.9,2.8,2.9,4.2c0,0,0,0,0,0c1.3,1.9,2.7,3.8,4,5.7
					c1.6,2.3,3.3,4.5,5,6.7c9.4,12.2,19.3,22.6,26.9,24.5c16.3,4,98.2-14.2,98.2-14.2l-6.3-32.2c0,0-28.7,9.8-47.9,11.4
					c-11.8,1-26.4,4.8-28.2,3.8c-1.8-1.1-35.3-49.5-37.7-54.8c-2.4-5.2-13.1-25.7-22.3-35.5c-9.2-9.8-19.1-6.1-19.1-6.1
					C658.5,1233.2,692.7,1273.3,692.7,1273.3z"/>
			</g>
			<g>
				<path class="st27" d="M729.7,1818.7c0,0,12.7,13.3,25.5,16.1c12.9,2.8,21.8,6.3,22,14c0.1,7.6-37,12.7-51.7,5
					c-22-11.5-24.2-8-26.6-13.8s2.9-21.1,2.8-22.9C701.4,1814.8,729.7,1818.7,729.7,1818.7z"/>
			</g>
			<g>
				<path class="st28" d="M728.2,1812.3c0,0,1.7,6.2,1.4,6.4s-29,3.3-28.1-1.7c0.7-4.1,1.7-8.5,1.7-8.5L728.2,1812.3z"/>
			</g>
			<g>
				<path class="st29" d="M699.3,1438.2c0,0,13.3,96.6,18.7,129.3c6.3,38.2,8.5,69.7,10.3,89.5c2.2,24.9,5.2,152.1,6.7,159.4
					s-38.8,3.5-38.8,3.5s-21.1-165.9-27.8-192.3c-6.2-24.7-24.2-131.1-29.8-124.4s-29.8,128.2-33.9,147.7s-27.5,175.4-27.5,175.4
					s-25,4.5-40.2-3.1c0,0,11.8-136.4,14.4-172.8c1-13.9,3.5-166.5,27-228C590.9,1389.7,699.3,1438.2,699.3,1438.2z"/>
			</g>
			<path class="st26" d="M660.2,1206.5c0,0,35.2,7.3,39.4,11c4.5,3.9,12.5,42.5,13,53.2c0.5,10.7-4.2,55.6-8.8,72.3
				c-4.5,16.7-2.9,98.9,0,122c0,0-52.2,23.4-140.2,2.2c0,0,15.3-76.2,12.5-99.1c-3.6-29.3-10.6-101.3-10.6-101.3s-0.2-44,6-49.3
				s51.9-11,51.9-11H660.2z"/>
			<path class="st26" d="M591.4,1215.4c0,0,22,6.1,9.9,46.5c-9.5,31.7-10.8,38.5-10.8,38.5l-50.9-12.7c0,0,13-67,37.4-72.7
				C577.1,1215,586.7,1213.2,591.4,1215.4z"/>
			<path class="st30" d="M710.4,1301.8c0.9,1.4,1.9,2.8,2.9,4.2c0,0,0,0,0,0c1.3,1.9,2.7,3.8,4,5.7c1-18.8-3.9-45-3.9-45
				C714.4,1275.5,710.4,1301.8,710.4,1301.8z"/>
			<path class="st26" d="M662.8,1201.3c0,0-21.8,6.4-40-1.1l-1.3,8.9c0,0,24.4,9.3,43.5,5L662.8,1201.3z"/>
			<path class="st25" d="M538,1463.7c0,0,1.9,11.4,3.4,13.5c1.5,2.1,5.5,12.8,6,14.3s2.8,12.2,3.2,13.6c0.4,1.4-2.7,3.4-4.7,0.5
				c-1.2-1.8-3.3-8.8-4.2-11c-0.9-2.2-3.5-9.3-4.3-8.1c-0.8,1.3-0.9,10.7-1.1,13.1s1.1,9.9,1.8,13s4.4,16.2,2.7,16.8s-3,0.4-5.1-3.1
				c0,0-3.4,1.8-5.3-2.5c0,0-3,1-4.8-4.6c0,0-2.1-1.2-2.9-3.2c-0.8-2-5.2-19.2-5-26.1s2-11.7,1.8-16.6c-0.2-4.9-2.4-15.5-2.4-15.5
				L538,1463.7z"/>
			<g>
				<path class="st26" d="M544,1475.7c0,0-12.1,1.9-29.6,0.4c0,0,9.9-112.2,9.4-118.6c-0.5-5.9,22.7-110.2,35.4-126l19.3,61
					c-1.5-0.5-21,62.2-21.3,68.7C556.8,1370,544,1475.7,544,1475.7z"/>
			</g>
			<path class="st31" d="M678.2,1127.2c1-13.1,0-23.9-1.7-30.6c-2.1-8.2-15.4-6-15.4-6l0,0c-20.3-6.1-32.5-3.3-40.2,0
				c-11.5,9.4-12.4,25.5-11.9,34.3c0.2,2.1,0.5,4.2,0.7,6.2c0,0,0,0.1,0,0.1c1,8.8,2.1,16.4,2.1,16.4l3.7,4.2c0,0-0.9-14.6,1.3-15.5
				c1.2-0.4,1.5-3.4,1.5-6c0-2.3-0.2-4.3-0.2-4.3c23.5-10.8,49.8-3.1,50.4-1.6c0.4,0.9,0.9,3.8,1.4,6.2c0.3,1.5,0.6,2.9,0.9,3.7
				c0.7,2.1,0.4,15.3,0.4,15.3l4.6-6c0,0,0.6-2.8,1.3-7.2l0,0l0,0c0.2-1.4,0.5-2.9,0.8-4.6C677.9,1132.1,678.1,1130.2,678.2,1127.2z
				"/>
		</g>
		<g>
			<g>
				<g>
					
						<rect x="1902.7" y="1629.2" transform="matrix(0.9977 -6.740175e-02 6.740175e-02 0.9977 -109.846 132.1455)" class="st32" width="1.5" height="129.5"/>
				</g>
				<g>
					
						<rect x="1874.6" y="1405.2" transform="matrix(0.9982 -6.039845e-02 6.039845e-02 0.9982 -92.0506 116.1544)" class="st32" width="1.5" height="351"/>
				</g>
				<g>
					<rect x="1894.7" y="1354.8" class="st32" width="1.5" height="408.7"/>
				</g>
				<g>
					
						<rect x="1789.8" y="1637.5" transform="matrix(2.250106e-02 -0.9997 0.9997 2.250106e-02 231.2452 3513.0781)" class="st32" width="244.7" height="1.5"/>
				</g>
				<g>
					<path class="st33" d="M1894.5,1438.4c0,0-42.5-36.2-29.9-72.4c12.6-36.2,74.9-16.6,55.1,48.6
						C1919.7,1414.6,1913.3,1431.4,1894.5,1438.4z"/>
				</g>
				<g>
					<polygon class="st34" points="1907.5,1420.1 1906,1420 1909.3,1381.2 1911.3,1375.4 					"/>
				</g>
				<g>
					<polygon class="st34" points="1886.6,1421.1 1885.1,1421 1886.3,1359.7 1887.6,1369.5 					"/>
				</g>
				<g>
					<polygon class="st34" points="1878.7,1411.1 1871.3,1369 1874,1375.4 1880.2,1410.8 					"/>
				</g>
				<g>
					<path class="st35" d="M1867.7,1497.8c0,0-36.8-47.7-17.7-81.3c19.2-33.7,142.5-5.8,86.8,115.7c-55.8,121.5-98.9,39.8-98.9,39.8
						L1867.7,1497.8z"/>
				</g>
				<g>
					<polygon class="st36" points="1899.9,1584.6 1898.4,1584.2 1931.9,1458.4 1935.9,1449.3 					"/>
				</g>
				<g>
					<polygon class="st36" points="1889.3,1572.6 1887.8,1572.6 1894.3,1430.7 1896.2,1422.7 					"/>
				</g>
				<g>
					<polygon class="st36" points="1874.5,1526.1 1868.2,1424.7 1870.2,1433.2 1876,1526 					"/>
				</g>
				<g>
					<path class="st37" d="M1895.4,1540.7c0,0-5.6-81.8-52.4-51.7c-46.9,30.1-58.5,148.2,52.4,184.1V1540.7z"/>
				</g>
				<g>
					<polygon class="st38" points="1902.8,1619.3 1855.3,1504.5 1852.9,1494.8 1904.2,1618.7 					"/>
				</g>
				<g>
					<path class="st38" d="M1910.5,1627.4c-4.2-0.2-11.3-5.5-21.4-16.2c-7.9-8.4-17.7-20-29-34.6c-19.3-24.8-31.1-41.9-31.3-42.2
						l-4.3-8.7c0.2,0.2,17.5,25.2,36.8,50c32,41.2,44.5,50,49.3,50.2L1910.5,1627.4z"/>
				</g>
				<g>
					<path class="st38" d="M1917.6,1642.8c-9.8,0-29.8-10.9-59.5-32.3c-22-15.9-41.5-32-41.7-32.2l6.1,3c7.4,6,72.4,59.9,95,59.9
						L1917.6,1642.8L1917.6,1642.8z"/>
				</g>
				<g>
					<path class="st38" d="M1851.3,1637.6c1.2,0.6,8.3,1.8,26.6,5c10.2,1.8,35.1,5.9,45.8,6.1l0,1.5c-10.9-0.3-36.3-4.5-46.7-6.3
						c-8.4-1.5-17-3.1-23.5-4.4c-10.4-2.1-10.7-2.5-11-2.7L1851.3,1637.6z"/>
				</g>
				<g>
					<path class="st39" d="M1910.5,1720.1c0,0-38.8-40.8-29.7-103.6s79.7-62.7,79.2-1.7C1959.5,1675.7,1946.7,1692.7,1910.5,1720.1z
						"/>
				</g>
				<g>
					<polygon class="st40" points="1913.5,1715.1 1912.2,1714.7 1931.5,1586.5 1934.3,1577.8 1914.9,1706.7 1952.1,1600.8 
						1952.4,1604.7 					"/>
				</g>
				<g>
					<polygon class="st40" points="1910.1,1716.1 1889.3,1616.8 1889.1,1609.2 1909.7,1706.9 1904.2,1583.2 1906.5,1595.8 
						1911.5,1715.7 					"/>
				</g>
				
					<linearGradient id="SVGID_00000137095999049922966980000015235873891067736214_" gradientUnits="userSpaceOnUse" x1="1843.46" y1="204.905" x2="1947.36" y2="204.905" gradientTransform="matrix(1 0 0 -1 0 2000)">
					<stop  offset="0" style="stop-color:#BAD0DE"/>
					<stop  offset="1" style="stop-color:#F5F2FF"/>
				</linearGradient>
				<polygon style="fill:url(#SVGID_00000137095999049922966980000015235873891067736214_);" points="1947.4,1756 1922.8,1834.2 
					1868,1834.2 1843.5,1756 				"/>
				<g>
					<g>
						<defs>
							<polygon id="SVGID_00000149369471028696355500000004581471232438135972_" points="1,1 2,1 1,2 							"/>
						</defs>
						<defs>
							<polygon id="SVGID_00000134940470967356963740000010968818216881539212_" points="-1,-1 -2,-1 -1,-2 							"/>
						</defs>
						<clipPath id="SVGID_00000045611015066960092250000004719283826481866927_">
							<use xlink:href="#SVGID_00000149369471028696355500000004581471232438135972_"  style="overflow:visible;"/>
						</clipPath>
						
							<clipPath id="SVGID_00000011738128024267850410000013501190861951377052_" style="clip-path:url(#SVGID_00000045611015066960092250000004719283826481866927_);">
							<use xlink:href="#SVGID_00000134940470967356963740000010968818216881539212_"  style="overflow:visible;"/>
						</clipPath>
						<defs>
							<filter id="Adobe_OpacityMaskFilter" filterUnits="userSpaceOnUse" x="1843.5" y="1756" width="103.9" height="78.2">
								<feColorMatrix  type="matrix" values="1 0 0 0 0  0 1 0 0 0  0 0 1 0 0  0 0 0 1 0"/>
							</filter>
						</defs>
						
							<mask maskUnits="userSpaceOnUse" x="1843.5" y="1756" width="103.9" height="78.2" id="SVGID_00000125564104548619340480000004603565357949517738_">
							<g class="st43">
								<g>
									<defs>
										<polygon id="SVGID_00000150792017697726922580000007998534595851019921_" points="1,1 2,1 1,2 										"/>
									</defs>
									<defs>
										<polygon id="SVGID_00000161625258974672523600000000083155829174246578_" points="-1,-1 -2,-1 -1,-2 										"/>
									</defs>
									
										<clipPath id="SVGID_00000151510513367189843410000008395166616223957131_" style="clip-path:url(#SVGID_00000011738128024267850410000013501190861951377052_);">
										<use xlink:href="#SVGID_00000150792017697726922580000007998534595851019921_"  style="overflow:visible;"/>
									</clipPath>
									
										<clipPath id="SVGID_00000146497978210357842950000005970246399593349051_" style="clip-path:url(#SVGID_00000151510513367189843410000008395166616223957131_);">
										<use xlink:href="#SVGID_00000161625258974672523600000000083155829174246578_"  style="overflow:visible;"/>
									</clipPath>
									
										<linearGradient id="SVGID_00000153687378585035030620000015260489797133911436_" gradientUnits="userSpaceOnUse" x1="1843.46" y1="204.905" x2="1947.36" y2="204.905" gradientTransform="matrix(1 0 0 -1 0 2000)">
										<stop  offset="0" style="stop-color:#FFFFFF"/>
										<stop  offset="0.9948" style="stop-color:#000000"/>
									</linearGradient>
									
										<path style="clip-path:url(#SVGID_00000146497978210357842950000005970246399593349051_);fill:url(#SVGID_00000153687378585035030620000015260489797133911436_);" d="
										M1947.4,1756c0,0-54,8.5-54,78.2H1868l-24.5-78.2H1947.4z"/>
								</g>
							</g>
						</mask>
						
							<linearGradient id="SVGID_00000091714392749178937020000015900573237038211471_" gradientUnits="userSpaceOnUse" x1="1843.46" y1="204.905" x2="1947.36" y2="204.905" gradientTransform="matrix(1 0 0 -1 0 2000)">
							<stop  offset="0" style="stop-color:#FFFFFF"/>
							<stop  offset="0.9948" style="stop-color:#000000"/>
						</linearGradient>
						
							<path style="clip-path:url(#SVGID_00000011738128024267850410000013501190861951377052_);mask:url(#SVGID_00000125564104548619340480000004603565357949517738_);fill:url(#SVGID_00000091714392749178937020000015900573237038211471_);" d="
							M1947.4,1756c0,0-54,8.5-54,78.2H1868l-24.5-78.2H1947.4z"/>
					</g>
				</g>
				
					<linearGradient id="SVGID_00000073000783215707723510000013734344827750600890_" gradientUnits="userSpaceOnUse" x1="1843.46" y1="204.905" x2="1947.36" y2="204.905" gradientTransform="matrix(1 0 0 -1 0 2000)">
					<stop  offset="0" style="stop-color:#9FA0AD"/>
					<stop  offset="0.9948" style="stop-color:#55B5FF"/>
				</linearGradient>
				<path style="fill:url(#SVGID_00000073000783215707723510000013734344827750600890_);" d="M1947.4,1756c0,0-54,8.5-54,78.2H1868
					l-24.5-78.2H1947.4z"/>
				<path class="st49" d="M1858.8,1840.3L1858.8,1840.3C1858.8,1840.3,1858.8,1840.3,1858.8,1840.3L1858.8,1840.3z"/>
			</g>
			<path class="st25" d="M1569.8,1450.3c0,0,7.8,1.6,11.5,1.7s21-7.7,26.5-7c5.5,0.7,41.5,16,43.1,17.2s-0.8,3.6-0.8,3.6l-82.6,1
				L1569.8,1450.3z"/>
			<rect x="1375.2" y="1617.7" class="st50" width="13.8" height="174.2"/>
			<path class="st51" d="M1555.4,1771.4c0,0,0.1,7.7,2.6,16.7c1.8,6.6,5.5,32,10.2,35.6c4.7,3.6,19.9,13,17.6,22.7
				s-4.1,16.5-20.5,10.7s-27.3-9-30.4-23.4c-3.1-14.4-12.1-27.4-12.1-27.4l-11.8,29.4l-6.2-2.5c0,0,9.4-31.8,8.6-34.6
				s4.3-28.1,24.1-34.3C1557.3,1758,1555.4,1771.4,1555.4,1771.4z"/>
			<path class="st51" d="M1664.8,1780.7c0,0,3,7.1,8.7,14.5c4.2,5.4,17.1,27.7,22.8,29.2c5.7,1.6,23.3,4.7,24.8,14.5
				s2.3,16.8-15,17.6c-17.3,0.8-28.7,1.8-37-10.3c-8.3-12.2-21.5-20.9-21.5-20.9v31.7h-6.7c0,0-3.1-33-4.9-35.3
				c-1.8-2.3-6.5-27.7,9.6-40.9C1661.5,1767.5,1664.8,1780.7,1664.8,1780.7z"/>
			<path class="st25" d="M1488.6,1349.8c0,0,3.8-13.7,4.2-15.4c0.4-1.8,4-5.3,8.6-9c4.5-3.7,12.3-6.7,13.3-6.4
				c1,0.3,2.1,0.2,3.7,2.2c1.6,2.1,1.8,4.7,1.8,4.7s3.1,1.6,3.2,4.8c0,0,2.9,1.6,2.3,5.3c0,0,2.8,1.7,2.1,4.3c0,0-3.7,3.6-4.6,5.2
				s-9.1,8.6-17.8,14C1505.3,1359.4,1494.1,1367.7,1488.6,1349.8z"/>
			<path class="st51" d="M1353.6,1373.2c5.4-8.8,12.7-12.8,35.8,3.2c23.1,15.9,17.6,12.8,23.2,17.9s29.7,17.7,29.7,17.7
				s14.1-14.1,20.9-24c7.6-11.2,23.6-41.3,23.6-41.3l22.4,16.7c0,0-43.4,78.8-52.5,84.6c-9.1,5.8-36.4-3.9-50.7-9.9
				s-29.3-13.8-35.8-15.4S1339.4,1396.2,1353.6,1373.2z"/>
			<path class="st52" d="M1513.4,1319.9c0,0-11.3,9.7-9.9,11.7s3,1.9,3,1.9l-2.8,6.1c0,0,0.4,5.1,5.8,3.2c0,0-0.1,4.8,4.9,2.3
				c0,0,1.3,3.2,3.8,2.5c2.5-0.7,9.5-7.2,9.5-7.2s0.9-2-2.1-4.3c0,0,0.8-3.5-2.3-5.3c0,0,0.2-2.9-3.2-4.8c0,0-0.1-6.5-5.5-6.8
				C1514.7,1318.9,1513.9,1319.4,1513.4,1319.9z"/>
			<path class="st53" d="M1461.1,1421.1c0,0,4.5-16.5-0.8-29.2c0,0,2,13.2-3.7,22.6C1452.3,1421.2,1461.1,1421.1,1461.1,1421.1z"/>
			<path class="st25" d="M1633.9,1604.1c0,0-20.6,46.4-35.3,79.5c-2.5,5.6-4.8,10.8-6.8,15.3c-2.4,5.3-4.3,9.7-5.7,12.8
				c-9.4,21.1-32.4,67.1-32.4,67.1s-17.3,0.7-18.3-14.1c0,0,16.6-31.9,16.6-54.3c0-22.4,3-88.5,24.4-102.7
				C1602.5,1590.2,1619.4,1586.9,1633.9,1604.1z"/>
			<path class="st25" d="M1443.2,1515.9c0,0,4.3,4.3,8,5.3s65.3,5.7,93.7,15.1c28.4,9.4,66.3,15.4,73.3,23.4
				c7,8,18.7,52.2,18.4,60.6c-0.3,8.4,25,149.4,28.2,160.4c1.7,5.8-22.9,3.6-22.9,3.6s-34.9-83.3-42.4-98.7
				c-13.7-28.3-14.4-62.9-19.4-68.3s-60.9-17.4-93-17.4s-104.1,2.7-111.8-1.7c-7.7-4.3-55.9-36.1-35.8-78.6
				C1359.5,1477.1,1443.2,1515.9,1443.2,1515.9z"/>
			<path class="st26" d="M1581.8,1547l-50.7,97.4c0,0-15.3-36.4-42.1-42.7s-133.7-2.9-133.7-2.9s-49.1-62.1-7.1-94.6
				c42-32.6,91.1,5.1,91.1,5.1s10.1,11,15,11.2C1459.3,1520.8,1498.4,1520.3,1581.8,1547z"/>
			<path class="st25" d="M1696.2,1824.4c0,0-15.5,3.9-21.5,0c-5.9-3.9-26.2-38.1-32.9-40.1c0,0,6.5-13.2,22.9-3.6
				C1664.8,1780.7,1691.8,1818.7,1696.2,1824.4z"/>
			<path class="st25" d="M1568.3,1823.7c0,0-15.8-2.2-19.9-8c-4.1-5.8-10.1-45.1-15.5-49.5c0,0,10.9-9.8,22.6,5.2
				C1555.4,1771.4,1566.3,1816.8,1568.3,1823.7z"/>
			<path class="st25" d="M1415.6,1303.8c0,0-1,3.1-2,7.7c-0.6,2.3-1.1,5.1-1.7,8c-1.4,8.1-2.2,17.5-0.2,23.8c0,0-17.2,5.9-30.8-18.3
				c0,0,5.8-26.2-1.8-42C1371.7,1267.1,1415.6,1303.8,1415.6,1303.8z"/>
			<path class="st54" d="M1414,1310.3c-0.6,2.3-1.5,6.2-2.1,9.1c-16-10.1-21.3-27.2-21.3-27.2
				C1399.7,1300.6,1414,1310.3,1414,1310.3z"/>
			<path class="st51" d="M1460.2,1404.3c-3.6,16.8-13.1,17.6-12.6,30s4.3,13.4-2.1,33c-1.2,3.6-2.2,7.6-2.9,11.6
				c-0.1,0.5-0.2,0.9-0.3,1.4c-0.4,2.2-0.8,4.5-1.1,6.8c-0.6,4.1-1,8.2-1.3,11.9c-0.8,9.6,6.3,17.1,6.3,17.1s-62.6,37.5-105.7,32.3
				c0,0,11.1-46.8,17.3-62.9c6.1-16.1,4.3-90.4-0.2-106.3c-6.7-23.5,6.6-58.8,24.8-63.4l28.2,13.1c0,0,28.4,33.9,34.8,39
				C1451.8,1372.9,1463.8,1387.3,1460.2,1404.3z"/>
			<path class="st51" d="M1367,1335.6c8-6.6,19.5-18,36.3,4.5c16.8,22.4,29,36.9,32.7,43.5c3.6,6.5,35.2,52.2,35.2,52.2
				s30.9,3.3,42.9,4.6c15.1,1.6,68.8,6.8,68.8,6.8l1.5,22.8c0,0-94.6,0.5-105.1,3.1s-39.7-23.7-51.3-33.9
				c-11.6-10.2-44.1-47.4-49.8-51C1372.5,1384.6,1346.2,1352.9,1367,1335.6z"/>
			<path class="st54" d="M1598.5,1683.6c-2.5,5.6-4.8,10.8-6.8,15.3c-7.6-24.4-7-65.2-7-65.2
				C1589.3,1662.2,1598.4,1683.3,1598.5,1683.6z"/>
			
				<linearGradient id="SVGID_00000170279256912006735800000009464982629524404409_" gradientUnits="userSpaceOnUse" x1="1372.257" y1="340.3269" x2="1439.5204" y2="740.5443" gradientTransform="matrix(1 0 0 -1 0 2000)">
				<stop  offset="0" style="stop-color:#E36C44"/>
				<stop  offset="1" style="stop-color:#F75A5A"/>
			</linearGradient>
			
				<rect x="1271.9" y="1598.9" style="fill:url(#SVGID_00000170279256912006735800000009464982629524404409_);" width="217.1" height="23.9"/>
			
				<linearGradient id="SVGID_00000018227812099574553760000007911659545194087063_" gradientUnits="userSpaceOnUse" x1="1406.3518" y1="334.597" x2="1473.6146" y2="734.8105" gradientTransform="matrix(1 0 0 -1 0 2000)">
				<stop  offset="0" style="stop-color:#E36C44"/>
				<stop  offset="1" style="stop-color:#F75A5A"/>
			</linearGradient>
			<path style="fill:url(#SVGID_00000018227812099574553760000007911659545194087063_);" d="M1384.9,1522.7c0,0-5.5,22.1,20.3,27.2
				c25.8,5,57.5,11.4,57.5,51.2h-89.4L1384.9,1522.7z"/>
			
				<linearGradient id="SVGID_00000084531269670740558210000010870216743154278283_" gradientUnits="userSpaceOnUse" x1="1280.5895" y1="355.7335" x2="1347.8524" y2="755.9479" gradientTransform="matrix(1 0 0 -1 0 2000)">
				<stop  offset="0" style="stop-color:#E36C44"/>
				<stop  offset="1" style="stop-color:#F75A5A"/>
			</linearGradient>
			<path style="fill:url(#SVGID_00000084531269670740558210000010870216743154278283_);" d="M1271.9,1622.8l-75.9-319
				c0,0,137.2-21.4,153.6,40.2c16.3,61.6,43.2,244.7,75.9,256C1458.2,1611.2,1271.9,1622.8,1271.9,1622.8z"/>
			<path class="st53" d="M1448.4,1456.6c0,0-1.4,5.8-2.9,10.7l-33.4-43.3L1448.4,1456.6z"/>
			<polygon class="st51" points="1412.3,1330.7 1412.3,1323.8 1383,1309.5 1372.9,1321.2 			"/>
			<path class="st58" d="M1516.2,1836.9c0,6.3-5.1,11.3-11.3,11.3s-11.3-5.1-11.3-11.3s5.1-11.3,11.3-11.3
				C1511.1,1825.6,1516.2,1830.7,1516.2,1836.9z"/>
			<polygon class="st50" points="1260.6,1825.7 1263.4,1833.8 1384.9,1796.1 1379.1,1779.8 			"/>
			<polygon class="st50" points="1504.8,1825.7 1501.9,1833.8 1380.5,1796.1 1385.8,1778.7 			"/>
			<polygon class="st50" points="1419.2,1832.9 1419.2,1842.3 1380.5,1796.1 1385.8,1778.7 			"/>
			<path class="st58" d="M1420.2,1836.9c0,6.3-5.1,11.3-11.3,11.3s-11.3-5.1-11.3-11.3s5.1-11.3,11.3-11.3
				C1415.1,1825.6,1420.2,1830.7,1420.2,1836.9z"/>
			<path class="st58" d="M1271.9,1836.9c0,6.3-5.1,11.3-11.3,11.3s-11.3-5.1-11.3-11.3s5.1-11.3,11.3-11.3
				C1266.8,1825.6,1271.9,1830.7,1271.9,1836.9z"/>
			<polygon class="st59" points="1525.5,1301.8 1532.6,1331.6 1536.9,1349.8 1516.1,1358.2 1506.6,1341.9 1491.2,1315.5 			"/>
			<polygon class="st60" points="1532.6,1331.6 1536.9,1349.8 1516.1,1358.2 1506.6,1341.9 			"/>
			
				<rect x="1489.8" y="1301.4" transform="matrix(0.9285 -0.3713 0.3713 0.9285 -376.7461 652.7854)" class="st60" width="34.1" height="6.7"/>
			
				<rect x="1489.1" y="1306.1" transform="matrix(0.9285 -0.3712 0.3712 0.9285 -378.0533 653.4172)" class="st60" width="38.4" height="5.3"/>
			<path class="st25" d="M1493,1334.4c0,0,7.6-6.8,13.3-8.8c1.3-0.4,2.7-0.6,3.5,0.4s0.5,3.7-2.6,6.8s-5.7,8.6-5.7,8.6
				S1497.3,1343.8,1493,1334.4z"/>
			<path class="st4" d="M1398,1209.4c-12.9,2.9-5.2,35.3-13.9,80.7s-36,52.5-36,52.5s12.2-20.1,10.8-41.2c-1-16.4-21-61.3-1.3-90.6
				c15.2-22.7,42-2.1,42-2.1L1398,1209.4z"/>
			<path class="st25" d="M1419.5,1212.1c11.6,0.8,36.6,9.6,37,40.7c0,0-1.9,8.2-4.6,14.4s0.8,26.1-0.8,26.9s-8,1.2-8,1.2
				s-9.2,20.1-16.5,19.1c-7.3-1-34.5-10-44.6-37.5S1372.5,1208.9,1419.5,1212.1z"/>
			<path class="st4" d="M1456.5,1252.8c0,0-20.3,10.6-39.2,11.1c-18.9,0.4-34.5,30.8-34.5,30.8s-22.9-51.4,3.3-77.6
				C1412.3,1191.1,1464.7,1217.5,1456.5,1252.8z"/>
			<path class="st25" d="M1412.9,1263.7c0.3-3.6-3.1-9.5-9.6-5.2c-6.5,4.2-0.5,22.3,4.5,21.2
				C1412.9,1278.5,1412.6,1267.4,1412.9,1263.7z"/>
			<path class="st61" d="M1583.8,1477.6v7.2h341.8v-7.2c0-6.7-4.5-12.1-10-12.1h-321.7C1588.3,1465.5,1583.8,1470.9,1583.8,1477.6z"
				/>
			<path class="st62" d="M1802.9,1834.4h103.3v-16.5h-96.4c-3.8,0-6.9,3.1-6.9,6.9L1802.9,1834.4L1802.9,1834.4z"/>
			<rect x="1886" y="1484.8" class="st62" width="13.7" height="349.6"/>
			<rect x="1858.6" y="1484.8" class="st62" width="13.7" height="349.6"/>
			<rect x="1761.7" y="1264.4" class="st63" width="8" height="178.1"/>
			<g>
				<path class="st64" d="M1781.4,1465.5h60.1v-3.6h-60.1c-3.1,0-5.4-0.7-6.7-2.2c-1.6-1.8-1.3-4.2-1.3-4.2l0-0.1v-0.1v-77.7h-3.6
					v77.6c-0.1,0.7-0.2,4.1,2.2,6.9C1774,1464.3,1777.2,1465.5,1781.4,1465.5z"/>
			</g>
			<path class="st63" d="M1699.3,1459.1h63.7v6.4h-67.7v-2.4C1695.3,1460.9,1697.1,1459.1,1699.3,1459.1z"/>
			<path class="st65" d="M1728.8,1484.8h196.8v-7.2c0-6.7-4.6-12.1-10.3-12.1h-155.6L1728.8,1484.8z"/>
		</g>
		<g>
			<g>
				<path class="st66" d="M1608.7,586.3h-278.8c-2.3,0-4.2-1.9-4.2-4.2v-17.4c0-2.3,1.9-4.2,4.2-4.2h278.8c2.3,0,4.2,1.9,4.2,4.2
					v17.4C1612.8,584.4,1611,586.3,1608.7,586.3z"/>
				<path class="st66" d="M1648.7,628h-318.8c-2.3,0-4.2-1.9-4.2-4.2v-17.4c0-2.3,1.9-4.2,4.2-4.2h318.8c2.3,0,4.2,1.9,4.2,4.2v17.4
					C1652.9,626.1,1651,628,1648.7,628z"/>
			</g>
			<path class="st26" d="M1221.4,635.7h63.6c5.3,0,9.7-4.3,9.7-9.7v-63.6c0-5.3-4.3-9.7-9.7-9.7h-63.6c-5.3,0-9.7,4.3-9.7,9.7V626
				C1211.7,631.4,1216,635.7,1221.4,635.7z"/>
			<g>
				<path class="st66" d="M1537.9,704h-208.6c-2,0-3.6-1.6-3.6-3.6v-18.5c0-2,1.6-3.6,3.6-3.6h208.6c2,0,3.6,1.6,3.6,3.6v18.5
					C1541.5,702.4,1539.9,704,1537.9,704z"/>
				<path class="st66" d="M1587.4,745.7h-257.9c-2.1,0-3.8-1.7-3.8-3.8v-18.2c0-2.1,1.7-3.8,3.8-3.8h257.9c2.1,0,3.8,1.7,3.8,3.8
					v18.2C1591.2,744,1589.5,745.7,1587.4,745.7z"/>
			</g>
			<g>
				<path class="st67" d="M1243.5,600.6c0-1.1,0.1-2.1,0.2-3.1c0.1-1,0.4-1.9,0.8-2.8c0.4-0.9,1-1.8,1.7-2.6s1.7-1.5,2.9-2.2
					c0.6-0.3,1.4-0.8,2.4-1.3c1-0.5,2-1.2,2.9-1.9s1.8-1.5,2.5-2.4s1.1-1.9,1.1-3c0-1.5-0.6-2.8-1.7-3.6s-2.4-1.3-3.9-1.3
					c-0.9,0-1.8,0.2-2.5,0.5c-0.7,0.3-1.4,0.8-2,1.3s-1.1,1-1.5,1.7c-0.4,0.6-0.8,1.2-1.1,1.6l-7.2-5c1.2-2.8,3.2-5.1,5.8-6.7
					c2.6-1.6,5.6-2.4,8.9-2.4c1.8,0,3.6,0.3,5.3,0.8c1.8,0.5,3.4,1.3,4.8,2.5c1.4,1.1,2.6,2.6,3.4,4.3c0.9,1.8,1.3,3.9,1.3,6.5
					c0,2.7-0.6,4.9-1.7,6.7s-2.7,3.4-4.9,4.7c-1,0.7-2,1.2-3,1.8c-1,0.5-1.9,1-2.8,1.6s-1.5,1.2-2,1.9s-0.8,1.5-0.8,2.5
					L1243.5,600.6L1243.5,600.6z M1243.7,617.8v-10.5h9.2v10.5H1243.7z"/>
			</g>
			<path class="st26" d="M1221.4,752.9h63.6c5.3,0,9.7-4.3,9.7-9.7v-63.6c0-5.3-4.3-9.7-9.7-9.7h-63.6c-5.3,0-9.7,4.3-9.7,9.7v63.6
				C1211.7,748.5,1216,752.9,1221.4,752.9z"/>
			<g>
				<path class="st67" d="M1243.5,717.7c0-1.1,0.1-2.1,0.2-3.1c0.1-1,0.4-1.9,0.8-2.8c0.4-0.9,1-1.8,1.7-2.6s1.7-1.5,2.9-2.2
					c0.6-0.3,1.4-0.8,2.4-1.3c1-0.5,2-1.2,2.9-1.9s1.8-1.5,2.5-2.4s1.1-1.9,1.1-3c0-1.5-0.6-2.8-1.7-3.6s-2.4-1.3-3.9-1.3
					c-0.9,0-1.8,0.2-2.5,0.5c-0.7,0.3-1.4,0.8-2,1.3s-1.1,1-1.5,1.7c-0.4,0.6-0.8,1.2-1.1,1.6l-7.2-5c1.2-2.8,3.2-5.1,5.8-6.7
					c2.6-1.6,5.6-2.4,8.9-2.4c1.8,0,3.6,0.3,5.3,0.8c1.8,0.5,3.4,1.3,4.8,2.5c1.4,1.1,2.6,2.6,3.4,4.3c0.9,1.8,1.3,3.9,1.3,6.5
					c0,2.7-0.6,4.9-1.7,6.7s-2.7,3.4-4.9,4.7c-1,0.7-2,1.2-3,1.8c-1,0.5-1.9,1-2.8,1.6s-1.5,1.2-2,1.9c-0.5,0.7-0.8,1.5-0.8,2.5
					L1243.5,717.7L1243.5,717.7z M1243.7,734.9v-10.5h9.2v10.5H1243.7z"/>
			</g>
		</g>
		<rect x="1900" y="760.4" class="st68" width="101.7" height="7.6"/>
		<rect x="1900" y="771.3" class="st68" width="101.7" height="20.6"/>
	</g>
</g>
</svg>
