<?xml version="1.0" encoding="utf-8"?>
<!-- Generator: Adobe Illustrator 25.4.1, SVG Export Plug-In . SVG Version: 6.00 Build 0)  -->
<svg version="1.1" xmlns="http://www.w3.org/2000/svg" xmlns:xlink="http://www.w3.org/1999/xlink" x="0px" y="0px"
	 viewBox="0 0 750 500" style="enable-background:new 0 0 750 500;" xml:space="preserve">
<style type="text/css">
	.st0{fill:#FFFFFF;}
	.st1{opacity:0.1;}
	.st2{fill:#005586;}
	.st3{opacity:0.15;}
	.st4{fill:none;stroke:#008DA3;stroke-width:0.7285;stroke-linecap:round;stroke-miterlimit:10;}
	.st5{fill:#052669;}
	.st6{fill:#09347A;}
	.st7{fill:#11448E;}
	.st8{fill:#3171AF;}
	.st9{fill:#205AA0;}
	.st10{fill:#EF7F1A;}
	.st11{fill:#E8C0A8;}
	.st12{fill:#2D2A25;}
	.st13{fill:#EFEDED;}
	.st14{fill:#EAE7E4;}
	.st15{fill:#00283E;}
	.st16{fill:#333232;}
	.st17{fill:#1D1D1B;}
	.st18{fill:#454444;}
	.st19{fill:#6B686C;}
	.st20{fill:#CF9F82;}
	.st21{fill:#F2842A;}
	.st22{fill:#D0904B;}
	.st23{fill:#003C48;}
	.st24{fill:url(#SVGID_1_);}
	.st25{fill:none;stroke:#4B2B19;stroke-width:0.801;stroke-miterlimit:10;}
	.st26{fill:#A56052;}
	.st27{fill:#CDCAC8;}
	.st28{fill:none;stroke:#00425C;stroke-width:0.75;stroke-linecap:round;stroke-miterlimit:10;stroke-dasharray:7.064,7.064;}
	.st29{fill:#00425C;}
	.st30{fill:none;stroke:#004D6E;stroke-miterlimit:10;}
	.st31{fill:#004D6E;}
	.st32{fill:none;stroke:#052669;stroke-miterlimit:10;}
	.st33{fill:#0F4396;}
</style>
<g id="BACKGROUND">
	<rect class="st0" width="750" height="500"/>
</g>
<g id="OBJECTS">
	<g>
		<g class="st1">
			<g>
				<path class="st2" d="M329.68,415.95c-45.19,8.32-74.43-20.2-141.12-32.44c-24.99-4.59-50.49-11.02-70.81-26.27
					c-17.92-13.45-38.14-52.02-26.8-82.91c17.84-48.61,115.86-87.53,145.56-119.8s52.09-90.66,101.5-91.58
					c49.41-0.92,76.17,39.8,101.06,56.21c20.37,13.43,47.29,11.26,70.78,4.64c23.49-6.62,70.35-23.74,104.99-2.2
					c30.58,19.01,24.17,61.46,12.4,80.17c-23.14,36.78-48.76,50.83-49.17,71.9c-0.58,29.52,17.36,36.36,33.47,69.83
					c10.62,22.05,2.48,55.79-17.36,73.14c-19.83,17.36-57.02,19.01-83.32,7.06c-19.83-9.01-63.67-31.6-85.44-32.12
					C403.14,391.04,374.87,407.63,329.68,415.95z"/>
			</g>
			<g>
				<circle class="st2" cx="425.72" cy="97.47" r="29.89"/>
				<path class="st2" d="M490.49,100.46c0,3.85-3.12,6.98-6.98,6.98c-3.85,0-6.98-3.12-6.98-6.98c0-3.85,3.12-6.98,6.98-6.98
					C487.36,93.48,490.49,96.61,490.49,100.46z"/>
				<circle class="st2" cx="638.96" cy="185.66" r="7.97"/>
				<circle class="st2" cx="646.18" cy="172.95" r="1.74"/>
				
					<ellipse transform="matrix(0.2308 -0.973 0.973 0.2308 123.1601 874.4776)" class="st2" cx="614.67" cy="359.34" rx="10.69" ry="10.69"/>
				<path class="st2" d="M630.07,337.74c0,1.77-1.44,3.21-3.21,3.21c-1.77,0-3.21-1.44-3.21-3.21c0-1.77,1.44-3.21,3.21-3.21
					C628.64,334.53,630.07,335.97,630.07,337.74z"/>
				<path class="st2" d="M654.45,362.55c0,2.72-2.2,4.92-4.92,4.92c-2.72,0-4.92-2.2-4.92-4.92c0-2.72,2.2-4.92,4.92-4.92
					C652.25,357.63,654.45,359.83,654.45,362.55z"/>
				<circle class="st2" cx="228.82" cy="156.15" r="11.12"/>
				<circle class="st2" cx="228.18" cy="131.13" r="3.21"/>
				<path class="st2" d="M257.48,120.22c0,1.65-1.34,2.99-2.99,2.99c-1.65,0-2.99-1.34-2.99-2.99c0-1.65,1.34-2.99,2.99-2.99
					C256.14,117.22,257.48,118.56,257.48,120.22z"/>
				
					<ellipse transform="matrix(0.2298 -0.9732 0.9732 0.2298 -173.1355 292.0218)" class="st2" cx="97.92" cy="255.39" rx="13.69" ry="13.69"/>
				<path class="st2" d="M73.11,281.7c0,1.54-1.24,2.78-2.78,2.78c-1.54,0-2.78-1.24-2.78-2.78c0-1.54,1.24-2.78,2.78-2.78
					C71.87,278.92,73.11,280.17,73.11,281.7z"/>
				<circle class="st2" cx="94.5" cy="337.53" r="5.99"/>
			</g>
		</g>
		<g class="st3">
			<line class="st4" x1="125.23" y1="399.38" x2="631.98" y2="399.38"/>
			<line class="st4" x1="125.23" y1="341.54" x2="631.98" y2="341.54"/>
			<line class="st4" x1="125.23" y1="283.7" x2="631.98" y2="283.7"/>
			<line class="st4" x1="125.23" y1="225.86" x2="631.98" y2="225.86"/>
			<line class="st4" x1="125.23" y1="168.02" x2="631.98" y2="168.02"/>
		</g>
		<g>
			<rect x="148.55" y="194.89" class="st5" width="45.95" height="245.59"/>
			<rect x="204.41" y="263.7" class="st6" width="45.95" height="176.78"/>
			<rect x="258.04" y="343.23" class="st7" width="45.95" height="97.26"/>
			<rect x="314.21" y="410.84" class="st8" width="45.95" height="29.65"/>
			<rect x="370.49" y="372.59" class="st9" width="45.95" height="67.9"/>
			<rect x="426.33" y="327.13" class="st7" width="45.95" height="113.36"/>
			<rect x="483.18" y="266.71" class="st6" width="45.95" height="173.78"/>
			<rect x="540.28" y="218.11" class="st5" width="45.95" height="222.38"/>
		</g>
		<g>
			<g>
				<path class="st10" d="M420.13,183.62c3.07,0.05,26.21-12.19,42.3-21.79c-2.61-7.62-8.17-11.81-8.17-11.81
					s-46.92,18.71-49.87,21.13C401.43,173.58,420.13,183.62,420.13,183.62z"/>
				<path class="st11" d="M506.75,126.82c2.59-1.32,1.54,0.95,0.21,2.3c-1.33,1.35-6.04,4.32-6.04,4.32s1.29,0.65,3.47,2.49
					c1,0.84,2.13,7.9-11.35,7.32c-5.93-0.26-5.16-5.96-5.16-5.96S504.15,128.15,506.75,126.82z"/>
				<path class="st10" d="M450.13,158.37c2.19,5.77,7.88,6.47,12.9,3.13c5.02-3.33,31.57-18.17,31.57-18.17
					c-0.24-2.37-2-6.24-4.2-7.79c0,0-28.13,10.82-34.07,13.37C450.53,151.4,448.57,154.28,450.13,158.37z"/>
			</g>
			<g>
				<g>
					<path class="st12" d="M453.72,318.14c0,0-7.68-3.7-9.04-6.39c0,0-4.25,0.01-5.45,4.24c0,0-5.82,1.01-8.76-2.42l-0.71,11
						l34.92-0.02C463.72,322.03,462.95,319.29,453.72,318.14z"/>
					<path class="st13" d="M429.76,324.58l-0.18,2.53l35.28-0.02c0.04-1.01,0.27-1.52-0.18-2.53L429.76,324.58z"/>
				</g>
			</g>
			<g>
				<g>
					<path class="st12" d="M391.47,368.38l-1.72-6.71c0,0-1.62-4.6-6.6-4.6c-4.99,0-6.6,4.6-6.6,4.6l-1.23,8.77l2.87-0.15
						L391.47,368.38z"/>
				</g>
				<g>
					<path class="st14" d="M395.26,370.25c0.09,0.51,0.11,1.43-0.5,2.36h-16.58c0,0-0.03-1.03,0-2.4L395.26,370.25z"/>
					<path class="st12" d="M378.18,370.11c0.09-1.46,3.15-5.9,8.28-5.9c6.57,0,8.08,3.72,8.68,5.65c0,0,0.07,0.16,0.12,0.43
						l-17.09-0.01C378.18,370.23,378.18,370.17,378.18,370.11z"/>
				</g>
			</g>
			<path class="st15" d="M426.53,243.12l0.62,21.7l-18.15,4.5l-17.74,91.14c0,0-6.55,2.95-16.23-0.62l9.82-116.72H426.53z"/>
			<path class="st15" d="M401.69,265.5c0,0,41.16,9.51,47.17,10.87c8.4,1.91,19.54-10.66,10.88-14.31
				c-18.13-7.63-33.03-12.63-33.03-12.63l-21.99,6.66C404.72,256.09,402.49,259.79,401.69,265.5z"/>
			<g>
				<path class="st16" d="M399.35,314.8h-50.58c-1.24,0-2.24-1-2.24-2.24v-28.93h55.05v28.93
					C401.58,313.8,400.58,314.8,399.35,314.8z"/>
				<path class="st17" d="M399.06,291.04h-50.01c-1.39,0-2.52-1.13-2.52-2.52v-12.69c0-1.39,1.13-2.52,2.52-2.52h50.01
					c1.39,0,2.52,1.13,2.52,2.52v12.69C401.58,289.92,400.46,291.04,399.06,291.04z"/>
				<path class="st18" d="M399.06,289.97h-50.01c-1.39,0-2.52-1.13-2.52-2.52v-12.69c0-1.39,1.13-2.52,2.52-2.52h50.01
					c1.39,0,2.52,1.13,2.52,2.52v12.69C401.58,288.84,400.46,289.97,399.06,289.97z"/>
				<path class="st18" d="M374.06,284.06c-5.44,0-9.87-4.43-9.87-9.87c0-5.44,4.43-9.87,9.87-9.87c5.44,0,9.87,4.43,9.87,9.87
					C383.93,279.63,379.5,284.06,374.06,284.06z M374.06,267.48c-3.7,0-6.7,3.01-6.7,6.7c0,3.7,3.01,6.7,6.7,6.7
					c3.7,0,6.7-3.01,6.7-6.7C380.76,270.49,377.75,267.48,374.06,267.48z"/>
				<path class="st19" d="M377.01,293.75h-6.27c-0.3,0-0.55-0.25-0.55-0.55v-4.02c0-0.3,0.25-0.55,0.55-0.55h6.27
					c0.31,0,0.55,0.25,0.55,0.55v4.02C377.57,293.51,377.32,293.75,377.01,293.75z"/>
				<path class="st18" d="M400.56,297.67c0,0,0,11.99,0,13.36c0,1.37-0.99,3.18-3.67,3.18s-15.38,0-15.38,0s13.8-0.71,14.84-0.88
					c1.04-0.16,2.85-0.88,3.07-2.63C399.63,308.94,400.56,297.67,400.56,297.67z"/>
			</g>
			<g>
				<path class="st11" d="M407.06,165.09l0.19,7.72l-11.51,0.35l-0.25-10.04C400.33,165.55,405.1,165.35,407.06,165.09z"/>
				<path class="st20" d="M395.49,163.11l-0.19-7.74l11.51-0.35l0.25,10.06C405.1,165.35,400.33,165.55,395.49,163.11z"/>
			</g>
			<path class="st11" d="M402.31,174.55c-6.81,0-8.45-4.2-8.68-5.51c4.84-1.08,9.63-1.52,15.58-0.62
				C409.35,169.94,409,174.55,402.31,174.55z"/>
			<path class="st21" d="M392.45,168.79c0.37-0.13,4.1-0.3,4.47-0.38c0.26,1.31,4.36,4.61,7.17,4.66c4.58,0.09,4.38-3.23,4.23-4.75
				c0.55,0.07,1.09-0.29,1.61-0.02c2.15,1.12,8.05,7.25,11.53,20.5c2.75,10.48,6.02,35.69,6.14,60.22c0,0-15.9,6.88-44.82,1.37
				c0,0,0.09-59.82,0.61-66.42C383.92,177.37,386.82,170.8,392.45,168.79z"/>
			<path class="st5" d="M402.44,176.93l2.82,1.74l6.78,55.73l4.17,7.33c0,0,3.73-6.6,3.5-8.4c-0.22-1.79-10.26-51.71-12-55.03
				c0.66-1.21,1.31-2.55,1.31-2.55s-3-4.18-3.94-4.11C404.13,171.71,402.44,176.93,402.44,176.93z"/>
			<g>
				<path class="st11" d="M376.42,256.33L376.42,256.33c0,0,1.99,0.95,2.78,2.29c0.79,1.34,1.47,3,1.87,4.39
					c0.82,2.84,0.89,5.59,1.06,6.12c0.16,0.53-0.57,1.33-1.36,1.06c-0.79-0.26-1.28-3.15-1.42-3.78c-0.24-1.08-0.22-2.19-0.63-1.8
					c-0.42,0.38-0.35,2.25-0.51,3.45c-0.04,0.3-0.11,0.83-0.15,1.03c-0.21,1.22-0.48,1.1-1.31,0.98c-0.61-0.09-1.01-0.22-0.91-1.04
					c0.03-0.25,0.13-0.53,0.09-0.72c-0.07,0.27-0.14,0.6-0.31,0.99c-0.36,0.81-2.22,0.88-2.26-0.36c-0.05-0.6-0.04-1.12-0.04-1.01
					c-0.02,0.29-0.1,0.6-0.21,1.21c-0.13,0.8-2.06,1.18-2.1-0.15c-0.03-0.86,0.08-1.63,0.05-1.85c-0.15,0.53-0.14,1.19-0.21,1.6
					c-0.12,0.71-0.14,1.08-0.63,1.13c-0.49,0.04-1.06,0.07-1.06-0.31c-0.39-2.38-0.06-6.04,0.03-7.11c0.09-1.07,1.08-3.8,1.36-4.49
					c0.03-0.34,0.04-0.49,0.03-0.86c-0.03-0.8,0.38-1.08,1.2-1.28l2.63-0.63C375.31,254.98,376.21,255.49,376.42,256.33z"/>
				<path class="st10" d="M379.21,258.62c0.37-1.46,5.44-38.17,5.96-41.54c0.52-3.36,6.22-23.09,8.71-31.71
					c1.79-6.19,0.23-13.36-5.21-14.32c-6.07-1.08-10.58,4.41-12.03,11.99c-0.83,4.33-6.22,30.25-6.41,33.31
					c-0.19,3.06-0.41,38.3-0.63,41.79C369.68,259.11,379,259.41,379.21,258.62z"/>
			</g>
			<path class="st10" d="M395.59,166.93c-1.26,0.34-2,1.56-2,1.56s2.54,7.47,7.88,11.49c2.09-3.25,3.83-8.51,3.83-8.51
				S398.76,169.99,395.59,166.93z"/>
			<path class="st10" d="M405,171.71l4.63,5.86c0,0,2.21-5.15,0.3-9.26c-0.7-0.35-2.86-1.67-2.86-1.67S406.79,170.45,405,171.71z"/>
			<g>
				<path class="st11" d="M393.96,160.87c0,0,26.72,4.21,30.3-3.39c0.54-1.14-0.17-8.75-0.97-14.16c-1.18-7.99-3.97-17.93-8.3-23.53
					c-7.16-9.25-25.2-18.74-33.76-11.09C372.66,116.36,355.91,139.51,393.96,160.87z"/>
				<path class="st11" d="M414.52,130.24c-0.02,0-0.03-0.01-0.06-0.01l-0.02-1.53c4.01,1.95,8.15,2.81,12.07,3.92
					c-3.66,8.46-12.09,5.67-13.64-2.13C413.49,130.25,414.15,130.23,414.52,130.24C414.96,130.3,414.88,130.25,414.52,130.24z"/>
				<path class="st22" d="M403.5,109.87l1.42,0.53C404.59,110.46,404.09,110.24,403.5,109.87z"/>
				<path class="st23" d="M392.39,144c1.16,5.39,4.16,16.09,1.21,19.32c-6.63-2.36-15.04-6.51-20.48-11.1
					c-5.29-4.47-8.99-15.99-7.92-26.16s6.82-14.34,11.09-16.44c3.45-1.7,10.57-4.5,15.59-4.22c2.32,0.13,4.8,0.58,6.98,1.32
					c1.26,0.43,3.44,2.34,4.99,3.29l-0.7-0.26c-1.93,3.48-11.19,1.87-11.77,5.91c-0.67,4.69,6.89,14.73,6.84,19.43
					C398.18,139.1,392.79,138.76,392.39,144z"/>
				<path class="st11" d="M390.04,142.3c2.45,2.9,7.53,4.92,9.43,3.31c1.9-1.61,1.47-5.26-0.98-8.15c-2.44-2.89-6.68-6.05-9.09-3.78
					C387.6,135.4,387.6,139.41,390.04,142.3z"/>
				<path class="st23" d="M380.78,107.9c-2.38,0.83-2.05,1.62,0.3,3.44c1.57,1.22,8.03,6.61,9.71,5.4l1.03,0.77
					c3.09-0.35,6.79-1.6,9.71-2.68c1.64-0.6,4.95-1.57,6.42-2.7c3.54-2.73,5.24-14.97,0.91-16.3c-4.33-1.33-5.5,3.55-5.5,3.55
					s2.84-5.9-2.31-6.34c-5.15-0.45-5.14,6.76-5.14,6.76s0.22-1.36-0.84-1.34c-1.06,0.01-0.16,1.6-1.63,2.93
					C388.74,105.65,384.47,106.63,380.78,107.9z"/>
				<g>
					
						<linearGradient id="SVGID_1_" gradientUnits="userSpaceOnUse" x1="-13740.2178" y1="-3309.0464" x2="-13739.1514" y2="-3302.2764" gradientTransform="matrix(0.9421 -0.3353 0.3353 0.9421 14464.8496 -1364.8024)">
						<stop  offset="0" style="stop-color:#C9926A"/>
						<stop  offset="1" style="stop-color:#C9926A;stop-opacity:0"/>
					</linearGradient>
					<path class="st24" d="M413.68,122.6c0.87,1.41,3.88,6.54-0.18,8.77c-4.06,2.23-5.75-4.86-5.75-4.86S411.84,123.66,413.68,122.6
						z"/>
					<path class="st23" d="M412.56,122.69c-4.61,1.9-6.88,5.6-2.76,3.59C413.92,124.26,414.96,121.69,412.56,122.69z"/>
					<path class="st25" d="M411.95,131.5c0.16-2.94,3.21-3.19,4.03-1.1"/>
				</g>
				<g>
					<path class="st26" d="M410.16,145.86c-0.19,0.95,0.32,1.86,0.9,2.52c0.61,0.68,1.42,1.13,2.31,1.35
						c0.89,0.22,1.82,0.25,2.76,0.21c0.47-0.02,0.94-0.1,1.41-0.15c0.47-0.08,0.94-0.18,1.42-0.24c-0.44,0.19-0.9,0.35-1.36,0.53
						c-0.47,0.11-0.94,0.24-1.43,0.32c-0.97,0.16-1.98,0.14-2.96-0.09c-0.97-0.25-1.92-0.8-2.51-1.64
						c-0.31-0.41-0.51-0.88-0.65-1.35C409.96,146.83,409.91,146.29,410.16,145.86z"/>
				</g>
			</g>
			<polygon class="st27" points="375.31,370.44 375.31,372.6 378.17,372.61 378.17,370.28 			"/>
			<path class="st15" d="M441.69,273.6c0,0-7.01,23.63-11.88,42.29c6.47,3.64,17.43,2.04,19.18-1.08
				c6.34-21.9,14.41-46.79,13.93-48.13C461.51,262.76,441.69,273.6,441.69,273.6z"/>
		</g>
		<g>
			<g>
				<path class="st28" d="M139,173.81c16.84,0,44.45-7.41,96.99,49.17c49.11,52.89,73.08,109.9,98.4,117.11"/>
				<g>
					<polygon class="st29" points="332.7,343.44 339.71,340.85 333.95,336.07 					"/>
				</g>
			</g>
		</g>
		<g>
			<g>
				<line class="st28" x1="470.81" y1="271.16" x2="569.92" y2="175.66"/>
				<g>
					<polygon class="st29" points="571.73,179.11 573.79,171.93 566.54,173.73 					"/>
				</g>
			</g>
		</g>
		<g>
			<polyline class="st30" points="125.37,130.87 125.37,440.26 639.78,440.26 			"/>
			<path class="st31" d="M645.25,440.46c0,1.87-1.52,3.39-3.39,3.39c-1.87,0-3.39-1.52-3.39-3.39c0-1.87,1.52-3.39,3.39-3.39
				C643.73,437.07,645.25,438.59,645.25,440.46z"/>
			<circle class="st31" cx="125.5" cy="130.78" r="3.39"/>
		</g>
		<g>
			<polygon class="st5" points="620.16,247.68 603.5,247.68 608.37,252.54 597.8,263.1 604.74,270.03 615.3,259.47 620.16,264.33 
							"/>
			<polygon class="st6" points="499.69,203.52 482.16,203.52 487.28,208.63 476.16,219.74 483.46,227.04 494.57,215.92 
				499.69,221.04 			"/>
			<polygon class="st6" points="569.99,134.22 557.96,134.22 561.47,137.73 537.75,161.46 542.75,166.46 566.48,142.74 
				569.99,146.25 			"/>
			<polygon class="st5" points="608.33,131.81 600.52,131.81 602.8,134.09 587.4,149.49 590.65,152.74 606.05,137.34 608.33,139.62 
							"/>
			<polygon class="st7" points="532.3,191.28 528.22,191.28 529.41,192.47 523.01,198.87 524.71,200.57 531.11,194.17 532.3,195.36 
							"/>
			<polygon class="st5" points="624.9,210 620.82,210 622.01,211.19 615.61,217.59 617.31,219.29 623.71,212.89 624.9,214.08 			"/>
		</g>
		<g>
			<path class="st32" d="M468.4,116.3c0,2.12-1.72,3.84-3.84,3.84c-2.12,0-3.84-1.72-3.84-3.84c0-2.12,1.72-3.84,3.84-3.84
				C466.68,112.46,468.4,114.18,468.4,116.3z"/>
			<circle class="st32" cx="534.81" cy="87.21" r="9.33"/>
			<path class="st32" d="M614.95,104.77c0,2.12-1.72,3.84-3.84,3.84c-2.12,0-3.84-1.72-3.84-3.84c0-2.12,1.72-3.84,3.84-3.84
				C613.22,100.93,614.95,102.65,614.95,104.77z"/>
			<circle class="st32" cx="663.79" cy="186.55" r="3.29"/>
			<circle class="st32" cx="610.01" cy="309.49" r="2.2"/>
			<path class="st32" d="M679.71,291.93c0,0-0.25,0-0.55,0c-0.3,0-0.55,0-0.55,0s0.25,0,0.55,0
				C679.46,291.93,679.71,291.93,679.71,291.93z"/>
			<circle class="st32" cx="451.39" cy="203.57" r="3.29"/>
			<path class="st32" d="M342.72,186c0,1.82-1.47,3.29-3.29,3.29c-1.82,0-3.29-1.47-3.29-3.29c0-1.82,1.47-3.29,3.29-3.29
				C341.24,182.71,342.72,184.19,342.72,186z"/>
			<path class="st32" d="M335.03,132.22c0,1.52-1.23,2.74-2.74,2.74s-2.74-1.23-2.74-2.74c0-1.52,1.23-2.74,2.74-2.74
				S335.03,130.7,335.03,132.22z"/>
			<circle class="st32" cx="306.22" cy="262.57" r="6.86"/>
			<path class="st32" d="M277.4,322.39c0,0.76-0.61,1.37-1.37,1.37c-0.76,0-1.37-0.61-1.37-1.37c0-0.76,0.61-1.37,1.37-1.37
				C276.79,321.02,277.4,321.63,277.4,322.39z"/>
			<path class="st32" d="M197.27,149.23c0,0.91-0.74,1.65-1.65,1.65c-0.91,0-1.65-0.74-1.65-1.65c0-0.91,0.74-1.65,1.65-1.65
				C196.53,147.58,197.27,148.32,197.27,149.23z"/>
			<path class="st32" d="M248.86,134.69c0,0.76-0.61,1.37-1.37,1.37s-1.37-0.61-1.37-1.37c0-0.76,0.61-1.37,1.37-1.37
				S248.86,133.93,248.86,134.69z"/>
			<path class="st32" d="M252.16,82.55c0,2.27-1.84,4.12-4.12,4.12s-4.12-1.84-4.12-4.12c0-2.27,1.84-4.12,4.12-4.12
				S252.16,80.27,252.16,82.55z"/>
			<path class="st32" d="M92.99,220.86c0,1.06-0.86,1.92-1.92,1.92c-1.06,0-1.92-0.86-1.92-1.92c0-1.06,0.86-1.92,1.92-1.92
				C92.13,218.93,92.99,219.79,92.99,220.86z"/>
			<path class="st32" d="M80.92,307.3c0,1.82-1.47,3.29-3.29,3.29c-1.82,0-3.29-1.47-3.29-3.29c0-1.82,1.47-3.29,3.29-3.29
				C79.44,304.01,80.92,305.48,80.92,307.3z"/>
			<circle class="st32" cx="54.3" cy="260.37" r="5.76"/>
			<circle class="st32" cx="76.53" cy="407.74" r="1.1"/>
			<path class="st32" d="M113.3,395.66c0,2.12-1.72,3.84-3.84,3.84c-2.12,0-3.84-1.72-3.84-3.84c0-2.12,1.72-3.84,3.84-3.84
				C111.58,391.82,113.3,393.54,113.3,395.66z"/>
			
				<ellipse transform="matrix(0.9231 -0.3845 0.3845 0.9231 -51.3427 278.7545)" class="st32" cx="671.48" cy="267.78" rx="7.68" ry="7.68"/>
			<path class="st32" d="M713.19,232.66c0,0.91-0.74,1.65-1.65,1.65c-0.91,0-1.65-0.74-1.65-1.65c0-0.91,0.74-1.65,1.65-1.65
				C712.45,231.01,713.19,231.75,713.19,232.66z"/>
			<path class="st32" d="M712.64,120.69c0,2.42-1.97,4.39-4.39,4.39c-2.42,0-4.39-1.97-4.39-4.39c0-2.42,1.97-4.39,4.39-4.39
				C710.67,116.3,712.64,118.27,712.64,120.69z"/>
			<path class="st32" d="M685.75,380.3c0,2.73-2.21,4.94-4.94,4.94s-4.94-2.21-4.94-4.94c0-2.73,2.21-4.94,4.94-4.94
				S685.75,377.57,685.75,380.3z"/>
		</g>
	</g>
	<rect x="794.43" y="21.43" class="st10" width="48.86" height="48.86"/>
	<rect x="794.43" y="80.35" class="st5" width="48.86" height="48.86"/>
	<rect x="794.43" y="147.21" class="st33" width="48.86" height="48.86"/>
	<rect x="794.43" y="208.23" class="st33" width="48.86" height="48.86"/>
</g>
</svg>
