<?xml version="1.0" encoding="utf-8"?>
<!-- Generator: Adobe Illustrator 25.4.1, SVG Export Plug-In . SVG Version: 6.00 Build 0)  -->
<svg version="1.1" xmlns="http://www.w3.org/2000/svg" xmlns:xlink="http://www.w3.org/1999/xlink" x="0px" y="0px"
	 viewBox="0 0 500 500" style="enable-background:new 0 0 500 500;" xml:space="preserve">
<style type="text/css">
	.st0{fill:#F5F5F5;}
	.st1{fill:#E0E0E0;}
	.st2{fill:#E6E6E6;}
	.st3{fill:#EF7F1A;}
	.st4{opacity:0.5;}
	.st5{fill:#FFFFFF;}
	.st6{fill:#455A64;}
	.st7{fill:#37474F;}
	.st8{fill:#263238;}
	.st9{opacity:0.9;fill:#FFFFFF;}
	.st10{opacity:0.4;}
	.st11{opacity:0.5;fill:#FFFFFF;}
	.st12{fill:#945959;}
	.st13{fill:#703838;}
	.st14{opacity:0.3;}
	.st15{opacity:0.7;}
	.st16{opacity:0.6;}
	.st17{opacity:0.9;}
</style>
<g id="Floor">
	<ellipse class="st0" cx="250" cy="377.35" rx="197.05" ry="111.94"/>
</g>
<g id="Shadows">
	<path class="st1" d="M332.01,447.93L184.91,363c-5.67-3.27-5.67-11.46,0.01-14.73l14.51-9.15c5.1-2.94,11.37-2.93,16.47,0.01
		l147.1,84.93c5.67,3.27,5.67,11.46-0.01,14.73l-14.51,9.15C343.37,450.87,337.1,450.87,332.01,447.93z"/>
	<ellipse class="st2" cx="108.35" cy="352.17" rx="31.92" ry="18.33"/>
</g>
<g id="Plants">
	<g>
		<g>
			<path class="st3" d="M384.16,374.7l14.01,8.05c0,0-7.15-22.47-3.34-45.13c1.44-8.55,4.53-12.81,5.61-15.1
				c1.09-2.29,9.45-16.44,2-22.92c-7.44-6.48-24.78,6.55-23.85,41.41C379.07,358.92,384.16,374.7,384.16,374.7z"/>
			<path class="st4" d="M384.16,374.7l14.01,8.05c0,0-7.15-22.47-3.34-45.13c1.44-8.55,4.53-12.81,5.61-15.1
				c1.09-2.29,9.45-16.44,2-22.92c-7.44-6.48-24.78,6.55-23.85,41.41C379.07,358.92,384.16,374.7,384.16,374.7z"/>
			<path class="st5" d="M390.67,378.94c-0.2,0-0.39-0.12-0.47-0.33c-0.05-0.15-5.4-14.77-5.22-38.27
				c0.17-23.62,12.51-36.26,12.64-36.38c0.2-0.2,0.51-0.2,0.71,0c0.2,0.19,0.2,0.51,0,0.71c-0.12,0.12-12.18,12.5-12.35,35.68
				c-0.17,23.31,5.11,37.77,5.16,37.92c0.1,0.26-0.04,0.55-0.29,0.64C390.79,378.93,390.73,378.94,390.67,378.94z"/>
		</g>
		<g>
			<path class="st3" d="M390,378.14l19.14,10.96c4.15,2.37,9.57,1.35,12.22-2.63c1.1-1.64,1.77-3.81,1.51-6.65
				c-0.92-9.94-5.24-12.23,0.06-16.66c5.29-4.43,6.67-4.74,6.36-9.02c-0.31-4.28-3.21-6.12-4.59-7.8c-1.38-1.68-5.2-5.2-2.6-10.4
				c2.6-5.2,6.14-10.23,0.76-12.54c-3.21-1.38-8.56,0.46-12.08,4.28c-3.52,3.82-6.42,6.57-9.78,7.49
				c-3.36,0.92-10.4,1.07-10.09,6.88c0.31,5.81,1.84,7.8,0.46,10.4C388.77,357.35,377.46,360.1,390,378.14z"/>
			<path class="st5" d="M399.46,384.06c-0.25,0-0.47-0.19-0.5-0.45c-0.03-0.34-2.94-34.66,20.65-57.5c0.2-0.19,0.51-0.19,0.71,0.01
				c0.19,0.2,0.19,0.52-0.01,0.71c-23.26,22.51-20.38,56.35-20.35,56.69c0.03,0.27-0.18,0.52-0.45,0.54
				C399.49,384.06,399.48,384.06,399.46,384.06z"/>
			<path class="st5" d="M403.25,354.52c-0.26,0-0.47-0.2-0.5-0.46c-0.78-9.11-7.17-13.69-7.23-13.73c-0.23-0.16-0.28-0.47-0.12-0.7
				c0.16-0.23,0.47-0.28,0.7-0.12c0.28,0.2,6.83,4.9,7.65,14.47c0.02,0.28-0.18,0.52-0.45,0.54
				C403.28,354.52,403.26,354.52,403.25,354.52z"/>
			<path class="st5" d="M401.62,360.41c-0.12,0-0.24-0.04-0.33-0.12c-0.21-0.18-0.23-0.5-0.05-0.7c0.24-0.28,6.15-6.8,20.01-5.07
				c0.27,0.03,0.47,0.28,0.43,0.56c-0.03,0.27-0.29,0.46-0.56,0.43c-13.3-1.67-19.07,4.67-19.13,4.73
				C401.89,360.35,401.75,360.41,401.62,360.41z"/>
		</g>
	</g>
</g>
<g id="Device">
	<g>
		<path class="st6" d="M327.52,437.78l-129.37-74.69c-9.13-5.27-16.53-19.41-16.53-31.58V54.49c0-12.17,7.4-17.76,16.53-12.49
			l129.37,74.69c9.13,5.27,16.53,19.41,16.53,31.58v277.02C344.05,437.45,336.65,443.05,327.52,437.78z"/>
		<path class="st7" d="M342.42,108L213.05,33.31c-3.9-2.25-7.49-2.51-10.31-1.13v0l0,0c-0.35,0.17-0.68,0.37-1.01,0.59l-14.49,8.43
			c2.91-1.74,6.73-1.62,10.92,0.8l129.37,74.69c9.13,5.27,16.53,19.41,16.53,31.58v277.02c0,6.43-2.07,11.03-5.37,13.15l14.3-8.33
			l0,0c3.64-1.94,5.96-6.69,5.96-13.5V139.58C358.95,127.41,351.55,113.27,342.42,108z"/>
		<path class="st8" d="M344.05,148.27v277.02c0,6.43-2.07,11.03-5.37,13.15l14.3-8.33l0,0c3.64-1.94,5.96-6.69,5.96-13.5V139.58
			c0-0.01,0-0.01,0-0.02l-14.9,8.65C344.05,148.23,344.05,148.25,344.05,148.27z"/>
		<polygon class="st7" points="358.95,161.09 344.05,169.69 344.05,176.4 358.95,167.8 		"/>
		<g>
			<path class="st7" d="M352.42,205.78L352.42,205.78c-1.33,0.77-2.41-0.05-2.41-1.82v-14.45c0-1.78,1.08-3.84,2.41-4.61l0,0
				c1.33-0.77,2.41,0.05,2.41,1.82v14.45C354.83,202.95,353.75,205.01,352.42,205.78z"/>
			<path class="st6" d="M350.01,203.96v-14.45c0-1.78,1.08-3.84,2.41-4.61c0.58-0.34,1.11-0.35,1.52-0.14l0-0.02l-1.8-0.93l0,0.02
				c-0.42-0.24-0.96-0.23-1.56,0.12c-1.33,0.77-2.41,2.83-2.41,4.61V203c0,0.96,0.32,1.62,0.82,1.93l0,0.01l1.89,0.99l0-0.02
				C350.35,205.62,350.01,204.95,350.01,203.96z"/>
		</g>
		<g>
			<path class="st7" d="M352.42,240.75L352.42,240.75c-1.33,0.77-2.41-0.05-2.41-1.82v-14.45c0-1.78,1.08-3.84,2.41-4.61l0,0
				c1.33-0.77,2.41,0.05,2.41,1.82v14.45C354.83,237.92,353.75,239.99,352.42,240.75z"/>
			<path class="st6" d="M350.01,238.93v-14.45c0-1.78,1.08-3.84,2.41-4.61c0.58-0.33,1.11-0.35,1.52-0.14l0-0.02l-1.8-0.93l0,0.02
				c-0.42-0.24-0.96-0.23-1.56,0.12c-1.33,0.77-2.41,2.83-2.41,4.61v14.45c0,0.96,0.32,1.62,0.82,1.93l0,0.01l1.89,0.99l0-0.02
				C350.35,240.6,350.01,239.92,350.01,238.93z"/>
		</g>
		<path class="st3" d="M323.03,124.48L195.88,51.06c-2.34-1.35-5.26,0.34-5.26,3.04v277.42c0,9.26,6.56,20.63,14.59,25.26
			l124.05,71.62c2.57,1.49,5.79-0.37,5.79-3.34V145.31C335.06,137.67,329.64,128.3,323.03,124.48z"/>
		<path class="st9" d="M323.03,124.48L195.88,51.06c-2.34-1.35-5.26,0.34-5.26,3.04v277.42c0,9.26,6.56,20.63,14.59,25.26
			l124.05,71.62c2.57,1.49,5.79-0.37,5.79-3.34V145.31C335.06,137.67,329.64,128.3,323.03,124.48z"/>
		<polygon class="st6" points="233.9,70.23 235.87,78.52 278.01,102.82 285.29,98.94 		"/>
		<g>
			<path class="st8" d="M246.29,78.24c0,1.38-0.97,1.93-2.16,1.25c-1.19-0.69-2.16-2.36-2.16-3.74c0-1.38,0.97-1.93,2.16-1.25
				C245.32,75.19,246.29,76.87,246.29,78.24z"/>
			<path class="st8" d="M274.68,95.79c-0.22,0-0.45-0.06-0.66-0.17L252.5,83.59c-0.65-0.36-0.88-1.19-0.52-1.84
				c0.36-0.65,1.19-0.88,1.84-0.52l21.52,12.03c0.65,0.36,0.88,1.19,0.52,1.84C275.61,95.54,275.15,95.79,274.68,95.79z"/>
		</g>
	</g>
	<g>
		<path class="st3" d="M217.28,108.8c-1.31-0.76-2.26-0.1-2.26,1.57c0,1.69,0.95,3.46,2.26,4.22c0.78,0.45,1.76,0.46,2.48-0.01
			l2.09,3.78c-1.22,0.83-3.07,0.75-4.75-0.23c-3.35-1.93-5.78-6.09-5.78-9.85c0-3.71,2.49-4.96,5.92-2.99
			c1.67,0.96,3.49,2.91,4.61,4.97l-2.09,1.65C219.1,110.52,218.12,109.28,217.28,108.8z"/>
		<path class="st3" d="M233.87,121.33c0,3.74-2.52,5.04-6,3.03c-3.47-2.01-6-6.2-6-9.96c0-3.74,2.52-4.96,6-2.96
			C231.34,113.45,233.87,117.6,233.87,121.33z M225.58,116.56c0,1.73,1.09,3.63,2.34,4.35c1.25,0.72,2.24,0.02,2.24-1.71
			c0-1.73-1-3.54-2.24-4.26C226.66,114.21,225.58,114.83,225.58,116.56z"/>
		<path class="st3" d="M237.9,117.36l4.32,8.97v-6.48l3.27,1.89v12.61l-3.02-1.74l-4.3-8.92v6.44l-3.29-1.9v-12.61L237.9,117.36z"/>
		<path class="st3" d="M256.18,127.91v3.29l-3.12-1.8v9.32l-3.61-2.09v-9.32l-3.1-1.79v-3.29L256.18,127.91z"/>
		<path class="st3" d="M263.22,142.81l-4.1-2.37l-0.56,1.46l-3.71-2.14l4.61-9.95l3.71,2.14l4.44,15.17l-3.85-2.22L263.22,142.81z
			 M262.33,139.31l-1.12-4.34l-1.15,3.02L262.33,139.31z"/>
		<path class="st3" d="M273.35,141.17c-1.31-0.76-2.26-0.1-2.26,1.57c0,1.69,0.95,3.46,2.26,4.22c0.78,0.45,1.76,0.46,2.48-0.01
			l2.09,3.78c-1.22,0.83-3.07,0.75-4.75-0.23c-3.35-1.93-5.78-6.09-5.78-9.85c0-3.71,2.49-4.96,5.92-2.99
			c1.67,0.96,3.49,2.91,4.61,4.97l-2.09,1.65C275.17,142.89,274.19,141.66,273.35,141.17z"/>
		<path class="st3" d="M287.78,146.16v3.29l-3.12-1.8v9.32l-3.61-2.09v-9.32l-3.1-1.79v-3.29L287.78,146.16z"/>
		<path class="st3" d="M298.45,161.64c0.89,0.51,1.57,0.12,1.57-1.14v-7.27l3.62,2.09v7.27c0,3.35-2.04,4.34-5.2,2.52
			c-3.18-1.84-5.28-5.23-5.28-8.57v-7.27l3.61,2.09v7.27C296.77,159.86,297.55,161.12,298.45,161.64z"/>
		<path class="st3" d="M309.47,161.68c-0.41-0.23-0.67-0.24-0.67,0.14c0,1.58,5.66,3.86,5.66,8.43c0,2.81-2.13,2.82-4.6,1.39
			c-1.9-1.1-4.02-3.06-5.47-5.17l1.34-2.36c1.12,1.73,3.05,3.72,4.16,4.36c0.53,0.31,0.87,0.31,0.87-0.14
			c0-1.64-5.66-3.82-5.66-8.25c0-2.52,1.84-3.04,4.67-1.4c1.73,1,3.52,2.63,4.75,4.24l-1.31,2.41
			C312.12,163.99,310.42,162.23,309.47,161.68z"/>
	</g>
</g>
<g id="Speech_bubble">
	<g>
		<path class="st3" d="M199.09,170.94c3.61-4.43,5.78-10.07,5.78-16.23c0-14.19-11.51-25.7-25.7-25.7s-25.7,11.51-25.7,25.7
			c0,14.19,11.51,25.7,25.7,25.7c4.82,0,9.33-1.33,13.19-3.64l12.51,5.43L199.09,170.94z"/>
		<path class="st10" d="M199.09,170.94c3.61-4.43,5.78-10.07,5.78-16.23c0-14.19-11.51-25.7-25.7-25.7s-25.7,11.51-25.7,25.7
			c0,14.19,11.51,25.7,25.7,25.7c4.82,0,9.33-1.33,13.19-3.64l12.51,5.43L199.09,170.94z"/>
		<g>
			<path class="st5" d="M169.65,153.34c0-0.4-0.28-0.61-0.79-0.61c-0.88,0-2.03,0.58-3.16,1.49l-1.42-2.76
				c1.65-1.14,3.35-1.82,5.17-1.82c2.4,0,4.21,1.26,4.21,3.14c0,1.34-0.98,2.63-2.28,3.92l-1.78,1.77h4.23v2.94h-9.09l-0.02-2.41
				l4.05-4.18C169.25,154.32,169.65,153.74,169.65,153.34z"/>
			<path class="st5" d="M181.23,149.81l-2.76,6.63h1.12v-2.23h3.49v2.23h1.32v2.73h-1.32v2.25h-3.49v-2.25h-4.94v-2.48l2.97-6.87
				H181.23z"/>
			<path class="st5" d="M195.14,155.64v5.77h-3.72v-4.69c0-0.76-0.43-1.24-1.07-1.24c-0.73,0-1.19,0.58-1.19,1.45v4.48h-3.72v-12.26
				h3.72v4.51c0.61-0.93,1.55-1.45,2.74-1.45C193.8,152.2,195.14,153.56,195.14,155.64z"/>
		</g>
	</g>
</g>
<g id="Character">
	<g>
		<g>
			<path class="st3" d="M316.44,248.56v124.25c0,6.17-6.68,10.03-12.03,6.94l-66.92-38.64l-11.85-6.84
				c-2.5-1.44-4.72-3.26-6.59-5.36c-4.34-4.85-6.85-11.2-6.85-17.91V186.74c0-6.17,6.67-10.02,12.03-6.94l78.77,45.49
				C311.31,230.09,316.44,238.96,316.44,248.56z"/>
			<path class="st11" d="M316.44,248.56v124.25c0,6.17-6.68,10.03-12.03,6.94l-66.92-38.64l-11.85-6.84
				c-2.5-1.44-4.72-3.26-6.59-5.36c-4.34-4.85-6.85-11.2-6.85-17.91V186.74c0-6.17,6.67-10.02,12.03-6.94l78.77,45.49
				C311.31,230.09,316.44,238.96,316.44,248.56z"/>
			<g>
				<path class="st8" d="M277.89,322.08c0,0,12.53,20.78,3.47,44.21l-43.88-25.18L277.89,322.08z"/>
				<g>
					
						<ellipse transform="matrix(0.1222 -0.9925 0.9925 0.1222 23.9404 481.0457)" class="st8" cx="283.92" cy="226.99" rx="14.05" ry="14.05"/>
					<g>
						<path class="st8" d="M283.99,187.59c0,0,4.31-7.03,5.64-6.49c1.32,0.54-0.86,7.18-0.86,7.18s6.52,1.36,5.3,2.98
							c-1.22,1.63-9.18,1.25-9.18,1.25L283.99,187.59z"/>
						<path class="st8" d="M287.02,205.63c-3.03,22.54-22,22.54-22,22.54l-39.82-17.52c0,0-3-2.63-3.92-8.68
							c-0.32-2.07-0.39-4.55-0.01-7.46c0-0.02,0.01-0.05,0.01-0.07c1.27-9.48,8.36-19.67,23.8-22.8c3.08-0.64,6.5-0.98,10.27-0.98
							c1.72,0,3.38,0.08,4.97,0.25c12.05,1.17,20.41,6.78,24.42,15.48c0.88,1.91,1.54,3.96,1.98,6.15
							C287.55,196.5,287.66,200.88,287.02,205.63z"/>
					</g>
				</g>
				<g>
					<path class="st3" d="M191.45,249.23c0,0-14.13-0.48-19.58,13.29c0,0,6.01,4.05,13.88,0.02
						C193.62,258.5,191.45,249.23,191.45,249.23z"/>
					<path class="st4" d="M191.45,249.23c0,0-14.13-0.48-19.58,13.29c0,0,6.01,4.05,13.88,0.02
						C193.62,258.5,191.45,249.23,191.45,249.23z"/>
					<path class="st12" d="M191.05,255.86c0,0-3.99-17.37-6.1-17.59c-2.22-0.23-2.52,5.3-2.35,8.41l-5.04-10.75
						c-0.66-1.42-2.39-1.97-3.76-1.21c-5.01,2.75-13.77,11.11,4.72,31.78L191.05,255.86z"/>
					<path class="st3" d="M242.25,243.84l-2.98-0.39c-6.16-0.82-12.28,1.75-16.01,6.72l-17.85,23.76l-13.96-24.71
						c0,0-1.69,16.8-19.58,13.29l19.22,32.33c5.25,8.83,17.69,9.75,24.18,1.77l16.44-20.21L242.25,243.84z"/>
				</g>
				<path class="st3" d="M280.35,299.29c-4,10.14-4.44,12.12-1.95,17.19c2.47,5.06,4.02,11.64,4.02,11.64s-18.54,20.78-44.93,12.99
					l-11.85-6.84c-2.5-1.44-4.72-3.26-6.59-5.36l3.54-26.87c0.18-1.42,0.04-2.87-0.42-4.22l-3.78-11.1
					c-3.77-11.08-0.86-23.34,7.52-31.52l12.74-12.45l33.46,4.22l4.97,1.43c6.76,1.94,11.07,8.57,10.11,15.54
					C285.54,275.8,282.86,292.92,280.35,299.29z"/>
				<path class="st4" d="M280.35,299.29c-4,10.14-4.44,12.12-1.95,17.19c2.47,5.06,4.02,11.64,4.02,11.64s-18.54,20.78-44.93,12.99
					l-11.85-6.84c-2.5-1.44-4.72-3.26-6.59-5.36l3.54-26.87c0.18-1.42,0.04-2.87-0.42-4.22l-3.78-11.1
					c-3.77-11.08-0.86-23.34,7.52-31.52l12.74-12.45l33.46,4.22l4.97,1.43c6.76,1.94,11.07,8.57,10.11,15.54
					C285.54,275.8,282.86,292.92,280.35,299.29z"/>
				<path class="st3" d="M260.17,269.03l-6.7-5.71c-1.45-1.23-3.44-1.61-5.24-0.99l-8.1,2.78l-1.09-4.54
					c-0.72-2.98-3.77-4.76-6.72-3.91l-3.51,1.01l5.95-11.38c1.94-3.71,4.92-6.76,8.58-8.78l2.33-1.28l19.25,0.99
					c0,0,7.18,2.97,7.18,9.75L260.17,269.03"/>
				<g>
					<g>
						<polygon class="st12" points="265.01,245.72 245.71,260.76 245.71,212.87 265.01,212.87 						"/>
					</g>
					<polygon class="st12" points="246.01,241.77 240.14,265.12 264.93,245.72 					"/>
				</g>
				<path class="st13" d="M245.71,238.3c7.43-2.87,15.19-8.62,19.31-18.36v-7.07h-19.31V238.3z"/>
				<path class="st12" d="M249.87,177.38c-7.32,0-22.89,4.08-24.69,23.24c-1.8,19.16-0.06,34.02,9.82,35.45
					c9.89,1.42,32.84-5.73,35.91-30.53C274,180.73,257.02,177.38,249.87,177.38z"/>
				<polygon class="st13" points="238.35,208.73 238.35,220.02 231.73,217.99 				"/>
				<g>
					<circle class="st8" cx="245.71" cy="210.68" r="2.3"/>
					<path class="st8" d="M232.87,209.08c0,1.27-1.03,2.3-2.3,2.3c-1.27,0-2.3-1.03-2.3-2.3c0-1.27,1.03-2.3,2.3-2.3
						C231.84,206.77,232.87,207.8,232.87,209.08z"/>
					<path class="st8" d="M227.76,204.28l4.5-2.67c0,0-1.73-1.79-3.45-0.72C227.1,201.97,227.76,204.28,227.76,204.28z"/>
				</g>
				<path class="st13" d="M235.24,224.6c0,0,3.65,0.33,6.2-1.66c0,0,0.42,3.26-2.31,3.89C236.39,227.46,235.24,224.6,235.24,224.6z"
					/>
				<path class="st8" d="M231.31,183.9c0,0,2.75,26.45,38.72,27.28c0,0,10.87-26.29-10.61-34.83
					C237.94,167.81,231.31,183.9,231.31,183.9z"/>
				<g>
					<g>
						<path class="st3" d="M280.62,207.22L280.62,207.22l-0.02-0.01c-0.01,0-0.01-0.01-0.02-0.01l-4.42-2.55l0,0
							c-1.67-0.99-4-0.86-6.57,0.62c-5.1,2.95-9.24,10.11-9.24,16c0,2.95,1.04,5.02,2.71,5.98l0,0l4.34,2.49
							c0.08,0.05,0.17,0.1,0.25,0.15l0.15,0.08l0.01-0.01c1.64,0.8,3.83,0.61,6.24-0.78c5.1-2.95,9.24-10.11,9.24-16
							C283.3,210.25,282.27,208.19,280.62,207.22z"/>
						
							<ellipse transform="matrix(0.5 -0.866 0.866 0.5 -52.2092 346.5974)" class="st3" cx="274.06" cy="218.51" rx="13.06" ry="7.54"/>
						
							<ellipse transform="matrix(0.5 -0.866 0.866 0.5 -52.2092 346.5974)" class="st4" cx="274.06" cy="218.51" rx="13.06" ry="7.54"/>
						<path class="st3" d="M282.39,212.77L282.39,212.77l-0.01-0.01c0,0-0.01,0-0.01-0.01l-3.03-1.75l0,0
							c-1.15-0.68-2.73-0.59-4.49,0.43c-3.49,2.02-6.32,6.92-6.32,10.95c0,2.02,0.71,3.43,1.86,4.09l0,0l2.97,1.71
							c0.06,0.04,0.11,0.07,0.17,0.1l0.1,0.06l0-0.01c1.13,0.54,2.62,0.42,4.27-0.54c3.49-2.02,6.32-6.92,6.32-10.95
							C284.23,214.84,283.53,213.43,282.39,212.77z"/>
						<path class="st3" d="M284.23,216.85c0,4.03-2.83,8.93-6.32,10.95c-3.49,2.02-6.32,0.38-6.32-3.65c0-4.03,2.83-8.93,6.32-10.95
							C281.4,211.18,284.23,212.81,284.23,216.85z"/>
						<path class="st14" d="M284.23,216.85c0,4.03-2.83,8.93-6.32,10.95c-3.49,2.02-6.32,0.38-6.32-3.65
							c0-4.03,2.83-8.93,6.32-10.95C281.4,211.18,284.23,212.81,284.23,216.85z"/>
					</g>
					<path class="st3" d="M266.89,172.22c-2.85-2.23-6.38-3.41-10-3.46c-0.29,0-0.58-0.01-0.87-0.01c-4.01,0-7.65,0.37-10.93,1.04
						c0.66-0.03,1.32-0.02,1.97,0h-1.97v1.85h1.86c3.98,0.14,7.93,1.23,11.49,3.28c7.64,4.41,12.38,12.63,12.38,21.45v7.87
						c0,1.31,1.12,2.35,2.45,2.21c0.08-0.01,0.15-0.03,0.23-0.05l1.97-0.61l0,0c-0.13,0.04-0.27,0.07-0.41,0.09
						c1.23-0.13,2.12-1.25,2.12-2.49v-7.3C277.17,182.89,271.46,175.79,266.89,172.22z"/>
					<g>
						<path class="st3" d="M254.3,235.51c-0.81,0-1.63-0.17-2.39-0.53l-6.25-2.89c-0.37-0.17-0.54-0.62-0.36-0.99
							c0.17-0.37,0.62-0.53,0.99-0.36l6.25,2.89c1.63,0.76,3.57,0.39,4.82-0.91l5.96-6.2c0.29-0.3,0.76-0.31,1.05-0.02
							c0.3,0.29,0.31,0.76,0.02,1.05l-5.96,6.2C257.32,234.91,255.82,235.51,254.3,235.51z"/>
						<path class="st4" d="M254.3,235.51c-0.81,0-1.63-0.17-2.39-0.53l-6.25-2.89c-0.37-0.17-0.54-0.62-0.36-0.99
							c0.17-0.37,0.62-0.53,0.99-0.36l6.25,2.89c1.63,0.76,3.57,0.39,4.82-0.91l5.96-6.2c0.29-0.3,0.76-0.31,1.05-0.02
							c0.3,0.29,0.31,0.76,0.02,1.05l-5.96,6.2C257.32,234.91,255.82,235.51,254.3,235.51z"/>
						<path class="st3" d="M247.3,229.98c0,1.61-1.31,2.92-2.92,2.92s-2.92-1.31-2.92-2.92c0-1.61,1.31-2.92,2.92-2.92
							S247.3,228.36,247.3,229.98z"/>
						<path class="st4" d="M247.3,229.98c0,1.61-1.31,2.92-2.92,2.92s-2.92-1.31-2.92-2.92c0-1.61,1.31-2.92,2.92-2.92
							S247.3,228.36,247.3,229.98z"/>
					</g>
					<path class="st3" d="M277.17,196.1v7.3c0,1.24-0.89,2.36-2.12,2.49c-1.41,0.15-2.6-0.96-2.6-2.35v-7.44
						c0-9.38-5.05-18.12-13.17-22.81c-4.37-2.52-9.31-3.69-14.19-3.49c3.28-0.68,6.91-1.04,10.93-1.04c0.29,0,0.58,0,0.87,0.01
						c3.62,0.05,7.15,1.23,10,3.46C271.46,175.79,277.17,182.89,277.17,196.1z"/>
					<path class="st4" d="M277.17,196.1v7.3c0,1.24-0.89,2.36-2.12,2.49c-1.41,0.15-2.6-0.96-2.6-2.35v-7.44
						c0-9.38-5.05-18.12-13.17-22.81c-4.37-2.52-9.31-3.69-14.19-3.49c3.28-0.68,6.91-1.04,10.93-1.04c0.29,0,0.58,0,0.87,0.01
						c3.62,0.05,7.15,1.23,10,3.46C271.46,175.79,277.17,182.89,277.17,196.1z"/>
				</g>
				<path class="st3" d="M265.93,333.67c0,0-4.84,13.35,12.46,19.31c0,0,5.65-8.29,0-15.08S265.93,333.67,265.93,333.67z"/>
				<path class="st15" d="M265.93,333.67c0,0-4.84,13.35,12.46,19.31c0,0,5.65-8.29,0-15.08S265.93,333.67,265.93,333.67z"/>
				<path class="st12" d="M271.97,334.28c0,0-16.89,6.2-16.81,8.59c0.09,2.39,7.18,0.77,7.18,0.77l-2.59,1.7
					c-2.73,1.78-4.84,4.36-6.05,7.38v0c-0.55,1.38,0.02,2.95,1.34,3.65l6.42,3.4c1.53,0.81,3.42,0.2,4.19-1.35l0,0
					c0.71-1.44,1.99-2.51,3.51-3.02c3.49-1.16,9.97-4.51,12.61-13.64L271.97,334.28z"/>
				<path class="st3" d="M277.07,248.41c0,0-8.99,5.02-4.22,20.18c4.77,15.17,13.76,38.73,13.76,38.73l-20.68,26.35
					c0,0,6.92,0.46,11.11,6.63c4.19,6.17,1.35,12.68,1.35,12.68l25.66-32.96c4.82-6.2,6.19-14.41,3.64-21.83l-11.04-32.12
					c-2.73-7.95-9.03-14.17-17.01-16.81L277.07,248.41z"/>
			</g>
		</g>
	</g>
</g>
<g id="Icons">
	<g>
		<g>
			<g>
				<path class="st3" d="M125.15,158.74l-39.77-22.96c-1.2-0.69-2.3-0.77-3.17-0.35v0l0,0c-0.11,0.05-0.21,0.11-0.31,0.18
					l-8.65,5.07c0.02-0.01,0.04-0.02,0.05-0.03c-1.09,0.62-1.78,2.06-1.78,4.11v44.22c0,3.74,2.27,8.09,5.08,9.71l39.77,22.96
					c1.36,0.78,2.59,0.78,3.5,0.15c-0.02,0.02-0.04,0.04-0.07,0.05l8.59-5.04l0,0c1.12-0.6,1.83-2.06,1.83-4.15v-44.22
					C130.23,164.71,127.96,160.36,125.15,158.74z"/>
				<path class="st3" d="M128.81,162.93c-0.92-1.81-2.22-3.36-3.66-4.19l-39.77-22.96c-1.2-0.69-2.3-0.77-3.17-0.35v0l0,0
					c-0.11,0.05-0.21,0.11-0.31,0.18l-8.65,5.07c0.9-0.54,2.07-0.5,3.36,0.25l39.77,22.96c1.49,0.86,2.82,2.49,3.75,4.38l0,0
					L128.81,162.93z"/>
				<path class="st3" d="M121.46,217.82c0,1.98-0.64,3.39-1.65,4.04l8.59-5.04l0,0c1.12-0.6,1.83-2.06,1.83-4.15v-44.22
					c0-1.82-0.54-3.79-1.42-5.52l-8.68,5.34l0,0c0.82,1.68,1.33,3.57,1.33,5.32V217.82z"/>
				<path class="st14" d="M128.81,162.93c-0.92-1.81-2.22-3.36-3.66-4.19l-39.77-22.96c-1.2-0.69-2.3-0.77-3.17-0.35v0l0,0
					c-0.11,0.05-0.21,0.11-0.31,0.18l-8.65,5.07c0.9-0.54,2.07-0.5,3.36,0.25l39.77,22.96c1.49,0.86,2.82,2.49,3.75,4.38l0,0
					L128.81,162.93z"/>
				<path class="st16" d="M121.46,217.82c0,1.98-0.64,3.39-1.65,4.04l8.59-5.04l0,0c1.12-0.6,1.83-2.06,1.83-4.15v-44.22
					c0-1.82-0.54-3.79-1.42-5.52l-8.68,5.34l0,0c0.82,1.68,1.33,3.57,1.33,5.32V217.82z"/>
			</g>
			<g>
				<path class="st3" d="M109.8,186.27c0,5.72-2.27,7.68-5.68,5.71c-1.88-1.09-3.21-2.81-3.79-4.97c-0.97,1.23-2.55,1.31-4.74,0.05
					c-3.57-2.06-6.4-6.96-6.4-11.78c0-4.8,2.8-6.44,6.4-4.37c1.83,1.06,3.27,2.62,4.27,4.57v-1.89l3.77,2.17v10.36
					c0,1.54,0.58,2.38,1.33,2.81c1.27,0.74,2.05-0.51,2.05-4.22c0-6.49-4.15-13.37-10.3-16.92c-6.18-3.57-10.3-1.09-10.3,5.6
					c0,6.81,4.04,13.98,10.19,17.53c1.74,1.01,3.71,1.73,5.46,1.74l0.89,3.45c-1.69,0.02-4.15-0.86-6.34-2.13
					c-8.01-4.62-13.29-13.94-13.29-22.39c0-8.35,5.35-11.5,13.4-6.84C104.49,169.26,109.8,178.25,109.8,186.27z M99.92,181.46
					c0-2.78-1.47-5.2-3.46-6.35c-2.02-1.17-3.43-0.35-3.43,2.37c0,2.75,1.41,5.23,3.43,6.4C98.45,185.03,99.92,184.27,99.92,181.46z
					"/>
			</g>
			<g class="st17">
				<path class="st5" d="M109.8,186.27c0,5.72-2.27,7.68-5.68,5.71c-1.88-1.09-3.21-2.81-3.79-4.97c-0.97,1.23-2.55,1.31-4.74,0.05
					c-3.57-2.06-6.4-6.96-6.4-11.78c0-4.8,2.8-6.44,6.4-4.37c1.83,1.06,3.27,2.62,4.27,4.57v-1.89l3.77,2.17v10.36
					c0,1.54,0.58,2.38,1.33,2.81c1.27,0.74,2.05-0.51,2.05-4.22c0-6.49-4.15-13.37-10.3-16.92c-6.18-3.57-10.3-1.09-10.3,5.6
					c0,6.81,4.04,13.98,10.19,17.53c1.74,1.01,3.71,1.73,5.46,1.74l0.89,3.45c-1.69,0.02-4.15-0.86-6.34-2.13
					c-8.01-4.62-13.29-13.94-13.29-22.39c0-8.35,5.35-11.5,13.4-6.84C104.49,169.26,109.8,178.25,109.8,186.27z M99.92,181.46
					c0-2.78-1.47-5.2-3.46-6.35c-2.02-1.17-3.43-0.35-3.43,2.37c0,2.75,1.41,5.23,3.43,6.4C98.45,185.03,99.92,184.27,99.92,181.46z
					"/>
			</g>
		</g>
		<g>
			<g>
				<path class="st3" d="M125.15,237.52l-39.77-22.96c-1.2-0.69-2.3-0.77-3.17-0.35l0,0l0,0c-0.11,0.05-0.21,0.11-0.31,0.18
					l-8.65,5.07c0.02-0.01,0.04-0.02,0.05-0.03c-1.09,0.62-1.78,2.06-1.78,4.11v44.22c0,3.74,2.27,8.09,5.08,9.71l39.77,22.96
					c1.36,0.78,2.59,0.78,3.5,0.15c-0.02,0.02-0.04,0.04-0.07,0.05l8.59-5.04l0,0c1.12-0.6,1.83-2.06,1.83-4.15v-44.22
					C130.23,243.48,127.96,239.14,125.15,237.52z"/>
				<path class="st3" d="M128.81,241.71c-0.92-1.81-2.22-3.36-3.66-4.19l-39.77-22.96c-1.2-0.69-2.3-0.77-3.17-0.35l0,0l0,0
					c-0.11,0.05-0.21,0.11-0.31,0.18l-8.65,5.07c0.9-0.54,2.07-0.5,3.36,0.25l39.77,22.96c1.49,0.86,2.82,2.49,3.75,4.38l0,0
					L128.81,241.71z"/>
				<path class="st3" d="M121.46,296.59c0,1.98-0.64,3.39-1.65,4.04l8.59-5.04l0,0c1.12-0.6,1.83-2.06,1.83-4.15v-44.22
					c0-1.82-0.54-3.79-1.42-5.52l-8.68,5.34l0,0c0.82,1.68,1.33,3.57,1.33,5.32V296.59z"/>
				<path class="st14" d="M128.81,241.71c-0.92-1.81-2.22-3.36-3.66-4.19l-39.77-22.96c-1.2-0.69-2.3-0.77-3.17-0.35l0,0l0,0
					c-0.11,0.05-0.21,0.11-0.31,0.18l-8.65,5.07c0.9-0.54,2.07-0.5,3.36,0.25l39.77,22.96c1.49,0.86,2.82,2.49,3.75,4.38l0,0
					L128.81,241.71z"/>
				<path class="st16" d="M121.46,296.59c0,1.98-0.64,3.39-1.65,4.04l8.59-5.04l0,0c1.12-0.6,1.83-2.06,1.83-4.15v-44.22
					c0-1.82-0.54-3.79-1.42-5.52l-8.68,5.34l0,0c0.82,1.68,1.33,3.57,1.33,5.32V296.59z"/>
			</g>
			<g>
				<polygon class="st3" points="92.04,257.29 82.46,241.71 82.46,262.82 				"/>
				<polygon class="st3" points="100.96,261.78 110.53,278.35 110.53,257.27 				"/>
				<path class="st3" d="M83.91,241.02l9.85,16c0.04,0.04,0.08,0.08,0.11,0.13c0.02,0.04,0.03,0.08,0.04,0.12l2.89,4.69l2.48-1.17
					c0.04-0.04,0.08-0.08,0.13-0.11c0.1-0.06,0.21-0.09,0.32-0.1l9.96-4.68L83.91,241.02z"/>
				<path class="st3" d="M99.51,262.46l-2.67,1.26c-0.11,0.05-0.23,0.08-0.34,0.08c-0.27,0-0.53-0.14-0.68-0.38l-2.93-4.76
					l-9.63,5.56l25.89,14.95L99.51,262.46z"/>
			</g>
			<g class="st17">
				<polygon class="st5" points="92.04,257.29 82.46,241.71 82.46,262.82 				"/>
				<polygon class="st5" points="100.96,261.78 110.53,278.35 110.53,257.27 				"/>
				<path class="st5" d="M83.91,241.02l9.85,16c0.04,0.04,0.08,0.08,0.11,0.13c0.02,0.04,0.03,0.08,0.04,0.12l2.89,4.69l2.48-1.17
					c0.04-0.04,0.08-0.08,0.13-0.11c0.1-0.06,0.21-0.09,0.32-0.1l9.96-4.68L83.91,241.02z"/>
				<path class="st5" d="M99.51,262.46l-2.67,1.26c-0.11,0.05-0.23,0.08-0.34,0.08c-0.27,0-0.53-0.14-0.68-0.38l-2.93-4.76
					l-9.63,5.56l25.89,14.95L99.51,262.46z"/>
			</g>
		</g>
		<g>
			<g>
				<path class="st3" d="M125.15,79.96L85.38,57c-1.2-0.69-2.3-0.77-3.17-0.35v0l0,0c-0.11,0.05-0.21,0.11-0.31,0.18l-8.65,5.07
					c0.02-0.01,0.04-0.02,0.05-0.03c-1.09,0.62-1.78,2.06-1.78,4.11v44.22c0,3.74,2.27,8.09,5.08,9.71l39.77,22.96
					c1.36,0.78,2.59,0.78,3.5,0.15c-0.02,0.02-0.04,0.04-0.07,0.05l8.59-5.04l0,0c1.12-0.6,1.83-2.06,1.83-4.15V89.67
					C130.23,85.93,127.96,81.58,125.15,79.96z"/>
				<path class="st3" d="M128.81,84.16c-0.92-1.81-2.22-3.36-3.66-4.19L85.38,57c-1.2-0.69-2.3-0.77-3.17-0.35v0l0,0
					c-0.11,0.05-0.21,0.11-0.31,0.18l-8.65,5.07c0.9-0.54,2.07-0.5,3.36,0.25l39.77,22.96c1.49,0.86,2.82,2.49,3.75,4.38l0,0
					L128.81,84.16z"/>
				<path class="st3" d="M121.46,139.04c0,1.98-0.64,3.39-1.65,4.04l8.59-5.04l0,0c1.12-0.6,1.83-2.06,1.83-4.15V89.67
					c0-1.82-0.54-3.79-1.42-5.52l-8.68,5.34l0,0c0.82,1.68,1.33,3.57,1.33,5.32V139.04z"/>
				<path class="st14" d="M128.81,84.16c-0.92-1.81-2.22-3.36-3.66-4.19L85.38,57c-1.2-0.69-2.3-0.77-3.17-0.35v0l0,0
					c-0.11,0.05-0.21,0.11-0.31,0.18l-8.65,5.07c0.9-0.54,2.07-0.5,3.36,0.25l39.77,22.96c1.49,0.86,2.82,2.49,3.75,4.38l0,0
					L128.81,84.16z"/>
				<path class="st16" d="M121.46,139.04c0,1.98-0.64,3.39-1.65,4.04l8.59-5.04l0,0c1.12-0.6,1.83-2.06,1.83-4.15V89.67
					c0-1.82-0.54-3.79-1.42-5.52l-8.68,5.34l0,0c0.82,1.68,1.33,3.57,1.33,5.32V139.04z"/>
			</g>
			<g>
				<g>
					<path class="st3" d="M108.45,119.97c-1.53-2.51-3.07-5.02-4.6-7.53c-0.7-1.15-1.49-1.82-2.41-2.02
						c-0.74-0.16-1.49-0.32-2.24-0.55c-0.2-0.06-0.52-0.32-0.66-0.56c-2.55-4.42-4.54-8.95-5.93-13.6c-0.06-0.22-0.02-0.5,0.08-0.61
						c0.47-0.47,0.97-0.9,1.47-1.32c0.62-0.52,0.73-1.39,0.38-2.65c-0.74-2.67-1.45-5.34-2.19-8.01c-0.48-1.75-1.56-3.01-2.86-3.33
						c-1.81-0.44-3.45-0.38-4.9,0.18c-0.61,0.24-0.93,0.79-0.93,1.73c0.25,1.83,0.43,3.64,0.77,5.5
						c2.47,13.41,8.42,25.77,17.81,37.04c0.74,0.89,1.48,1.31,2.23,1.28c1.65-0.07,3.06-0.61,4.22-1.63
						C109.6,123.12,109.51,121.7,108.45,119.97z"/>
					<path class="st3" d="M108.33,106.37c-0.16-2.67-0.95-5.43-2.36-8.24c-1.02-2.04-2.27-3.87-3.75-5.51
						c-0.4-0.44-0.73-0.58-0.92-0.24c-0.19,0.34-0.01,0.8,0.38,1.23c0.13,0.15,0.26,0.3,0.39,0.45c2.9,3.52,4.56,7.29,4.98,11.33
						c0.03,0.31-0.02,0.61,0.09,0.91c0.12,0.32,0.37,0.75,0.59,0.91c0.21,0.15,0.44,0,0.62-0.01
						C108.34,106.79,108.35,106.58,108.33,106.37z"/>
					<path class="st3" d="M99.27,98.16c1.33,1.54,2.03,3.18,2.17,4.96c0.02,0.27,0.24,0.63,0.31,0.8c0.61,0.5,0.91,0.33,0.91-0.29
						c0-1.88-1.3-4.84-2.81-6.42c-0.38-0.39-0.69-0.51-0.87-0.18C98.81,97.34,98.94,97.77,99.27,98.16z"/>
				</g>
			</g>
			<g class="st17">
				<g>
					<path class="st5" d="M108.45,119.97c-1.53-2.51-3.07-5.02-4.6-7.53c-0.7-1.15-1.49-1.82-2.41-2.02
						c-0.74-0.16-1.49-0.32-2.24-0.55c-0.2-0.06-0.52-0.32-0.66-0.56c-2.55-4.42-4.54-8.95-5.93-13.6c-0.06-0.22-0.02-0.5,0.08-0.61
						c0.47-0.47,0.97-0.9,1.47-1.32c0.62-0.52,0.73-1.39,0.38-2.65c-0.74-2.67-1.45-5.34-2.19-8.01c-0.48-1.75-1.56-3.01-2.86-3.33
						c-1.81-0.44-3.45-0.38-4.9,0.18c-0.61,0.24-0.93,0.79-0.93,1.73c0.25,1.83,0.43,3.64,0.77,5.5
						c2.47,13.41,8.42,25.77,17.81,37.04c0.74,0.89,1.48,1.31,2.23,1.28c1.65-0.07,3.06-0.61,4.22-1.63
						C109.6,123.12,109.51,121.7,108.45,119.97z"/>
					<path class="st5" d="M108.33,106.37c-0.16-2.67-0.95-5.43-2.36-8.24c-1.02-2.04-2.27-3.87-3.75-5.51
						c-0.4-0.44-0.73-0.58-0.92-0.24c-0.19,0.34-0.01,0.8,0.38,1.23c0.13,0.15,0.26,0.3,0.39,0.45c2.9,3.52,4.56,7.29,4.98,11.33
						c0.03,0.31-0.02,0.61,0.09,0.91c0.12,0.32,0.37,0.75,0.59,0.91c0.21,0.15,0.44,0,0.62-0.01
						C108.34,106.79,108.35,106.58,108.33,106.37z"/>
					<path class="st5" d="M99.27,98.16c1.33,1.54,2.03,3.18,2.17,4.96c0.02,0.27,0.24,0.63,0.31,0.8c0.61,0.5,0.91,0.33,0.91-0.29
						c0-1.88-1.3-4.84-2.81-6.42c-0.38-0.39-0.69-0.51-0.87-0.18C98.81,97.34,98.94,97.77,99.27,98.16z"/>
				</g>
			</g>
		</g>
	</g>
</g>
<g id="Clouds">
	<path class="st2" d="M329.2,53.48l9.37,5.33v-3.32c-0.02-0.24-0.03-0.47-0.03-0.7c0-0.23,0.01-0.45,0.03-0.67v-0.08l0,0
		c0.34-4.4,3.67-6.08,7.73-3.74c1.73,1,3.32,2.58,4.61,4.43c0.92-5.97,5.79-8.13,11.67-4.73c6.54,3.78,11.84,12.96,11.84,20.51
		l0.01,7.11c0,1.14,0.61,2.2,1.59,2.78l5.51,3.23c2.43,1.43,3.93,4.04,3.93,6.86c0,2.52-2.73,4.1-4.91,2.83l-51.22-29.59
		c-2.77-1.6-4.47-4.55-4.47-7.75C324.86,53.78,327.26,52.38,329.2,53.48z"/>
	<path class="st2" d="M400.63,52.09l6.82,3.88v-2.41c-0.01-0.17-0.02-0.34-0.02-0.51c0-0.17,0.01-0.33,0.02-0.49V52.5l0,0
		c0.25-3.2,2.67-4.42,5.62-2.72c1.26,0.73,2.42,1.88,3.36,3.22c0.67-4.34,4.21-5.91,8.49-3.44c4.76,2.75,8.61,9.42,8.61,14.92
		l0,5.17c0,0.83,0.44,1.6,1.16,2.02l4.01,2.35c1.77,1.04,2.86,2.94,2.86,4.99c0,1.83-1.98,2.98-3.57,2.06l-37.25-21.52
		c-2.01-1.16-3.25-3.31-3.25-5.64C397.48,52.31,399.22,51.29,400.63,52.09z"/>
</g>
</svg>
