<?xml version="1.0" encoding="utf-8"?>
<!-- Generator: Adobe Illustrator 25.4.1, SVG Export Plug-In . SVG Version: 6.00 Build 0)  -->
<svg version="1.1" xmlns="http://www.w3.org/2000/svg" xmlns:xlink="http://www.w3.org/1999/xlink" x="0px" y="0px"
	 viewBox="0 0 750 500" style="enable-background:new 0 0 750 500;" xml:space="preserve">
<style type="text/css">
	.st0{fill:none;stroke:#E0E0E0;stroke-width:8;stroke-linecap:round;stroke-linejoin:round;stroke-miterlimit:10;}
	.st1{fill:#E0E0E0;}
	.st2{fill:#EBEBEB;}
	.st3{fill:#E6E6E6;}
	.st4{enable-background:new    ;}
	.st5{fill:#F0F0F0;}
	.st6{opacity:0.6;fill:#FFFFFF;enable-background:new    ;}
	.st7{fill:#FFFFFF;}
	.st8{display:none;}
	.st9{display:inline;}
	.st10{fill:#407BFF;}
	.st11{opacity:0.9;fill:#FFFFFF;}
	.st12{fill:#F5F5F5;}
	.st13{fill:#263238;}
	.st14{opacity:0.2;fill:#FFFFFF;}
	.st15{fill:#EF7F1A;}
	.st16{opacity:0.2;fill:#FFFFFF;enable-background:new    ;}
	.st17{fill:none;stroke:#FFFFFF;stroke-width:0.5;stroke-miterlimit:10;}
	.st18{fill:none;stroke:#263238;stroke-miterlimit:10;}
	.st19{opacity:0.3;fill:#FFFFFF;}
	.st20{fill:#052669;}
	.st21{fill:none;stroke:#052669;stroke-linecap:round;stroke-linejoin:round;stroke-miterlimit:10;}
	.st22{fill:#FFB463;}
	.st23{opacity:0.7;fill:#FFFFFF;}
	.st24{fill:#FFBCB4;}
	.st25{opacity:0.3;}
	.st26{opacity:0.2;enable-background:new    ;}
	.st27{fill:#FF7168;}
	.st28{fill:#FF3F3E;}
	.st29{fill:none;stroke:#052669;stroke-width:0.5;stroke-miterlimit:10;}
	.st30{opacity:0.4;fill:#FFFFFF;}
	.st31{opacity:0.2;}
	.st32{fill:#FF904B;}
	.st33{opacity:0.2;fill:none;stroke:#000000;stroke-width:0.5;stroke-linecap:round;stroke-linejoin:round;stroke-miterlimit:10;}
</style>
<g id="Background_complete">
	<path class="st0" d="M232.91,171.97c27.35-13.07,61.8-9.72,86.13,8.36"/>
	<polygon class="st1" points="319.46,171.23 310.08,184.47 325.93,185.48 	"/>
	<g>
		<path class="st0" d="M417.94,378.08c21.42,9.41,45.33,14.14,68.43,10.4c23.09-3.74,45.17-16.6,57.35-36.57"/>
		<polygon class="st1" points="535.64,350.18 548.35,359.27 550.05,344.99 		"/>
	</g>
	<g>
		<g>
			<g>
				<path class="st2" d="M88.56,339.75c-0.15,0.35-0.64-0.32-0.48-2.31c0.09-1.2,0.38-2.7,0.71-3.87c1.31-4.62,0.65-7.81,1.96-12.43
					c2.49-8.82,7.48-19.8,15.54-25.08c2.8-1.83,7.23-2.77,9.26-0.22c1.52,1.91,0.68,4.58-0.22,6.8c-1.41,3.49-2.82,6.98-4.22,10.46
					c-2.21,5.48-4.46,11.02-7.97,15.89C99.61,333.87,94.64,338.08,88.56,339.75"/>
			</g>
			<g>
				<g>
					<path class="st1" d="M84.04,354.89c0.94-4.28,2.46-8.43,4.23-12.44c2.45-5.53,5.66-10.58,8.48-15.91
						c2.59-4.88,4.57-10.04,6.79-15.09c0.96-2.19,1.96-4.38,3.2-6.44c0.71-1.18,1.58-2.19,2.4-3.28c1.73-2.29,3.45-4.59,5.17-6.89
						c0.29-0.39-0.36-0.76-0.65-0.38c-1.6,2.12-3.19,4.25-4.79,6.37c-0.69,0.91-1.45,1.76-2.09,2.71c-1.25,1.84-2.23,3.86-3.15,5.88
						c-2.33,5.08-4.29,10.33-6.8,15.33c-2.71,5.39-6.04,10.42-8.57,15.91c-2.08,4.5-3.89,9.17-4.95,14.03
						C83.22,355.16,83.94,355.36,84.04,354.89L84.04,354.89z"/>
				</g>
			</g>
			<g>
				<path class="st2" d="M70.85,349.24c2.48-10.07,0.91-20.95-4.35-30.08c-5.26-9.13-14.16-16.42-24.61-20.18
					c-2.11-0.76-4.49-1.37-6.58-0.58c-2.23,0.85-3.5,3.15-3.6,5.37s0.77,4.38,1.77,6.4c3,6.07,7.26,11.54,11.49,16.95
					c4.15,5.32,8.31,10.63,12.46,15.95c1.32,1.69,2.68,3.42,4.57,4.57C63.89,348.79,68.87,350.25,70.85,349.24"/>
			</g>
			<g>
				<path class="st2" d="M81.46,322.05c2.57-2.6,4.8-12.15,4.75-13.76c-0.19-6.35,0.68-4.4,0.49-10.75
					c-0.36-12.13-4.78-27.53-13.52-36.61c-3.03-3.15-8.48-5.59-11.94-2.84c-2.59,2.06-2.37,5.76-1.93,8.89
					c0.69,4.91,1.38,9.83,2.07,14.74c1.09,7.72,2.19,15.53,5.17,22.82c2.98,7.29,8.05,14.12,15.4,17.98"/>
			</g>
			<g>
				<g>
					<path class="st1" d="M80.99,372.93c2.04-5.83-0.67-11.91-4.23-16.53c-4.08-5.3-9.34-9.62-12.57-15.57
						c-3.19-5.88-4.64-12.48-7.13-18.65c-1.74-4.32-4.65-8.1-7.95-11.36c-4.58-4.53-10.14-8.16-16.31-10.08
						c-0.46-0.14-0.66,0.58-0.2,0.72c5.58,1.73,10.65,4.91,14.92,8.87c3.43,3.18,6.59,6.95,8.49,11.26
						c2.45,5.58,3.76,11.58,6.29,17.13c2.64,5.78,6.86,10.12,11.04,14.79c4.59,5.12,9.43,12.01,6.91,19.22
						C80.1,373.19,80.83,373.39,80.99,372.93L80.99,372.93z"/>
				</g>
			</g>
			<g>
				<g>
					<path class="st1" d="M86.58,374.76c-0.79-8.6-2.22-17.12-3.28-25.68c-0.56-4.51-1-9.04-1.24-13.58
						c-0.25-4.8-0.11-9.59-0.26-14.39c-0.29-9.3-1.55-18.58-3.71-27.64c-1.12-4.68-2.48-9.3-4.09-13.84
						c-1.46-4.12-3.01-8.33-5-12.22c-1.8-3.52-3.85-6.94-5.77-10.4c-0.23-0.42-0.88-0.04-0.65,0.38c1.83,3.29,3.65,6.58,5.48,9.87
						c1.67,3.01,2.89,6.35,4.11,9.56c1.68,4.43,3.14,8.95,4.35,13.53c2.43,9.16,3.91,18.57,4.41,28.04
						c0.25,4.79,0.09,9.58,0.26,14.37c0.15,4.48,0.51,8.95,1.01,13.41c1.07,9.55,2.75,19.03,3.62,28.61
						C85.88,375.24,86.63,375.24,86.58,374.76L86.58,374.76z"/>
				</g>
			</g>
		</g>
		<path class="st3" d="M62.04,353.41h40.9c0,0,2.99,6.87-2.99,8.8l-3.73,22.54H68.01l-3.13-22.13
			C64.88,362.62,60.25,360.83,62.04,353.41z"/>
		<g class="st4">
			<path class="st1" d="M64.88,362.62c11.5,0,23.58-0.41,35.08-0.41l-0.38,2.32H65.15L64.88,362.62z"/>
		</g>
	</g>
	<rect x="60.27" y="119.74" class="st5" width="37.11" height="11.53"/>
	<rect x="168.89" y="42.85" class="st5" width="37.11" height="11.53"/>
	<rect x="400.91" y="42.6" class="st5" width="37.11" height="11.53"/>
	<g>
		<rect x="672.21" y="148.52" class="st5" width="37.11" height="11.53"/>
		<rect x="653.66" y="137.38" class="st2" width="37.11" height="11.53"/>
	</g>
	<rect x="569.61" y="367.06" class="st1" width="37.11" height="11.53"/>
	<rect x="427.85" y="244.27" class="st2" width="37.11" height="11.53"/>
	<rect x="444.77" y="232.74" class="st5" width="37.11" height="11.53"/>
	<rect x="101.33" y="222.41" class="st1" width="37.11" height="11.53"/>
	<rect x="234.28" y="286.43" class="st5" width="37.11" height="11.53"/>
	<g>
		<rect x="659.3" y="279.53" class="st2" width="37.11" height="11.53"/>
		<rect x="608.9" y="229.21" class="st5" width="37.11" height="11.53"/>
	</g>
	<g>
		<rect x="270.44" y="80.39" class="st2" width="37.11" height="11.53"/>
		<rect x="250.56" y="92.05" class="st5" width="39.42" height="11.53"/>
	</g>
	<rect x="479.67" y="95.31" class="st1" width="37.11" height="11.53"/>
	<rect x="496.87" y="105.9" class="st5" width="37.11" height="11.53"/>
	<g>
		<rect x="112.88" y="74.46" class="st1" width="72.49" height="115.19"/>
		<rect x="118.34" y="79.83" class="st6" width="61.59" height="104.44"/>
		<rect x="122.41" y="83.6" class="st7" width="53.44" height="96.92"/>
		<rect x="134.69" y="96.31" class="st3" width="29.6" height="70.38"/>
		<path class="st6" d="M125.53,85.71c0,0-0.95,70.3,0.48,70.06c1.43-0.24,38.12-69.22,38.28-69.94L125.53,85.71z"/>
	</g>
	<g>
		<rect x="567.78" y="76.58" class="st1" width="72.49" height="115.19"/>
		<rect x="573.23" y="81.95" class="st6" width="61.59" height="104.44"/>
		<rect x="577.31" y="85.71" class="st7" width="53.44" height="96.92"/>
		<rect x="589.59" y="98.42" class="st3" width="29.6" height="70.38"/>
		<path class="st6" d="M580.43,87.83c0,0-0.96,70.3,0.48,70.06c1.43-0.24,38.12-69.22,38.28-69.94L580.43,87.83z"/>
	</g>
	<g>
		<rect x="352.42" y="75.02" class="st1" width="72.49" height="115.19"/>
		<rect x="357.87" y="80.39" class="st6" width="61.59" height="104.44"/>
		<rect x="361.95" y="84.15" class="st7" width="53.44" height="96.92"/>
		<rect x="374.23" y="96.86" class="st3" width="29.6" height="70.38"/>
		<path class="st6" d="M365.07,86.27c0,0-0.95,70.3,0.48,70.06c1.43-0.24,38.12-69.22,38.28-69.94L365.07,86.27z"/>
	</g>
	<g>
		<g>
			<g>
				<g>
					<g>
						<g>
							<path class="st1" d="M673.73,323.37H492.99c-3.23,0-5.86-2.63-5.86-5.86V54.23c0-3.23,2.63-5.86,5.86-5.86h180.75
								c3.23,0,5.86,2.63,5.86,5.86V317.5C679.6,320.74,676.97,323.37,673.73,323.37z M492.99,48.62c-3.09,0-5.61,2.52-5.61,5.61
								V317.5c0,3.09,2.52,5.61,5.61,5.61h180.75c3.09,0,5.61-2.52,5.61-5.61V54.23c0-3.09-2.52-5.61-5.61-5.61H492.99z"/>
						</g>
					</g>
					<g>
						<g>
							<path class="st1" d="M465.31,323.37H284.56c-3.23,0-5.86-2.63-5.86-5.86V54.23c0-3.23,2.63-5.86,5.86-5.86h180.75
								c3.23,0,5.86,2.63,5.86,5.86V317.5C471.17,320.74,468.54,323.37,465.31,323.37z M284.56,48.62c-3.09,0-5.61,2.52-5.61,5.61
								V317.5c0,3.09,2.52,5.61,5.61,5.61h180.75c3.09,0,5.61-2.52,5.61-5.61V54.23c0-3.09-2.52-5.61-5.61-5.61H284.56z"/>
						</g>
					</g>
				</g>
				<g>
					<g>
						<g>
							<path class="st1" d="M257.01,323.37H76.27c-3.23,0-5.86-2.63-5.86-5.86V54.23c0-3.23,2.63-5.86,5.86-5.86h180.75
								c3.23,0,5.86,2.63,5.86,5.86V317.5C262.87,320.74,260.24,323.37,257.01,323.37z M76.27,48.62c-3.09,0-5.61,2.52-5.61,5.61
								V317.5c0,3.09,2.52,5.61,5.61,5.61h180.75c3.09,0,5.61-2.52,5.61-5.61V54.23c0-3.09-2.52-5.61-5.61-5.61H76.27z"/>
						</g>
					</g>
				</g>
			</g>
			<g>
				<g>
					<rect y="384.43" class="st1" width="750" height="0.12"/>
				</g>
			</g>
		</g>
		<g>
			<rect x="653.63" y="413.81" class="st2" width="55.73" height="0.42"/>
			<rect x="495.04" y="418.38" class="st2" width="14.63" height="0.42"/>
			<rect x="40.64" y="401.01" class="st2" width="72.67" height="0.42"/>
			<rect x="128.3" y="401.01" class="st2" width="10.66" height="0.42"/>
			<rect x="173.59" y="408.12" class="st2" width="157.61" height="0.42"/>
		</g>
	</g>
</g>
<g id="Background_simple" class="st8">
	<g class="st9">
		<path class="st10" d="M271.94,37.17c-35.09,2.16-68.92,6.76-98.93,13.98c-35.37,8.51-71.5,21.76-60.83,39.09
			c19.7,32,114.23,32.58,95.36,54.1c-21.38,24.37-7.04,52.96,88.89,60.91c182.21,15.1,402.47-73.25,340.6-121.79
			C598.51,53.22,458.24,25.69,271.94,37.17z"/>
		<path class="st11" d="M271.94,37.17c-35.09,2.16-68.92,6.76-98.93,13.98c-35.37,8.51-71.5,21.76-60.83,39.09
			c19.7,32,114.23,32.58,95.36,54.1c-21.38,24.37-7.04,52.96,88.89,60.91c182.21,15.1,402.47-73.25,340.6-121.79
			C598.51,53.22,458.24,25.69,271.94,37.17z"/>
	</g>
</g>
<g id="Shadow">
	<g>
		<g>
			<path class="st12" d="M705.28,436.22c0,6.69-147.87,12.11-330.28,12.11s-330.28-5.42-330.28-12.11
				c0-6.69,147.87-12.11,330.28-12.11S705.28,429.53,705.28,436.22z"/>
		</g>
	</g>
</g>
<g id="Lines">
	<g>
		<g>
			<g>
				<path class="st13" d="M353.71,53.19c2.16,1.74,4.39,3.39,6.54,5.13c0.37,0.3,0.91-0.23,0.53-0.53
					c-2.16-1.74-4.39-3.39-6.54-5.13C353.87,52.36,353.34,52.88,353.71,53.19L353.71,53.19z"/>
			</g>
		</g>
		<g>
			<g>
				<path class="st13" d="M375.37,56.51c0-4.55,0-9.11,0-13.66c0-0.48-0.75-0.48-0.75,0c0,4.55,0,9.11,0,13.66
					C374.62,56.99,375.37,56.99,375.37,56.51L375.37,56.51z"/>
			</g>
		</g>
		<g>
			<g>
				<path class="st13" d="M389.62,58.76c1.93-2,3.86-4,5.79-6.01c0.33-0.35-0.19-0.88-0.53-0.53c-1.93,2-3.86,4-5.79,6.01
					C388.76,58.57,389.29,59.1,389.62,58.76L389.62,58.76z"/>
			</g>
		</g>
	</g>
</g>
<g id="Light_Bulb">
	<g>
		<g>
			<path class="st13" d="M358.74,137.43c0,0,2.02,8.18,3.2,9.74c1.18,1.56,25.32,1.18,26.33,0c1.01-1.18,2.98-9.74,2.98-9.74H358.74
				z"/>
			<path class="st14" d="M358.74,137.43c0,0,2.02,8.18,3.2,9.74c1.18,1.56,25.32,1.18,26.33,0c1.01-1.18,2.98-9.74,2.98-9.74H358.74
				z"/>
			<g>
				<g>
					<g>
						<path class="st15" d="M375.37,62.16c-17.6-0.21-32.03,13.89-32.24,31.49c-0.11,9.55,4.06,18.65,11.38,24.79
							c1.35,1.11,3.4,2.45,3.36,5.24c0,0.09,0.14,6.96,0.14,6.96h33.52c0,0,0.14-7.15,0.14-7.23c0-2.45,1.9-3.51,3.29-4.61
							c7.41-5.94,11.78-14.89,11.9-24.4C407.07,76.8,392.97,62.37,375.37,62.16z"/>
						<path class="st16" d="M391.22,75.89c0,6.2-7.26,11.25-16.26,11.25c-9,0-16.26-5.04-16.26-11.25c0-6.2,7.26-11.26,16.26-11.26
							C383.95,64.64,391.22,69.68,391.22,75.89z"/>
					</g>
					<path class="st17" d="M350.72,106.14c-2.77-4.76-3.88-10.46-3.07-15.91c0.8-5.45,3.51-10.59,7.54-14.34"/>
					<path class="st18" d="M368.11,123.67c2.44-8.32,2.87-17.4,1.23-25.97c-0.27-1.39-0.89-3.05-2.13-3.09
						c-1.11-0.03-1.84,1.34-2.08,2.58c-0.85,4.38,1.42,8.83,4.33,11.85c1.57,1.64,3.48,3.07,5.61,3.17c2.14,0.1,4.17-1.16,5.72-2.84
						c2.96-3.22,4.43-8.27,3.36-12.77c-0.45-1.9-1.8-3.95-3.5-3.58c-1.02,0.22-1.77,1.3-2.04,2.45c-0.26,1.15-0.13,2.36,0.02,3.54
						c1.08,8.47,3.15,16.78,6.13,24.64"/>
				</g>
			</g>
			<path class="st13" d="M393.78,132.3h-37.85c-0.87,0-1.58-0.71-1.58-1.58v-0.88c0-0.87,0.71-1.58,1.58-1.58h37.85
				c0.87,0,1.58,0.71,1.58,1.58v0.88C395.37,131.59,394.66,132.3,393.78,132.3z"/>
			<path class="st19" d="M393.78,132.3h-37.85c-0.87,0-1.58-0.71-1.58-1.58v-0.88c0-0.87,0.71-1.58,1.58-1.58h37.85
				c0.87,0,1.58,0.71,1.58,1.58v0.88C395.37,131.59,394.66,132.3,393.78,132.3z"/>
			<path class="st13" d="M393.14,136.21h-36.56c-0.86,0-1.56-0.7-1.56-1.56v-0.79c0-0.86,0.7-1.56,1.56-1.56h36.56
				c0.86,0,1.56,0.7,1.56,1.56v0.79C394.7,135.51,394,136.21,393.14,136.21z"/>
			<path class="st19" d="M393.14,136.21h-36.56c-0.86,0-1.56-0.7-1.56-1.56v-0.79c0-0.86,0.7-1.56,1.56-1.56h36.56
				c0.86,0,1.56,0.7,1.56,1.56v0.79C394.7,135.51,394,136.21,393.14,136.21z"/>
			<path class="st13" d="M391.6,139.99h-33.01c-0.86,0-1.56-0.7-1.56-1.56v-0.79c0-0.86,0.7-1.56,1.56-1.56h33.01
				c0.86,0,1.56,0.7,1.56,1.56v0.79C393.16,139.3,392.46,139.99,391.6,139.99z"/>
			<path class="st19" d="M391.6,139.99h-33.01c-0.86,0-1.56-0.7-1.56-1.56v-0.79c0-0.86,0.7-1.56,1.56-1.56h33.01
				c0.86,0,1.56,0.7,1.56,1.56v0.79C393.16,139.3,392.46,139.99,391.6,139.99z"/>
		</g>
	</g>
</g>
<g id="Speech_Bubble_2">
	<g>
		<g>
			<g>
				<g>
					<path class="st20" d="M570.86,110.68c-9.57-7.18-23.27-4.93-30.01,5.14c-5.94,8.88-4.09,21.1,4.19,27.85
						c7.22,5.88,17.04,6.11,24.4,1.48l5.02,1.44c0.49,0.14,0.97-0.26,0.92-0.77l-0.56-5.55c0.07-0.09,0.15-0.17,0.22-0.27
						C581.98,130.75,580.11,117.62,570.86,110.68z"/>
				</g>
				<path class="st21" d="M534.25,125.27c-0.35-6.8,2.98-13.68,8.52-17.64"/>
				<path class="st21" d="M545.38,105.91c0.8-0.66,1.74-1.16,2.73-1.45"/>
			</g>
		</g>
		<g>
			<polygon class="st7" points="557.36,138.43 546.71,130.5 549.48,126.78 556.62,132.1 566.43,120.4 569.98,123.37 			"/>
		</g>
	</g>
</g>
<g id="Speech_Bubble_1">
	<g>
		<g>
			<g>
				<g>
					<path class="st20" d="M250.59,139.47c6.29-10.17,2.82-23.62-7.82-29.42c-9.38-5.11-21.38-2.18-27.36,6.67
						c-5.2,7.71-4.56,17.52,0.71,24.43l-0.99,5.13c-0.1,0.5,0.35,0.95,0.85,0.85l5.48-1.05c0.1,0.06,0.19,0.14,0.29,0.2
						C231.6,152.36,244.51,149.32,250.59,139.47z"/>
				</g>
				<path class="st21" d="M232.78,104.33c6.74-0.96,13.89,1.74,18.33,6.91"/>
				<path class="st21" d="M253.06,113.67c0.73,0.74,1.31,1.62,1.69,2.59"/>
			</g>
		</g>
		<g>
			<polygon class="st7" points="231.79,138.43 221.14,130.5 223.91,126.78 231.05,132.1 240.86,120.4 244.41,123.37 			"/>
		</g>
	</g>
</g>
<g id="Gear">
	<path class="st20" d="M390.59,309.03c-1.89,0.27-3.67,0.9-5.27,1.82l-2.11-1.98l-4.17,3.69l1.7,2.34c-1.11,1.48-1.95,3.16-2.45,5
		l-2.88,0.09l-0.35,5.56l2.85,0.45c0.27,1.89,0.9,3.67,1.82,5.27l-1.98,2.11l3.69,4.17l2.33-1.7c1.48,1.11,3.16,1.95,5,2.45
		l0.09,2.88l5.56,0.35l0.45-2.85c1.89-0.27,3.67-0.9,5.27-1.82l2.11,1.98l4.17-3.69l-1.7-2.33c1.1-1.48,1.95-3.16,2.45-5l2.88-0.09
		l0.35-5.56l-2.85-0.45c-0.27-1.89-0.9-3.67-1.82-5.27l1.98-2.11l-3.69-4.17l-2.33,1.7c-1.48-1.11-3.16-1.95-5-2.45l-0.09-2.88
		l-5.56-0.35L390.59,309.03z M400.26,324.32c-0.26,4.16-3.84,7.32-7.99,7.06c-4.16-0.26-7.32-3.84-7.06-7.99
		c0.26-4.16,3.84-7.32,7.99-7.06C397.36,316.58,400.52,320.16,400.26,324.32z"/>
</g>
<g id="Character_2">
	<g>
		<path class="st22" d="M544.33,231.9c0,0-4.16-2.21-5.45-3.94c-1.29-1.73-1.51-1.52-1.6-1.56c-0.1-0.04-5.31-0.23-6.07-0.82
			c-0.76-0.59-0.9-1.62-0.35-1.76c0.55-0.14,5.06,0.54,6.22,0.34c1.16-0.2-0.72-0.64-3.82-0.98c-3.1-0.33-5.76-0.99-5.56-2.48
			c0.2-1.48,7.32,0.47,9.24,0.35c1.93-0.13-1.65-0.51-4.34-1.45c-2.68-0.94-4.93-1.26-4.36-2.77c0.57-1.52,9.24,1.86,10.71,1.44
			c1.47-0.42,0.01-1.42-1.43-2.23c-1.44-0.81-4.28-0.8-4.84-1.83c-0.57-1.04,0.05-1.52,1.09-1.56c1.04-0.05,5.9,1.03,7.07,1.96
			c0,0,0.6-1.24,1.32-1.11c0.72,0.12,1.13,3.06,1.88,4.08c0.75,1.02,3.42,7.98,3.42,7.98L544.33,231.9z"/>
		<path class="st20" d="M596.87,195.73c-6.87,6.81-15.51,33.79-15.2,34.68c0.31,0.89-33.68-7.3-33.68-7.3s-5.94,10.13-3.26,11.95
			c2.68,1.82,42.59,15.7,46.44,10.33c3.18-4.43,11.57-30.92,14.17-41.45L596.87,195.73z"/>
		<path class="st23" d="M596.87,195.73c-6.87,6.81-15.51,33.79-15.2,34.68c0.31,0.89-33.68-7.3-33.68-7.3s-5.94,10.13-3.26,11.95
			c2.68,1.82,42.59,15.7,46.44,10.33c3.18-4.43,11.57-30.92,14.17-41.45L596.87,195.73z"/>
	</g>
	<g>
		<g>
			<path class="st24" d="M610.05,268.1c0,0-1.56,49.35-0.99,81.83c4.76,25.53,39.78,69.65,36.31,76.56c0.12,1.55,7.54-3.76,9-4.69
				c0,0-7.66-49.35-23.49-76.43c8.68-32.73,2.89-78.75,2.89-78.75L610.05,268.1z"/>
			<path class="st25" d="M608.98,344.61c0,0,15.07,2.22,23.13-4.47l0.39-1.9l-23.57,3.36L608.98,344.61z"/>
			<path class="st24" d="M615.27,257.86c0,0,29.68,51.73,42.89,77.51c13.86,27.08,35,73.17,38.54,92.7
				c1.88,0.51,4.88-0.19,7.84-2.15c0,0-4.69-67.62-26.07-94.81c-12.93-69.49-35.38-80.87-35.38-80.87L615.27,257.86z"/>
			<polygon class="st25" points="655.79,330.8 657.61,334.3 677.17,324.46 676.51,321.49 			"/>
			<g>
				<path class="st13" d="M704.45,437.05h-1.86l-0.52-2.3l-6.16,2.74h-15.6c0,0-2.48-2.5,4.95-4.49c0.36-0.1,0.72-0.23,1.05-0.4
					c3.97-1.86,9.61-8.14,9.61-8.14h8.57c0.26,0.4,0.5,0.81,0.7,1.24C706.14,427.62,707.73,431.57,704.45,437.05z"/>
				<path class="st24" d="M705.18,425.79L705.18,425.79c-1.13-1.3-6.28,4.28-10.05,6.16c-3.37,1.68-7.15,2.42-8.83,0.72
					c3.97-1.86,10.21-9.97,10.21-9.97h6.89C703.4,422.69,704.84,424.93,705.18,425.79z"/>
			</g>
			<path class="st13" d="M655.25,435.81h-1.86l-0.52-2.3l-6.16,2.74h-15.6c0,0-2.48-2.5,4.95-4.49c0.36-0.1,0.72-0.23,1.05-0.4
				c3.97-1.86,9.61-8.14,9.61-8.14h8.57c0.26,0.4,0.5,0.81,0.7,1.24C656.98,426.39,658.54,430.34,655.25,435.81z"/>
			<path class="st24" d="M655.98,424.55L655.98,424.55c-1.13-1.3-6.28,4.28-10.05,6.16c-3.37,1.68-7.15,2.42-8.83,0.72
				c3.97-1.86,10.21-9.97,10.21-9.97h6.89C654.2,421.46,655.57,423.69,655.98,424.55z"/>
			<path class="st13" d="M643.61,239.94l-0.21-2.27c-12.48,4.21-22.68,8.22-35.77,9.73l0.73,4.11c-0.81,7.4-0.47,68.13-0.47,90.37
				c17.57,0.31,47.45-9.48,70.82-21C676.67,310.89,663.92,249.1,643.61,239.94z"/>
			<g>
				<g>
					<path d="M643.66,272.23c-2.21,14.9-3.55,29.92-4.01,44.97c-0.01,0.48,0.74,0.48,0.75,0c0.46-14.99,1.79-29.94,3.99-44.77
						C644.45,271.96,643.73,271.76,643.66,272.23L643.66,272.23z"/>
				</g>
			</g>
		</g>
		<g>
			<path class="st13" d="M622.91,183.78c-1.72-7.12-1.06-14.69-3.18-21.7c-1.84-6.08-5.89-11.59-11.49-14.59
				c-5.35-2.86-12.1-3.19-17.48-0.45c-3.72,1-6.7,4.24-8.27,7.83c-1.79,4.09-2.14,8.63-2.64,13.06c-0.51,4.43-1.26,9-3.72,12.72
				c-1.24,1.88-2.87,3.47-4.21,5.27c-1.34,1.81-2.42,3.95-2.3,6.2c0.12,2.25,1.79,4.51,4.03,4.68c2.02,0.15,4.01-1.33,5.95-0.75
				c1.59,0.48,2.44,2.14,3.39,3.51c2.75,3.96,7.49,6.22,12.27,6.91c4.78,0.68,9.65-0.04,14.37-1.02c3.12-0.65,6.27-1.43,9.03-3.02
				c2.76-1.59,5.13-4.12,5.86-7.22C625.42,191.43,623.82,187.57,622.91,183.78z"/>
		</g>
		<polygon class="st25" points="596.97,225.83 593.53,215.87 591.91,224.91 		"/>
		<path class="st20" d="M592.58,205.4c-0.42,8.03,2.03,15.35,4.39,20.43c2.89,6.7,6.77,29,12.07,28.37
			c4.57,0.76,23.16-7.29,34.64-13.47c5.1-3.89-10.29-10.62-10.43-42.88c0-5.57-5.79-13.77-11.4-12.21c-1.5,0.42-3.07,0.89-4.67,1.41
			c-5.66,1.74-11.19,3.86-16.56,6.35c-1.74,0.85,1.7-0.93,0,0C594.48,196.61,593.25,198.99,592.58,205.4z"/>
		<path class="st23" d="M592.58,205.4c-0.42,8.03,2.03,15.35,4.39,20.43c2.89,6.7,6.77,29,12.07,28.37
			c4.57,0.76,23.16-7.29,34.64-13.47c5.1-3.89-10.29-10.62-10.43-42.88c0-5.57-5.79-13.77-11.4-12.21c-1.5,0.42-3.07,0.89-4.67,1.41
			c-5.66,1.74-11.19,3.86-16.56,6.35c-1.74,0.85,1.7-0.93,0,0C594.48,196.61,593.25,198.99,592.58,205.4z"/>
		<path class="st24" d="M609.08,169.58c0.44,5.89,1.67,15.72,6.44,18.07c0,0-1.75,4.93-9.7,9.09c-0.03,3.3,0.13,6.6,0.46,9.88
			c0,0-3.55-6.54-3.34-9.04c-9.41,2.45-3.67-3.35-3.67-3.35c5.62-3.6,4.19-8.11,1.99-12.03L609.08,169.58z"/>
		<path class="st26" d="M606.02,176.34l-3.87,7.89c0.62,0.85,0.93,2.51,0.93,2.51c2.08-1.36,4.83-5.07,4.21-7.59
			C607.05,178.14,606.62,177.19,606.02,176.34z"/>
		<path class="st24" d="M610.58,159.2c1.43,9.26,2.24,13.14-1.24,19.06c-5.24,8.9-16.64,9.22-20.76,0.7
			c-3.7-7.66-5.44-21.52,2.49-27.54c5.14-4.2,12.71-3.43,16.91,1.71C609.39,154.87,610.3,156.97,610.58,159.2z"/>
		<path class="st13" d="M600.88,155.57c6.98,4.49,6.81,34.72,16.5,30.82c9.7-3.9-6.37-36.01-13.33-37.1
			C597.09,148.2,600.88,155.57,600.88,155.57z"/>
		<path class="st13" d="M604.07,149.41c0.87,6.35,0.46,8.23-5.38,8.49c0.36-1.47,0.21-3.02-0.45-4.38c-0.01,1.61-0.66,3.15-1.79,4.3
			c-1.62-0.1-3.26-0.04-4.87,0.2c-0.02-0.92-0.24-1.83-0.65-2.65c-0.06,1.14-0.45,2.24-1.13,3.16c-1.61,0.59-3.11,1.44-4.45,2.51
			C583.16,154.77,591.35,144.3,604.07,149.41z"/>
		<path class="st24" d="M613.62,165.61c-0.17,1.8-1.09,3.45-2.53,4.54c-1.83,1.26-3.52-0.75-3.67-3.31c-0.14-2.3,0.64-5.75,2.81-5.9
			C612.4,160.77,613.91,163.21,613.62,165.61z"/>
		<g>
			<path class="st13" d="M597.95,165.73c0.26,0.85,0.01,1.72-0.57,1.95c-0.58,0.23-1.26-0.27-1.53-1.12
				c-0.26-0.85-0.01-1.72,0.57-1.96C597,164.38,597.69,164.88,597.95,165.73z"/>
			<path class="st13" d="M599.02,161.16c-0.11,0.04-0.24,0.04-0.35-0.02c-1.76-0.92-3.23-0.04-3.25-0.03
				c-0.22,0.13-0.49,0.06-0.61-0.16c-0.12-0.23-0.04-0.52,0.18-0.65c0.08-0.05,1.91-1.16,4.1-0.02c0.22,0.11,0.3,0.4,0.18,0.64
				C599.22,161.04,599.13,161.12,599.02,161.16z"/>
			<path class="st13" d="M584.95,163.72c-0.12,0-0.23-0.04-0.31-0.13c-0.17-0.18-0.15-0.47,0.04-0.65c1.93-1.83,4.01-1.45,4.1-1.43
				c0.25,0.05,0.39,0.29,0.33,0.54c-0.07,0.25-0.32,0.41-0.57,0.36c-0.08-0.02-1.7-0.29-3.23,1.17
				C585.2,163.67,585.08,163.72,584.95,163.72z"/>
			<path class="st27" d="M591.29,166.37c0,0-0.47,3.82-1.48,6.4c-0.18,0.45,0.15,0.95,0.63,0.98c1.24,0.1,2.46-0.65,2.46-0.65
				L591.29,166.37z"/>
			<path class="st13" d="M596.63,164.51l-2.22,0.28C594.41,164.79,597.2,165.77,596.63,164.51z"/>
			<path class="st13" d="M589.81,167.73c0.26,0.85,0.01,1.72-0.57,1.95c-0.58,0.23-1.26-0.27-1.53-1.12
				c-0.26-0.85-0.01-1.72,0.57-1.96C588.86,166.38,589.54,166.88,589.81,167.73z"/>
			<path class="st13" d="M588.37,166.59l-2.22,0.28C586.15,166.87,588.12,167.88,588.37,166.59z"/>
			<g class="st25">
				<g>
					<path d="M610.34,163.11c0.68,0.35,1.02,1.11,1.06,1.85c0.04,0.99-0.39,1.93-0.78,2.81c-0.08,0.19-0.05,0.4,0.13,0.51
						c0.16,0.1,0.43,0.05,0.51-0.13c0.47-1.04,0.98-2.16,0.88-3.33c-0.08-0.95-0.54-1.9-1.42-2.35
						C610.29,162.24,609.92,162.89,610.34,163.11L610.34,163.11z"/>
				</g>
			</g>
		</g>
		<g>
			<path class="st13" d="M593.81,175.89c1.01,0.77,2.49,2.45,2.49,2.45c0.18-0.11,0.35-0.21,0.52-0.33
				c2.34-1.51,2.93-2.98,2.88-4.16c-0.03-0.64-0.27-1.2-0.52-1.62c-0.28-0.49-0.59-0.77-0.59-0.77c-0.77,1.54-2.84,3.12-3.99,3.91
				C594.13,175.7,593.81,175.89,593.81,175.89z"/>
			<path class="st7" d="M594.6,175.37l0.75,0.7c2.21-1.43,3.57-2.73,3.83-3.84c-0.28-0.49-0.59-0.77-0.59-0.77
				C597.83,173,595.75,174.57,594.6,175.37z"/>
			<path class="st28" d="M596.83,178.01c2.34-1.51,2.93-2.98,2.88-4.16c-0.78,0.54-1.66,1.29-2.27,2.19
				C596.96,176.73,596.82,177.41,596.83,178.01z"/>
		</g>
		<path class="st25" d="M601.92,242.19l0.66,2.05c0,0,15.46,1.1,18.24-0.87c2.77-1.97,10.4-38.11,10.4-38.11
			s-14.11,33.08-14.75,33.78C615.82,239.74,601.92,242.19,601.92,242.19z"/>
		<g class="st25">
			<g>
				<path d="M591.47,147.88c-4.92,1.94-8.38,6.81-8.57,12.1c-0.02,0.48,0.73,0.48,0.75,0c0.17-4.93,3.42-9.56,8.01-11.38
					C592.11,148.43,591.92,147.71,591.47,147.88L591.47,147.88z"/>
			</g>
		</g>
		<g>
			<path class="st15" d="M421.83,167.03c-9.74,6.49-17.91,14.69-24.37,23.99l-16.89-5.37l-13.37,31.46l15.6,8.43
				c-2.22,11.09-2.44,22.67-0.36,34.19l-15.7,8.12l12.79,31.7l16.94-5.05c6.49,9.74,14.69,17.91,23.99,24.36l-5.37,16.89
				l31.46,13.37l8.43-15.59c11.1,2.22,22.68,2.44,34.19,0.36l8.12,15.7l31.7-12.79l-5.05-16.94c9.74-6.49,17.91-14.69,24.36-23.99
				l16.89,5.37l13.37-31.46l-15.59-8.43c2.22-11.1,2.44-22.67,0.35-34.19l15.7-8.12l-12.79-31.7l-16.94,5.05
				c-6.49-9.74-14.69-17.92-23.99-24.37l5.37-16.89l-31.46-13.37l-8.43,15.59c-11.1-2.22-22.67-2.44-34.19-0.36l-8.12-15.7
				l-31.7,12.79L421.83,167.03z M515.79,226.12c9.56,23.7-1.9,50.66-25.59,60.22c-23.7,9.56-50.66-1.9-60.23-25.59
				c-9.56-23.7,1.89-50.66,25.59-60.22C479.27,190.97,506.23,202.43,515.79,226.12z"/>
			<g>
				<g class="st25">
					<path class="st7" d="M430.75,180.55c-1.13,5.06-1.96,10.6,0.38,15.22c2.86,5.65,9.12,7.85,15.49,9.58
						c2.74-1.89,5.73-3.52,8.94-4.82c7.45-3.01,15.22-3.93,22.67-3.06c-2-11.8,4.71-24.36,13.26-33.3
						c6.92-7.23,15.12-13.26,22.23-20.25l-14.5-6.16l-8.43,15.59c-11.1-2.22-22.67-2.44-34.19-0.36l-8.12-15.7l-1.29,0.52
						C439.66,151.16,434.1,165.6,430.75,180.55z"/>
				</g>
				<g class="st25">
					<path class="st7" d="M519.45,290.11c0.83-10.77,0.08-21.89-2.56-32.39c-4.08,12.56-13.48,23.3-26.69,28.63
						c-0.06,0.02-0.12,0.04-0.18,0.07c-2.67,6.14-6.36,11.83-10.99,16.68c-15.41,16.14-38.92,22.4-56.36,35.88l23.87,10.14
						l8.43-15.59c11.1,2.22,22.68,2.44,34.19,0.36l8.12,15.7l7.68-3.1C511.89,328.21,517.95,309.53,519.45,290.11z"/>
				</g>
			</g>
		</g>
		<path class="st24" d="M574.53,231.9c0,0-4.16-2.21-5.45-3.94c-1.29-1.73-1.51-1.52-1.6-1.56c-0.1-0.04-5.31-0.23-6.07-0.82
			c-0.76-0.59-0.9-1.62-0.35-1.76c0.55-0.14,5.06,0.54,6.22,0.34c1.16-0.2-0.72-0.64-3.82-0.98c-3.1-0.33-5.76-0.99-5.56-2.48
			c0.2-1.48,7.32,0.47,9.24,0.35c1.93-0.13-1.65-0.51-4.34-1.45c-2.68-0.94-4.93-1.26-4.36-2.77c0.57-1.52,9.24,1.86,10.71,1.44
			c1.47-0.42,0.01-1.42-1.43-2.23s-4.28-0.8-4.84-1.83c-0.57-1.04,0.05-1.52,1.09-1.56c1.04-0.05,5.9,1.03,7.08,1.96
			c0,0,0.6-1.24,1.32-1.11s1.13,3.06,1.88,4.08c0.75,1.02,3.42,7.98,3.42,7.98L574.53,231.9z"/>
		<g>
			<path class="st20" d="M625.77,186.44c2.52,2.15,7.13,7.27,6.88,10.57c-0.78,10.3-10.52,40.38-13.7,44.82
				c-3.86,5.37-41.33-4.96-44.01-6.78c-2.68-1.82,3.26-11.95,3.26-11.95s29.81,3.71,29.5,2.83c-0.31-0.89,5.41-24.39,10.18-32.36
				C622.64,185.61,623.3,184.38,625.77,186.44C625.79,186.46,625.75,186.42,625.77,186.44z"/>
			<path class="st23" d="M625.77,186.44c2.52,2.15,7.13,7.27,6.88,10.57c-0.78,10.3-10.52,40.38-13.7,44.82
				c-3.86,5.37-41.33-4.96-44.01-6.78c-2.68-1.82,3.26-11.95,3.26-11.95s29.81,3.71,29.5,2.83c-0.31-0.89,5.41-24.39,10.18-32.36
				C622.64,185.61,623.3,184.38,625.77,186.44C625.79,186.46,625.75,186.42,625.77,186.44z"/>
			<g class="st25">
				<g>
					<path d="M608.06,226.04c1.72-7.33,3.65-14.61,5.88-21.8c0.98-3.14,2.01-6.28,3.24-9.33c0.74-1.82,1.51-4.03,2.93-5.45
						c0.34-0.34-0.19-0.87-0.53-0.53c-1.34,1.35-2.1,3.33-2.82,5.05c-1.28,3.06-2.34,6.22-3.33,9.39c-2.33,7.4-4.32,14.92-6.1,22.48
						C607.23,226.31,607.95,226.51,608.06,226.04L608.06,226.04z"/>
				</g>
			</g>
			<g class="st25">
				<g>
					<path d="M607.51,226.47c1.87,0.86,3.36,2.39,4.18,4.28c0.08,0.19,0.35,0.23,0.51,0.13c0.19-0.11,0.22-0.33,0.13-0.51
						c-0.86-1.99-2.48-3.64-4.45-4.55c-0.18-0.08-0.4-0.05-0.51,0.13C607.28,226.12,607.33,226.39,607.51,226.47L607.51,226.47z"/>
				</g>
			</g>
		</g>
		<g>
			<g>
				<path d="M574.44,235.3c2.44,1.14,5.09,1.9,7.65,2.7c3.75,1.17,7.55,2.25,11.42,2.95c0.47,0.09,0.67-0.64,0.2-0.72
					c-3.78-0.69-7.5-1.74-11.17-2.87c-2.58-0.8-5.27-1.56-7.72-2.71C574.38,234.45,574,235.09,574.44,235.3L574.44,235.3z"/>
			</g>
		</g>
	</g>
</g>
<g id="Character_1">
	<g>
		<g>
			<g>
				<g>
					<g>
						<g>
							<g>
								<polygon class="st13" points="85.04,406.68 82.84,423.13 93.04,423.47 104.21,399.23 								"/>
							</g>
						</g>
					</g>
				</g>
				<g>
					<g>
						<g>
							<g>
								<g>
									<g>
										<path class="st13" d="M84.13,421.29c1.32,1.29,4.26,1.19,5.62,0.2l0.1-1.92c0.29-1.61,0.89-2.36,2.62-2.09
											c0.85,0.13,1.89,1.2,2.55,2.76c1.18,2.81,2.63,3.97,2.63,3.97s7.65,4.08,10.41,5.02c1.65,0.56,3.85,1.39,4.99,3.2
											c0.33,0.52,0.61,1.13,0.86,1.85c0.2,0.59,0.16,1.91,0.16,1.94l-19.66-0.58c0,0-1.97-1.23-2.83-1.22
											c-1.52,0.01-2.24,1.31-2.24,1.31l-7.15-0.16c0,0-0.11-1.11-0.26-2.72l0,0c-0.07-0.73-0.14-1.55-0.23-2.43
											c-0.35-3.75,0.25-8.19,0.16-9.26C81.69,419.31,84.13,421.29,84.13,421.29z"/>
										<g>
											<g>
												<g>
													<g>
														<path class="st20" d="M101.78,426.24c-0.09-0.08-0.22-0.09-0.33-0.03c-0.48,0.28-0.88,0.68-1.16,1.19
															c-0.15,0.27,0.27,0.54,0.42,0.27c0.25-0.45,0.6-0.81,1.02-1.05C101.87,426.53,101.89,426.35,101.78,426.24
															C101.78,426.24,101.78,426.24,101.78,426.24z"/>
													</g>
												</g>
											</g>
										</g>
										<g>
											<g>
												<g>
													<g>
														<path class="st20" d="M100.28,425.38c-0.09-0.08-0.22-0.09-0.33-0.03c-0.48,0.28-0.88,0.68-1.16,1.19
															c-0.15,0.27,0.27,0.54,0.42,0.27c0.25-0.45,0.6-0.81,1.02-1.05C100.38,425.67,100.4,425.49,100.28,425.38
															C100.28,425.38,100.28,425.38,100.28,425.38z"/>
													</g>
												</g>
											</g>
										</g>
										<g>
											<g>
												<g>
													<g>
														<path class="st20" d="M98.74,424.57c-0.09-0.08-0.22-0.09-0.33-0.03c-0.48,0.28-0.88,0.68-1.16,1.19
															c-0.15,0.27,0.27,0.54,0.42,0.27c0.25-0.45,0.6-0.81,1.02-1.05C98.83,424.86,98.86,424.69,98.74,424.57
															C98.74,424.57,98.74,424.57,98.74,424.57z"/>
													</g>
												</g>
											</g>
										</g>
									</g>
								</g>
							</g>
						</g>
					</g>
				</g>
				<path class="st16" d="M113.53,433.43c0.13,0.29,0.25,0.59,0.37,0.92c0.2,0.59,0.16,1.91,0.16,1.94l-19.66-0.58
					c0,0-1.97-1.23-2.83-1.22c-1.52,0.01-2.24,1.31-2.24,1.31l-7.15-0.16c0,0-0.11-1.11-0.26-2.72l0,0
					c-0.01-0.13-0.03-0.27-0.04-0.4L113.53,433.43z"/>
				<path class="st29" d="M98.55,424.79c-0.04-0.68-0.08-1.37,0-2.05c0.08-0.68,0.29-1.36,0.7-1.91c0.19-0.25,0.47-0.49,0.79-0.47
					c0.33,0.03,0.57,0.35,0.68,0.67c0.21,0.61,0.09,1.3-0.21,1.87C100.21,423.47,99.06,424.4,98.55,424.79"/>
				<path class="st29" d="M98.47,424.79c-0.25-0.64-0.5-1.28-0.86-1.86c-0.36-0.58-0.83-1.11-1.43-1.44
					c-0.28-0.15-0.63-0.25-0.91-0.09c-0.29,0.17-0.37,0.55-0.34,0.89c0.07,0.64,0.46,1.22,0.97,1.61
					C96.41,424.29,97.84,424.65,98.47,424.79"/>
			</g>
			<g>
				<g>
					<g>
						<g>
							<g>
								<polygon class="st13" points="144,405 141.8,421.45 152,421.79 163.17,397.56 								"/>
							</g>
						</g>
					</g>
				</g>
				<g>
					<g>
						<g>
							<g>
								<g>
									<g>
										<path class="st13" d="M143.1,419.62c1.32,1.29,4.26,1.19,5.62,0.2l0.1-1.92c0.29-1.61,0.89-2.36,2.62-2.09
											c0.85,0.13,1.89,1.2,2.55,2.76c1.18,2.81,2.63,3.97,2.63,3.97s7.65,4.08,10.41,5.02c1.65,0.56,3.85,1.39,4.99,3.2
											c0.33,0.52,0.61,1.13,0.86,1.85c0.2,0.59,0.16,1.91,0.16,1.94l-19.66-0.58c0,0-1.97-1.23-2.83-1.22
											c-1.52,0.01-2.24,1.31-2.24,1.31l-7.15-0.16c0,0-0.11-1.11-0.26-2.72l0,0c-0.07-0.73-0.14-1.55-0.23-2.43
											c-0.35-3.75,0.25-8.19,0.16-9.26C140.65,417.64,143.1,419.62,143.1,419.62z"/>
										<g>
											<g>
												<g>
													<g>
														<path class="st20" d="M160.74,424.56c-0.09-0.08-0.22-0.09-0.33-0.03c-0.48,0.28-0.88,0.68-1.16,1.19
															c-0.15,0.27,0.27,0.54,0.42,0.27c0.25-0.45,0.6-0.81,1.02-1.05C160.83,424.86,160.86,424.68,160.74,424.56
															C160.74,424.57,160.74,424.57,160.74,424.56z"/>
													</g>
												</g>
											</g>
										</g>
										<g>
											<g>
												<g>
													<g>
														<path class="st20" d="M159.24,423.7c-0.09-0.08-0.22-0.09-0.33-0.03c-0.48,0.28-0.88,0.68-1.16,1.19
															c-0.15,0.27,0.27,0.54,0.42,0.27c0.25-0.45,0.6-0.81,1.02-1.05C159.34,423.99,159.36,423.82,159.24,423.7
															C159.25,423.71,159.24,423.7,159.24,423.7z"/>
													</g>
												</g>
											</g>
										</g>
										<g>
											<g>
												<g>
													<g>
														<path class="st20" d="M157.7,422.9c-0.09-0.08-0.22-0.09-0.33-0.03c-0.48,0.28-0.88,0.68-1.16,1.19
															c-0.15,0.27,0.27,0.54,0.42,0.27c0.25-0.45,0.6-0.81,1.02-1.05C157.79,423.19,157.82,423.01,157.7,422.9
															C157.7,422.9,157.7,422.9,157.7,422.9z"/>
													</g>
												</g>
											</g>
										</g>
									</g>
								</g>
							</g>
						</g>
					</g>
				</g>
				<path class="st16" d="M172.49,431.75c0.13,0.29,0.25,0.59,0.37,0.92c0.2,0.59,0.16,1.91,0.16,1.94l-19.66-0.58
					c0,0-1.97-1.23-2.83-1.22c-1.52,0.01-2.24,1.31-2.24,1.31l-7.15-0.16c0,0-0.11-1.11-0.26-2.72l0,0
					c-0.01-0.13-0.03-0.27-0.04-0.4L172.49,431.75z"/>
				<path class="st29" d="M157.51,423.12c-0.04-0.68-0.08-1.37,0-2.05c0.08-0.68,0.29-1.36,0.7-1.91c0.19-0.25,0.47-0.49,0.79-0.47
					c0.33,0.03,0.57,0.35,0.68,0.67c0.21,0.61,0.09,1.3-0.21,1.87C159.17,421.8,158.02,422.73,157.51,423.12"/>
				<path class="st29" d="M157.43,423.12c-0.25-0.64-0.5-1.28-0.86-1.86c-0.36-0.58-0.83-1.11-1.43-1.44
					c-0.28-0.15-0.63-0.25-0.91-0.09c-0.29,0.17-0.37,0.55-0.34,0.89c0.07,0.64,0.46,1.22,0.97,1.61
					C155.37,422.61,156.8,422.97,157.43,423.12"/>
			</g>
			<path class="st13" d="M142.18,241.54c0,0-16.52,37.01-33.66,88.5c-17.73,53.25-29.6,87.49-29.6,87.49l20.26,2.43
				c0,0,34.5-80.08,38.08-90.02c3.58-9.94,21.42-48.97,21.42-48.97s7.92,56.78,5.53,63.54c-2.39,6.76-25.51,71.33-25.51,71.33
				l18.09,2.41c0,0,30.88-57.04,34.06-81.69c3.18-24.65,3.01-84.93,3.01-84.93L142.18,241.54z"/>
			<polygon class="st26" points="158.67,280.98 171.19,276.29 163.26,285.82 161.42,302.29 			"/>
		</g>
		<g>
			<path class="st20" d="M174.79,167.97c-0.97,0.6-22.83,12.58-22.83,12.58l-0.67,38.45c0,0-11.08,19.21-9.08,24.34
				c2,5.12,30.15,19.15,40.82,17.27c10.68-1.89,16.13-16.28,16.13-16.28s8.33-42.03,8.76-53.87c0.43-11.83-3.13-18.26-3.42-19.07
				c-0.1-0.28-2.42-0.96-5.42-1.75c-5.77-1.5-14.08-3.36-14.08-3.36L174.79,167.97z"/>
			<path class="st23" d="M174.79,167.97c-0.97,0.6-22.83,12.58-22.83,12.58l-0.67,38.45c0,0-11.08,19.21-9.08,24.34
				c2,5.12,30.15,19.15,40.82,17.27c10.68-1.89,16.13-16.28,16.13-16.28s8.33-42.03,8.76-53.87c0.43-11.83-3.13-18.26-3.42-19.07
				c-0.1-0.28-2.42-0.96-5.42-1.75c-5.77-1.5-14.08-3.36-14.08-3.36L174.79,167.97z"/>
			<path class="st20" d="M186.25,185.64c0,0,0.69,40.59-14.28,65l4.65,8l8.6-6.27c0,0,13.74-48.59,4.05-67.99l1.7-5.57l-2.9-0.67
				l-2.53,0.75l-2.72,3.22L186.25,185.64z"/>
			<g>
				<path class="st26" d="M169.9,175.22c0.72,0.8,11.02,8.92,11.02,8.92l5.26-5.96c0.03-0.07-4.04,7.38-4.06,7.45l-1.6,0.55
					L169.9,175.22z"/>
				<path class="st26" d="M186.75,177.91l5.23,0.92c0,0,0.91-5.29,0.7-6.62c-0.21-1.33-0.83-3.52-0.83-3.52l0.63-0.15
					c0,0,1.42,3.49,1.13,6.4c-0.31,3.08-0.83,6.11-0.83,6.11L186.75,177.91z"/>
			</g>
			<path class="st26" d="M185.54,223.24c-10.03-22.44-22.57-33.54-22.57-33.54l20.43,36.26l17.18-3.44L185.54,223.24z"/>
		</g>
	</g>
	<path class="st20" d="M204.51,171.38c0,0,8.07-1.45,9.48,13.18c1.49,15.57,0.23,26.44,3.62,25.85c3.39-0.59,21.03-5.83,21.03-5.83
		l5.46,18.37c0,0-25.03,11.04-35.57,9.28c-10.54-1.76-9.78-20.32-9.78-20.32L204.51,171.38z"/>
	<path class="st23" d="M204.51,171.38c0,0,8.07-1.45,9.48,13.18c1.49,15.57,0.23,26.44,3.62,25.85c3.39-0.59,21.03-5.83,21.03-5.83
		l5.46,18.37c0,0-25.03,11.04-35.57,9.28c-10.54-1.76-9.78-20.32-9.78-20.32L204.51,171.38z"/>
	<g>
		<g>
			<path class="st13" d="M203.25,221.43c1.18-6.47,1.8-13.05,2.34-19.59c0.39-4.65,0.85-9.35,0.87-14.02c0-0.48-0.75-0.48-0.75,0
				c-0.01,4.56-0.47,9.14-0.84,13.68c-0.54,6.59-1.16,13.22-2.35,19.73C202.45,221.7,203.17,221.9,203.25,221.43L203.25,221.43z"/>
		</g>
	</g>
	<g>
		<path class="st20" d="M229.38,223.46c-8.09,6.6-14.64,14.58-19.57,23.39l-15.46-3.32l-9.16,29.07l14.57,6.15
			c-1.01,10.04-0.22,20.34,2.62,30.38l-13.24,8.56l14.08,27.04l14.6-5.94c6.6,8.08,14.58,14.64,23.39,19.57l-3.32,15.46l29.07,9.16
			l6.15-14.57c10.04,1.01,20.34,0.22,30.38-2.62l8.56,13.24l27.04-14.08l-5.94-14.6c8.08-6.6,14.64-14.58,19.56-23.39l15.46,3.32
			l9.16-29.07l-14.57-6.15c1.01-10.04,0.22-20.34-2.62-30.38l13.24-8.56l-14.08-27.04l-14.6,5.94c-6.6-8.09-14.58-14.64-23.39-19.57
			l3.32-15.46l-29.08-9.16l-6.14,14.57c-10.04-1.01-20.34-0.22-30.38,2.62l-8.56-13.24l-27.04,14.08L229.38,223.46z M317.87,267.84
			c10.53,20.21,2.67,45.14-17.54,55.66c-20.22,10.53-45.14,2.67-55.66-17.54c-10.53-20.22-2.67-45.14,17.54-55.66
			C282.42,239.77,307.34,247.62,317.87,267.84z"/>
		<path class="st30" d="M229.38,223.46c-8.09,6.6-14.64,14.58-19.57,23.39l-15.46-3.32l-9.16,29.07l14.57,6.15
			c-1.01,10.04-0.22,20.34,2.62,30.38l-13.24,8.56l14.08,27.04l14.6-5.94c6.6,8.08,14.58,14.64,23.39,19.57l-3.32,15.46l29.07,9.16
			l6.15-14.57c10.04,1.01,20.34,0.22,30.38-2.62l8.56,13.24l27.04-14.08l-5.94-14.6c8.08-6.6,14.64-14.58,19.56-23.39l15.46,3.32
			l9.16-29.07l-14.57-6.15c1.01-10.04,0.22-20.34-2.62-30.38l13.24-8.56l-14.08-27.04l-14.6,5.94c-6.6-8.09-14.58-14.64-23.39-19.57
			l3.32-15.46l-29.08-9.16l-6.14,14.57c-10.04-1.01-20.34-0.22-30.38,2.62l-8.56-13.24l-27.04,14.08L229.38,223.46z M317.87,267.84
			c10.53,20.21,2.67,45.14-17.54,55.66c-20.22,10.53-45.14,2.67-55.66-17.54c-10.53-20.22-2.67-45.14,17.54-55.66
			C282.42,239.77,307.34,247.62,317.87,267.84z"/>
		<g>
			<g class="st25">
				<path class="st7" d="M307.02,254.65c9.58-9.88,20.81-18.19,32.95-24.93c-5.56-5.7-11.85-10.48-18.65-14.28l3.32-15.46
					l-7.46-2.35c1.56,5.99,2.86,12.05,3,18.22c0.18,8.05-1.82,16.45-7.12,22.52c-4.32,4.94-10.22,7.81-16.47,10.22
					C300.32,250.08,303.84,252.11,307.02,254.65z"/>
			</g>
			<g class="st25">
				<path class="st7" d="M286.3,368.67c-0.86-3.33-2.4-6.46-3.73-9.64c-4.13-9.9-6.11-20.48-6.22-31.15
					c-6.67-0.81-13.08-3.23-18.63-7.08c-3.64,8.39-9.8,15.7-16.88,21.59c-3.56,2.96-7.36,5.6-11.29,8.06
					c3.68,2.98,7.57,5.63,11.66,7.92l-3.32,15.46l29.07,9.16l6.15-14.57C277.48,368.85,281.89,368.93,286.3,368.67z"/>
			</g>
		</g>
	</g>
	<g>
		<path class="st22" d="M186.45,158.3l-15.1-8.03c0.11,1.08,0.36,3.03,1.03,4.31c5.66,10.75,2.23,15.47,2.23,15.47l11.34,7.57
			l3.1-7.21l0,0C187.78,167.88,186.32,161.72,186.45,158.3z"/>
		<path class="st31" d="M187,163.06l-8.48-1.34c0.93,2.55,3.42,5.48,9.25,5.35C187.78,167.07,187.01,164.2,187,163.06z"/>
		<path class="st13" d="M195.97,131.81c1.93,3.25,1.58,11.62-3.87,10.43C186.66,141.05,192.66,126.23,195.97,131.81z"/>
		<path class="st22" d="M170.78,143.22c1.57,9.14,2.28,14.33,7.45,18.49c22.27,13.77,26.62-27.63,8.52-33.12
			C177.48,126.05,169.21,134.09,170.78,143.22z"/>
		<path class="st13" d="M164.81,133.23c0,0,8.31-1.17,9.71-1.27c1.4-0.1,2.82,4.87,2.62,6.49c-0.2,1.62-2.39,2.33-2.33,3.87
			c0.07,1.32,2.28,5.16,1.49,6.94c-0.9,0.71-5.84-2.24-5.84-2.24l-2.89,1.06C167.57,148.08,159.27,136.96,164.81,133.23z"/>
		<path class="st13" d="M164.96,133.95c-0.87-0.78-1.81-2.13-0.78-4.66c0,0.69,0.87,1.5,1.41,1.79c0.54-2.09,3.25-5.68,10.88-7.38
			c9.38-2.09,11.84,1.08,14.58-0.33c2.74-1.41-0.69-2.49-0.69-2.49s4.73-1.1,6.26,2.48c1.53,3.58,0.21,9.86-8.16,9.47
			c-8.37-0.4-10,2.33-14.22,1.66C171.16,134.11,168.06,133.93,164.96,133.95z"/>
		<path class="st22" d="M167.99,151.13c1.62,4.81,9.99,7.43,8.92,0.25C176.29,144.39,165.9,142.67,167.99,151.13z"/>
		<path class="st13" d="M184.37,144.16c0.23,2.23,2.5,1.93,2.23-0.27C186.37,141.66,184.11,141.96,184.37,144.16z"/>
		<path class="st13" d="M193.5,143.71c0.23,2.23,2.5,1.93,2.23-0.27C195.5,141.21,193.23,141.51,193.5,143.71z"/>
		<path class="st32" d="M190.44,143.41c0,0,3.49,4.35,4.66,6.15c-1.18,1.33-3.5,1.03-3.5,1.03L190.44,143.41z"/>
		<path class="st13" d="M181.45,140.25c0.15,0.04,0.32,0.01,0.44-0.11c1.42-1.38,3.02-1.06,3.04-1.05c1.94-0.86-1.65-1.72-3.66,0.42
			C181.03,139.74,181.14,140.17,181.45,140.25z"/>
		<path class="st33" d="M169.81,148.52c1.53-2.13,4.24,0.39,4.5,2.3"/>
		<path class="st13" d="M197.14,139.19c0.33-0.1,0.41-0.57,0.14-0.77c-1.92-1.52-3.85-0.86-3.94-0.84
			c-0.54,0.18-0.27,1.03,0.28,0.84C193.91,138.08,195.61,138.4,197.14,139.19z"/>
		<path class="st13" d="M190.34,153.75c-0.84,1.02-1.6,2.11-2.28,3.24c-0.22-0.08-0.44-0.17-0.65-0.26c-2.93-1.2-3.9-2.72-4.07-4.05
			c-0.07-0.65,0.01-1.31,0.24-1.92c0.12-0.35,0.29-0.68,0.5-0.98c1.17,1.57,3.81,2.89,5.25,3.54
			C189.99,153.57,190.34,153.75,190.34,153.75z"/>
		<path class="st7" d="M189.35,153.3l-0.7,0.94c-2.75-1.13-4.54-2.29-5.06-3.5c0.12-0.35,0.29-0.68,0.5-0.98
			C185.28,151.34,187.91,152.65,189.35,153.3z"/>
		<path class="st28" d="M187.46,156.75c-2.93-1.2-3.9-2.72-4.07-4.05c1.1,0.48,2.12,1.14,2.99,1.97
			C186.94,155.24,187.32,155.97,187.46,156.75z"/>
	</g>
	<g>
		<g>
			<g>
				<path class="st20" d="M339.99,352.87c4.79-4.51,9.11-9.49,12.94-14.84c0.56-0.79-0.74-1.54-1.3-0.76
					c-3.75,5.25-8.01,10.11-12.71,14.53C338.23,352.47,339.29,353.53,339.99,352.87L339.99,352.87z"/>
			</g>
		</g>
		<g>
			<g>
				<path class="st20" d="M354.77,335.8c0.52-0.8,1.03-1.6,1.55-2.4c0.21-0.33,0.08-0.84-0.27-1.03c-0.37-0.2-0.8-0.08-1.03,0.27
					c-0.52,0.8-1.03,1.6-1.55,2.4c-0.21,0.33-0.08,0.84,0.27,1.03C354.11,336.27,354.54,336.16,354.77,335.8L354.77,335.8z"/>
			</g>
		</g>
	</g>
	<g>
		<path class="st22" d="M222.4,229.35c0,0,4.6-3.33,5.85-5.61c1.25-2.28,1.55-2.06,1.66-2.12c0.11-0.06,6.31-1.16,7.12-1.99
			c0.81-0.83,0.81-2.08,0.12-2.16c-0.69-0.08-5.95,1.48-7.37,1.43c-1.42-0.05,0.75-0.89,4.4-1.8c3.65-0.91,6.71-2.14,6.23-3.88
			c-0.48-1.74-8.66,1.78-10.98,1.95c-2.32,0.17,1.89-0.89,4.94-2.45c3.05-1.57,5.68-2.32,4.75-4.03c-0.93-1.72-10.73,3.75-12.56,3.5
			c-1.83-0.25-0.25-1.69,1.34-2.9c1.59-1.21,4.98-1.66,5.48-2.99c0.5-1.33-0.31-1.8-1.56-1.69c-1.24,0.12-6.88,2.21-8.12,3.51
			c0,0-0.92-1.38-1.76-1.11c-0.84,0.27-0.84,3.85-1.57,5.19c-0.73,1.34-2.76,10.1-2.76,10.1L222.4,229.35z"/>
		<path class="st26" d="M148.79,185.61c-2.65,2.98-0.82,8.05,0.03,11.95c2.64,12.17,17.66,46.25,22.19,51.02
			c5.5,5.78,48.54-12.78,51.44-15.39c2.9-2.61-5.88-13.73-5.88-13.73s-34.99,9.37-34.77,8.26c0.22-1.11-10.79-24.48-17.8-33.21
			C156.98,185.79,151.4,182.74,148.79,185.61C148.76,185.64,148.82,185.58,148.79,185.61z"/>
		<path class="st20" d="M218.17,217.7c0,0-34.99,9.37-34.77,8.26c0.22-1.11-10.79-24.48-17.8-33.21
			c-7.01-8.73-13.64-12.21-13.64-12.21c-4.54,3.08-7.51,8.82-4.5,16.38c4.79,12.05,20.52,43.48,25.06,48.25
			c5.5,5.78,48.64-11.13,51.53-13.74C226.94,228.82,218.17,217.7,218.17,217.7z"/>
		<path class="st23" d="M218.17,217.7c0,0-34.99,9.37-34.77,8.26c0.22-1.11-10.79-24.48-17.8-33.21
			c-7.01-8.73-13.64-12.21-13.64-12.21c-4.54,3.08-7.51,8.82-4.5,16.38c4.79,12.05,20.52,43.48,25.06,48.25
			c5.5,5.78,48.64-11.13,51.53-13.74C226.94,228.82,218.17,217.7,218.17,217.7z"/>
	</g>
</g>
</svg>
