<?xml version="1.0" encoding="utf-8"?>
<!-- Generator: Adobe Illustrator 25.4.1, SVG Export Plug-In . SVG Version: 6.00 Build 0)  -->
<svg version="1.1" xmlns="http://www.w3.org/2000/svg" xmlns:xlink="http://www.w3.org/1999/xlink" x="0px" y="0px"
	 viewBox="0 0 500 500" style="enable-background:new 0 0 500 500;" xml:space="preserve">
<style type="text/css">
	.st0{fill:#FFFFFF;}
	.st1{fill:#F5F8FF;}
	.st2{fill:#E1ECFA;}
	.st3{fill:#BAD4EF;}
	.st4{fill:none;stroke:#FFFFFF;stroke-width:1.5;stroke-linecap:round;stroke-miterlimit:10;}
	.st5{fill:#EF7F1A;}
	.st6{fill:#F0C66C;}
	.st7{fill:none;stroke:#F0C66C;stroke-width:0.5;stroke-miterlimit:10;}
	.st8{fill:none;stroke:#F0C66C;stroke-linecap:round;stroke-miterlimit:10;}
	.st9{fill:none;stroke:#FFFFFF;stroke-miterlimit:10;}
	.st10{fill:#A0C8EC;}
	.st11{fill:#E1B39D;}
	.st12{fill:#264154;}
	.st13{fill:#F3D6C1;}
	.st14{fill:#2F526E;}
	.st15{fill:#315780;}
	.st16{fill:none;stroke:#EF7F1A;stroke-width:0.5;stroke-linecap:round;stroke-miterlimit:10;}
	.st17{fill:#315782;}
	.st18{fill:#2F5482;}
	.st19{fill:none;stroke:#264154;stroke-width:0.5;stroke-linecap:round;stroke-miterlimit:10;}
	.st20{fill:#EBB259;}
	.st21{fill:#F9ECDC;}
	.st22{fill:none;stroke:#315782;stroke-linecap:round;stroke-miterlimit:10;}
</style>
<g id="BACKGROUND">
	<rect id="Rectangle" class="st0" width="500" height="500"/>
</g>
<g id="OBJECTS">
	<g>
		<path id="Background_00000129184405965174585490000011949723595861723053_" class="st1" d="M392.54,411.92
			c15.18,0,39.08-25.7,22.39-60.41c-20.53-42.69-43.4-31.35-16.6-108.12c14.26-40.86-35.93-77.28-76.99-53.41
			c-23.19,13.48-63.5,23.94-76.72-2.33c-28.67-56.95-129.45-60.88-154.01-1.97c-26.3,63.09,38.46,86.36,16.5,119.11
			c-12.55,18.72-28.39,26.25-27.17,53.06c1.99,43.71,50.69,53.78,86.16,53.78L392.54,411.92z"/>
		<g>
			<g id="Leaf_00000105421024848163386850000011050697597001807258_">
				<path id="Leaf_Part_00000147903279267117619640000016667646957905864065_" class="st2" d="M96.33,411
					c-2.81-0.14-4.81-2.81-4.45-5.6c0.8-6.14,1.5-19.6-6.19-26.88c-8.15-7.71-7.85-12.8-5.58-15.25
					c3.52-3.81,19.64,4.62,21.49,30.58C102.62,408.12,99.42,411.16,96.33,411z"/>
				<g id="Leaf_Part_00000016055218057788755450000011199868204777014425_">
					<path id="Leaf_Part_00000044163638452434321670000000313805854533802903_" class="st2" d="M94.03,402.35
						c-0.06,0.54-0.14,1.09-0.22,1.65c-0.01,0.07-0.07,0.11-0.14,0.1c-0.07-0.01-0.11-0.07-0.1-0.14
						c1.73-11.25-1.04-20.51-3.66-26.28c-2.84-6.26-6.13-9.9-6.17-9.94c-0.05-0.05-0.04-0.13,0.01-0.18
						c0.05-0.05,0.13-0.04,0.18,0.01c0.03,0.04,3.35,3.71,6.21,10C92.64,383.1,95.27,391.79,94.03,402.35z"/>
				</g>
			</g>
			<g id="Leaf_00000077315471535683923640000015784992671799983003_">
				<path id="Leaf_Part_00000080168677541958523920000009966203334298081177_" class="st2" d="M98.12,411.83
					c3.94,0.34,7.24-2.99,7.27-6.95c0.06-8.7,1.66-27.59,13.77-36.26c12.83-9.19,13.39-16.32,10.7-20.18
					c-4.17-5.98-28.24,2.68-35.8,38.49C89.91,406.62,93.79,411.46,98.12,411.83z"/>
				<g id="Leaf_Part_00000080924528300507604800000009200043094528150965_">
					<path id="Leaf_Part_00000143590145306046330200000001051793468948775094_" class="st2" d="M102.98,400.23
						c-0.02,0.77-0.02,1.55,0,2.34c0,0.1,0.08,0.17,0.18,0.17c0.1,0,0.16-0.08,0.17-0.18c-0.25-16.01,5.37-28.37,10.13-35.92
						c5.16-8.18,10.44-12.62,10.49-12.67c0.07-0.06,0.08-0.17,0.02-0.25c-0.06-0.07-0.17-0.08-0.25-0.02
						c-0.05,0.04-5.38,4.53-10.57,12.75C108.61,373.67,103.27,385.27,102.98,400.23z"/>
				</g>
			</g>
			<g id="Leaf_00000142149935981250212430000009110915979426101122_">
				<path id="Leaf_Part_00000029005178069045924330000010364891400125198761_" class="st2" d="M247.36,410.67
					c1.22-2.1,0.24-4.81-1.96-5.87c-4.82-2.32-14.91-8.16-16.55-17.17c-1.74-9.54-5.56-11.73-8.42-11.24
					c-4.42,0.75-5.92,16.41,12.01,30C242.3,413.87,246.01,412.99,247.36,410.67z"/>
				<g id="Leaf_Part_00000111187948621170642690000012053829108673404337_">
					<path id="Leaf_Part_00000142898562102953916660000016565937890460024194_" class="st2" d="M242.18,404.93
						c0.42,0.21,0.86,0.42,1.3,0.62c0.05,0.02,0.12,0,0.14-0.05c0.02-0.05,0-0.11-0.05-0.14c-8.97-4.06-14.37-10.43-17.32-15.06
						c-3.19-5.01-4.28-9.12-4.29-9.16c-0.01-0.06-0.07-0.09-0.13-0.08c-0.06,0.01-0.09,0.07-0.08,0.13
						c0.01,0.04,1.11,4.18,4.32,9.22C228.89,394.83,233.94,400.84,242.18,404.93z"/>
				</g>
			</g>
			<g id="Leaf_00000078725197750547546980000012501452200286906257_">
				<path id="Leaf_Part_00000054982732407613151810000010754164229790595240_" class="st2" d="M249.97,411.7
					c2.58-1.17,3.48-4.4,2.11-6.88c-3-5.46-8.6-17.81-4.07-27.45c4.8-10.22,2.66-14.87-0.37-16.34c-4.69-2.27-16.7,11.54-8.9,36.54
					C243.02,411.32,247.13,412.99,249.97,411.7z"/>
				<g id="Leaf_Part_00000091730536515531503570000009678713126619431055_">
					<path id="Leaf_Part_00000116953942624826574440000001129984004194239679_" class="st2" d="M248.95,402.76
						c0.26,0.49,0.53,0.97,0.81,1.46c0.03,0.06,0.11,0.08,0.17,0.05c0.06-0.04,0.07-0.11,0.05-0.17
						c-5.75-9.91-6.56-19.59-6.23-25.97c0.36-6.91,2.11-11.53,2.12-11.58c0.03-0.06-0.01-0.14-0.07-0.16
						c-0.06-0.02-0.14,0.01-0.16,0.07c-0.02,0.05-1.78,4.7-2.14,11.65C243.18,384.21,243.9,393.32,248.95,402.76z"/>
				</g>
			</g>
			<g id="Leaf_00000083079682987331520370000000127049645392041615_">
				<path id="Leaf_Part_00000089542061481313862040000009353706328406658720_" class="st2" d="M387.1,409.82
					c-1.64-2.82-0.32-6.45,2.62-7.86c6.46-3.1,19.97-10.93,22.17-22.99c2.33-12.78,7.45-15.71,11.27-15.06
					c5.92,1.01,7.93,21.97-16.09,40.18C393.86,414.11,388.9,412.92,387.1,409.82z"/>
				<g id="Leaf_Part_00000013898481077773842720000005631225186930057866_">
					<path id="Leaf_Part_00000119111184839735627310000014055438105477550477_" class="st2" d="M394.03,402.12
						c-0.57,0.28-1.15,0.56-1.74,0.82c-0.07,0.03-0.16,0-0.19-0.07c-0.03-0.07,0-0.15,0.07-0.19c12.01-5.43,19.24-13.97,23.19-20.17
						c4.28-6.72,5.73-12.21,5.75-12.26c0.02-0.08,0.1-0.12,0.18-0.1c0.08,0.02,0.12,0.1,0.1,0.18c-0.01,0.06-1.48,5.59-5.78,12.35
						C411.83,388.6,405.07,396.65,394.03,402.12z"/>
				</g>
			</g>
			<g id="Leaf_00000078022027646517748460000007654582165904981892_">
				<path id="Leaf_Part_00000084502538080388578310000002709663870924324789_" class="st2" d="M383.6,411.2
					c-3.46-1.56-4.66-5.89-2.83-9.21c4.02-7.31,11.52-23.85,5.46-36.77c-6.43-13.68-3.56-19.92,0.5-21.88
					c6.29-3.05,22.36,15.46,11.92,48.93C392.91,410.68,387.4,412.92,383.6,411.2z"/>
				<g id="Leaf_Part_00000018219695636251056090000018075831748741507259_">
					<path id="Leaf_Part_00000008146549878112764590000002831136939226724017_" class="st2" d="M384.96,399.22
						c-0.35,0.65-0.71,1.3-1.09,1.96c-0.05,0.08-0.15,0.11-0.23,0.06c-0.08-0.05-0.1-0.14-0.06-0.23
						c7.7-13.27,8.79-26.24,8.34-34.78c-0.49-9.25-2.82-15.44-2.85-15.5c-0.03-0.09,0.01-0.18,0.1-0.22
						c0.09-0.03,0.18,0.01,0.22,0.1c0.02,0.06,2.38,6.3,2.87,15.61C392.69,374.38,391.72,386.57,384.96,399.22z"/>
				</g>
			</g>
			<g id="Leaf_00000121966359174760234910000001192519869157173918_">
				<path id="Leaf_Part_00000039833274226418442050000004998095702623198849_" class="st2" d="M386.39,410.18
					c1.53-1.62,1.22-4.24-0.52-5.63c-3.81-3.07-11.57-10.38-11.16-18.74c0.44-8.86-2.51-11.61-5.15-11.77
					c-4.09-0.25-8.7,13.38,4.44,29.22C381.23,411.98,384.71,411.96,386.39,410.18z"/>
				<g id="Leaf_Part_00000028315294121346835510000002417684496295629992_">
					<path id="Leaf_Part_00000109724107111952447920000014254977539755565209_" class="st2" d="M382.98,403.99
						c0.33,0.28,0.68,0.55,1.03,0.82c0.04,0.03,0.11,0.03,0.14-0.02c0.03-0.04,0.02-0.1-0.02-0.14
						c-7.14-5.49-10.62-12.28-12.28-17.02c-1.8-5.13-1.91-9.01-1.91-9.05c0-0.05-0.05-0.1-0.1-0.1c-0.05,0-0.1,0.05-0.1,0.1
						c0,0.04,0.11,3.95,1.92,9.11C373.25,392.22,376.49,398.63,382.98,403.99z"/>
				</g>
			</g>
		</g>
		<g>
			<path id="Cloud_00000133505288692261554500000006755031204700232090_" class="st2" d="M372.74,159.76
				c-1.45,0-2.83,0.28-4.11,0.76c0.01-0.25,0.02-0.51,0.02-0.76c0-9.95-8.06-18.01-18.01-18.01c-9.46,0-17.21,7.29-17.95,16.56
				c-2.15-2.07-5.07-3.35-8.29-3.35c-4.74,0-8.82,2.76-10.76,6.75c-2.39-5.15-7.59-8.73-13.64-8.73c-8.31,0-15.04,6.74-15.04,15.04
				c0,8.31,6.74,15.04,15.04,15.04h72.74c6.44,0,11.65-5.22,11.65-11.65C384.4,164.98,379.18,159.76,372.74,159.76z"/>
			<path id="Cloud_00000098921707051692557230000008909983657037955775_" class="st2" d="M208.65,105.69c1.45,0,2.83,0.28,4.11,0.76
				c-0.01-0.25-0.02-0.51-0.02-0.76c0-9.95,8.06-18.01,18.01-18.01c9.46,0,17.21,7.29,17.95,16.56c2.15-2.07,5.07-3.35,8.29-3.35
				c4.74,0,8.82,2.76,10.76,6.75c2.39-5.15,7.59-8.73,13.64-8.73c8.31,0,15.04,6.74,15.04,15.04c0,8.31-6.74,15.04-15.04,15.04
				h-72.74c-6.44,0-11.65-5.22-11.65-11.65C197,110.91,202.22,105.69,208.65,105.69z"/>
		</g>
	</g>
	<g>
		
			<ellipse id="Globe_Part_00000037663501115394694890000008054182163841267867_" transform="matrix(0.9722 -0.2342 0.2342 0.9722 -47.0601 65.8567)" class="st3" cx="253.8" cy="231.1" rx="88.18" ry="88.18"/>
		
			<ellipse id="Globe_Part_00000060016173177477200300000002310307543262953103_" transform="matrix(0.9575 -0.2883 0.2883 0.9575 -55.8488 82.979)" class="st4" cx="253.8" cy="231.1" rx="80.88" ry="80.88"/>
		
			<ellipse id="Globe_Part_00000068655904877350868690000005770150389789826738_" class="st4" cx="256.56" cy="231.79" rx="31.93" ry="81.52"/>
		
			<line id="Globe_Part_00000012466227521358805380000010315286556475539074_" class="st4" x1="334.68" y1="231.1" x2="172.92" y2="231.1"/>
		<path id="Globe_Part_00000170997755457827709600000000033037435991059387_" class="st4" d="M254.62,270.89
			c23.79,0,45.18,5.22,59.98,13.53c-14.82,16.89-36.56,27.57-60.79,27.57c-23.94,0-45.44-10.41-60.25-26.93
			C208.38,276.38,230.23,270.89,254.62,270.89z"/>
		<path id="Globe_Part" class="st4" d="M315.83,179.21c-14.83,8.72-36.74,14.25-61.21,14.25c-25.06,0-47.46-5.79-62.29-14.89
			c14.83-17.35,36.87-28.36,61.48-28.36C278.72,150.22,300.99,161.5,315.83,179.21z"/>
	</g>
	<path class="st5" d="M418.83,243.17l-32.28,4.38l-32.28,4.38c-3.51,0.48-5.19,4.57-3.02,7.37l12.83,16.58l-49.8,40.89
		c-3.05,2.5-7.43,2.51-10.49,0.02l-19.57-15.94c-2.77-2.26-6.69-2.48-9.7-0.55l-70.71,45.33c-2.31,1.48-5.19,1.72-7.71,0.65
		l-17.43-7.42c-2.53-1.07-5.42-0.83-7.73,0.66l-71.41,45.99c-5.6,3.6-7.21,11.07-3.61,16.66c2.1,3.27,5.52,5.18,9.11,5.49
		c2.57,0.22,5.22-0.37,7.56-1.88l60.67-39.07c2.31-1.49,5.2-1.73,7.73-0.66l17.4,7.41c2.52,1.07,5.41,0.83,7.71-0.65l66.74-42.78
		c3.01-1.93,6.93-1.71,9.7,0.55l21.32,17.37c3.05,2.49,7.44,2.48,10.49-0.02l64.5-52.97l12.28,15.86c2.17,2.8,6.55,2.2,7.9-1.07
		l12.34-30.14l12.34-30.14C425.04,246.19,422.34,242.69,418.83,243.17z"/>
	<g>
		<g>
			<circle id="Ellipse_00000167392055794236550160000003225946947352940708_" class="st6" cx="103.72" cy="260.86" r="27.11"/>
			<circle id="Ellipse_00000073718521117580610970000001459235525160598933_" class="st7" cx="103.72" cy="260.86" r="30.02"/>
			<path id="Lamp_Part_00000000183016132169685790000002801932016906659493_" class="st0" d="M99.79,244.41
				c9.24-3.39,16.23,5.61,15.23,12.77c-0.44,7.06-8.69,11.42-7.94,14.08c-1.71,0-5.14,0-6.84,0c0,0,0.49-1.31-1.3-2.89
				C92.21,263.07,87.88,249.76,99.79,244.41z"/>
			<path id="Lamp_Part_00000179636387766541312540000005777501527062241191_" class="st5" d="M107.08,271.26
				c-0.04,3.24,0.79,7.14-3.92,6.78c-3.69-0.12-2.86-4.29-2.93-6.78H107.08z"/>
			<path class="st8" d="M105.03,271.26c0,0-0.12-10.77,0.82-13.76c0.95-2.99,2.85-5.29,4.25-2.72c2.7,8.16-11.78,10.21-12.91,2.99
				c-1.49-6.96,6.34-7.56,5.03,13.49"/>
		</g>
		<g>
			<circle id="Ellipse_00000178179105049997366580000009247430809164627844_" class="st6" cx="143.51" cy="162.41" r="27.11"/>
			<circle id="Ellipse_00000106845369027460116320000007805812156319076231_" class="st7" cx="143.51" cy="162.41" r="30.02"/>
			
				<ellipse transform="matrix(0.9224 -0.3863 0.3863 0.9224 -51.3674 68.0027)" class="st9" cx="143.51" cy="161.81" rx="15.44" ry="15.44"/>
			<g>
				<path class="st0" d="M139.91,169.1c-0.76,0.7-1.98,0.5-2.46-0.42l-3.05-5.78c-0.4-0.75-0.11-1.69,0.64-2.09
					c0.76-0.4,1.69-0.11,2.09,0.64l2.13,4.04l10.97-10.16c0.62-0.58,1.6-0.54,2.18,0.08c0.58,0.63,0.54,1.6-0.08,2.18L139.91,169.1z
					"/>
			</g>
			
				<ellipse transform="matrix(0.2305 -0.9731 0.9731 0.2305 -54.1199 283.0786)" class="st0" cx="151.92" cy="175.76" rx="7.33" ry="7.33"/>
			<path class="st6" d="M158.16,175.76c0,3.45-2.79,6.24-6.24,6.24c-3.45,0-6.24-2.79-6.24-6.24c0-3.45,2.79-6.24,6.24-6.24
				C155.37,169.52,158.16,172.31,158.16,175.76z"/>
			<g id="Money_Part_00000039855458569584991310000001678295675392888983_">
				<path id="Money_Part_00000073681748275601488120000003647557447643828370_" class="st0" d="M153.82,176.75
					c-0.01,0.92-0.75,1.32-1.66,1.41v0.78h-0.52v-0.76c-0.62-0.01-1.16-0.12-1.63-0.33v-1c0.2,0.11,1.27,0.46,1.63,0.44v-1.18
					c-2.02-0.37-2.21-2.85,0-2.94v-0.58h0.52v0.57c0.58,0.03,1.1,0.14,1.57,0.35l-0.36,0.89c-0.4-0.16-0.8-0.26-1.22-0.3v1.12
					C153.07,175.59,153.78,175.79,153.82,176.75z M151.15,174.5c0.01,0.29,0.22,0.36,0.49,0.5v-0.89
					C151.32,174.15,151.15,174.28,151.15,174.5z M152.68,176.8c-0.02-0.28-0.25-0.36-0.52-0.5v0.95
					C152.51,177.19,152.68,177.04,152.68,176.8z"/>
			</g>
		</g>
		<g>
			
				<ellipse id="Ellipse_00000107579840078939687030000002997869601945967762_" transform="matrix(0.2324 -0.9726 0.9726 0.2324 95.4635 522.2194)" class="st6" cx="378.6" cy="200.63" rx="27.11" ry="27.11"/>
			<circle id="Ellipse_00000054257825628578543740000011532092340169688966_" class="st7" cx="378.6" cy="200.63" r="30.02"/>
			<g>
				<path class="st5" d="M367.78,203.97c0,0,0.36,5.08,0.39,7.24c0.01,1.02,0.16,1.79,0.31,2.32c0.14,0.51,0.65,0.82,1.17,0.74
					l2.88-0.49c0.59-0.1,0.97-0.68,0.83-1.26c-0.53-2.17-1.62-7-1.36-8.74L367.78,203.97z"/>
				<path class="st5" d="M365.1,197.67l0.6,5.65c0.04,0.42,0.41,0.74,0.84,0.72l7.56-0.29l-0.46-7.97l-7.54,0.67
					C365.49,196.52,365.04,197.06,365.1,197.67z"/>
				<path class="st0" d="M373.64,195.79l13.25-8.54c1.01-0.65,2.37-0.14,2.69,1.02c1.07,3.88,2.88,12.12,1.72,20.35
					c-0.11,0.79-0.93,1.26-1.67,0.98l-15.53-5.84L373.64,195.79z"/>
				<path class="st0" d="M365.14,198.06L365.14,198.06c-0.91,0.07-1.58,0.88-1.49,1.79l0.18,1.68c0.1,0.91,0.92,1.56,1.83,1.44l0,0
					L365.14,198.06z"/>
				<path class="st5" d="M390.98,194.8c0,0,2.58,0.85,2.57,3.02c-0.02,2.17-1.88,3.62-1.88,3.62S391.17,196.08,390.98,194.8z"/>
				<path class="st5" d="M391.29,208.62c1.16-8.23-0.65-16.47-1.72-20.35c-0.32-1.16-1.67-1.67-2.69-1.02l-0.38,0.25
					c0.49,1.08,1.42,3.53,1.93,7.4c0.67,5,1.21,10.56,0.5,14.44l0.69,0.26C390.36,209.88,391.18,209.41,391.29,208.62z"/>
			</g>
		</g>
	</g>
	<g>
		<g>
			<path class="st10" d="M192.57,327.58l-4.38-1.23c0.26-1.67,0.36-4.36-0.98-6.9c-1.32-2.5-3.69-4.25-7.03-5.19
				c-5.73-1.61-9.36,0.71-11.39,2.93c-0.97,1.06-1.65,2.19-2.12,3.12l-4.54-1.27c-1.35-0.38-2.76,0.41-3.14,1.76l-5.23,18.64
				c-0.38,1.35,0.41,2.76,1.76,3.14l30.44,8.54c1.35,0.38,2.76-0.41,3.14-1.76l5.23-18.64
				C194.72,329.37,193.93,327.96,192.57,327.58z M179.26,317.57c2.39,0.67,4.04,1.84,4.91,3.47c0.81,1.52,0.83,3.21,0.69,4.38
				l-14.84-4.16C171.27,319.05,173.99,316.09,179.26,317.57z"/>
			<path class="st11" d="M186.96,292.67l-4.65,17.75c0,0,1.79,1.54,2.54,3.42c0.75,1.87,0.51,3.41,0.07,2.93
				c-0.27-0.29-0.67-0.58-1.23-0.97c-0.77-0.52-1.12-1.12-1.68-1.09c-0.97,0.05-2.02,0.48-1.24,2.5c0.76,1.96,3.46,2.53,2.77,3.04
				c-1.74,1.28-2.97-0.48-2.97-0.48s-0.51,0.79-1.2,0.78c-0.69-0.01-0.96-1.23-0.96-1.23s-0.52,0.68-1.31,0.57
				c-0.79-0.11-0.96-1.23-0.96-1.23s-1.24,1.1-2.04-0.23c-0.81-1.34-2.39-4.72,2.46-9.03c0,0,4.54-22.61,6.6-23.82
				C185.22,284.37,186.96,292.67,186.96,292.67z"/>
			<path id="_x3C_Path_x3E__00000110433001342310786470000011690611468786041991_" class="st0" d="M176.8,307.23l5.78,2.31
				c0.26,0.1,0.56-0.04,0.63-0.31l0.16-0.59c0.06-0.23-0.05-0.47-0.28-0.56l-5.76-2.37c-0.26-0.11-0.56,0.04-0.63,0.31l-0.18,0.65
				C176.46,306.89,176.58,307.14,176.8,307.23z"/>
			<path class="st12" d="M176.55,306.42l6.81,2.45c0.31,0.11,0.65-0.05,0.76-0.36l3.38-17.2l8.36-9.95c0.11-0.31-0.88-3.8-1.19-3.91
				l-2.22-8.14c-0.31-0.11-12.83,18.41-12.83,18.41l-3.43,17.94C176.07,305.97,176.24,306.31,176.55,306.42z"/>
			<path id="_x3C_Path_x3E__00000077287947687799104030000001137115384468898698_" class="st11" d="M247.67,299.94
				c0,0,4.31,2.33,4.48,2.3c0.18-0.03,3.33-0.98,3.99-0.17c0.66,0.81,3.36,3.8,5.08,5.53c1.71,1.72,2.78,3.92,1.72,4.73
				c-1.05,0.81-1.34,0.07-1.34,0.07s0.68,1.48-0.42,1.87c-1.1,0.4-1.61-0.18-1.61-0.18s0.29,0.91-0.36,1.28
				c-0.65,0.37-1.48,0.04-1.73-0.33c0,0-0.95,1.4-2.17,0.59c-1.21-0.81-6.96-5.36-7.08-7.35l-2.43-1.59L247.67,299.94z"/>
			<path id="_x3C_Path_x3E__00000011710823379394873610000012496446250330510502_" class="st0" d="M248.97,300.51l-2.8,6.46
				c-0.12,0.28-0.45,0.39-0.72,0.25l-3.93-2.1c-0.24-0.13-0.34-0.42-0.23-0.66l2.94-6.76c0.13-0.29,0.48-0.4,0.75-0.23l3.79,2.4
				C248.99,300,249.07,300.28,248.97,300.51z"/>
			<polygon id="_x3C_Path_x3E__00000124879764093663018190000014318288559375879322_" class="st13" points="218.83,396.9 
				218.63,403.38 210.26,403.34 210.3,396.86 			"/>
			<path id="_x3C_Path_x3E__00000072958908060731873860000006939509619473559483_" class="st14" d="M210.26,403.34l8.18,0.04
				c0.12,0,0.24,0.01,0.36,0.04c1.17,0.28,7.81,1.96,13.67,5.19c1.46,0.8,0.86,3.03-0.8,3.02l-19.83-0.1
				c-0.89,0-1.61-0.73-1.61-1.62L210.26,403.34z"/>
			<path class="st11" d="M214.26,237.7c0,0,0.4,2.42,3.39,7.39c3.05,5.08,2.78,12.97-1.2,14.8c-3.1,1.43-5.43,0.9-5.43,0.9
				l-1.45,11.37l-10.1-2.18l0.61-11.12l-3.23-15.84L214.26,237.7z"/>
			<polygon id="_x3C_Path_x3E__00000018214155258598333290000011751504264489672105_" class="st13" points="202.48,396.4 
				202.3,403.38 193.94,403.34 193.98,396.86 			"/>
			<path id="_x3C_Path_x3E__00000052797797001744723940000012411669980936920999_" class="st15" d="M193.94,403.34l8.18,0.04
				c0.12,0,0.24,0.01,0.36,0.04c1.17,0.28,7.81,1.96,13.67,5.19c1.46,0.8,0.86,3.03-0.8,3.02l-19.83-0.1
				c-0.89,0-1.61-0.73-1.61-1.62L193.94,403.34z"/>
			<path class="st6" d="M219.39,318.17l1.04,78.73c0.01,0.87-0.68,1.59-1.56,1.61l-8.84,0.17c-0.85,0.02-1.56-0.64-1.61-1.48
				l-1.82-28.14l-2.88,28.51c-0.08,0.8-0.75,1.41-1.55,1.43l-7.73,0.14c-0.86,0.02-1.58-0.66-1.61-1.53l-2.89-79.44
				C189.94,317.74,219.39,318.17,219.39,318.17z"/>
			<line class="st16" x1="218.83" y1="396.9" x2="209.97" y2="397.01"/>
			<line class="st16" x1="202.39" y1="397.15" x2="193.83" y2="397.28"/>
			<line class="st16" x1="211.18" y1="394.95" x2="209.06" y2="343.65"/>
			<path class="st16" d="M213.99,319.18c0,0,0.12,10.37-3.25,11.87c-3.36,1.5,0.87-7.78-0.56-11.93L213.99,319.18z"/>
			<polyline class="st16" points="210.74,331.05 210.08,333.05 206.6,369.06 			"/>
			<line class="st16" x1="193.59" y1="317.52" x2="195.62" y2="394.95"/>
			<path class="st17" d="M190.36,275.47c0.47-4.41,2.11-9.41,7.62-10.31c3.92-0.64,9.58-0.49,13.37,0.63
				c3.61,1.06,6.74,3.32,8.85,6.43c3.46,5.09,8.75,12.88,8.77,12.9l0,0l19.15,13.29c0.37,0.29,0.49,0.79,0.3,1.21l-3.15,6.87
				c-0.26,0.58-0.99,0.77-1.5,0.39c-4.28-3.14-21.38-13.9-21.41-13.93l-3.12-2.97l0.65,29.32h-30.52
				C189.39,319.28,189.31,285.27,190.36,275.47z"/>
			<path class="st18" d="M199.96,257.8l2.72-3.46c0.32-0.4,0.2-0.99-0.24-1.25c-1.08-0.63-2.77-1.93-2.7-3.8
				c0.09-2.75,3.07-3.83,5.31-1.57c0,0,0.5,1.5,1.14-4.31c0.64-5.82,5.59-1.58,7.89-4.01c2.3-2.43,3.82-3.81,3.33-6.07
				c-0.49-2.26-1.96-5.49-4.88-3.53c-2.92,1.96-3.13-1.86-6.32-0.22c-3.97,2.05-8.35-2.16-8.8,2.75c-0.45,4.91-6.18,1.57-4.6,5.54
				c1.57,3.97-4.67,3.97-3.19,6.77c1.48,2.8-0.46,6.31,2.19,7.67c2.65,1.36,4.72,0,5,3.69C196.96,258.17,199.96,257.8,199.96,257.8z
				"/>
			<path class="st19" d="M212.22,270.58c0,0-6.26,2.9,0.5,11.49c6.43,8.18,6.53,7.89,6.53,7.89"/>
			<path class="st19" d="M199.44,301.06c0,0,0.6,11.33,9.97,12.67"/>
			<path class="st19" d="M194.43,294.6c0,0-1.04,16.45,4.51,20.19"/>
		</g>
		<g>
			<polygon id="_x3C_Path_x3E__00000138546843219376734800000015497254259783863482_" class="st11" points="291.26,398.48 
				291.48,405.58 299.03,404.33 299,398.45 			"/>
			<path id="_x3C_Path_x3E__00000101082071790747577480000009299769291699507363_" class="st14" d="M299.03,404.33
				c-7.8-0.12-10.36-0.13-20.15,4.79c-1.32,0.73-0.78,2.75,0.73,2.74l17.99-0.09C300.21,411.91,299.03,404.33,299.03,404.33z"/>
			<polygon id="_x3C_Path_x3E__00000151525291330712107070000010571931836642503325_" class="st11" points="326.37,398.45 
				326.55,405.57 334.12,406.14 334.09,398.85 			"/>
			<path id="_x3C_Path_x3E__00000176003063905531259260000005377651482006235276_" class="st15" d="M329.82,404.3
				c-0.99,0-4.12,0.21-5.74,1.82c-2.1,2.08-1.82,5.69-0.96,5.69l13.34,0.04c0.64,0.05,0.43-3.11-1.06-5.12
				C334.05,404.93,332.93,404.28,329.82,404.3z"/>
			<path class="st20" d="M330.62,334.58l4.32-1.09c-0.21-1.64-0.24-4.27,1.14-6.72c1.36-2.41,3.72-4.06,7.02-4.89
				c5.65-1.42,9.14,0.94,11.06,3.17c0.92,1.06,1.56,2.18,1.99,3.1l4.47-1.12c1.33-0.34,2.69,0.47,3.02,1.81l4.62,18.37
				c0.34,1.33-0.47,2.69-1.81,3.02l-30.01,7.54c-1.33,0.34-2.69-0.47-3.02-1.81l-4.62-18.37
				C328.47,336.27,329.28,334.91,330.62,334.58z M343.91,325.14c-2.36,0.59-4.01,1.69-4.9,3.26c-0.84,1.47-0.89,3.12-0.79,4.27
				l14.63-3.68C351.69,326.8,349.1,323.83,343.91,325.14z"/>
			<path class="st17" d="M327.56,310.44c0.8,5.48,4.28,30.45,3.9,50c0,0.06,0,0.12,0.01,0.18l4.55,38.96
				c0.1,0.82-0.54,1.53-1.37,1.53h-8.86c-0.64,0-1.19-0.44-1.34-1.06c-1.54-6.62-9.74-42.04-10.35-46.74
				c-0.68-5.19-1.35-12.18-1.35-12.18l-5.63,22.95c-0.01,0.03-0.01,0.06-0.02,0.09l-6.25,36.29c-0.11,0.67-0.7,1.15-1.38,1.14
				l-9.29-0.15c-0.79-0.01-1.41-0.69-1.35-1.47l2.94-41.22c0-0.04,0.01-0.07,0.01-0.11l7.47-49.88c0.11-0.71,0.74-1.21,1.45-1.17
				l25.59,1.65C326.93,309.32,327.46,309.8,327.56,310.44z"/>
			<line class="st19" x1="312.75" y1="341.14" x2="309.25" y2="313.32"/>
			<polyline class="st19" points="310.49,338.94 302.94,363.68 297.82,398.45 			"/>
			<polyline class="st19" points="325.88,321.38 328.38,360.26 333.52,398.45 			"/>
			<path class="st19" d="M305.44,315.35c0,0,1.34,9.41,5.05,9.28"/>
			<path class="st19" d="M318.94,313.32c0,0,1.41,6.09,5.79,11.32"/>
			<path class="st13" d="M336.18,301.2l5.6,17.02c0,0-2.44,1.31-3.23,3.12c-0.78,1.81-0.59,3.32-0.15,2.87
				c0.27-0.28,0.67-0.55,1.23-0.91c0.76-0.48,1.13-1.06,1.68-1.02c0.95,0.08,1.96,0.52,1.14,2.48c-0.8,1.9-3.45,2.38-2.79,2.9
				c1.67,1.3,2.92-0.39,2.92-0.39s0.48,0.79,1.16,0.79c0.68,0.01,0.97-1.18,0.97-1.18s0.49,0.68,1.26,0.59
				c0.77-0.09,0.97-1.18,0.97-1.18s1.18,1.11,2-0.17c0.82-1.29,2.46-4.55-2.16-8.9c0,0-3.84-22.24-5.82-23.48
				C338.97,292.5,336.18,301.2,336.18,301.2z"/>
			<path id="_x3C_Path_x3E__00000011735265274709446270000017055941926732825760_" class="st13" d="M263.28,311.02
				c0,0-0.03-0.74-1.63-2.45c-1.6-1.71-3.32-4.13-4.59-3.94c0,0-0.75,3.3-1.95,3.58c-1.2,0.29-1.16-1.58-1.31-3.05
				c-0.15-1.47,1.71-3.35,2.99-3.58c1.42-0.25,2.95,1.27,4.83,1.45l6.05-1.97l1.76,7.18l-3.54,1.11
				C265.88,309.35,264.85,310.04,263.28,311.02"/>
			<path id="_x3C_Path_x3E__00000029017098424504795150000010094801762276890807_" class="st21" d="M265.91,301.84l2.08,6.52
				c0.09,0.29,0.42,0.44,0.71,0.32l0.61-0.27c0.24-0.11,0.36-0.38,0.28-0.63l-2.01-6.54c-0.09-0.3-0.42-0.45-0.7-0.32l-0.68,0.3
				C265.96,301.31,265.83,301.58,265.91,301.84z"/>
			<path id="_x3C_Path_x3E__00000052098370262463659970000018080290459592241074_" class="st0" d="M254.87,305.4l-1.07-0.24
				c0.08,0.8,0.11,1.72,0.31,2.34c0.9,0.44,1.05-1.05,1.07-1.72C255.19,305.6,255.06,305.44,254.87,305.4z"/>
			<path id="_x3C_Path_x3E__00000145055910656278690590000004119562831477608617_" class="st13" d="M252,310.9
				c0,0,1.67-1.03,2.38-0.66c0.71,0.37,0.76,0.85,0.57,1.12c0,0,0.97-0.35,1.5,0.43c0.53,0.77-1.04,1.87-1.04,1.87
				s1.16,0.16,0.06,1.41c-1.09,1.25-2.46,0.86-2.34-0.06c0,0-1.14,0.16-1.56-0.45c-0.42-0.61-0.07-1.1-0.07-1.1
				s-1.12,0.16-1.36-0.52c-0.23-0.68,0.12-1.03,0.12-1.03s-1.56-0.12-1.3-1.15c0.25-1.03,2.5-1.69,2.86-1.28
				C252.19,309.88,252.37,310.05,252,310.9z"/>
			<path id="_x3C_Path_x3E__00000153672950278858927600000016858006356769771680_" class="st0" d="M250.55,310.86l-0.24-0.37
				c-0.09-0.15-0.04-0.33,0.11-0.42l0.53-0.29c0.26-0.14,0.59-0.06,0.75,0.18l0,0c0.16,0.24,0.07,0.56-0.18,0.7l-0.54,0.3
				C250.83,311.04,250.64,311,250.55,310.86z"/>
			<path id="_x3C_Path_x3E__00000090984844985749219570000018186050296105327000_" class="st0" d="M253.27,311.6l-0.24-0.37
				c-0.09-0.15-0.04-0.33,0.11-0.42l0.53-0.29c0.26-0.14,0.59-0.06,0.75,0.18l0,0c0.16,0.24,0.07,0.56-0.18,0.7l-0.54,0.3
				C253.54,311.78,253.36,311.74,253.27,311.6z"/>
			<path id="_x3C_Path_x3E__00000173839456305922167330000010279658429115068825_" class="st0" d="M254.88,312.83l-0.24-0.37
				c-0.09-0.15-0.04-0.33,0.11-0.42l0.53-0.29c0.26-0.14,0.59-0.06,0.75,0.18l0,0c0.16,0.24,0.07,0.56-0.18,0.7l-0.54,0.3
				C255.16,313.02,254.97,312.97,254.88,312.83z"/>
			<path id="_x3C_Path_x3E__00000159463015596969377310000000091901771922146740_" class="st0" d="M255.05,314.76l-0.25-0.29
				c-0.04-0.04-0.03-0.11,0.02-0.14l0.41-0.31c0.13-0.1,0.31-0.07,0.42,0.05l0,0c0.1,0.12,0.08,0.3-0.04,0.39l-0.42,0.32
				C255.14,314.81,255.08,314.8,255.05,314.76z"/>
			<path id="_x3C_Path_x3E_" class="st21" d="M340.73,317.44l6.66-1.6c0.3-0.07,0.47-0.39,0.37-0.68l-0.23-0.63
				c-0.09-0.25-0.35-0.39-0.6-0.33l-6.67,1.54c-0.3,0.07-0.48,0.39-0.37,0.68l0.25,0.7C340.2,317.36,340.47,317.5,340.73,317.44z"/>
			<path class="st6" d="M327.22,310.53c-2.14,0.88-15.54,5.89-27.84-0.99c-0.15-0.08-0.25-0.24-0.26-0.41
				c-0.1-2.49-0.51-22.66-0.72-27.82l-8.97,12.85c-0.03,0.03-19.45,14.5-19.45,14.5c-0.27,0.2-0.67,0.08-0.78-0.25l-2.64-8.04
				c-0.06-0.2,0-0.41,0.16-0.54l15.59-12.79c0.04-0.03,11.89-21.29,15.01-22.59c4.1-1.71,8.43-3.97,12.57-3.48
				c8.72,1.03,0.64-3.1,19.89,2.17c7.62,2.08,16.67,41.47,18.12,50.94c0.04,0.25-0.12,0.49-0.37,0.55l-7.5,2.02
				c-0.26,0.07-0.53-0.08-0.61-0.33l-10.97-34.35l-0.93,28.1C327.52,310.28,327.4,310.46,327.22,310.53z"/>
			<path class="st13" d="M304.46,234.59c0,0-0.34,2.41-3.17,7.42c-2.89,5.12-2.43,12.93,1.57,14.65c3.11,1.34,5.41,0.76,5.41,0.76
				l1.23,8.37l10.35-3.49l-0.77-7.09l2.8-15.79L304.46,234.59z"/>
			<path class="st18" d="M301.87,229.61c-0.05-0.79,0.73-1.39,1.47-1.12c1.54,0.55,4.54,1.14,10.04,0.68
				c10.51-0.89,15.44,8.4,15.05,14.94c-0.34,5.61-6.49,8.48-8.5,10.74c-0.43,0.49-1.2,0.46-1.64-0.03
				c-1.02-1.15-2.45-2.87-2.47-3.52c-0.03-1.02,2.94-1.03,3.24-4.06c0.3-3.03-3.73-3.62-5.01-1.34c-1.28,2.28-0.34-5.79-2.49-6.68
				C309.6,238.42,302.26,236.36,301.87,229.61z"/>
			<path class="st13" d="M319.82,261.58c0,0,0.8,6.56-5.82,7.15c-6.62,0.59-4.86-6.6-4.86-6.6L319.82,261.58z"/>
			<path class="st21" d="M317.01,269.84l-3.21,4.52c-0.31,0.43-0.94,0.44-1.26,0.02l-4-5.23
				C308.55,269.15,313.79,267.95,317.01,269.84z"/>
			<path class="st21" d="M313.1,272.94l4.43,25.17c0.05,0.3,0.02,0.62-0.1,0.89l-3.39,8c-0.4,0.94-1.49,0.94-1.89,0.01l-3.41-7.88
				c-0.12-0.28-0.16-0.59-0.1-0.9L313.1,272.94z"/>
			<path class="st5" d="M319.65,260.54c0,0-3.3,7.64-7.7,8.1l6.29,3.75C318.24,272.38,325.22,263.27,319.65,260.54z"/>
			<path class="st5" d="M308.79,260.86c0,0,0.46,6.57,4.16,8.02l-5.11,3.5C307.84,272.38,303.35,262.19,308.79,260.86z"/>
		</g>
	</g>
	<line class="st22" x1="432.84" y1="411.92" x2="67.16" y2="411.92"/>
</g>
</svg>
