<?xml version="1.0" encoding="utf-8"?>
<!-- Generator: Adobe Illustrator 25.4.1, SVG Export Plug-In . SVG Version: 6.00 Build 0)  -->
<svg version="1.1" xmlns="http://www.w3.org/2000/svg" xmlns:xlink="http://www.w3.org/1999/xlink" x="0px" y="0px"
	 viewBox="0 0 750 500" style="enable-background:new 0 0 750 500;" xml:space="preserve">
<style type="text/css">
	.st0{fill:#FFFFFF;}
	.st1{fill:#FDF0E2;}
	.st2{fill:#F7F0FD;}
	.st3{fill:#FFD386;}
	.st4{fill:#0C2D41;}
	.st5{fill:#EDBE72;}
	.st6{fill:#BDBEC0;}
	.st7{fill:#533238;}
	.st8{fill:#684048;}
	.st9{fill:#FFAF66;}
	.st10{fill:#553568;}
	.st11{fill:#442B56;}
	.st12{fill:#E89B5B;}
	.st13{fill:#113F56;}
	.st14{fill:#5E3C77;}
	.st15{fill:#4C3363;}
	.st16{fill:#EF7F1A;}
	.st17{fill:#F9A86B;}
	.st18{fill:#E99C5B;}
	.st19{fill:#744E96;}
	.st20{fill:#D32F5A;}
	.st21{fill:#EF4572;}
	.st22{fill:#09212D;}
	.st23{fill:#7C71CD;}
	.st24{fill:#6962BC;}
	.st25{fill:#F7527E;}
	.st26{fill:#24283F;}
	.st27{fill:#373E5B;}
	.st28{fill:#56AECE;}
	.st29{fill:#4198AF;}
	.st30{fill:#AEAEAF;}
	.st31{fill:#80878E;}
	.st32{fill:#64676C;}
	.st33{fill:#92D8FE;}
	.st34{fill:#FFF252;}
	.st35{fill:#73CDE5;}
	.st36{fill:#FF9750;}
</style>
<g id="BACKGROUND">
	<rect x="125" class="st0" width="500" height="500"/>
</g>
<g id="OBJECTS">
	<g>
		<path class="st1" d="M647.96,283.85c-1.64-18.97-20.35-18.79-20.05-37.82c0.26-16.99,38.22-30.23,34.42-46.82
			c-6.64-28.94-52.73-14.65-57.37-28.35c-3.48-10.27,3.42-15.07,12.08-21.95c38.66-30.73-39.2-55.82-86.16-39.26
			c-17.73,6.25-35.5,3.56-52.95-3.32c-7.58-2.99-13.87-8.31-20.87-12.4c-16.44-9.61-37.16-12.11-55.55-6.7
			c-11.58,3.4-22.1,9.72-33.8,12.68c-16.23,4.11-34.21,1.23-48.19-7.71l-25.49,0.71c-18.35-3.18-37.56-1.59-55.08,4.55
			c-6.55,2.3-13.32,5.62-16.5,11.6c-2.83,5.32-2.31,11.85-5.11,17.19c-3.72,7.07-12.18,10.32-19.93,12.98
			c-13.35,4.58-26.69,9.16-40.04,13.74c-15.56,5.34-31.99,11.27-42.07,23.88c-10.08,12.61-10,34.08,4.41,41.87
			c5.61,3.03,12.35,3.53,18.08,6.33c5.73,2.8,10.4,9.78,7.03,15.05c-1.46,2.29-4.06,3.62-6.5,4.92
			c-13.13,6.97-25.18,15.83-35.62,26.2c-7.87,7.82-15.04,16.87-17.49,27.51c-2.45,10.64,0.86,23.1,10.31,29.08
			c7.69,4.87,17.54,4.64,26.73,4.75c21.42,0.25,42.8,3.26,63.41,8.9c12.81,3.51,26.2,8.69,33.45,19.47
			c4.44,6.61,6.15,14.8,11.39,20.86c7.18,8.31,19.52,10.76,30.7,9.86c11.18-0.89,21.92-4.54,33-6.2c27.56-4.14,55.25,4.08,82.63,9.2
			c51.06,9.53,104.27,8.23,154.77-3.78c6.24-1.49,13.97-5.27,12.81-11.38c-1.1-5.82-9.28-7.21-13.06-11.87
			c-6.09-7.51,1.87-18.05,9.83-23.7c12.68-9,26.84-16.05,41.79-20.81c19.6-6.24,26.78-7.23,45.49-15.65
			C638.53,302.89,648.89,294.54,647.96,283.85z"/>
		<g>
			<ellipse class="st2" cx="351.06" cy="440" rx="259.43" ry="26.76"/>
			<g>
				<path class="st3" d="M486.74,305.43c-0.02,6.07-1.22,42.23-19,50.44c-18.91,8.73-98.37,14.71-108.97-1.25
					c-1.51-2.28-2.9-4.81-3.27-7.5c-0.21-1.5-0.17-3.03,0.21-4.47c0.17-0.66,0.41-1.32,0.72-1.94c1.08-2.15,2.91-3.83,4.73-5.4
					c8.68-7.49,18.18-13.13,27.97-18.97c7-4.17,14.5-9.88,15.71-18.52c2.38-16.94-10.88-37.09-3.01-53.86
					c1.43-3.06,4.07-5.39,6.79-7.39c15.87-11.59,56.37-5.23,59.35-4.02C490.76,241.76,486.81,281.23,486.74,305.43z"/>
				<g>
					<rect x="424.73" y="348.62" class="st4" width="7.81" height="76.03"/>
					<path class="st4" d="M440.69,423.18l-12.06-5.35l-12.22,5.32c-3.56,1.55-7.25,2.77-11.05,3.55c-8.31,1.7-13.63,4.29-13.63,7.21
						c0,5.11,16.38,9.26,36.57,9.26c20.2,0,36.57-4.15,36.57-9.26c0-2.85-5.09-5.4-13.09-7.1
						C447.98,426,444.26,424.76,440.69,423.18z"/>
				</g>
				<path class="st5" d="M486.74,305.43c-0.02,6.07-1.22,42.23-19,50.44c-18.91,8.73-98.37,14.71-108.97-1.25
					c-1.51-2.28-2.9-4.81-3.27-7.5c-0.21-1.5-0.17-3.03,0.21-4.47c1.88,0.25,3.83,0.77,5.81,1.58
					c28.84,11.71,93.14,2.44,103.79-9.27c10.66-11.71,14.72-56.6,2.67-77.09c-12.04-20.49,0-25.31,0-25.31
					C490.76,241.76,486.81,281.23,486.74,305.43z"/>
			</g>
			<g>
				
					<rect x="234.23" y="348.62" transform="matrix(-1 -1.224647e-16 1.224647e-16 -1 476.2626 773.2702)" class="st4" width="7.81" height="76.03"/>
				<path class="st3" d="M180.02,305.43c0.02,6.07,1.22,42.23,19,50.44c18.91,8.73,98.37,14.71,108.97-1.25
					c1.51-2.28,2.9-4.81,3.27-7.5c0.21-1.5,0.17-3.03-0.21-4.47c-0.17-0.66-0.41-1.32-0.72-1.94c-1.08-2.15-2.91-3.83-4.73-5.4
					c-8.69-7.49-18.18-13.13-27.97-18.97c-7-4.17-14.5-9.88-15.71-18.52c-2.38-16.94,10.88-37.09,3.01-53.86
					c-1.43-3.06-4.07-5.39-6.79-7.39c-15.87-11.59-56.37-5.23-59.35-4.02C176,241.76,179.95,281.23,180.02,305.43z"/>
				<path class="st5" d="M180.02,305.43c0.02,6.07,1.22,42.23,19,50.44c18.91,8.73,98.37,14.71,108.97-1.25
					c1.51-2.28,2.9-4.81,3.27-7.5c0.21-1.5,0.17-3.03-0.21-4.47c-1.88,0.25-3.83,0.77-5.81,1.58
					c-28.84,11.71-93.14,2.44-103.79-9.27c-10.66-11.71-14.72-56.6-2.67-77.09c12.04-20.49,0-25.31,0-25.31
					C176,241.76,179.95,281.23,180.02,305.43z"/>
				<path class="st4" d="M226.08,423.18l12.06-5.35l12.22,5.32c3.56,1.55,7.25,2.77,11.05,3.55c8.31,1.7,13.63,4.29,13.63,7.21
					c0,5.11-16.38,9.26-36.57,9.26s-36.57-4.15-36.57-9.26c0-2.85,5.09-5.4,13.09-7.1C218.79,426,222.51,424.76,226.08,423.18z"/>
			</g>
			<g>
				<g>
					<path class="st6" d="M280.22,439.86c10.98,1.54,44.46,0.91,46.35-1.46c4.06-5.08-4.39-9.51-25.37-14.53
						c-0.57-0.14-3.51-4.44-3.85-6.8c-3.7-0.18-10.54,5.15-14.24,4.97C282.96,424.52,278.9,439.8,280.22,439.86z"/>
					<path class="st6" d="M236.29,444.27c-0.08,8.77,21.83,8.28,29.47,3.4c2.56-1.64,2.75-4.2,0.31-7.41
						c-3.56-4.69-6.56-7.86-10.44-12.21c-2.33-2.61-5.04-5.73-4.24-9.14c-0.13,0.55-9.4-0.26-10.46-0.02
						c-4.88,1.12-2.43-0.45-3.24,3.48C236.4,428.69,236.29,443.88,236.29,444.27z"/>
					<path class="st7" d="M320.96,338.86c3.72,20.04-16.43,48.3-21.12,83.44c-5.33,3.01-12.33,2.5-16.72-0.26
						c-0.93-31.89,4.47-59.02,9.77-70.51c0.47-1.02-16.26-7.91-23.01-10.94c-5.34-2.4-10.81-4.9-14.86-9.12
						c-7.07-7.39-8.39-18.58-7.62-28.78c0.07-0.96,0.2-2.01,0.88-2.7c0.69-0.7,1.77-0.83,2.75-0.92c11.34-1,21.89-0.5,33.74,8.61
						C290.21,311.85,319.99,333.66,320.96,338.86z"/>
					<path class="st8" d="M236.7,347.03c4.97,3.04,10.53,5.53,10.5,8.91c-0.07,7.95-4.15,22.94-5.97,30.68
						c-2.75,11.67-4.1,23.68-3.99,35.67c1.21,4.82,13.22,6.1,15.9,0.18c8.17-18.05,16.54-37.56,25.37-55.3
						c3.42-6.86,5.79-11.71,4.64-17.08c-1.4-6.51-25.65-27.61-26.61-31.87c-0.96-4.27-0.6-8.71-0.22-13.07
						c-13.72-1.19-27.45-2.38-41.17-3.57c-3.16-0.27-7.21,2.38-7.94,5.08c-1.1,4.09-0.24,16.6,3.97,23.43
						C219.74,343.95,228.57,342.06,236.7,347.03z"/>
				</g>
				<g>
					<path class="st9" d="M317.38,176.08c0.79-0.52,1.7-0.89,2.34-1.59c0.77-0.84,1.14-2.11,2.19-2.56c1.5-0.64,4.91-1.17,3.1,2.13
						c-0.87,1.59-5.33,4.52-4.38,4.1c2.53-0.92,4.87-0.64,7.32-1.77c1.32-0.61,1.5-4.99,1.63-6.76c0.13-1.77,0.58-3.83,2.28-3.31
						c1.07,0.33,2.04,14.23,1.46,14.84c-2.3,2.38-6.39,4.65-7.97,6.2c-1.23,1.2,0.66,3.71-1.46,5.17c-1.95,1.33-8.07,5.97-10.03,0
						C312.59,188.66,313.85,178.4,317.38,176.08z"/>
					<path class="st10" d="M302.99,236.31c9.87-10.64,6.59-31.56,9.03-47.32c2.6-1.92,10.24-1.08,13.99,0
						c0,16.85,3.41,44.81-3.19,57.31c-1.81,3.43-3.81,6.92-6.97,9.16c-4.7,3.32-11.11,3.17-16.56,1.32
						c-5.44-1.85-10.24-5.17-15.26-7.97c-5.08-2.84-10.49-5.2-15.02-8.86c-8.14-6.57-12.73-26.82,2.94-27.28
						C283.21,212.33,297.02,228.2,302.99,236.31z"/>
				</g>
				<g>
					<path class="st10" d="M202.24,224.85c-2.3,5.89-0.54,10.72-0.8,17.03c-0.42,10.02-0.82,20.2,1.58,29.93
						c1.21,4.9,3.12,9.62,4.04,14.58c0.94,5.07,0.84,10.29,0.11,15.39c-0.23,1.62-0.52,3.33,0.05,4.86
						c1.04,2.82,4.39,3.89,7.32,4.56c10.72,2.45,21.68,4.37,32.66,3.85c12.66-0.59,24.91-4.38,37.39-6.61
						c2.24-1.55-11.65-10.97-7.42-32.37c2.21-11.18,4.53-22.43,4.75-33.82c0.16-8.55-1.43-17.02-3.01-25.43
						c-0.33-1.77-0.71-3.64-1.89-5c-1.63-1.88-4.33-2.32-6.81-2.64c-13.1-1.7-25.59-6.47-39.95-3.98
						c-7.68,1.33-16.35,3.58-19.39,5.48C206.35,213.52,204.68,218.59,202.24,224.85z"/>
					<g>
						<g>
							<path class="st11" d="M228.05,211.2c1.32,3.8,3.02,7.18,5.39,10.44c2.01,2.76,4.21,5.66,7.68,6.51
								c0.58,0.14,0.78-0.67,0.24-0.88c-6.29-2.5-10.25-10.27-12.58-16.27C228.61,210.55,227.89,210.73,228.05,211.2L228.05,211.2z"
								/>
						</g>
						<g>
							<path class="st11" d="M228.9,247.99c2.51,3.7,6.07,7.55,10.4,9.04c0.25,0.08,0.34-0.26,0.16-0.39
								c-3.71-2.78-7.25-5.14-10.01-8.98C229.21,247.33,228.66,247.64,228.9,247.99L228.9,247.99z"/>
						</g>
						<g>
							<path class="st11" d="M229.02,256.78c2.46,2,5.24,4.24,8.24,5.32c0.33,0.12,0.47-0.35,0.22-0.53
								c-2.62-1.84-5.47-3.25-8.01-5.25C229.15,256.08,228.7,256.52,229.02,256.78L229.02,256.78z"/>
						</g>
						<g>
							<path class="st11" d="M226.55,295.9c6.23,2.14,12.57,3.83,19.07,4.93c4.96,0.84,10.36,1.91,15.34,0.86
								c0.43-0.09,0.34-0.84-0.11-0.78c-11.05,1.41-23.67-2.24-34.15-5.54C226.35,295.27,226.22,295.79,226.55,295.9L226.55,295.9z"
								/>
						</g>
					</g>
				</g>
				<g>
					<path class="st12" d="M230.24,205.22c0.45,1.59,3.62,8.32,4.51,9.71c6.21,9.78,13.42,11.22,19.22,11.29
						c9.42,0.12,15.83-17.15,15.74-18.05c-0.14-1.34-4.64-0.61-5.35-1.76c-2.06-3.35,0.27-15.12-0.52-15.02
						c-7.35,0.99-24.12-13.67-25.34-4.77c-0.77,5.62-0.77,11.52-3.76,15.74C232.82,205.08,230.24,205.22,230.24,205.22z"/>
					<path class="st9" d="M242.64,194.07c2.79,3.21,10.96,10.43,17.61,7.68c2.48-1.02,4.57-2.83,6.35-4.84
						c6.29-7.12,6.17-17.58,6.32-32.1c0.07-6.89-5.22-7.67-11.65-10.14c-7.29-2.8-19.11-2.75-22.52,4.39
						C234.56,167.86,236.34,186.81,242.64,194.07z"/>
					<path class="st0" d="M254.56,188.99c0,0,0.1,9.34,2.46,9.15c2.2-0.18,4.35-5.52,4.4-7.64
						C261.43,190.5,257.03,190.78,254.56,188.99z"/>
					<path class="st4" d="M239.81,174.79c1.16-8.4,1.51-17.36,4.71-15.81c8.37,4.06,20.11,7.07,28.39,5.83
						c2.68-4.05,4.33-9.12,1.21-14.29c-3.88-6.44-29.89-10.67-34.05-0.42c-8.78-0.73-9.99,7.43-10.24,10.53
						c-0.66,8.19,1.43,12.12,2.38,19.1c2.28,0.39,4.71,1.21,6.69,2.08C238.9,180.69,240.1,177.93,239.81,174.79z"/>
					<path class="st9" d="M241.13,177.81c-0.9-3.42-3.94-7.38-7.02-5.64c-3.9,2.2-2.06,8.53-0.07,11.67c1,1.58,2.6,2.89,4.47,2.78
						C242.64,186.37,241.13,177.81,241.13,177.81z"/>
					<circle class="st4" cx="253.01" cy="176.11" r="1.44"/>
					<g>
						<path class="st12" d="M260.09,174.51c-0.55,2.32-0.46,4.67,0.25,6.96c0.32,1.02,1.16,2.23,0.88,3.13
							c-0.56,1.83-2.8,1.49-4.19,1.4c-0.27-0.02-0.44,0.27-0.38,0.5c0.7,3.03,4.93,0.44,5.96-1.01c0.79-1.11,0.34-1.63-0.2-2.77
							c-1.23-2.56-1.43-5.27-1.15-8.06C261.32,174,260.24,173.86,260.09,174.51L260.09,174.51z"/>
					</g>
					<g>
						<path class="st4" d="M250.21,170.87c1.67-0.95,4.21-1.29,5.77,0.04c1.46,1.25,3.58-0.92,2.1-2.1
							c-2.71-2.17-6.45-1.55-9.06,0.51C248.12,170.03,249.26,171.41,250.21,170.87L250.21,170.87z"/>
					</g>
					<circle class="st4" cx="267.39" cy="176.11" r="1.44"/>
					<g>
						<path class="st4" d="M271.66,170.59c-1.3-3.16-4.61-3.2-7.39-2c-1.73,0.75-0.24,3.4,1.5,2.57c1.34-0.64,3.1-1.34,4.09,0.19
							C270.43,172.23,272.1,171.67,271.66,170.59L271.66,170.59z"/>
					</g>
					<g>
						<path class="st12" d="M238,175.67c-0.9-0.52-2.11-0.92-3.04-0.23c-0.79,0.58-0.72,1.64-0.73,2.51
							c-0.03,1.91,0.54,4.85,2.97,4.93c0.4,0.01,0.59-0.6,0.21-0.78c-1.35-0.63-1.99-1.53-2.11-3.02c-0.03-0.42-0.06-0.94,0-1.36
							c-0.08-0.76,0.37-1.23,1.36-1.4c0.31,0.11,0.63,0.21,0.94,0.31C238.17,176.81,238.51,175.97,238,175.67L238,175.67z"/>
					</g>
					<g>
						<path class="st13" d="M248.49,154.52c5.61,3.81,13.28,6.87,20.18,5.77c0.38-0.06,0.23-0.57-0.08-0.61
							c-7.33-0.95-13.31-1.71-19.79-5.69C248.46,153.78,248.17,154.3,248.49,154.52L248.49,154.52z"/>
					</g>
					<g>
						<path class="st13" d="M249.41,151.07c3.97,0.39,7.92,1.13,11.7,2.42c3.34,1.15,6.34,2.98,9.63,4.2
							c0.23,0.08,0.42-0.25,0.24-0.41c-5.57-4.86-14.41-6.54-21.57-6.81C249.02,150.46,249.03,151.03,249.41,151.07L249.41,151.07z"
							/>
					</g>
					<g>
						<path class="st13" d="M233.86,166.14c-0.07-2.1-0.17-4.33,0.52-6.34c0.77-2.27,2.25-3.04,4.1-4.28
							c0.22-0.15,0.13-0.48-0.13-0.5c-1.92-0.14-3.53,1.77-4.32,3.33c-1.22,2.42-1.07,5.18-0.85,7.79
							C233.21,166.58,233.87,166.59,233.86,166.14L233.86,166.14z"/>
					</g>
					<g>
						<path class="st13" d="M237.02,165.81c0.03-1.6,0.37-3.15,1.1-4.58c0.69-1.36,1.73-2.25,2.74-3.34
							c0.34-0.36-0.09-0.91-0.53-0.68c-2.92,1.53-4.23,5.52-3.83,8.6C236.54,166.13,237.01,166.15,237.02,165.81L237.02,165.81z"/>
					</g>
					<g>
						<path class="st13" d="M249.41,147.13c7.73-0.57,13.38,2.05,20.19,5.17c0.35,0.16,0.78-0.28,0.44-0.57
							c-5.44-4.72-13.75-5.64-20.64-4.92C249.2,146.84,249.2,147.15,249.41,147.13L249.41,147.13z"/>
					</g>
				</g>
				<g>
					<g>
						<path class="st9" d="M262.35,271.37c0.91-0.03,10.74,7.95,10.56,9.6c-0.28,2.53-8.3-1.87-9.3-1.95
							c-1.01-0.09-5.89,1.55-6.82,1.95c-3.44,1.47-5.96-0.33-9.59-1.26c-5.22-1.35-7.94-5-5.8-9.96
							C248.54,271.98,253.17,271.69,262.35,271.37z"/>
						<path class="st14" d="M198.22,230.37c-4.98,12.71-7.44,27.27-7.53,40.91c-0.05,6.99,3.05,9.58,4.64,9.68
							c19.14,1.2,37.36,1.67,56.46,0c0.76-5.28-0.71-5.94,0.05-11.22c-13.05-0.23-31.22-7.97-40.82-6.35
							c1.88-4.78,13.01-22.43,15.78-33.01c1.39-5.33,1.77-12.37-2.28-16.1c-4.88-4.5-9.21-4.98-13.66-3.58
							C201.04,213.79,200.3,225.05,198.22,230.37z"/>
					</g>
					<g>
						<g>
							<path class="st10" d="M199.66,269.92c1.5-1.53,3.22-2.74,5.2-3.55c1.64-0.67,3.45-0.69,5.03-1.4
								c0.28-0.13,0.19-0.57-0.08-0.64c-3.69-0.98-8.43,2.45-10.75,4.99C198.68,269.72,199.27,270.32,199.66,269.92L199.66,269.92z"
								/>
						</g>
						<g>
							<path class="st10" d="M199.04,265.27c1.33-0.5,2.66-0.87,4.07-1.03c1.25-0.14,2.52,0.09,3.75-0.17
								c0.25-0.05,0.3-0.44,0.07-0.56c-2.37-1.24-5.97-0.02-8.12,1.21C198.53,264.89,198.72,265.39,199.04,265.27L199.04,265.27z"/>
						</g>
						<g>
							<path class="st10" d="M246.15,272.76c0.72,0.02,1.42,0.13,2.11,0.34c0.61,0.18,1.15,0.53,1.8,0.56
								c0.35,0.02,0.67-0.45,0.43-0.76c-0.9-1.17-2.97-1.34-4.34-1.33C245.38,271.58,245.38,272.74,246.15,272.76L246.15,272.76z"/>
						</g>
						<g>
							<path class="st10" d="M246.15,275.67c0.98-0.1,1.92-0.01,2.87,0.27c0.19,0.06,0.47,0.01,0.61-0.16
								c0.12-0.14,0.2-0.25,0.18-0.44c-0.02-0.27-0.18-0.53-0.46-0.6c-1.12-0.27-2.21-0.31-3.35-0.14
								C245.4,274.68,245.54,275.73,246.15,275.67L246.15,275.67z"/>
						</g>
						<g>
							<path class="st10" d="M246.15,278.95c0.67,0.01,1.33,0.03,2,0.04c0.59,0.01,1.08,0.06,1.55-0.34c0.16-0.14,0.16-0.46,0-0.59
								c-0.47-0.39-0.96-0.35-1.55-0.34c-0.67,0.01-1.33,0.03-2,0.04C245.38,277.78,245.38,278.94,246.15,278.95L246.15,278.95z"/>
						</g>
					</g>
				</g>
			</g>
			<g>
				<g>
					<path class="st4" d="M545.01,414.61c-2,3.2-11,7.65-13.75,8.42c-14.39,4.04-14.24,7.42-10.9,9.89
						c1.87,1.38,9.68,1.09,24.56,0.85c1.79-0.03,15.97-1.29,15.91-1.99c-0.62-7.32-4.51-18.39-5.49-27.32
						c-0.06-0.57-0.44-1.1-0.94-1.38c-0.39-0.22-0.87-0.21-1.32-0.19c-3.34,0.13-6.68,0.25-10.02,0.38
						C545.27,403.17,545.64,413.6,545.01,414.61z"/>
					<path class="st4" d="M499.22,414.8c-2.37,1.32-13.18,5.38-15.78,6.16c-4.69,1.42-12.08,4.42-10.73,8.66
						c3.61,3.22,11.02,1.88,15.86,1.86c6.1-0.02,30.49-0.56,30.5-0.97c0.02-10.28-3.09-17.48-5.14-26.21
						c-4.08-0.2-7.73-0.6-11.78-0.38C501.24,408.5,504.97,411.59,499.22,414.8z"/>
					<g>
						<path class="st14" d="M500.85,411.63c0.18,2.73,15.26,3.49,15.44-0.96c1.44-35.04,4.07-125.64,8.3-141.41
							c1.23-0.79,1.75-0.54,2.64,0.62c0.89,1.16,7.54,96.61,15.89,144.03c0.36,2.05,11.23,0.12,14.88-0.97
							c-0.34-69.01,4.42-129.71,2.24-182.97c-5.73-6.57-30.48-7.42-43.62-6.25c-8.52,0.76-21.65,0.98-26.6,9.29
							c0,8.34,0.99,22.65,0.97,25.48c-0.06,9.92,0.93,19.09,1.38,28.99C493.54,312.87,499.56,392.23,500.85,411.63z"/>
						<g>
							<g>
								<path class="st15" d="M507.04,258.18c3.41,4.06,8.81,8.37,14.31,8.8c0.36,0.03,0.52-0.55,0.19-0.7
									c-2.43-1.09-4.95-1.74-7.28-3.11c-2.53-1.48-4.74-3.36-6.68-5.55C507.25,257.25,506.72,257.8,507.04,258.18L507.04,258.18z"
									/>
							</g>
							<g>
								<path class="st15" d="M520.24,255.39c0.63,2.25,1.04,4.82,2.04,6.92c0.18,0.38,0.88,0.21,0.82-0.22
									c-0.29-2.32-1.32-4.7-1.99-6.94C520.94,254.6,520.09,254.83,520.24,255.39L520.24,255.39z"/>
							</g>
							<g>
								<path class="st15" d="M540.93,251.53c0.83,2.17,2.31,3.94,4.35,5.06c1.63,0.9,4.42,1.86,6.14,0.83
									c0.25-0.15,0.21-0.57-0.08-0.64c-1.8-0.46-3.49-0.11-5.28-1c-1.91-0.95-3.37-2.54-4.15-4.53
									C541.68,250.65,540.69,250.91,540.93,251.53L540.93,251.53z"/>
							</g>
							<g>
								<path class="st15" d="M545.93,261.29c0.99,0.21,1.99,0.42,2.98,0.63c0.8,0.17,1.62,0.48,2.43,0.24
									c0.22-0.07,0.37-0.41,0.15-0.57c-0.67-0.52-1.48-0.55-2.3-0.69c-1.01-0.17-2.01-0.34-3.02-0.51
									C545.59,260.3,545.33,261.17,545.93,261.29L545.93,261.29z"/>
							</g>
						</g>
					</g>
				</g>
				<g>
					<path class="st16" d="M486.28,128.56c0.13,31.44,2.64,75.19,1.15,106.86c-0.39,8.29,7.19,12.09,8.88,12.68
						c12.36,4.3,24.27,7.14,35.24,0c10.4-6.77,11.76-9.06,20.13-16.66c5.11-4.64,10.93,0.17,10.9-0.33
						c-1.73-32.93-5.86-73.62-7.58-106.55c-0.09-1.77-16.02-3.53-17.81-3.69c-6.42-0.57-12.91-0.36-19.27,0.63
						C505.59,123.43,494.88,124.66,486.28,128.56z"/>
					<g>
						<path class="st9" d="M589.39,183.21c1.56,9.76-11.97,40.59-23.16,52.37c-2.46,2.59-3.97,6.58-5.5,9.8
							c-0.84,1.76-1.52,3.88-3.32,4.63c-1.87,0.78-4.01-0.4-5.34-1.93c-2.82-3.25-3.39-8-2.47-12.2c1.67-7.62,7.37-5.98,9.5-9.71
							c5.34-9.36,11.65-37.54,10.27-39.05c-4.7-5.16-13.06-23.67-19.99-33.58c-1.81-2.59,16.01-12.71,18.49-9.85
							C574.25,151.07,587.49,171.25,589.39,183.21z"/>
						<path class="st16" d="M581.76,162.6c-4.79,1.86-21.35,10.34-23.82,7.71c-4.65-4.94-4.97-11.02-8.57-16.77
							c-3.6-5.76-6.18-12.31-6.33-19.09c-0.12-5.75,2.78-11.82,9.49-11.08c4.97,0.55,9.07,5.87,12.15,9.43
							C566.82,135.26,583.05,162.1,581.76,162.6z"/>
					</g>
				</g>
				<g>
					<path class="st12" d="M531.42,123.3c1.95,9.33-17.66,11.82-25.98,9.49c-0.84-0.24-1.76-0.59-2.14-1.37
						c-0.53-1.08,0.2-2.31,0.76-3.37c2.92-5.62,1.02-12.43-0.93-18.46c-0.59-1.82,17.1-10.69,18.69-6.39
						C524.82,111.24,528.16,117.76,531.42,123.3z"/>
					<path class="st17" d="M491.94,110.03c2.42,4.34,5.4,8.56,9.65,11.12c4.25,2.56,10.03,3.1,14.06,0.21
						c4.02-2.88,5.35-8.19,6.04-13.08c0.74-5.25,1.08-10.63,0.03-15.83c-1.05-5.2-3.62-10.23-7.83-13.45
						c-4.43-3.39-10.52-4.47-15.85-2.83C479.92,81.78,484.88,97.34,491.94,110.03z"/>
					<path class="st14" d="M478.63,85.52c0.5,1.29-0.68,2.56-1.15,3.86c-1,2.76,2.18,5.99,4.96,5.02c2.53-0.88,4.1-4.27,6.76-3.97
						c1.73,0.19,2.95,1.96,4.66,2.26c4.24,0.73,6.02-7.37,10.26-6.63c1.39,0.24,2.48,1.46,3.89,1.59c2.62,0.24,4.03-0.64,5.93,1.17
						c1.39,1.32,1.99,8.8,2.81,10.53c1.43,3.68,4.22-0.62,5.02,0c4.75,3.68,6.78-4.02,5.91-5.9c-0.88-1.88-2.92-4.14-1.76-6.84
						c0.43-1.01,1.1-2.29,0.54-3.24c-4.07-6.97,4.19-10.11-4.07-12.43c-3.35-3.15-3.52-5.04-7.5-2.74
						c-0.61,0.35-1.23,0.78-1.93,0.84c-1.28,0.11-2.31-0.97-3.21-1.88c-2.31-2.34-6.01-4.17-8.77-2.4c-1.2,0.77-1.29,3.46-5.98,2.63
						c-7.04-1.25-4.2,3.15-8.67,3.38c-2.77,0.14-4.35-0.78-6.71,0.85c-1.83,1.27-4.29,4.37-4.76,6.54
						C473.77,83.13,477.31,82.08,478.63,85.52z"/>
					<path class="st9" d="M522.38,90.64c-5.69,0.07-3.94,7.89-3.94,7.89c2.07,10.31,6.99,3.65,6.93,0.72
						C525.32,97.11,525.37,90.61,522.38,90.64z"/>
					<path class="st14" d="M497.22,103.03c0,0.81-0.66,1.46-1.46,1.46c-0.81,0-1.46-0.66-1.46-1.46s0.66-1.46,1.46-1.46
						C496.57,101.57,497.22,102.22,497.22,103.03z"/>
					<path class="st14" d="M510.11,99.36c0,0.81-0.66,1.46-1.46,1.46c-0.81,0-1.46-0.66-1.46-1.46s0.66-1.46,1.46-1.46
						C509.45,97.89,510.11,98.55,510.11,99.36z"/>
					<g>
						<path class="st18" d="M500.7,101.87c0.91,1.46,1.19,3.01,1.18,4.71c-0.01,1.24-0.4,2.55-0.32,3.77
							c0.13,1.94,2.45,2.05,3.97,1.66c0.84-0.22,0.55-1.29-0.19-1.39c-0.55-0.07-1.39,0.03-1.88-0.27
							c-0.61-0.36-0.38-0.69-0.34-1.36c0.05-1,0.08-2,0.01-3c-0.13-1.69-0.58-3.23-1.55-4.62
							C501.2,100.84,500.35,101.31,500.7,101.87L500.7,101.87z"/>
					</g>
					<path class="st0" d="M511.62,112.33c-4.22,2.65-8.71,2.83-8.71,2.83c1.18,3.56,6.19,5.7,9.02,3.67
						C513.61,117.62,511.62,112.33,511.62,112.33z"/>
					<g>
						<path class="st14" d="M490.62,98.94c0.55-0.59,1.2-1.08,1.96-1.38c0.7-0.28,1.63-0.3,2.01-1.05c0.15-0.3,0.14-0.7-0.12-0.94
							c-0.85-0.76-2.02-0.19-2.85,0.33c-0.88,0.55-1.6,1.27-2.18,2.13C488.95,98.73,490.04,99.56,490.62,98.94L490.62,98.94z"/>
					</g>
					<g>
						<path class="st14" d="M504.56,93.43c1.22-0.3,2.44-0.47,3.69-0.46c0.97,0,1.93,0.23,2.66-0.53c0.19-0.19,0.26-0.54,0.1-0.78
							c-0.69-1.02-1.88-0.88-2.99-0.76c-1.35,0.15-2.64,0.44-3.92,0.9C503.1,92.16,503.49,93.7,504.56,93.43L504.56,93.43z"/>
					</g>
					<g>
						<path class="st18" d="M520.57,97.17c0.01-0.4,0.06-0.8,0.15-1.2c1.34-1.03,2.08-1.05,2.2-0.08c0.17,0.57,0.13,1.27,0.16,1.86
							c0.06,1.23,0.35,3.07-0.95,3.79c-0.55,0.3-0.06,1.13,0.49,0.84c1.16-0.59,1.49-1.78,1.57-3c0.1-1.35,0.21-3.34-0.44-4.59
							c-0.47-0.91-1.42-1.38-2.41-1.01c-1.42,0.53-1.68,2.07-1.7,3.4C519.65,97.76,520.54,97.75,520.57,97.17L520.57,97.17z"/>
					</g>
					<g>
						<path class="st19" d="M481.82,78.12c-2.2,0.24-2.46,3.13-0.48,3.95c0.85,0.35,1.68,0.35,2.18,1.26
							c0.36,0.65,0.45,1.36,1.03,1.87c0.57,0.5,1.72,0.85,1.98-0.11c0.03-0.1-0.03-0.24-0.15-0.26c-0.29-0.05-0.72-0.05-0.97-0.19
							c-0.55-0.3-0.63-0.89-0.82-1.4c-0.2-0.53-0.39-1.03-0.83-1.42c-0.48-0.42-1.03-0.52-1.62-0.71c-0.53-0.17-1.07-0.34-1.04-1.03
							c0.02-0.5,0.37-0.87,0.84-0.97C482.49,78.99,482.39,78.06,481.82,78.12L481.82,78.12z"/>
					</g>
					<g>
						<path class="st19" d="M489.18,77.41c-1.01,2.3,0.44,5.09,3.07,5.21c0.25,0.01,0.51-0.05,0.76-0.07
							c1.37-0.12,1.68,0.02,2.61,0.9c0.4,0.38,0.66,0.69,1.21,0.88c1.36,0.49,2.84-0.28,3.83-1.17c0.43-0.39-0.12-0.95-0.57-0.74
							c-0.34,0.15-0.71,0.43-1.05,0.54c-4.66,1.46-1.87-0.21-2.97-1.01c-0.5-0.36-0.61-0.55-1.24-0.68c-0.49-0.1-1.01,0.02-1.5,0.07
							c-1.91,0.2-4.21-1.01-3.21-3.38C490.38,77.33,489.46,76.77,489.18,77.41L489.18,77.41z"/>
					</g>
					<g>
						<path class="st19" d="M500.02,74.87c0.02-0.01,0.04-0.02,0.05-0.03c0.23-0.12,0.24-0.51,0-0.63
							c-0.24-0.12-0.36-0.14-0.61-0.06c-0.22,0.07-0.33,0.25-0.36,0.47c-0.09,0.99,0.47,1.67,1.34,2.09
							c0.61,0.29,1.24,0.33,1.91,0.34c0.48,0.01,1.37-0.11,1.78,0.12c0.87,0.47,1.14,1.57,1.26,2.43c0.15,1.15,0.31,2.43,1.45,3.01
							c0.88,0.45,1.86,0.3,2.28-0.63c0.16-0.35-0.18-0.8-0.56-0.56c-2.06,1.27-1.99-2.51-2.19-3.24c-0.17-0.6-0.43-1.17-0.91-1.58
							c-0.46-0.4-1.03-0.56-1.62-0.64c-0.49-0.07-0.98-0.01-1.48-0.03c-0.16,0-0.33,0-0.49,0c-0.77-0.02-1.4-0.37-1.88-1.04
							c-0.14-0.18-0.27-0.36-0.41-0.53c-0.01,0.02-0.02,0.04-0.03,0.06C499.41,74.71,499.71,75.04,500.02,74.87L500.02,74.87z"/>
					</g>
					<g>
						<path class="st19" d="M511.76,74.86c-0.34,1.54,0.15,3.2,1.44,4.17c0.82,0.62,3.42,1.48,3.95,0.14
							c0.05-0.12-0.03-0.27-0.13-0.33c-0.44-0.27-0.73-0.05-1.23-0.02c-0.66,0.04-1.31-0.12-1.88-0.45
							c-1.23-0.7-1.75-2.08-1.57-3.44C512.37,74.62,511.83,74.55,511.76,74.86L511.76,74.86z"/>
					</g>
					<g>
						<path class="st19" d="M514.95,84.04c0.46,0.82,1.1,1.51,1.9,2.01c0.61,0.38,1.66,0.99,2.31,0.48c0.12-0.1,0.14-0.32,0.06-0.45
							c-0.35-0.55-1.22-0.52-1.78-0.82c-0.73-0.39-1.31-0.95-1.75-1.64C515.4,83.15,514.68,83.56,514.95,84.04L514.95,84.04z"/>
					</g>
					<g>
						<path class="st19" d="M518.02,73.97c1.22-0.17,2.5,0.4,2.99,1.57c0.51,1.21-0.12,1.99-0.39,3.12
							c-0.1,0.42,0.35,0.79,0.74,0.57c1.44-0.83,1.27-3.22,0.46-4.43c-0.88-1.31-2.5-1.86-4-1.53
							C517.35,73.37,517.56,74.04,518.02,73.97L518.02,73.97z"/>
					</g>
				</g>
				<g>
					<path class="st9" d="M474.84,191.22c1.1,4.74,5.35,8.1,9.42,11c3.96,2.83,15.53,0,20.49-13.72
						c5.94-16.45,7.64-29.09,6.84-49.21c-0.08-2.07,2.7-4.14,2.6-6.83c-0.24-6.89-1.72-6.42-1.31-6.67
						c2.98-1.83,3.89-0.81,3.75-4.07c-2.44-3.09-12.05-2.97-16.53,4.12c-1.04,1.65-1.45,3.53-1.36,5.48
						c0.09,1.82,1.49,5.2,1.72,7.01c1.27,10.04-0.95,15.77-4.14,23.89c-3.37,8.58-4.78,11.07-6.63,18.85
						c0.36-4.38,0.06-11.68-0.55-16.41c-3.76,0.37-17.69-3.78-17.89,0.49C470.96,171.16,474.02,187.7,474.84,191.22z"/>
					<path class="st16" d="M473.35,143.01c-3.43,10.29-3.92,21.43-3.18,32.25c7.52-0.23,12.59-0.39,20.12-0.62
						c0.26-4.12,2.06-23.13,1.12-30.62c-0.63-4.99,0.24-18.07-5.13-15.45C480.02,131.62,475.57,136.37,473.35,143.01z"/>
				</g>
				<g>
					<g>
						<path class="st20" d="M515.2,136.96c4.69,0.79,10.51-0.19,14.54-2.81c2.22-1.44,6.42-4.66,6.24-7.7
							c-0.03-0.55-0.78-0.66-0.96-0.13c-2.58,7.6-12.48,10.57-19.7,9.76C514.82,136.02,514.7,136.88,515.2,136.96L515.2,136.96z"/>
					</g>
					<g>
						<path class="st20" d="M555.15,161.07c-2.47-7.88-6.06-16.87-4.33-25.18c0.11-0.52-0.61-0.71-0.79-0.22
							c-2.97,7.82,1.88,18.19,4.42,25.59C554.59,161.71,555.29,161.52,555.15,161.07L555.15,161.07z"/>
					</g>
					<g>
						<path class="st20" d="M544.75,141.61c1.79,7,4.94,15.57,9.55,21.19c0.24,0.3,0.78-0.02,0.65-0.38
							c-1.18-3.15-3.05-6.02-4.47-9.07c-1.83-3.92-3.25-7.98-4.86-11.98C545.4,140.84,544.6,141.03,544.75,141.61L544.75,141.61z"/>
					</g>
					<g>
						<path class="st20" d="M491.87,166.8c0.78-7.05,1.55-14.88,0.05-21.88c-0.08-0.36-0.62-0.27-0.63,0.09
							c-0.23,7.29,0.52,14.48-0.11,21.79C491.14,167.24,491.82,167.23,491.87,166.8L491.87,166.8z"/>
					</g>
					<g>
						<path class="st20" d="M493.53,162.68c0.33-2.09,0.67-4.18,0.97-6.27c0.26-1.82,0.77-3.72,0.56-5.55
							c-0.05-0.39-0.53-0.46-0.67-0.09c-0.68,1.7-0.7,3.69-0.92,5.5c-0.26,2.1-0.48,4.21-0.71,6.31
							C492.7,163.01,493.46,163.12,493.53,162.68L493.53,162.68z"/>
					</g>
					<g>
						<path class="st20" d="M502.3,238.64c7.48,2.29,15.92,4.15,23.45,1.03c3.97-1.64,6.79-4.75,10.13-7.33
							c4.9-3.79,10.09-4.75,15.86-6.36c0.63-0.17,0.45-1.02-0.15-1.08c-7.48-0.69-14.5,4.02-19.85,8.69
							c-8.69,7.59-18.61,6.87-29.16,4.02C501.91,237.43,501.64,238.44,502.3,238.64L502.3,238.64z"/>
					</g>
					<g>
						<path class="st20" d="M509.79,219.42c9.18,6.31,23.36,2.6,27.26-8.31c0.19-0.53-0.55-0.74-0.84-0.35
							c-3.17,4.27-5.96,8.12-11.27,9.89c-5.06,1.68-10.25,0.81-14.64-2.09C509.76,218.19,509.26,219.05,509.79,219.42L509.79,219.42
							z"/>
					</g>
					<g>
						<path class="st20" d="M517.21,200.33c7.46-2.31,11.28-12.42,12.5-19.4c0.13-0.72-0.82-0.98-1.09-0.3
							c-2.58,6.52-4.11,16.19-11.63,18.89C516.49,199.7,516.69,200.49,517.21,200.33L517.21,200.33z"/>
					</g>
				</g>
				<g>
					<g>
						<path class="st15" d="M507.04,258.18c3.41,4.06,8.81,8.37,14.31,8.8c0.36,0.03,0.52-0.55,0.19-0.7
							c-2.43-1.09-4.95-1.74-7.28-3.11c-2.53-1.48-4.74-3.36-6.68-5.55C507.25,257.25,506.72,257.8,507.04,258.18L507.04,258.18z"/>
					</g>
					<g>
						<path class="st15" d="M520.24,255.39c0.63,2.25,1.04,4.82,2.04,6.92c0.18,0.38,0.88,0.21,0.82-0.22
							c-0.29-2.32-1.32-4.7-1.99-6.94C520.94,254.6,520.09,254.83,520.24,255.39L520.24,255.39z"/>
					</g>
					<g>
						<path class="st15" d="M540.93,251.53c0.83,2.17,2.31,3.94,4.35,5.06c1.63,0.9,4.42,1.86,6.14,0.83
							c0.25-0.15,0.21-0.57-0.08-0.64c-1.8-0.46-3.49-0.11-5.28-1c-1.91-0.95-3.37-2.54-4.15-4.53
							C541.68,250.65,540.69,250.91,540.93,251.53L540.93,251.53z"/>
					</g>
					<g>
						<path class="st15" d="M545.93,261.29c0.99,0.21,1.99,0.42,2.98,0.63c0.8,0.17,1.62,0.48,2.43,0.24
							c0.22-0.07,0.37-0.41,0.15-0.57c-0.67-0.52-1.48-0.55-2.3-0.69c-1.01-0.17-2.01-0.34-3.02-0.51
							C545.59,260.3,545.33,261.17,545.93,261.29L545.93,261.29z"/>
					</g>
				</g>
			</g>
			<g>
				<path class="st16" d="M429.45,192.24c-0.82,2.76-1.87,5.86,3.2,8.96c2.15,1.32,4.48,2.49,5.52,4.89
					c1.53,3.51-1.88,6.97-4.03,10.03c-3.05,4.32-3.89,10.49-2.12,15.64c0.47,1.38,1.12,2.71,1.35,4.16
					c0.23,1.46,0.01,2.96-0.35,4.39c-1.65,6.63-6.47,12.14-12.34,14.12c-5.87,1.98-12.6,0.36-17.22-4.15
					c-5.92-0.15-11.71-3.5-15.25-8.83c-3.54-5.33,2.32-22.52-3.22-18.93c-7.88,5.1,1.21-7.69,1.17-12.9
					c-0.03-5.27-5.87-8.43-5.57-13.71c0.14-2.51,2.7-5.43,2.68-7.94c-0.02-3.74-2.47-7.87-2.53-11.58
					c-0.16-9.91,6.22-16.18,9.51-18.3c7.45-4.79,22.1-8.44,28.3,2.54c0,0,3.3-0.89,7.82,3.4C431.18,168.59,434,176.95,429.45,192.24
					z"/>
				<g>
					<path class="st12" d="M352.58,425.2c-1.53,4.02-5.13,6.88-8.87,9.02c-1.39,0.8-2.85,1.55-3.91,2.75
						c-1.06,1.2-1.62,3.01-0.89,4.43c9.33-2.16,18.71-4.11,28.13-5.83c0.54-0.1,1.16-0.25,1.42-0.74c0.24-0.46,0.04-1.02-0.15-1.5
						c-3.13-7.68-2.5-16.72-5.62-24.4c-0.16-0.4-4.1,0.55-4.44,0.3c-0.33-0.24-5.18-0.4-5.59-0.39
						C352.64,408.83,354.31,420.65,352.58,425.2z"/>
					<path class="st16" d="M366.82,428.59c-9.71,5.68-13.25-1.29-14.24-3.39c-2.41-1.45-12.98,7.14-21.26,9.83
						c-2.98,0.97-4.74,7.4-1.31,8.16c9.31,0.31,25.84,0.69,39.99-0.76C371.7,441.4,369.44,427.06,366.82,428.59z"/>
					<path class="st12" d="M375.52,427.27c-1.53,4.02-5.13,6.88-8.87,9.02c-1.39,0.8-2.85,1.55-3.91,2.75
						c-1.06,1.2-1.62,3.01-0.89,4.43c9.33-2.16,18.71-4.11,28.13-5.83c0.54-0.1,1.16-0.25,1.42-0.74c0.24-0.46,0.04-1.02-0.15-1.5
						c-3.13-7.68-2.5-16.72-5.62-24.4c-0.16-0.4-4.1,0.55-4.44,0.3c-0.33-0.24-5.18-0.4-5.59-0.39
						C375.58,410.91,377.25,422.72,375.52,427.27z"/>
					<path class="st21" d="M389.76,430.66c-9.71,5.68-13.25-1.29-14.24-3.39c-2.41-1.45-12.98,7.14-21.26,9.83
						c-2.98,0.97-4.74,7.4-1.31,8.16c9.31,0.31,25.84,0.69,39.99-0.76C394.64,443.47,392.38,429.13,389.76,430.66z"/>
					<path class="st22" d="M342.92,341.79c-1.01,16.91,5.37,53.28,8.47,74.17c3.83,0.47,11.05,1.33,14.84,0.57
						c-1.71-13.69-1.14-30.58-1.12-43.76c0.01-5.73-1.71-16.65,1.12-21.63c2.33-4.11,7.76-6.42,16.54-10.09s18.04-5.08,27.23-7.55
						c18.96-5.1,17.71-23.23,13.78-28.45c-10.79,2.05-34.59,3.19-45.49,3.56C354.65,325.6,343.32,335.14,342.92,341.79z"/>
					<path class="st4" d="M367.81,345.2c-0.85,3.55,5.1,51.49,6.73,71.58c3.02,1.02,10.12,0.25,13.27-0.25
						c1.18-20.08,3.92-28.86,3.92-42.54c0-9.39-3.01-21.23,0.91-22.96c12.73-5.59,41.89-10.27,51.52-19.98
						c5.61-5.65,7.2-12.43,3.66-22.2c-1.07-2.95-8.07-3.83-10.98-5c-2.48-1-5.28-0.37-7.88,0.27c-8.59,2.12-13.74,0.34-21.43,4.74
						C395.13,315.95,372.19,326.92,367.81,345.2z"/>
				</g>
				<path class="st12" d="M379.35,263.39c-5.81,2.37-22.73,6.48-28.97,5.86c-6.48-0.64-9.05-0.55-11.85,1.15
					c-1.32,0.8-2.76,8.1-0.9,7.4c0.72-0.27,2.68-4.35,2.95-3.69c0.33,5.49,2.73,8.72,2.24,1.33c-0.1-1.5,3.09-1.04,4.37-1.02
					c1.08,0.02-1.6,4.08-0.52,4.08c3.42,0,3.12-2.84,4.66-2.93c7.07-0.43,12.35,0.09,16.48,0.02c9.63-0.15,18.77-1.28,20.01-3.72
					c5.66-11.21-0.9-27.3-1.37-39.85c-0.38-10.3-10.86-12.63-10.17-0.55C377.24,248.18,379.64,251.97,379.35,263.39z"/>
				<path class="st23" d="M444.99,226.31c-0.31,6.32-1.39,10.22-3.51,16.19c-2.93,8.25-6.5,14.4-6.83,21.99
					c-1.23,28.05,10,30.95,13.17,44.37c-23.23,8.2-45.61,5.63-69.53-0.24c1.11-5.46,3.31-11.32,5.37-16.5c1-2.5,6.03-8.2,6.1-10.89
					c0.2-8.46,0.01-14.33-1.46-19.7c-1.86-6.78-15.29-7.63-5.61-23.56c0.79-1.3,0.75-2.17,1.04-5.41c0,0-3.66-0.45-7.45-1.1
					c0,0-1.15-9.85,4.3-12.78c4.01-2.15,9.12-4.19,16.07-5.07c9.88-1.25,9.78-1.09,19.7-0.14c1.73,0.17,12.9,1.26,17.78,2.64
					C442.4,218.44,445.2,222,444.99,226.31z"/>
				<g>
					<path class="st9" d="M427.87,234.19c-1.97,6.89-7.95,30.1-9.33,30.12c-18.32,0.26-28.09,4.85-39.52,4.45
						c-3.1-0.11-9.18-1.69-12.2-0.98c-3.02,0.71-4.62,6.19-4.23,9.27c1.63,2.68,2.85-4.58,3.58-5.04c0.43-0.27-0.41,5.17,0,5.69
						c1.63,2.03,1.63-2.14,2.22-6.02c0.13-0.87,1.55,7.61,2.17,6.79c0.63-0.83,0.37-5.27,0.98-5.33c2.8-0.28,1.3,3.08,9.03,2.59
						c15.59-0.98,30.34,6.98,44.15,2.8c4.39-1.33,7.21-7.49,7.81-8.8c2.08-4.63,10.4-24.22,12.35-28.9
						c1.95-4.68,2.52-13.85-0.96-17.54C436.38,215.29,430.37,225.46,427.87,234.19z"/>
					<path class="st23" d="M444.59,241.48c2.72-5.41,4.59-12.65,2.42-16.46c-2.17-3.81-3.63-7.31-12.87-8.91
						c-8.06-1.39-7.63,16.62-7.77,20.2C438.95,231.28,442.24,240.64,444.59,241.48z"/>
				</g>
				<g>
					<g>
						<path class="st24" d="M385.14,231.3c0.8-2.81,1.4-6.86,0.27-9.64c-0.13-0.32-0.57-0.28-0.6,0.08
							c-0.12,1.45,0.21,2.95,0.2,4.41c-0.01,1.67-0.25,3.32-0.5,4.97C384.44,231.54,385.02,231.72,385.14,231.3L385.14,231.3z"/>
					</g>
					<g>
						<path class="st24" d="M384.22,229.56c-0.19-1.44-0.19-3.04-0.84-4.36c-0.1-0.2-0.47-0.17-0.5,0.07
							c-0.21,1.46,0.27,2.97,0.53,4.41C383.5,230.12,384.28,230.02,384.22,229.56L384.22,229.56z"/>
					</g>
					<g>
						<path class="st24" d="M425.95,233.75c1.09-1.17,0.78-2.78,0.86-4.28c0.14-2.56,0.98-4.93,1.29-7.43
							c0.04-0.29-0.41-0.38-0.54-0.15c-0.85,1.52-1.13,3.29-1.36,5c-0.26,1.97,0.3,4.78-0.64,6.55
							C425.42,233.69,425.74,233.96,425.95,233.75L425.95,233.75z"/>
					</g>
					<g>
						<path class="st24" d="M423.31,226.64c-0.03,1.38,0.04,2.75,0.23,4.12c0.15,1.08,0.23,2.32,0.86,3.23
							c0.23,0.33,0.73,0.21,0.75-0.2c0.05-1.06-0.41-2.12-0.6-3.16c-0.24-1.32-0.36-2.65-0.4-3.99
							C424.14,226.1,423.33,226.1,423.31,226.64L423.31,226.64z"/>
					</g>
					<g>
						<path class="st24" d="M389.78,222.04c0.14,5.44,3.52,9.66,8.84,10.99c5.61,1.4,14.59-0.04,17.48-5.63
							c0.19-0.37-0.28-0.76-0.59-0.45c-7.04,7.02-24.04,8.33-25.03-4.91C390.45,221.59,389.77,221.58,389.78,222.04L389.78,222.04z"
							/>
					</g>
					<g>
						<path class="st24" d="M395.89,246c-1.77,9.7,13.95,15.26,19.82,8.08c0.28-0.34-0.08-0.93-0.51-0.66
							c-2.88,1.82-5.52,3.13-9.07,2.57c-4.46-0.7-10.16-4.41-9.28-9.73C396.95,245.64,396.01,245.36,395.89,246L395.89,246z"/>
					</g>
					<g>
						<path class="st24" d="M388.14,257.17c1.98,1.21,5.81,1.41,7.1-0.96c0.19-0.35-0.19-0.7-0.53-0.53
							c-0.93,0.46-1.66,1.1-2.72,1.3c-1.18,0.22-2.34-0.01-3.38-0.61C388.09,256.07,387.63,256.86,388.14,257.17L388.14,257.17z"/>
					</g>
					<g>
						<path class="st24" d="M390.77,299.61c10.68,3.96,23.6,5.29,34.48,1.2c0.53-0.2,0.33-0.97-0.24-0.85
							c-11.81,2.37-22.47,3-34.07-0.95C390.55,298.88,390.4,299.47,390.77,299.61L390.77,299.61z"/>
					</g>
					<g>
						<path class="st24" d="M398.31,296.84c4.08,1.47,9.15,2.88,13.5,2.03c0.32-0.06,0.34-0.62,0-0.66
							c-4.55-0.61-8.88-0.53-13.35-1.92C398.1,296.17,397.96,296.72,398.31,296.84L398.31,296.84z"/>
					</g>
				</g>
				<g>
					<path class="st12" d="M407.35,228.48c-3.73,1.12-8.01,1.26-11.31-0.82s-4.98-6.88-2.78-10.1c0.98-1.44,2.58-2.41,3.39-3.96
						c0.6-1.14,0.7-2.46,0.75-3.74c0.26-5.95-3.28-16.17,1.41-18.87c4.61-2.65,14.19-1.09,15.1,3.44
						c0.81,4.05-0.98,15.18,2.44,19.03C421.53,219.31,416.85,225.62,407.35,228.48z"/>
					<path class="st9" d="M401.63,206.55c6.83,0.14,13.87-7.44,15.71-12.83c0.79-2.32,1.56-4.67,2.04-7.08
						c1.28-6.47,0.36-13.55-3.46-18.92c-8.09-11.4-28.31-8.87-29.71,6.3C385.32,183.7,389.46,206.3,401.63,206.55z"/>
					<path class="st16" d="M386.84,183.5c4.27-0.13,8.06-2.74,11.25-5.58c3.2-2.84,6.17-6.07,10.03-7.92
						c0.53-0.25,1.11-0.49,1.7-0.41c0.63,0.08,1.16,0.49,1.59,0.96c2.69,2.93,4.19,6.45,5.43,10.23c0.7,2.13-0.13,5.12,1.66,6.46
						c0.3,0.22,0.63,0.44,1,0.42c0.43-0.02,0.78-0.34,1.06-0.66c2.91-3.21,4.09-7.59,5.02-11.82c0.59-2.68,1.12-5.48,0.49-8.15
						c-0.63-2.67-2.74-5.19-5.47-5.43c-1.94-0.17-4.05,0.77-5.75-0.18c-0.89-0.5-1.44-1.43-2.13-2.18
						c-4.59-5.06-18.11-1.74-23.21,2.8C383.78,167.15,385.8,183.53,386.84,183.5z"/>
					<path class="st9" d="M423.79,187.98c-0.02-2.11-0.37-4.68-2.64-5.53c-2.02-0.75-4.45,0.49-5.41,2.18
						c-0.96,1.69-0.42,8.59,1.2,9.14C422.21,195.57,423.8,188.81,423.79,187.98z"/>
					<circle class="st4" cx="404.98" cy="185" r="1.44"/>
					<path class="st4" d="M393.7,184.93c0,0.79-0.64,1.44-1.44,1.44c-0.79,0-1.44-0.64-1.44-1.44s0.64-1.44,1.44-1.44
						C393.06,183.49,393.7,184.14,393.7,184.93z"/>
					<g>
						<path class="st12" d="M396.88,184.66c-0.58,1.03-0.48,1.99-0.49,3.13c0,1.14-0.17,1.6-0.82,2.54
							c-0.18,0.26-0.43,0.48-0.51,0.81c-0.27,1.26,1.6,2.94,2.43,3.67c0.83,0.73,1.87-0.63,0.92-1.2c-0.2-0.12-0.39-0.14-0.62-0.16
							c-0.42-0.05-0.63,0.42-0.57,0.75c0.03,0.17,0.06,0.3,0.15,0.45c0.4-0.31,0.8-0.62,1.2-0.92c-0.33-0.3-0.63-0.64-0.92-0.98
							c-0.35-0.4-0.99-0.93-0.87-1.53c0.04-0.18,0.43-0.48,0.54-0.65c0.98-1.57,0.32-3.76,0.57-5.5
							C397.96,184.51,397.21,184.07,396.88,184.66L396.88,184.66z"/>
					</g>
					<g>
						<path class="st16" d="M402.58,178.32c1.55-0.29,3.1-0.02,4.65-0.01c0-0.34,0-0.68,0-1.03c-0.02,0-0.03,0-0.05,0
							c-0.56,0.01-0.7,0.85-0.13,0.99c0.02,0,0.03,0.01,0.05,0.01c0.64,0.14,0.91-0.81,0.27-0.99c-1.54-0.42-3.5-0.24-5.03,0.13
							C401.76,177.58,402.01,178.42,402.58,178.32L402.58,178.32z"/>
					</g>
					<g>
						<path class="st12" d="M395.26,197.97c1.36,0.86,2.89,1.2,4.49,0.93c1.35-0.23,3.2-0.87,3.6-2.32c0.14-0.5-0.33-0.94-0.82-0.82
							c-1.05,0.26-1.8,1.1-2.88,1.36c-1.23,0.3-2.55,0.2-3.7-0.34C395.16,196.42,394.5,197.49,395.26,197.97L395.26,197.97z"/>
					</g>
					<g>
						<path class="st0" d="M418.79,193.26c1.31,0,1.31-2.04,0-2.04C417.48,191.22,417.48,193.26,418.79,193.26L418.79,193.26z"/>
					</g>
					<g>
						<path class="st12" d="M418.49,185.29c1.31-1.54,2.61,0.86,2.87,1.96c0.27,1.15,0.27,2.4-0.66,3.25
							c-0.34,0.31,0.11,0.92,0.5,0.65c1.68-1.19,1.35-3.79,0.65-5.46c-0.69-1.66-2.86-2.66-4.1-0.97
							C417.43,185.14,418.14,185.69,418.49,185.29L418.49,185.29z"/>
					</g>
					<g>
						<path class="st25" d="M384.07,179.89c3.57-0.67,6.84-2.12,9.51-4.63c1.54-1.45,2.66-3.25,4.33-4.56
							c2.4-1.89,5.14-2.18,8.02-2.78c0.52-0.11,0.41-1-0.13-0.94c-3.25,0.36-6.55,1.12-9.02,3.38c-1.74,1.59-2.97,3.56-4.8,5.07
							c-2.39,1.97-5.07,3.11-8.11,3.73C383.39,179.25,383.59,179.98,384.07,179.89L384.07,179.89z"/>
					</g>
					<g>
						<path class="st25" d="M384.75,170.52c2.98-1.23,5.26-3.24,7.86-5.07c4.64-3.26,9.3-3.37,14.73-2.63
							c0.78,0.11,0.94-0.98,0.15-1.08c-3.94-0.51-8.13-0.66-11.85,1c-4.09,1.83-7,5.47-11.09,7.31
							C384.29,170.16,384.48,170.63,384.75,170.52L384.75,170.52z"/>
					</g>
					<g>
						<path class="st25" d="M394.88,159.19c5.09-1.01,9.87-1.62,14.87,0.09c0.49,0.17,0.84-0.63,0.36-0.85
							c-4.92-2.21-10.35-0.91-15.35,0.33C394.48,158.83,394.6,159.24,394.88,159.19L394.88,159.19z"/>
					</g>
					<g>
						<path class="st25" d="M413.63,169.57c1.63,0.68,2.98,1.81,3.95,3.27c0.82,1.22,0.96,2.58,1.55,3.87
							c0.1,0.23,0.5,0.17,0.54-0.07c0.28-1.55-0.73-3.42-1.64-4.61c-1.09-1.43-2.56-2.45-4.24-3.06
							C413.41,168.82,413.27,169.42,413.63,169.57L413.63,169.57z"/>
					</g>
					<g>
						<path class="st25" d="M416.4,166.48c2.15,0.98,4,2.45,5.36,4.4c1.19,1.71,1.55,3.66,2.46,5.48c0.14,0.27,0.48,0.1,0.51-0.14
							c0.54-4.5-4.36-8.83-8.05-10.39C416.31,165.67,416.04,166.31,416.4,166.48L416.4,166.48z"/>
					</g>
					<g>
						<path class="st25" d="M418.41,163.99c3.27,0.55,5.96,2.58,7.83,5.28c1.62,2.33,2.26,5.11,3.74,7.47
							c0.2,0.32,0.64,0.1,0.59-0.25c-0.94-5.95-5.88-12.37-12.07-13.11C418.15,163.34,418.07,163.93,418.41,163.99L418.41,163.99z"
							/>
					</g>
					<g>
						<path class="st25" d="M423.69,194.99c-0.49,2.24-0.96,4.8,0.66,6.69c0.8,0.94,2,1.33,2.99,2.01c2.43,1.69,2.96,3.91,3.24,6.65
							c0.02,0.2,0.3,0.26,0.36,0.05c0.56-1.96-0.07-4.14-1.26-5.77c-0.74-1.02-1.59-1.52-2.59-2.21c-1.65-1.14-2.73-1.71-2.97-3.97
							c-0.12-1.08,0.12-2.19,0.31-3.25C424.51,194.71,423.79,194.5,423.69,194.99L423.69,194.99z"/>
					</g>
					<g>
						<path class="st25" d="M418.87,199.74c-0.87,1.54-0.8,3.2-0.06,4.79c0.76,1.63,2.46,3.91,4.1,4.66
							c0.19,0.09,0.41-0.06,0.36-0.28c-0.29-1.21-1.38-2.03-2.16-2.96c-1.33-1.58-2.43-3.67-1.39-5.71
							C420.01,199.68,419.18,199.18,418.87,199.74L418.87,199.74z"/>
					</g>
					<g>
						<path class="st25" d="M385.26,195.65c-0.63,2-0.25,3.72,0.76,5.55c1.7,3.07,5.94,7.1,2.17,10.44
							c-0.34,0.3,0.12,0.91,0.49,0.63c1.62-1.19,2.19-3.02,1.77-5.02c-0.89-4.23-5.72-6.59-4.54-11.43
							C386,195.41,385.39,195.24,385.26,195.65L385.26,195.65z"/>
					</g>
					<g>
						<path class="st25" d="M393.26,211.59c0.33-0.6,0.58-1.24,0.69-1.92c0.08-0.5,0.21-1.2-0.3-1.5c-0.08-0.05-0.21-0.06-0.29,0
							c-0.39,0.3-0.32,0.7-0.37,1.16c-0.06,0.63-0.23,1.23-0.51,1.8C392.23,211.65,392.97,212.1,393.26,211.59L393.26,211.59z"/>
					</g>
				</g>
			</g>
			<g>
				<rect x="144.65" y="280.96" class="st26" width="390.03" height="11.15"/>
				<rect x="494.88" y="280.96" class="st27" width="39.8" height="11.15"/>
				<rect x="149.54" y="292.12" class="st28" width="8.46" height="154.74"/>
				<rect x="169.06" y="292.12" class="st29" width="8.46" height="143.36"/>
				<rect x="500.85" y="292.12" class="st28" width="8.46" height="154.74"/>
				<rect x="520.36" y="292.12" class="st29" width="8.46" height="143.36"/>
			</g>
			<g>
				<path class="st30" d="M362.24,194.27H247.81c-2.17,0-3.94,1.76-3.94,3.94v62.15c0,2.17,1.76,3.94,3.94,3.94h114.43
					c2.17,0,3.94-1.76,3.94-3.94v-62.15C366.18,196.03,364.41,194.27,362.24,194.27z"/>
				<path class="st6" d="M362.24,194.27h-92.86c-2.17,0-3.94,1.76-3.94,3.94v32.6c0,11.18,9.06,20.24,20.24,20.24h76.56
					c2.17,0,3.94-1.76,3.94-3.94v-48.9C366.18,196.03,364.41,194.27,362.24,194.27z"/>
				<g>
					<path class="st31" d="M305.03,239.32c-3.41,0-6.18,2.77-6.18,6.18v35.46h12.36v-35.46
						C311.21,242.09,308.44,239.32,305.03,239.32z"/>
					<rect x="303.07" y="277.06" class="st6" width="70.91" height="3.9"/>
					<rect x="281.93" y="277.06" class="st32" width="46.19" height="3.9"/>
				</g>
			</g>
			<g>
				<path class="st33" d="M393.24,95.9c0-27.03-21.91-48.95-48.95-48.95c-27.03,0-48.95,21.91-48.95,48.95
					c0,27.03,21.91,48.95,48.95,48.95c4.15,0,8.17-0.52,12.02-1.49c4.09,7.63,12,12.34,21.98,8.94c0,0-8.15-5.6-8.96-14.34
					C383.65,129.42,393.24,113.78,393.24,95.9z"/>
				<g>
					<g>
						<path class="st16" d="M356.33,98.68c0,2.87-1.17,5.48-3.05,7.36c-1.88,1.88-4.49,3.05-7.36,3.05
							c-5.75,0-10.41-4.66-10.41-10.41c0-5.75,4.66-10.41,10.41-10.41l1.07,0.05H347c2.23,0.23,4.26,1.17,5.85,2.59
							C354.99,92.81,356.33,95.59,356.33,98.68z"/>
						<path class="st34" d="M352.85,90.91l-6.93,7.77V88.27l1.07,0.05H347C349.24,88.55,351.27,89.49,352.85,90.91z"/>
						<path class="st23" d="M356.33,98.68c0,2.87-1.17,5.48-3.05,7.36l-7.36-7.36l6.93-7.77C354.99,92.81,356.33,95.59,356.33,98.68
							z"/>
					</g>
					<g>
						<path class="st16" d="M329.88,98.68c0,2.87-1.17,5.48-3.05,7.36c-1.39,1.39-3.16,2.39-5.16,2.82
							c-0.71,0.15-1.45,0.24-2.2,0.24c-5.75,0-10.41-4.66-10.41-10.41c0-5.75,4.66-10.41,10.41-10.41l1.07,0.05h0.02
							c2.23,0.23,4.26,1.17,5.85,2.59C328.54,92.81,329.88,95.59,329.88,98.68z"/>
						<path class="st23" d="M329.88,98.68c0,2.87-1.17,5.48-3.05,7.36l-7.36-7.36l6.93-7.77C328.54,92.81,329.88,95.58,329.88,98.68
							z"/>
						<path class="st34" d="M326.4,90.91l-6.93,7.77h-10.41c0-5.75,4.66-10.41,10.41-10.41l1.07,0.05h0.02
							C322.79,88.55,324.82,89.49,326.4,90.91z"/>
						<path class="st14" d="M326.83,106.04c-1.39,1.39-3.16,2.39-5.16,2.82c-0.85-3.91-2.2-10.18-2.2-10.18L326.83,106.04z"/>
					</g>
					<g>
						<path class="st23" d="M372.22,88.27c2.87,0,5.48,1.17,7.36,3.05c1.39,1.39,2.39,3.16,2.82,5.16c0.15,0.71,0.24,1.45,0.24,2.2
							c0,5.75-4.66,10.41-10.41,10.41c-5.75,0-10.41-4.66-10.41-10.41l0.05-1.07v-0.02c0.23-2.23,1.17-4.26,2.59-5.85
							C366.36,89.61,369.13,88.27,372.22,88.27z"/>
						<path class="st16" d="M372.22,88.27c2.87,0,5.48,1.17,7.36,3.05l-7.36,7.36l-7.77-6.93
							C366.36,89.61,369.13,88.27,372.22,88.27z"/>
						<path class="st14" d="M364.45,91.74l7.77,6.93v10.41c-5.75,0-10.41-4.66-10.41-10.41l0.05-1.07v-0.02
							C362.1,95.36,363.04,93.33,364.45,91.74z"/>
						<path class="st34" d="M379.59,91.32c1.39,1.39,2.39,3.16,2.82,5.16c-3.91,0.85-10.18,2.2-10.18,2.2L379.59,91.32z"/>
					</g>
					<g>
						<path class="st0" d="M369.42,127.84c-13.59-0.13-27.24-0.03-40.86,0.23c0-5.28-0.33-10.57-1-15.8c-0.06-0.45-0.75-0.48-0.73,0
							c0.15,5.27,0.4,10.55,0.7,15.82c-2.87,0.06-5.75,0.11-8.62,0.18c-0.43,0.01-0.43,0.67,0,0.67c2.89,0.01,5.78,0.02,8.67,0.03
							c0.1,1.69,0.18,3.37,0.29,5.05c0.02,0.35,0.53,0.36,0.55,0c0.08-1.68,0.13-3.37,0.14-5.05c13.62,0.05,27.24,0.1,40.86,0.11
							C370.22,129.09,370.23,127.85,369.42,127.84z"/>
						<path class="st0" d="M330.14,124.05c1.48-1.41,3.23-3.65,5.27-4.23c4.33-1.23,3.88,2.65,6.38,3.99
							c2.85,1.53,4.23-2.21,5.82-4.01c1.73-1.96,3.9-2.83,6.11-0.68c0.47,0.46,0.53,1.21,1.14,1.59c0.64,0.4,1.22,0.36,1.95,0.31
							c3.3-0.22,7.05-2.83,10.1-4.95c-0.11,0.17-0.23,0.33-0.34,0.5c-0.53,0.81-1.31,1.77-1.45,2.74c-0.07,0.46,0.49,0.96,0.88,0.51
							c0.66-0.76,1.04-1.81,1.55-2.68c0.57-0.97,1.18-1.9,1.87-2.79c0.25-0.33-0.09-0.87-0.48-0.83c-2.22,0.19-4.42,0.47-6.63,0.73
							c-0.66,0.08-0.68,1.11,0,1.05c1.47-0.14,2.93-0.27,4.4-0.43c-2.42,1.54-4.89,3.08-7.5,4.23c-3.16,1.39-3.39,0.35-5.35-1.79
							c-2.2-2.4-4.72-1.12-6.51,1.04c-2.73,3.31-3.64,6.06-7.31,1.83c-0.77-0.89-1.14-1.71-2.42-1.93c-2.99-0.52-6.55,3.2-8.08,5.33
							C329.29,123.95,329.84,124.34,330.14,124.05z"/>
					</g>
					<g>
						<path class="st0" d="M331.46,72.62c-2.72,0-5.57-0.24-8.26,0.01c-0.49,0.05-0.56,0.63-0.2,0.83
							c-0.12,0.76-0.21,1.52-0.26,2.28c-0.02,0.04-0.02,0.08-0.01,0.13c-0.13,2.16-0.05,4.35-0.11,6.51
							c-0.01,0.25,0.21,0.43,0.44,0.44c2.86,0.22,5.75,0.13,8.62,0.15c0.23,0,0.43-0.2,0.43-0.43c0.02-3.16,0.15-6.32-0.21-9.47
							C331.88,72.83,331.72,72.62,331.46,72.62z M323.33,73.52c0.13,0.01,0.27,0.01,0.4,0.02c1.58,1.61,3.06,3.32,4.54,5.02
							c-0.66,0-1.32,0-1.98,0.02c-0.34-0.51-0.83-0.94-1.28-1.33c-0.54-0.49-1.11-0.94-1.68-1.4
							C323.32,75.08,323.32,74.3,323.33,73.52z M324.59,77.68c0.3,0.3,0.61,0.64,0.94,0.94c-0.71,0.04-1.41,0.1-2.1,0.2
							c-0.03-0.77-0.05-1.54-0.07-2.31C323.77,76.89,324.19,77.28,324.59,77.68z M323.44,79.44c2.58,0.2,5.23,0,7.82,0.01
							c0,0.89-0.01,1.77-0.01,2.66c-2.59,0-5.16-0.06-7.75-0.16C323.49,81.11,323.47,80.28,323.44,79.44z M329.49,73.56
							c0.34,0.53,0.67,1.06,1.05,1.56c0.21,0.28,0.42,0.61,0.67,0.89c0.03,0.86,0.05,1.73,0.05,2.59c-0.03,0-0.07,0-0.1,0
							c-0.63-0.68-1.13-1.66-1.67-2.38c-0.66-0.9-1.37-1.77-2.1-2.61C328.1,73.59,328.8,73.57,329.49,73.56z M330.86,74.65
							c-0.27-0.36-0.52-0.73-0.77-1.11c0.32-0.01,0.64-0.01,0.95-0.02c0.05,0.49,0.09,0.98,0.12,1.47
							C331.05,74.88,330.95,74.76,330.86,74.65z M327.14,73.61c1.3,1.57,2.45,3.22,3.45,4.98c-0.48-0.01-0.97-0.01-1.46-0.02
							c-1.59-1.75-3.27-3.41-5.02-5.01C325.11,73.62,326.12,73.63,327.14,73.61z"/>
						<path class="st0" d="M343.87,61.24c-2.75,0.05-5.51-0.13-8.26-0.03c-0.5,0.02-0.56,0.68-0.17,0.85
							c-0.62,6.97-0.56,14.09-0.37,21.08c0.01,0.24,0.18,0.38,0.41,0.41c2.88,0.35,5.72,0.38,8.62,0.4c0.23,0,0.43-0.2,0.43-0.43
							c0.03-7.28,0.24-14.6-0.25-21.86C344.27,61.43,344.1,61.23,343.87,61.24z M335.86,74.18c0.27,0.46,0.56,0.92,0.83,1.37
							c0.23,0.38,0.5,0.79,0.82,1.14c-0.55,0.04-1.09,0.09-1.62,0.17c0-0.13,0-0.25,0-0.37C335.88,75.72,335.87,74.95,335.86,74.18z
							 M338.21,76.66c-0.23-0.61-0.63-1.2-0.96-1.74c-0.4-0.67-0.82-1.39-1.4-1.92c-0.01-1-0.03-2.01-0.04-3.01
							c0.59,1.12,1.19,2.22,1.85,3.3c0.66,1.09,1.31,2.32,2.14,3.33C339.26,76.62,338.74,76.63,338.21,76.66z M340.73,76.61
							c-0.6-1.33-1.59-2.53-2.37-3.74c-0.85-1.32-1.71-2.63-2.57-3.95c-0.01-1.04-0.01-2.08-0.02-3.12
							c2.23,3.59,4.47,7.16,6.58,10.83C341.81,76.63,341.27,76.62,340.73,76.61z M343.18,76.65c-2.06-4.05-4.84-7.74-7.41-11.49
							c-0.01-1.02-0.02-2.04-0.02-3.06c0.28,0.01,0.57,0.01,0.85,0.02c1.59,2.31,2.96,4.78,4.38,7.2c0.65,1.1,1.59,3.81,2.73,4.57
							c0.04,0.89,0.11,1.83,0.16,2.77C343.64,76.65,343.41,76.65,343.18,76.65z M343.54,64.35c-0.03,0.92-0.02,1.84,0,2.76
							c-0.39-0.7-0.88-1.36-1.29-2c-0.66-1.04-1.37-2.04-2.09-3.03c0.54-0.01,1.08-0.02,1.62-0.02
							C344.01,62.05,343.6,62.13,343.54,64.35z M339.5,62.1c0.71,1.13,1.4,2.26,2.09,3.4c0.63,1.04,1.15,2.3,1.98,3.2
							c0.04,1.22,0.08,2.44,0.09,3.65c0-0.01-0.01-0.01-0.01-0.02c-0.73-1.21-1.46-2.42-2.2-3.62c-1.38-2.25-2.81-4.49-4.41-6.59
							C337.87,62.13,338.68,62.11,339.5,62.1z M343.66,80.98c-0.42,1.83-0.79,1.88-2.44,2.11c-0.71,0.1-3.51,0.15-4.13-0.16
							c-1.63-0.84-1.33-3.46-1.22-5.44c2.65,0.2,5.38-0.01,8.03,0C343.93,78.73,343.9,79.94,343.66,80.98z"/>
						<path class="st0" d="M356.27,64.15c-2.75,0.05-5.51-0.12-8.26-0.01c-0.5,0.02-0.56,0.68-0.17,0.84
							c-0.56,5.99-0.56,12.15-0.4,18.16c0.01,0.26,0.2,0.42,0.44,0.44c2.89,0.29,5.72,0.35,8.62,0.37c0.23,0,0.43-0.2,0.43-0.43
							c0.03-6.31,0.2-12.64-0.23-18.94C356.69,64.35,356.52,64.15,356.27,64.15z M355.64,69.82c-0.42-0.8-1.19-1.55-1.72-2.19
							c-0.74-0.89-1.52-1.76-2.32-2.6c0.61-0.01,1.21-0.02,1.82-0.03c0,0.04,0.01,0.08,0.04,0.12c0.84,1.16,1.62,2.37,2.56,3.45
							c0.01,0.42,0.02,0.84,0.03,1.25C355.91,69.82,355.77,69.82,355.64,69.82z M355.79,65c0.46,0.34,0.07,0.41,0.12,1.21
							c0.03,0.48,0.04,0.95,0.06,1.43c-0.73-0.84-1.35-1.77-2-2.67C354.55,64.92,355.49,64.78,355.79,65z M351,65.04
							c0.86,0.9,1.67,1.83,2.46,2.79c0.5,0.61,0.95,1.36,1.5,1.98c-0.71-0.01-1.43-0.02-2.15-0.02c-0.48-0.9-1.21-1.77-1.76-2.59
							c-0.52-0.76-1.09-1.48-1.71-2.15C349.89,65.05,350.44,65.05,351,65.04z M348.18,67.46c0.42,0.58,0.81,1.17,1.23,1.75
							c0.15,0.21,0.31,0.44,0.48,0.66c-0.57,0.04-1.13,0.1-1.69,0.18C348.19,69.18,348.18,68.32,348.18,67.46z M350.74,69.82
							c-0.35-0.45-0.76-0.86-1.09-1.32c-0.48-0.66-0.95-1.32-1.47-1.95c-0.01-0.01-0.01-0.01-0.02-0.02c0-0.5-0.01-1.01-0.01-1.51
							c0.16,0.01,0.33,0.01,0.49,0.01c0.9,0.93,1.62,1.97,2.32,3.06c0.35,0.55,0.69,1.16,1.11,1.69
							C351.63,69.79,351.19,69.8,350.74,69.82z M354.62,83.09c-0.78,0.21-2.06,0.09-2.89-0.02c-1.26,0.11-2.38-0.29-3.36-1.2
							c-0.01-0.43-0.01-0.86-0.02-1.3c-0.48-2.53-0.1-5.5-0.13-8.08c-0.01-0.61-0.01-1.23-0.02-1.84c2.59,0.21,5.25,0.01,7.86,0.01
							c0.03,2.21,0.02,4.43,0.01,6.64C356.07,79.32,356.88,82.46,354.62,83.09z"/>
						<path class="st0" d="M369.13,66.53c-0.01-0.24-0.19-0.45-0.44-0.44c-2.75,0.06-5.51-0.12-8.26,0
							c-0.5,0.02-0.56,0.67-0.17,0.84c-0.52,5.37-0.43,10.81-0.42,16.21c0,0.27,0.21,0.44,0.46,0.46c2.88,0.26,5.73,0.32,8.62,0.35
							c0.23,0,0.43-0.2,0.43-0.43C369.37,77.85,369.46,72.19,369.13,66.53z M360.65,74.83c0-0.14,0-0.28,0-0.42
							c0.36,0.39,0.73,0.78,1.09,1.17c0.33,0.35,0.65,0.74,1.01,1.09c-0.69,0.04-1.38,0.1-2.05,0.19
							C360.67,76.19,360.66,75.51,360.65,74.83z M363.64,76.63c-0.4-0.57-0.95-1.04-1.44-1.52c-0.52-0.52-1.05-1.05-1.57-1.57
							c-0.01-0.92-0.02-1.84-0.03-2.76c0.91,1.17,1.82,2.36,2.69,3.57c0.51,0.7,0.97,1.55,1.53,2.27
							C364.42,76.62,364.03,76.62,363.64,76.63z M365.71,76.62c-0.53-1.03-1.42-2.01-2.09-2.9c-0.94-1.24-1.97-2.41-3.02-3.56
							c-0.01-1.05-0.02-2.09-0.03-3.14c2.33,3.12,4.3,6.67,6.84,9.62C366.84,76.63,366.28,76.62,365.71,76.62z M365.62,66.94
							c0.04,0,0.1-0.01,0.14-0.01c0.43,0.81,0.88,1.59,1.4,2.36c0.37,0.54,0.77,1.26,1.34,1.65c-0.02,0.48-0.04,0.93-0.03,1.31
							c0.01,0.41,0,0.81,0.01,1.22c-0.67-1.06-1.56-2.07-2.26-3.03c-0.85-1.16-1.71-2.31-2.57-3.46
							C364.3,66.96,364.96,66.95,365.62,66.94z M367.79,66.96c0.25,0.1,0.39,0.14,0.48,0.16c-0.05,0.04-0.08,0.14,0.01,0.39
							c0.2,0.53,0.25,1.25,0.25,2c-0.26-0.3-0.53-0.59-0.75-0.87c-0.44-0.59-0.89-1.17-1.34-1.75
							C366.94,66.84,367.46,66.82,367.79,66.96z M363.25,66.99c0.93,1.29,1.85,2.58,2.76,3.88c0.79,1.13,1.52,2.47,2.46,3.5
							c0,0.76,0.01,1.52,0.01,2.28c-0.06,0-0.12,0-0.18,0c-2.18-3.34-4.73-6.58-7.29-9.66C361.76,67.01,362.51,67,363.25,66.99z
							 M368.13,82.68c-0.98,1.02-5.37,0.54-6.42-0.28c-1.36-1.06-0.96-2.11-0.99-3.82c-0.01-0.36-0.01-0.73-0.02-1.09
							c2.58,0.2,5.22,0,7.81,0.01C368.59,79.08,368.9,81.87,368.13,82.68z"/>
					</g>
					<path class="st0" d="M329.66,63.95c-0.29-0.71-1.04-1.21-1.72-1.5c-0.13-0.05-0.26-0.09-0.39-0.13
						c-0.18-1.19-0.37-2.38-0.56-3.57c0.58,0.07,1.16,0.23,1.6,0.6c0.26,0.21,0.63-0.13,0.38-0.38c-0.55-0.54-1.31-0.85-2.1-0.98
						c-0.1-0.67-0.21-1.33-0.3-2c-0.03-0.21-0.39-0.16-0.37,0.05c0.05,0.62,0.09,1.25,0.14,1.88c-0.37-0.02-0.74-0.02-1.08,0.03
						c-0.02,0-0.04,0.01-0.07,0.01c-0.13-0.83-0.26-1.65-0.41-2.47c-0.05-0.26-0.49-0.2-0.46,0.06c0.09,0.85,0.16,1.7,0.23,2.55
						c-1.11,0.32-2.35,1.04-2.43,2.18c-0.12,1.7,1.4,2.38,2.8,2.6c0.07,1,0.14,2,0.21,3c-0.63-0.2-1.23-0.51-1.8-0.87
						c-0.34-0.21-0.8,0.22-0.56,0.56c0.58,0.85,1.48,1.24,2.45,1.36c0.05,0.67,0.1,1.34,0.15,2.01c0.03,0.41,0.63,0.42,0.64,0
						c0.02-0.65,0.02-1.31,0.01-1.96c0.43,0,0.86-0.04,1.28-0.1c0.11,0.68,0.23,1.36,0.38,2.03c0.08,0.38,0.72,0.3,0.69-0.09
						c-0.05-0.7-0.14-1.4-0.21-2.09C329.32,66.46,330.17,65.19,329.66,63.95z M325.94,58.73c0.15-0.01,0.3-0.01,0.46-0.01
						c0.09,1.16,0.18,2.32,0.29,3.48c-0.32-0.02-0.64-0.03-0.96-0.04c-0.11-1.12-0.25-2.24-0.41-3.35
						C325.53,58.77,325.73,58.74,325.94,58.73z M324.25,61.89c-1.48-0.64-1.35-2.04-0.11-2.69c0.16-0.08,0.32-0.15,0.49-0.21
						c0.08,1.03,0.16,2.06,0.23,3.08C324.65,62.03,324.44,61.98,324.25,61.89z M325.99,66.1c-0.03-1.04-0.1-2.08-0.18-3.11
						c0.33,0.02,0.66,0.03,0.97,0.08c0.11,1.02,0.23,2.03,0.38,3.04C326.76,66.16,326.37,66.16,325.99,66.1z M328.05,65.87
						c-0.1-0.85-0.22-1.7-0.35-2.55c0.09,0.04,0.18,0.06,0.27,0.11C329.09,64.06,329.13,65.39,328.05,65.87z"/>
					<path class="st0" d="M378.02,80.16c-0.41,0.34-0.63,0.87-0.95,1.3c-0.03,0.04-0.06,0.07-0.09,0.11
						c0.1-4.15-0.07-8.3-0.24-12.44c0.26,0.39,0.5,0.78,0.75,1.17c0.28,0.43,1.1,0.16,0.88-0.37c-0.23-0.57-0.64-1.1-1.05-1.55
						c-0.16-0.17-0.41-0.46-0.67-0.65c-0.17-0.49-1.01-0.45-1,0.15c-0.12,0.15-0.23,0.32-0.32,0.44c-0.43,0.58-0.82,1.19-1.22,1.79
						c-0.14,0.22,0.2,0.5,0.37,0.29c0.33-0.4,0.66-0.8,0.99-1.2c0.02-0.03,0.11-0.11,0.21-0.22c0.16,4.29,0.26,8.59,0.35,12.89
						c-0.38-0.43-0.79-0.85-1.19-1.23c-0.39-0.36-0.95,0.2-0.58,0.58c0.44,0.45,0.81,0.95,1.22,1.43c0.24,0.28,0.52,0.65,0.93,0.63
						c0.46-0.03,0.87-0.52,1.14-0.85c0.48-0.57,1.04-1.22,1.13-1.97C378.73,80.06,378.24,79.97,378.02,80.16z"/>
					<path class="st0" d="M359.23,56.68c-0.49-0.8-1.5-1.51-2.27-2.01c-0.55-0.36-1.03,0.5-0.51,0.87c0.36,0.25,0.81,0.59,1.21,0.95
						c-7.09-0.26-14.22,0.04-21.32,0.01c0.11-0.1,0.23-0.2,0.34-0.3c0.32-0.27,0.65-0.53,0.99-0.79c0.38-0.3-0.12-0.95-0.52-0.67
						c-0.56,0.4-1.13,0.8-1.65,1.25c-0.35,0.31-0.64,0.65-0.3,1.09c0.33,0.43,0.86,0.77,1.29,1.1c0.45,0.34,0.95,0.82,1.56,0.68
						c0.19-0.05,0.29-0.29,0.19-0.46c-0.29-0.47-0.83-0.71-1.26-1.05c-0.14-0.11-0.37-0.27-0.59-0.44
						c7.1,0.25,14.24,0.46,21.35,0.47c-0.08,0.1-0.16,0.19-0.24,0.29c-0.39,0.48-0.94,0.95-0.8,1.6c0.03,0.14,0.2,0.29,0.35,0.27
						c0.63-0.08,0.88-0.63,1.25-1.1c0.29-0.37,0.57-0.74,0.87-1.1C359.29,57.14,359.36,56.89,359.23,56.68z"/>
					<g>
						<path class="st0" d="M310.16,74.09c0.03,0.8,0.13,1.58,0.41,2.29c0.11,0.27,0.54,0.34,0.62,0c0.17-0.73,0.2-1.5,0.18-2.28
							c0.71,0.01,1.49,0.09,2.11-0.23c0.22-0.11,0.22-0.47,0-0.58c-0.64-0.33-1.43-0.22-2.15-0.17c-0.04-0.7-0.1-1.4-0.1-2.07
							c0-0.62-0.93-0.62-0.96,0c-0.03,0.66-0.09,1.38-0.11,2.1c-0.69,0.01-1.38,0.02-2.06,0.02c-0.56,0-0.54,0.81,0,0.85
							C308.78,74.07,309.47,74.09,310.16,74.09z"/>
						<path class="st0" d="M313.54,80.55c-1.71,0.08-3.42,0.19-5.12,0.3c-0.55,0.04-0.56,0.87,0,0.87c1.71,0.01,3.41,0.02,5.12,0.01
							C314.3,81.72,314.3,80.52,313.54,80.55z"/>
					</g>
					<g>
						<path class="st0" d="M315.24,118.31c0.54-0.61,1.27-1.36,1.31-2.17c0.01-0.21-0.22-0.31-0.39-0.22
							c-0.71,0.36-1.17,1.3-1.65,1.98c-0.78-0.45-1.55-0.9-2.34-1.35c-0.51-0.28-0.95,0.47-0.45,0.78c0.72,0.44,1.43,0.9,2.14,1.35
							c-0.51,0.59-1.04,1.17-1.61,1.71c-0.3,0.29,0.14,0.72,0.45,0.45c0.64-0.55,1.23-1.14,1.81-1.75c0.04,0.03,0.08,0.05,0.12,0.08
							c0.77,0.5,1.55,1.19,2.5,1.25c0.23,0.01,0.35-0.25,0.25-0.44C316.96,119.17,316,118.75,315.24,118.31z"/>
						<path class="st0" d="M323.22,115.86c-0.52,0.84-1,1.7-1.46,2.58c-0.23-0.36-0.52-0.72-0.74-1.04
							c-0.38-0.56-0.78-1.09-1.27-1.56c-0.43-0.41-1.05,0.22-0.65,0.65c0.48,0.51,0.85,1.08,1.2,1.69c0.27,0.45,0.53,1,0.95,1.33
							c-0.18,0.37-0.37,0.74-0.54,1.11c-0.61,1.42-1.42,3.05-1.35,4.61c0.02,0.37,0.5,0.51,0.7,0.19c0.77-1.23,1-2.79,1.5-4.16
							c0.63-1.74,1.42-3.39,2.31-5.01C324.11,115.82,323.48,115.45,323.22,115.86z"/>
					</g>
				</g>
			</g>
			<g>
				<path class="st33" d="M221.88,117.07c0-27.03-21.91-48.95-48.95-48.95c-27.03,0-48.95,21.91-48.95,48.95
					s21.91,48.95,48.95,48.95c4.15,0,8.17-0.52,12.02-1.49c4.09,7.63,12,12.34,21.98,8.94c0,0-8.15-5.6-8.96-14.34
					C212.29,150.59,221.88,134.96,221.88,117.07z"/>
				<g>
					<g>
						<path class="st23" d="M189.34,99.68l8.2-6.64c0.21-0.17,0.72,0.34,0.55,0.55l-6.64,8.2L189.34,99.68z"/>
						<path class="st0" d="M183.98,119.14l-15.07,13.08l-9.99-9.99l13.08-15.07c2.35-2.35,2.95-2.28,5.84-3.87
							c2.67-1.48,5.54-2.61,8.52-3.36l3.02-0.75c1.57-0.4,2.99,1.02,2.59,2.59l-0.75,3.02c-0.74,2.99-1.88,5.86-3.36,8.52
							C186.26,116.19,186.33,116.78,183.98,119.14z"/>
						<path class="st16" d="M187.86,113.3c0,0-3.26-4.26-4.52-5.52c-1.25-1.25-5.51-4.51-5.51-4.51c2.67-1.48,5.54-2.61,8.52-3.36
							l3.02-0.75c1.57-0.4,2.99,1.02,2.59,2.59l-0.75,3.02C190.47,107.77,189.33,110.63,187.86,113.3z"/>
						<path class="st16" d="M158.91,122.22l7.07-8.15c0,0-11.4-5.58-18.26,2.65c-2.49,2.99-1.94,4.82-0.72,4.75
							C149.05,121.35,154.17,118.11,158.91,122.22z"/>
						<path class="st16" d="M168.91,132.21l8.15-7.07c0,0,5.58,11.4-2.65,18.26c-2.99,2.49-4.82,1.94-4.75,0.72
							C169.78,142.07,173.01,136.96,168.91,132.21z"/>
						<path class="st16" d="M179.72,119.74c-2.3,2.3-6.03,2.3-8.33,0c-2.3-2.3-2.3-6.03,0-8.33c2.3-2.3,6.03-2.3,8.33,0
							C182.02,113.71,182.02,117.44,179.72,119.74z"/>
						<circle class="st35" cx="175.56" cy="115.57" r="4.16"/>
						<polygon class="st23" points="163.61,135.51 155.62,127.51 158.91,122.22 168.91,132.21 						"/>
						<path class="st16" d="M157.68,136.08l-2.64-2.64c-0.6-0.6-0.6-1.58,0-2.18l2.16-2.16l4.83,4.83l-2.16,2.16
							C159.27,136.69,158.29,136.69,157.68,136.08z"/>
						<g>
							<path class="st0" d="M176.63,113.51c0.28,0.41,0.44,0.86,0.42,1.36c-0.02,0.5-0.37,0.87-0.39,1.35
								c-0.01,0.25,0.25,0.45,0.49,0.38c0.67-0.19,0.86-1.12,0.87-1.73c0.01-0.69-0.25-1.38-0.76-1.85
								C176.95,112.74,176.36,113.12,176.63,113.51L176.63,113.51z"/>
						</g>
						<g>
							<path class="st0" d="M175.59,117.52c-0.16-0.1-0.32-0.11-0.51-0.12c-0.87-0.03-0.55,1.45,0.27,1.01
								c0.17-0.09,0.3-0.18,0.39-0.34C175.85,117.88,175.77,117.64,175.59,117.52L175.59,117.52z"/>
						</g>
						<path class="st36" d="M154.46,132.69c0,0-4.96,1.48-5.34,5.34c-0.38,3.86-3.73,6.06-4.51,6.28c-0.78,0.22,2.77,0.37,5.33-1.31
							c0,0-0.57,0.93-2.26,2.61c2.74,0.24,10.3-3.06,10.75-8.95L154.46,132.69z"/>
						<path class="st34" d="M155.53,133.76c0,0-3.48,1.23-3.29,3.29c0.19,2.06-1.65,3.47-1.65,3.47s5.38,0.51,6.94-4.76
							L155.53,133.76z"/>
					</g>
					<g>
						<g>
							<path class="st0" d="M185.96,136.79c8.78-8.78,17.68-17.46,26.21-26.49c0.26-0.28-0.14-0.68-0.42-0.42
								c-9.03,8.52-17.71,17.42-26.49,26.21C184.81,136.54,185.51,137.24,185.96,136.79L185.96,136.79z"/>
						</g>
						<g>
							<path class="st0" d="M135.2,118.21c9.8-9.69,19.91-19.17,29.29-29.26c0.2-0.22-0.11-0.52-0.32-0.32
								c-10.1,9.38-19.57,19.49-29.26,29.29C134.7,118.1,135,118.4,135.2,118.21L135.2,118.21z"/>
						</g>
						<g>
							<path class="st0" d="M162.51,105.75c7.18-7.08,14.7-14,21.42-21.52c0.31-0.35-0.17-0.83-0.52-0.52
								c-7.52,6.72-14.44,14.24-21.52,21.42C161.5,105.53,162.11,106.14,162.51,105.75L162.51,105.75z"/>
						</g>
						<g>
							<path class="st0" d="M166.82,159.04c3.58-2.55,6.52-6.26,9.52-9.45c0.29-0.31-0.16-0.75-0.46-0.46
								c-3.19,3-6.9,5.94-9.45,9.52C166.27,158.88,166.59,159.2,166.82,159.04L166.82,159.04z"/>
						</g>
						<g>
							<path class="st0" d="M141.46,98.44c5.21-4.17,9.68-9.43,14.3-14.23c0.29-0.3-0.16-0.76-0.46-0.46
								c-4.8,4.61-10.06,9.09-14.23,14.3C140.83,98.32,141.17,98.67,141.46,98.44L141.46,98.44z"/>
						</g>
						<g>
							<path class="st0" d="M187.66,150.61c6.72-8.1,14.5-15.24,21.79-22.81c0.23-0.23-0.12-0.58-0.36-0.36
								c-7.57,7.3-14.71,15.08-22.81,21.79C185.32,150.04,186.86,151.57,187.66,150.61L187.66,150.61z"/>
						</g>
						<g>
							<path class="st0" d="M185.18,93.5c3.29-3.28,6.55-6.58,9.79-9.93c0.23-0.24-0.13-0.6-0.37-0.37
								c-3.34,3.23-6.64,6.5-9.93,9.79C184.35,93.32,184.86,93.82,185.18,93.5L185.18,93.5z"/>
						</g>
						<g>
							<path class="st0" d="M167.25,84c2.27-2.28,4.6-4.52,6.78-6.88c0.34-0.37-0.18-0.89-0.55-0.55c-2.37,2.18-4.61,4.5-6.88,6.78
								C166.17,83.77,166.83,84.43,167.25,84L167.25,84z"/>
						</g>
						<g>
							<path class="st0" d="M137.14,135.68c2.5-2.48,5.01-4.97,7.51-7.45c0.45-0.44-0.25-1.14-0.69-0.69
								c-2.48,2.5-4.97,5.01-7.45,7.51C136.11,135.46,136.73,136.08,137.14,135.68L137.14,135.68z"/>
						</g>
						<g>
							<path class="st0" d="M155.9,154.86c2.59-3.04,5.29-5.97,7.97-8.94c0.24-0.27-0.13-0.64-0.4-0.4
								c-2.97,2.68-5.9,5.38-8.94,7.97C153.58,154.31,155.09,155.82,155.9,154.86L155.9,154.86z"/>
						</g>
						<g>
							<path class="st0" d="M197.64,111.7c3.4-4.37,7.58-8.05,11.26-12.18c0.27-0.31-0.14-0.73-0.45-0.45
								c-4.13,3.68-7.81,7.86-12.18,11.26C195.28,111.11,196.86,112.69,197.64,111.7L197.64,111.7z"/>
						</g>
					</g>
				</g>
			</g>
			<g>
				<path class="st33" d="M565.31,87.1c0-27.03,21.91-48.95,48.95-48.95c27.03,0,48.95,21.91,48.95,48.95s-21.91,48.95-48.95,48.95
					c-4.15,0-8.17-0.52-12.02-1.49c-4.09,7.63-12,12.34-21.98,8.94c0,0,8.15-5.6,8.96-14.34C574.9,120.62,565.31,104.98,565.31,87.1
					z"/>
				<g>
					<path class="st23" d="M600.69,70.83c0-2.4-0.77-4.72-2.18-6.64l0.03-0.02L598,63.53c-2.13-2.51-5.25-3.95-8.55-3.95
						c0,0,0,0,0,0c0,0,0,0,0,0c0,0,0,0,0,0c-0.41,0-0.82,0.02-1.22,0.07c-2.83,0.31-5.45,1.69-7.33,3.88c0,0,0,0,0,0l-0.55,0.64
						l0.03,0.02c-1.41,1.92-2.18,4.25-2.18,6.64c0,2.36,0.75,4.66,2.12,6.56l-0.03,0.02l0.53,0.64c2.14,2.56,5.28,4.03,8.62,4.03
						c0,0,0,0,0,0c0,0,0,0,0,0c0,0,0,0,0,0c0.49,0,0.97-0.04,1.44-0.1c2.38-0.31,4.6-1.36,6.33-3.02c0.3-0.29,0.58-0.59,0.85-0.91
						l0.53-0.64l-0.03-0.02C599.94,75.49,600.69,73.19,600.69,70.83z M596.27,77.83c-0.1,0.09-0.2,0.18-0.29,0.27
						c-0.15,0.14-0.31,0.28-0.47,0.41c-0.11,0.09-0.22,0.17-0.34,0.25c-0.16,0.12-0.32,0.23-0.49,0.34
						c-0.12,0.08-0.24,0.15-0.37,0.22c-0.17,0.1-0.34,0.19-0.52,0.28c-0.13,0.06-0.26,0.13-0.39,0.18c-0.17,0.07-0.34,0.14-0.51,0.2
						c0.59-0.81,1.1-1.82,1.49-3c0.7,0.21,1.36,0.47,1.96,0.77C596.32,77.77,596.3,77.8,596.27,77.83z M585.11,79.59
						c-0.18-0.09-0.36-0.18-0.53-0.28c-0.12-0.07-0.24-0.14-0.36-0.21c-0.17-0.11-0.34-0.23-0.51-0.35
						c-0.11-0.08-0.22-0.16-0.32-0.24c-0.17-0.13-0.33-0.27-0.49-0.42c-0.09-0.09-0.19-0.17-0.28-0.26
						c-0.03-0.02-0.05-0.05-0.07-0.08c0.59-0.3,1.25-0.56,1.96-0.77c0.39,1.17,0.9,2.19,1.49,3c-0.17-0.06-0.34-0.13-0.51-0.2
						C585.36,79.71,585.23,79.65,585.11,79.59z M582.69,63.76c0.09-0.09,0.19-0.17,0.29-0.25c0.16-0.14,0.31-0.28,0.48-0.4
						c0.11-0.08,0.22-0.16,0.33-0.24c0.16-0.11,0.32-0.23,0.49-0.33c0.12-0.07,0.24-0.14,0.36-0.21c0.17-0.1,0.34-0.19,0.52-0.27
						c0.13-0.06,0.25-0.12,0.38-0.18c0.15-0.07,0.3-0.12,0.45-0.18c-0.57,0.78-1.06,1.75-1.45,2.88c-0.68-0.21-1.33-0.45-1.91-0.74
						C582.65,63.8,582.67,63.78,582.69,63.76z M593.74,62.04c0.18,0.09,0.35,0.18,0.53,0.28c0.12,0.07,0.24,0.13,0.35,0.21
						c0.17,0.11,0.34,0.22,0.51,0.34c0.11,0.08,0.21,0.15,0.32,0.23c0.17,0.13,0.33,0.28,0.5,0.42c0.09,0.08,0.18,0.15,0.27,0.24
						c0.02,0.02,0.04,0.04,0.06,0.07c-0.58,0.29-1.23,0.54-1.91,0.74c-0.39-1.13-0.88-2.1-1.45-2.88c0.16,0.06,0.31,0.12,0.46,0.18
						C593.49,61.92,593.61,61.98,593.74,62.04z M595.3,70.1c-0.05-1.48-0.24-2.87-0.55-4.13c0.91-0.27,1.75-0.61,2.49-1.02
						c1.13,1.49,1.81,3.28,1.95,5.15H595.3z M590.18,61.2c1.05,0.43,2.06,1.75,2.76,3.72c-0.88,0.17-1.81,0.28-2.76,0.32V61.2z
						 M588.71,65.24c-0.95-0.04-1.88-0.15-2.76-0.32c0.7-1.97,1.71-3.29,2.76-3.72V65.24z M588.71,66.7v3.39h-3.66
						c0.05-1.39,0.22-2.65,0.49-3.77C586.55,66.53,587.62,66.66,588.71,66.7z M588.71,71.56v3.27c-1.1,0.04-2.18,0.17-3.2,0.38
						c-0.25-1.09-0.42-2.32-0.46-3.65H588.71z M588.71,76.29v4.16c-1.07-0.44-2.1-1.8-2.8-3.84
						C586.8,76.44,587.75,76.33,588.71,76.29z M590.18,76.29c0.97,0.04,1.91,0.15,2.8,0.33c-0.7,2.04-1.73,3.4-2.8,3.84V76.29z
						 M590.18,74.83v-3.27h3.66c-0.04,1.34-0.21,2.56-0.46,3.65C592.36,75,591.28,74.87,590.18,74.83z M590.18,70.1V66.7
						c1.09-0.04,2.16-0.17,3.17-0.38c0.27,1.12,0.45,2.38,0.49,3.77H590.18z M584.13,65.97c-0.31,1.26-0.5,2.65-0.55,4.13h-3.9
						c0.14-1.87,0.82-3.65,1.95-5.15C582.39,65.35,583.23,65.7,584.13,65.97z M583.59,71.56c0.05,1.43,0.23,2.78,0.52,4.01
						c-0.92,0.28-1.78,0.63-2.53,1.05c-1.09-1.47-1.74-3.23-1.88-5.06H583.59z M594.78,75.57c0.29-1.23,0.47-2.58,0.52-4.01h3.9
						c-0.14,1.83-0.79,3.59-1.88,5.06C596.56,76.2,595.71,75.85,594.78,75.57z"/>
					<g>
						<g>
							<path class="st34" d="M601,102.6h-1.2c-0.13-0.38-0.28-0.75-0.46-1.11l0.85-0.85c0.26-0.26,0.26-0.69,0-0.96l-2.84-2.84
								c-0.26-0.26-0.69-0.26-0.96,0l-0.85,0.85c-0.36-0.18-0.73-0.34-1.11-0.46v-1.2c0-0.37-0.3-0.68-0.68-0.68h-4.02
								c-0.37,0-0.68,0.3-0.68,0.68v1.2c-0.38,0.13-0.75,0.28-1.11,0.46l-0.85-0.85c-0.26-0.26-0.69-0.26-0.96,0l-2.84,2.84
								c-0.26,0.26-0.26,0.69,0,0.96l0.85,0.85c-0.18,0.36-0.34,0.73-0.46,1.11h-1.2c-0.37,0-0.68,0.3-0.68,0.68v4.02
								c0,0.37,0.3,0.68,0.68,0.68h1.2c0.13,0.38,0.28,0.75,0.46,1.11l-0.85,0.85c-0.26,0.26-0.26,0.69,0,0.96l2.84,2.84
								c0.26,0.26,0.69,0.26,0.96,0l0.85-0.85c0.36,0.18,0.73,0.34,1.11,0.46v1.2c0,0.37,0.3,0.68,0.68,0.68h4.02
								c0.37,0,0.68-0.3,0.68-0.68v-1.2c0.38-0.13,0.75-0.28,1.11-0.46l0.85,0.85c0.26,0.26,0.69,0.26,0.96,0l2.84-2.84
								c0.26-0.26,0.26-0.69,0-0.96l-0.85-0.85c0.18-0.36,0.34-0.73,0.46-1.11h1.2c0.37,0,0.68-0.3,0.68-0.68v-4.02
								C601.67,102.9,601.37,102.6,601,102.6z M594.9,105.28c0,1.75-1.42,3.16-3.16,3.16c-1.75,0-3.16-1.42-3.16-3.16
								c0-1.75,1.42-3.16,3.16-3.16C593.48,102.12,594.9,103.54,594.9,105.28z"/>
						</g>
						<g>
							<path class="st16" d="M613.73,113.4c-0.44,0-0.65-0.53-0.35-0.84c0.35-0.35,0.35-0.92,0-1.27l-1.02-1.02
								c-0.35-0.35-0.92-0.35-1.27,0c-0.31,0.31-0.84,0.09-0.84-0.35l0,0c0-0.5-0.4-0.9-0.9-0.9h-1.44c-0.5,0-0.9,0.4-0.9,0.9l0,0
								c0,0.44-0.53,0.65-0.84,0.35c-0.35-0.35-0.92-0.35-1.27,0l-1.02,1.02c-0.35,0.35-0.35,0.92,0,1.27l0,0
								c0.31,0.31,0.09,0.84-0.35,0.84c-0.5,0-0.9,0.4-0.9,0.9v1.44c0,0.5,0.4,0.9,0.9,0.9c0.44,0,0.65,0.53,0.35,0.84l0,0
								c-0.35,0.35-0.35,0.92,0,1.27l1.02,1.02c0.35,0.35,0.92,0.35,1.27,0c0.31-0.31,0.84-0.09,0.84,0.35l0,0
								c0,0.5,0.4,0.9,0.9,0.9h1.44c0.5,0,0.9-0.4,0.9-0.9l0,0c0-0.44,0.53-0.65,0.84-0.35c0.35,0.35,0.92,0.35,1.27,0l1.02-1.02
								c0.35-0.35,0.35-0.92,0-1.27l0,0c-0.31-0.31-0.09-0.84,0.35-0.84c0.5,0,0.9-0.4,0.9-0.9v-1.44
								C614.62,113.81,614.22,113.4,613.73,113.4z M608.64,118.42c-1.88,0-3.4-1.52-3.4-3.4s1.52-3.4,3.4-3.4s3.4,1.52,3.4,3.4
								S610.52,118.42,608.64,118.42z"/>
						</g>
					</g>
					<g>
						<path class="st34" d="M627,112.17v-4.31c-1.65-0.38-2.86-0.96-3.63-1.74c-0.77-0.78-1.16-1.72-1.16-2.83
							c0-1.12,0.44-2.07,1.31-2.83c0.87-0.76,2.03-1.2,3.48-1.32v-1.27c0-0.51,0.41-0.92,0.92-0.92l0,0c0.51,0,0.92,0.41,0.92,0.92
							v1.27c1.34,0.13,2.41,0.5,3.2,1.11c0.26,0.2,0.5,0.43,0.7,0.68c0.64,0.79,0.06,1.86-1.1,1.98l-0.05,0.01
							c-0.67,0.07-1.27-0.24-1.61-0.71c-0.27-0.36-0.64-0.63-1.14-0.8v4.02c2.02,0.45,3.4,1.02,4.14,1.73
							c0.73,0.71,1.1,1.62,1.1,2.73c0,1.24-0.46,2.28-1.39,3.13c-0.92,0.85-2.21,1.37-3.85,1.56v1c0,0.51-0.41,0.92-0.92,0.92l0,0
							c-0.51,0-0.92-0.41-0.92-0.92v-0.95c-1.46-0.14-2.64-0.59-3.55-1.33c-0.48-0.39-0.88-0.87-1.17-1.44
							c-0.44-0.83,0.29-1.77,1.4-1.87l0,0c0.73-0.06,1.39,0.28,1.72,0.82c0.11,0.17,0.23,0.33,0.37,0.48
							C626.13,111.7,626.54,111.99,627,112.17z M627,101.38c-0.5,0.14-0.89,0.37-1.19,0.7c-0.3,0.33-0.44,0.69-0.44,1.09
							c0,0.36,0.13,0.7,0.4,1.01c0.27,0.31,0.68,0.56,1.23,0.76V101.38z M628.83,112.31c0.63-0.1,1.15-0.33,1.54-0.71
							c0.4-0.38,0.59-0.83,0.59-1.34c0-0.46-0.17-0.85-0.5-1.19c-0.33-0.33-0.88-0.59-1.64-0.77V112.31z"/>
					</g>
					<path class="st0" d="M614.95,53.47c-4.6,1.6-7.66,4.88-10.65,8.45c-0.6-1.66-1.36-3.21-2.34-4.73
						c-0.41-0.63-1.37-0.08-1.01,0.59c1.01,1.87,1.77,3.82,2.33,5.87c0.14,0.52,0.89,0.78,1.27,0.34c1.17-1.35,2.21-2.8,3.45-4.08
						c2.18-2.24,4.77-3.72,7.43-5.3C616.02,54.26,615.64,53.23,614.95,53.47z"/>
					<path class="st0" d="M651.85,92.11c-4.85,0.36-9.16,4.04-11.83,8c-0.55-1.23-1.25-2.35-2.15-3.42
						c-0.48-0.57-1.27,0.24-0.81,0.81c1.03,1.27,1.73,2.56,2.24,4.11c0.17,0.5,0.84,0.61,1.13,0.15c2.9-4.67,6.85-6.68,11.6-9.01
						C652.32,92.6,652.18,92.08,651.85,92.11z"/>
					<path class="st0" d="M647.19,57.23c-4.85,0.36-9.16,4.04-11.83,8c-0.55-1.23-1.25-2.35-2.15-3.42
						c-0.48-0.57-1.27,0.24-0.81,0.81c1.03,1.27,1.73,2.56,2.24,4.11c0.17,0.5,0.84,0.61,1.13,0.15c2.9-4.67,6.85-6.68,11.6-9.01
						C647.66,57.73,647.52,57.21,647.19,57.23z"/>
					<path class="st0" d="M618.8,88.39c-4.56,0.14-9.19,3.86-12.35,7.17c-0.34-1.02-0.67-2.04-0.97-3.07
						c-0.24-0.83-1.52-0.48-1.29,0.36c0.39,1.43,0.82,2.84,1.3,4.24c0.16,0.48,0.79,0.72,1.17,0.31c1.79-1.93,3.77-3.64,6.02-5.03
						c2.02-1.25,4.36-1.94,6.32-3.25C619.3,88.91,619.21,88.38,618.8,88.39z"/>
					<g>
						
							<rect x="627.06" y="70.06" transform="matrix(0.7071 -0.7071 0.7071 0.7071 131.7309 466.1882)" class="st14" width="3.09" height="8.04"/>
						<path class="st16" d="M629.84,78.22l5.28,5.28c0.8,0.8,2.11,0.8,2.91,0c0.8-0.8,0.8-2.11,0-2.91l-5.28-5.28L629.84,78.22z"/>
						<g>
							<path class="st14" d="M628.91,62.22c3.36,3.36,3.36,8.81,0,12.17c-3.36,3.36-8.81,3.36-12.17,0c-3.36-3.36-3.36-8.81,0-12.17
								C620.1,58.86,625.55,58.86,628.91,62.22z"/>
							<circle class="st35" cx="622.83" cy="68.3" r="6.39"/>
							<g>
								<g>
									<path class="st0" d="M619.91,66.33c0.85-0.67,1.84-1.09,2.94-1.1c0.49,0,0.97,0.09,1.42,0.26
										c0.41,0.15,0.71,0.44,1.15,0.43c0.17-0.01,0.27-0.15,0.24-0.31c-0.2-1.1-2.16-1.35-3.05-1.3
										c-1.24,0.07-2.42,0.65-3.06,1.74C619.41,66.29,619.72,66.48,619.91,66.33L619.91,66.33z"/>
								</g>
								<g>
									<path class="st0" d="M626.59,67.97c0.22,0.26,0.19,0.55,0.29,0.85c0.1,0.29,0.34,0.48,0.64,0.29
										c0.71-0.47,0.15-1.51-0.4-1.83C626.67,67.02,626.28,67.61,626.59,67.97L626.59,67.97z"/>
								</g>
							</g>
						</g>
					</g>
					<g>
						<path class="st0" d="M575.76,86.67c-0.05,0-0.11,0.01-0.17,0.04c-1.55,0.68-2.56,2.27-1.69,3.91
							c0.78,1.48,2.89,2.46,4.45,1.61c1.46-0.79,1.67-3.04,0.98-4.4C578.75,86.67,576.85,85.63,575.76,86.67z M577.73,91.21
							c-1,0.5-2.37-0.21-2.85-1.15c-0.54-1.07,0.23-2.11,1.12-2.65c0.06-0.04,0.11-0.08,0.14-0.13c0.99-0.22,1.88-0.09,2.34,1
							C578.87,89.18,578.71,90.72,577.73,91.21z"/>
						<path class="st0" d="M586.56,92.12c-0.33-0.59-1-1.04-1.5-1.49c-0.56-0.51-1.13-1.03-1.69-1.54
							c-0.03-0.02-0.05-0.04-0.08-0.05c0.15-0.12,0.3-0.23,0.45-0.35c0.61-0.48,1.33-0.92,1.81-1.53c0.15-0.19-0.03-0.44-0.26-0.34
							c-0.68,0.33-1.25,0.91-1.83,1.39c-0.47,0.39-0.94,0.77-1.41,1.16c-0.01-0.07-0.02-0.14-0.02-0.2
							c-0.09-1.12-0.14-2.24-0.31-3.35c-0.07-0.47-0.8-0.34-0.81,0.11c-0.02,1.16,0.09,2.33,0.15,3.49
							c0.06,1.02-0.02,2.13,0.34,3.09c0.12,0.31,0.62,0.38,0.71,0c0.19-0.82,0.09-1.69,0-2.55c0.27-0.21,0.54-0.42,0.8-0.63
							c0.01,0.05,0.03,0.1,0.07,0.14c0.54,0.54,1.08,1.08,1.62,1.61c0.48,0.47,0.96,1.13,1.56,1.43
							C586.42,92.65,586.71,92.39,586.56,92.12z"/>
					</g>
					<g>
						<path class="st0" d="M643.62,72.02c-0.36,0.7-0.68,1.42-0.98,2.14c-0.23-0.19-0.5-0.36-0.71-0.49
							c-0.63-0.41-1.31-0.73-2.02-0.96c-0.45-0.15-0.6,0.52-0.19,0.69c0.64,0.27,1.26,0.62,1.8,1.06c0.24,0.19,0.48,0.46,0.74,0.66
							c-0.03,0.07-0.06,0.14-0.08,0.21c-0.4,1.09-0.95,2.29-0.93,3.46c0.01,0.43,0.57,0.57,0.8,0.22c0.58-0.93,0.77-2.11,1.11-3.15
							c0.38-1.18,0.8-2.34,1.2-3.51C644.51,71.9,643.83,71.61,643.62,72.02z"/>
						<path class="st0" d="M649.76,78.59c-0.6-0.26-1.14-0.21-1.78-0.21c-0.32,0-1.85,0.16-1.98,0.03c-0.13-0.13,0.01-1.38,0.04-1.8
							c0.39,0.03,0.77,0.05,1.16,0.1c0.48,0.06,0.91,0.24,1.36,0.01c0.14-0.07,0.16-0.29,0.05-0.4c-0.37-0.35-0.87-0.29-1.36-0.32
							c-0.39-0.02-0.77-0.01-1.16-0.01c0.04-0.6,0.11-1.2,0.19-1.79c0.83,0.07,1.65,0.15,2.48,0.22c0.3,0.03,0.31-0.46,0-0.47
							c-0.82-0.03-1.64-0.06-2.46-0.09c-0.06-0.42-0.7-0.58-0.8-0.09c-0.17,0.79-0.29,1.59-0.39,2.39
							c-0.02,0.06-0.03,0.11-0.02,0.17c-0.01,0.13-0.04,0.26-0.05,0.4c-0.06,0.64-0.33,1.77,0.09,2.35
							c0.36,0.51,1.12,0.37,1.65,0.37c0.98,0,2.07,0.18,2.98-0.21C650,79.13,650,78.7,649.76,78.59z"/>
						<path class="st0" d="M656.12,77.61c-0.35-0.92-1.5-1.66-2.36-2.03c-0.38-0.16-0.93-0.22-1.26-0.48
							c-0.38-0.3-0.44-0.31-0.1-0.79c0.37-0.53,1.21-0.92,1.85-0.81c0.59,0.11,0.85-0.77,0.25-0.91c-1.39-0.34-4.83,1.45-3.14,3.08
							c0.61,0.59,1.53,0.62,2.26,0.95c0.94,0.43,2.12,1.3,1.11,2.25c-0.62,0.59-1.61,0.53-2.35,0.84c-0.31,0.13-0.46,0.6-0.1,0.78
							C653.71,81.23,656.79,79.37,656.12,77.61z"/>
					</g>
				</g>
			</g>
		</g>
	</g>
</g>
</svg>
