<?xml version="1.0" encoding="utf-8"?>
<!-- Generator: Adobe Illustrator 25.4.1, SVG Export Plug-In . SVG Version: 6.00 Build 0)  -->
<svg version="1.1" id="Слой_1" xmlns="http://www.w3.org/2000/svg" xmlns:xlink="http://www.w3.org/1999/xlink" x="0px" y="0px"
	 viewBox="0 0 2465.39 2000" style="enable-background:new 0 0 2465.39 2000;" xml:space="preserve">
<style type="text/css">
	.st0{fill:#FAFAFA;}
	.st1{fill:url(#SVGID_1_);}
	.st2{fill:url(#SVGID_00000018945223431609908840000013386488032861405086_);}
	.st3{fill:#FFB955;}
	.st4{fill:url(#SVGID_00000074406954910530746910000000873550518213843361_);}
	.st5{fill:#323657;}
	.st6{fill:url(#SVGID_00000042002704549008696370000005116844740709054372_);}
	.st7{fill:#2D3038;}
	.st8{fill:#3F444F;}
	.st9{opacity:0.3;fill:#C2C2C2;}
	.st10{fill:#CAC7D1;}
	.st11{fill:#1D2033;}
	.st12{fill:#EEA987;}
	.st13{fill:#C78D71;}
	.st14{fill:#A09EA6;}
	.st15{fill:#EAE6F2;}
	.st16{fill:#3A4066;}
	.st17{fill:#EFAA88;}
	.st18{fill:url(#SVGID_00000122717146783339842230000016392580928116437690_);}
	.st19{fill:#50558A;}
	.st20{fill:#1A598C;}
	.st21{fill:#BFB9B7;}
	.st22{fill:#F2EBE9;}
	.st23{fill:#3D8ED1;}
	.st24{fill:#F5EEEC;}
	.st25{fill:#DED7D5;}
	.st26{fill:#EEA886;}
	.st27{fill:#FFC355;}
	.st28{fill:#202338;}
	.st29{fill:#2F6B8C;}
	.st30{fill:#292C47;}
	.st31{fill:#A67F37;}
	.st32{fill:#FCCCA2;}
	.st33{fill:#81A358;}
	.st34{fill:#71A334;}
	.st35{fill:#60892C;}
	.st36{fill:#86BC44;}
	.st37{fill:#7BA840;}
	.st38{fill:#70A333;}
	.st39{fill:#699331;}
	.st40{fill:#B1D045;}
	.st41{fill:#9EB24E;}
	.st42{fill:url(#SVGID_00000085218241219747850370000016791630191177374615_);}
	.st43{filter:url(#Adobe_OpacityMaskFilter);}
	.st44{filter:url(#Adobe_OpacityMaskFilter_00000072239844071831949310000007819264605777047983_);}
	
		.st45{mask:url(#SVGID_00000105427196770648154410000004617718215218036104_);fill:url(#SVGID_00000045618458265122918680000004578514456630888335_);}
	.st46{fill:url(#SVGID_00000030483558985201242080000004407570111698429608_);}
	.st47{fill:#454342;}
	.st48{fill:#918783;}
	.st49{fill:#1D3B54;}
	.st50{fill:#DB9C7C;}
	.st51{fill:#152C3D;}
	.st52{fill:#A77860;}
	.st53{fill:url(#SVGID_00000051363779197465036010000012452264010803098779_);}
	.st54{fill:url(#SVGID_00000167391838721184743340000004300153728926939549_);}
	.st55{fill:url(#SVGID_00000110438710118585300660000009683097451701849791_);}
	.st56{fill:#BFB2AC;}
	.st57{fill:#FFD1A1;}
	.st58{fill:#B37952;}
	.st59{fill:#D6985E;}
	.st60{fill:#807066;}
	.st61{fill:#6E6760;}
	.st62{fill:#918880;}
	.st63{fill:#BC8551;}
	.st64{opacity:0.72;fill:#D9D9D9;}
	.st65{fill:#FFFFFF;}
	.st66{fill:#FFDC7D;}
</style>
<g>
	<rect y="0" class="st0" width="2465.39" height="2000"/>
	<g>
		<linearGradient id="SVGID_1_" gradientUnits="userSpaceOnUse" x1="1745.1521" y1="686.0966" x2="1944.4181" y2="242.1626">
			<stop  offset="0" style="stop-color:#FF9F55"/>
			<stop  offset="1" style="stop-color:#EF7F1A"/>
		</linearGradient>
		<path class="st1" d="M2018.19,469.17c5.2-14.2,8.27-28.87,9.32-43.58l29.15-11.65l-6.16-33.55l-6.16-33.55l-31.39-0.54
			c-6.21-13.38-14.29-26.01-24.19-37.43l12.37-28.83l-28.07-19.37l-28.08-19.36l-22.56,21.8c-14.2-5.2-28.87-8.27-43.58-9.32
			l-11.65-29.15l-33.55,6.16l-33.55,6.16l-0.54,31.39c-13.38,6.21-26.01,14.29-37.43,24.19l-28.83-12.37l-19.37,28.08l-19.37,28.08
			l21.8,22.56c-5.2,14.2-8.27,28.87-9.32,43.58l-29.15,11.65l6.16,33.55l6.16,33.54l31.39,0.53c6.21,13.38,14.29,26.01,24.19,37.43
			L1733.43,548l28.08,19.37l28.08,19.37l22.56-21.8c14.2,5.2,28.87,8.27,43.58,9.32l11.65,29.15l33.55-6.16l33.54-6.16l0.54-31.39
			c13.38-6.21,26.01-14.29,37.43-24.19l28.83,12.37l19.37-28.08l19.37-28.08L2018.19,469.17z M1819.79,482.86
			c-38.02-26.22-47.58-78.3-21.36-116.32c26.22-38.02,78.3-47.58,116.32-21.35c38.02,26.22,47.58,78.3,21.36,116.32
			C1909.89,499.52,1857.81,509.08,1819.79,482.86z"/>
		
			<linearGradient id="SVGID_00000169532333728789073720000003683173404519906450_" gradientUnits="userSpaceOnUse" x1="1657.778" y1="270.1976" x2="1839.387" y2="45.7088">
			<stop  offset="0" style="stop-color:#FF9F55"/>
			<stop  offset="1" style="stop-color:#EF7F1A"/>
		</linearGradient>
		<path style="fill:url(#SVGID_00000169532333728789073720000003683173404519906450_);" d="M1835.37,162.52
			c2.41-6.57,3.83-13.36,4.31-20.17l13.49-5.39l-2.85-15.52l-2.85-15.52l-14.53-0.25c-2.87-6.19-6.61-12.04-11.2-17.32l5.72-13.34
			l-12.99-8.96l-12.99-8.96l-10.44,10.09c-6.57-2.41-13.36-3.83-20.17-4.31l-5.39-13.49l-15.52,2.85l-15.52,2.85l-0.25,14.53
			c-6.19,2.87-12.04,6.61-17.32,11.2l-13.34-5.72l-8.96,12.99l-8.96,12.99l10.09,10.44c-2.41,6.57-3.83,13.36-4.31,20.17
			l-13.49,5.39l2.85,15.52l2.85,15.52l14.53,0.25c2.87,6.19,6.61,12.04,11.2,17.32l-5.72,13.34l12.99,8.96l12.99,8.96l10.44-10.09
			c6.57,2.41,13.36,3.83,20.17,4.31l5.39,13.49l15.52-2.85l15.52-2.85l0.25-14.53c6.19-2.87,12.04-6.61,17.32-11.2l13.34,5.72
			l8.96-12.99l8.96-12.99L1835.37,162.52z M1743.56,168.85c-17.59-12.14-22.02-36.24-9.88-53.83c12.14-17.59,36.24-22.02,53.83-9.88
			c17.59,12.14,22.02,36.24,9.88,53.83C1785.26,176.57,1761.16,180.99,1743.56,168.85z"/>
		<g>
			<polygon class="st3" points="1529.08,1121.94 1680.03,1121.94 1680.03,1231.35 1552.12,1231.35 1529.08,1254.4 			"/>
		</g>
		<g>
			
				<linearGradient id="SVGID_00000134948957152709337640000015658811118761529278_" gradientUnits="userSpaceOnUse" x1="876.0732" y1="938.879" x2="1835.7793" y2="938.879">
				<stop  offset="0" style="stop-color:#FF9F55"/>
				<stop  offset="1" style="stop-color:#EF7F1A"/>
			</linearGradient>
			<path style="fill:url(#SVGID_00000134948957152709337640000015658811118761529278_);" d="M1078.6,1313.35
				c0-158.49,12.26-226.03,36.82-285.86c24.52-59.84,75.16-111.98,151.9-156.5c23.01-13.81,51.39-29.52,85.15-47.18
				c33.73-17.62,66.74-38.73,98.96-63.29c32.22-24.52,59.44-53.29,81.7-86.3c22.22-32.98,33.37-70.95,33.37-113.92
				c0-32.22-6.15-60.59-18.41-85.15c-12.3-24.52-28.41-45.24-48.33-62.14c-19.96-16.87-43.37-29.52-70.2-37.97
				c-26.86-8.41-54.08-12.66-81.7-12.66c-33.77,0-64.44,5.75-92.06,17.26c-27.62,11.51-52.57,26.11-74.8,43.73
				c-22.26,17.66-42.22,37.61-59.84,59.84c-17.66,22.26-32.62,43.37-44.88,63.29L876.07,408.39c19.92-47.54,46.39-89.76,79.4-126.58
				c32.97-36.82,70.55-67.89,112.77-93.21c42.18-25.32,87.81-44.48,136.94-57.54c49.08-13.02,99.72-19.56,151.9-19.56
				c58.29,0,115.83,8.45,172.61,25.32c56.75,16.9,107.77,43.73,153.05,80.55c45.24,36.82,82.06,84,110.47,141.54
				c28.37,57.54,42.58,126.22,42.58,205.98c0,49.12-5.75,92.45-17.26,130.03c-11.51,37.61-28.01,71.74-49.48,102.41
				c-21.5,30.71-46.82,58.33-75.95,82.85c-29.16,24.56-62.14,48.33-98.96,71.35c-30.71,18.41-61.38,36.07-92.06,52.93
				c-30.71,16.9-58.69,35.67-84,56.39c-25.32,20.71-46.03,44.52-62.14,71.34c-16.11,26.86-24.17,59.48-24.17,181.15H1078.6z
				 M1083.2,1766.25v-317.6h255.46v317.6H1083.2z"/>
		</g>
		<g>
			<g>
				<path class="st5" d="M1535.28,945.91c0,0-83.17,73.62-107.79,93.29c-11.38,9.09-38.42,9.85-67.41,9.88
					c-9.55,0.02-20.33,0.47-29.88,0c-0.02,0,0,0,0,0c-38.11-1.91-71.15-5.41-71.15-5.41s-98.79,5.01-93.96-56.29
					c0,0,11.5-18.55,26.26-22.78c13.62-3.91,79.65,6.91,90.45,7.38c11.89,0.52,94.54,16.59,97.55,16.09
					c3.81-0.63,39.24-21.43,58.19-32.95c28.92-17.59,56.41-31.75,56.41-31.75L1535.28,945.91z"/>
			</g>
			<g>
				
					<linearGradient id="SVGID_00000012467302879104456940000016866923570871468931_" gradientUnits="userSpaceOnUse" x1="1251.8077" y1="917.621" x2="1778.6982" y2="1025.2415">
					<stop  offset="0" style="stop-color:#9A5CFF"/>
					<stop  offset="0.5425" style="stop-color:#695ADC"/>
					<stop  offset="0.9948" style="stop-color:#4059BF"/>
				</linearGradient>
				<polygon style="fill:url(#SVGID_00000012467302879104456940000016866923570871468931_);" points="1696.93,1044.28 
					1066.52,935.33 1081.54,847.11 1711.95,956.05 				"/>
				
					<rect x="1046.11" y="846.43" transform="matrix(0.9858 0.1679 -0.1679 0.9858 164.2581 -165.3579)" class="st7" width="28.12" height="84.86"/>
				<path class="st8" d="M734.45,490.76c-179.89,0-325.73,145.83-325.73,325.73s145.83,325.73,325.73,325.73
					c179.89,0,325.73-145.83,325.73-325.73S914.34,490.76,734.45,490.76z M734.45,1088.73c-104.2,0-194.73-58.54-240.48-144.53
					c0,0,0,0,0,0c-20.27-38.08-31.75-81.55-31.75-127.71c0-150.35,121.88-272.24,272.24-272.24c70.56,0,134.85,26.84,183.21,70.87
					c54.7,49.8,89.03,121.57,89.03,201.37C1006.68,966.84,884.8,1088.73,734.45,1088.73z"/>
				<path class="st9" d="M917.66,615.12c0,0-353.29-43.79-423.69,329.08c0,0,0,0,0,0c-20.27-38.08-31.75-81.55-31.75-127.71
					c0-150.35,121.88-272.24,272.24-272.24C805.01,544.25,869.29,571.09,917.66,615.12z"/>
			</g>
			<g>
				<path class="st10" d="M931.9,1413.09c0,0,32.18,9.77,45.65,7.3c13.49-2.47,6.66-167.82,7.2-202.23
					c0.41-27.91,15.68-101.59,15.68-101.59s0,0.04,0.02,0.12c0.02,0.02,0.02,0.06,0.02,0.08c0,0.04,0.02,0.08,0.02,0.12
					c1.51,5.52,22.12,81.98,22.84,118.72c0.76,38.13-4.97,183.97-4.97,183.97l56.8,5.53l163.24,4l34.05-4.02
					c0,0-4.07-62.37-5.58-91.99c-0.94-18.83-4.6-52.54-3.66-85.37c0,0-0.59-34.61,2.84-49.52c0.37-65.79,4.35-130.94,4.35-130.94
					c2.21-29.83,3.74-57.71,4.62-83.74c-7.2-3.8-15.84-8.26-22.77-11.55c-21.43-10.2-51.27-23.94-70.43-32.73
					c-11.22-5.15-22.2-8.91-22.2-8.91s-76.56-7.34-82.78-6.95c-1.96,0.12-11.53,3.46-24.08,8.24
					c-27.15,10.3-79.49,31.28-87.83,37.27c-12.23,8.75-38.07,216.7-39.23,231.26C923.6,1226.4,931.9,1413.09,931.9,1413.09z"/>
			</g>
			<path class="st11" d="M1267.53,1399.04c0,0-112.04,9.54-210.17,0v32.2c0,0,147.37,21.28,215.09-6.14L1267.53,1399.04z"/>
			<g>
				<path class="st5" d="M1290.35,1430.86c-7.02-38.27-14.54-86.29-19.93-130.62v-0.18c-0.46-3.76-0.92-7.52-1.35-11.24
					c0-0.18-0.04-0.39-0.07-0.57c-1.77-15.71-3.26-30.71-4.33-44.47c-0.82-10.57-0.11-20.85,1.35-30.93
					c4.29-70.4,6.42-144.59,6.42-144.59c2.23-30.36,8.48-69.83,9.33-96.29c-10.43-2.02-17.27-2.2-26.78-5.5
					c0,0-61.43-22.34-83.03-31.46c0,0,18.23,42.84,31.92,138.53c5.25,36.74,14.97,98.63,22.06,161.79
					c2.8,24.9,7.34,50.11,11.74,73.88s8.58,46.07,10.64,65.12c1.38,12.91,3.65,33.97,6.06,56.53c0.39,3.48,0.74,6.95,1.13,10.46
					h36.78C1291.66,1437.92,1290.99,1434.44,1290.35,1430.86z"/>
			</g>
			<path class="st10" d="M1166.22,957.35c0,0,2.04,29.3-22.74,29.98c-24.79,0.68-44.46-23.12-44.46-23.12l41.14,10.61l25.04-21.23
				L1166.22,957.35z"/>
			<g>
				<path class="st12" d="M1132.76,732.9c0,0,56.85,9.59,47.21,98.59c-9.64,89-59.82,81.15-63.18,81.02
					c-3.36-0.13-50.47,1.08-52.96-107.75C1063.83,804.77,1063.1,724.31,1132.76,732.9z"/>
			</g>
			<g>
				<path class="st12" d="M1157.67,886.72c0,0-0.01,36.67,1.5,44.6c1.62,8.54-45.65,33.2-76.16,4.46c0,0,6.17-40.04,4.25-54.18
					C1085.34,867.47,1157.67,886.72,1157.67,886.72z"/>
			</g>
			<g>
				<path class="st12" d="M1180.19,810.76c0,0,6.31-6.59,8.52,0.17c2.21,6.77-7.99,35.38-9.31,38.13c0,0-1.17,2.6-2.65,1.15
					C1175.27,848.76,1180.19,810.76,1180.19,810.76z"/>
			</g>
			<g>
				<path class="st12" d="M1064.48,803.94c0,0-6.03-6.85-8.52-0.17c-2.49,6.67,6.6,36.63,7.73,38.48c0,0,1.96,3.07,3.5,1.68
					C1068.73,842.52,1064.48,803.94,1064.48,803.94z"/>
			</g>
			<g>
				<path class="st5" d="M1184.76,798.77c-1.96,12.18-3.81,21.23-3.81,21.23l-8.27,10.81c0,0,0.49-23.89-0.77-27.64
					c-0.48-1.42-1.04-3.94-1.62-6.67c-0.95-4.5-1.92-9.59-2.59-11.28c-1.07-2.71-48.72-16.62-91.17,2.92c0,0,0.36,3.68,0.33,7.78
					c-0.01,4.77-0.54,10.11-2.73,10.91c-4.07,1.49-2.37,27.96-2.37,27.96l-6.62-7.64c0,0-1.91-13.83-3.8-29.72
					c0,0-0.01-0.04-0.02-0.11c-0.43-3.71-0.86-7.52-1.28-11.3c-0.95-15.99,0.63-45.02,21.45-62.07
					c14.04-6.01,36.48-11.12,73.87,0.32c0,0,8.57,0.57,10.98,2.89C1189.63,752.77,1184.76,798.77,1184.76,798.77z"/>
			</g>
			<path class="st13" d="M1091.16,900.62c0,0,9.07,12.6,30.16,12.12c21.08-0.48,30.23-11.46,30.23-11.46s-9.98,20.87-30.33,20.65
				C1100.86,921.71,1091.16,900.62,1091.16,900.62z"/>
			<path class="st14" d="M1161.37,959.14l-21.21,15.69c0,0,17.73-37.77,18.1-52.9L1161.37,959.14z"/>
			<polygon class="st15" points="1158.25,921.93 1172.77,935.35 1187.94,980.61 1161.37,959.14 			"/>
			<path class="st12" d="M1155.61,935.43c0,0-5.86,20.59-15.46,39.4c0,0-22.26-19.5-29.26-26.45
				C1103.89,941.43,1155.61,935.43,1155.61,935.43z"/>
			<path class="st14" d="M1116.87,953.03l23.29,21.8c0,0-27.53-1.83-32.68-6.42L1116.87,953.03z"/>
			<path class="st15" d="M1085.97,912.87c0,0,18.63,30.29,30.9,40.17l-20.67,34.31l-33.13-60.19L1085.97,912.87z"/>
			<g>
				<path class="st5" d="M1120.43,1131.28c-4.5-86.79-51.92-198.08-57.35-204.14c-4.22,1.6-19.08,7.84-23.76,9.68
					c-25.64,10.14-77.95,28.66-85.01,33.73c-12.24,8.76-35.36,226.8-36.81,241.34c-1.99,19.97,4.22,210.52,4.22,210.52
					s31.49,6.92,51.11,8.44c3.9,0.32,7.34,0.43,9.93,0.21c-1.17,3.51-2.31,6.95-3.44,10.25h111.5c0.32-3.41,0.67-6.92,1.03-10.46
					c1.35-14.01,2.84-28.97,4.4-44.58c4.08-40.68,9.65-78.63,14.68-127.25C1115.61,1213.46,1121.81,1157.71,1120.43,1131.28z
					 M987.08,1219.74c3.01-40.61,15.6-92.03,15.6-92.03c7.02,24.36,15.92,135.27,15.92,135.27c-0.04,34.83-13.73,94.94-28.44,144.35
					C993.04,1357.66,985.24,1244.63,987.08,1219.74z"/>
			</g>
			<g>
				<path class="st5" d="M989.17,1309.04l-0.71,121.82l-0.07,10.46h-43.91c-7.02-1.95-14.65-4.4-22.77-7.38l-0.04-3.09l-2.62-194.92
					L989.17,1309.04z"/>
			</g>
			<rect x="1134.98" y="1401.02" class="st16" width="52.81" height="39.26"/>
			<g>
				<g>
					<path class="st17" d="M1492.19,918.12c0,0-5.15,22.83-0.2,29.16c4.94,6.33,7.26-1.79,7.26-1.79s-2.43,8,3.81,10.68
						c6.24,2.68,8.45-6.98,8.45-6.98s-0.2,6.58,6.85,6.93c7.05,0.36,7.03-8.1,7.03-8.1s4.91,9.49,10.63,2.92
						c9.65-11.09,5.81-27.9,5.81-27.9s-1.31-3.96-8.11-3.84c0,0-2.56-9.95-13.49-5.91c0,0-8.79-7.98-14.17,0.06
						C1506.06,913.35,1496.2,905.39,1492.19,918.12z"/>
				</g>
			</g>
			
				<linearGradient id="SVGID_00000078014093270793483050000005380732356587391149_" gradientUnits="userSpaceOnUse" x1="897.0479" y1="1440.1851" x2="1325.4346" y2="1440.1851">
				<stop  offset="0" style="stop-color:#9A5CFF"/>
				<stop  offset="0.9948" style="stop-color:#4059BF"/>
			</linearGradient>
			
				<rect x="897.05" y="1430.86" style="fill:url(#SVGID_00000078014093270793483050000005380732356587391149_);" width="428.39" height="18.65"/>
		</g>
		<g>
			<g>
				<path class="st12" d="M649.18,1095.63c0,0,31.45,5.31,26.11,54.54c-5.33,49.24-33.09,44.89-34.95,44.82
					c-1.86-0.07-27.92,0.59-29.3-59.61C611.04,1135.38,610.64,1090.88,649.18,1095.63z"/>
			</g>
			<g>
				<path class="st12" d="M662.95,1181.53c0,0-1.21,20.41,0.71,24.82c1.91,4.41-25.13,18.22-42.01,2.32c0,0,3.41-22.15,2.35-29.97
					C622.94,1170.89,662.95,1181.53,662.95,1181.53z"/>
			</g>
			<g>
				<path class="st12" d="M675.93,1136.25c0,0,3.49-3.65,4.71,0.1c1.22,3.74-4.41,19.89-5.15,21.09c0,0-0.65,1.44-1.46,0.63
					C673.21,1157.27,675.93,1136.25,675.93,1136.25z"/>
			</g>
			<g>
				<path class="st12" d="M611.4,1134.92c0,0-3.34-3.79-4.71-0.1c-1.38,3.69,3.65,20.26,4.28,21.29c0,0,1.08,1.7,1.93,0.93
					C613.75,1156.27,611.4,1134.92,611.4,1134.92z"/>
			</g>
			<path class="st13" d="M626.16,1188.41c0,0,5.02,6.97,16.68,6.71c11.66-0.26,16.72-6.34,16.72-6.34s-5.52,11.55-16.78,11.42
				C631.53,1200.07,626.16,1188.41,626.16,1188.41z"/>
			<path class="st11" d="M545.84,1821.54c0,0-4.3,9.66-7.92,13.49c-3.62,3.83-17.5,10.68-17.58,22.05
				c-0.08,12.33,23.4,8.91,32.58,8.46c9.18-0.45,9.88-7.04,13.74-14.03c3.87-6.98,7.76-5.8,8.49-11.43
				c0.72-5.63-2.96-18.24-2.96-18.24L545.84,1821.54z"/>
			<path class="st19" d="M545.44,1817.97l-0.67,5.85c0,0,14.44,4.84,28.09,0.51l-0.76-8L545.44,1817.97z"/>
			<g>
				<g>
					<g>
						<polygon class="st20" points="1124.67,1844 1121.37,1843.87 1138,1426.41 850.4,1426.41 833.76,1844 830.46,1843.87 
							847.22,1423.1 1141.44,1423.1 						"/>
					</g>
				</g>
			</g>
			<g>
				<g>
					<g>
						<polygon class="st20" points="1151.61,1844 1134.97,1426.41 847.37,1426.41 864,1843.87 860.7,1844 843.93,1423.1 
							1138.15,1423.1 1154.91,1843.87 						"/>
					</g>
				</g>
			</g>
			<g>
				<g>
					<polygon class="st21" points="862.35,1708.18 1153.26,1708.18 1136.56,1289.01 845.65,1289.01 					"/>
				</g>
			</g>
			<g>
				<g>
					<polygon class="st22" points="1114.81,1708.18 823.91,1708.18 840.6,1289.01 1131.51,1289.01 					"/>
				</g>
			</g>
			<g>
				<g>
					<polygon class="st23" points="917.14,1581.9 913.97,1580.77 941.54,1503.42 1001.33,1487.61 1022.82,1402.71 1068.96,1382.34 
						1079.3,1316.33 1082.62,1316.85 1072,1384.68 1025.68,1405.13 1004.11,1490.35 944.11,1506.22 					"/>
				</g>
			</g>
			<g>
				<path class="st24" d="M1009.67,1483.3c3.14,3.84,2.57,9.49-1.27,12.63c-3.84,3.14-9.49,2.57-12.63-1.27
					c-3.14-3.84-2.57-9.49,1.27-12.63C1000.88,1478.9,1006.53,1479.46,1009.67,1483.3z"/>
			</g>
			<g>
				<path class="st23" d="M1009.46,1497.23c-4.55,3.72-11.27,3.04-14.99-1.51c-3.72-4.55-3.04-11.28,1.51-14.99
					c4.55-3.72,11.28-3.04,14.99,1.51C1014.69,1486.79,1014.01,1493.51,1009.46,1497.23z M998.11,1483.33
					c-3.11,2.54-3.58,7.15-1.03,10.26c2.54,3.11,7.15,3.58,10.26,1.03c3.11-2.54,3.58-7.15,1.03-10.26
					C1005.82,1481.25,1001.22,1480.79,998.11,1483.33z"/>
			</g>
			<g>
				<path class="st24" d="M1031.44,1398.75c3.14,3.84,2.57,9.49-1.27,12.63c-3.84,3.14-9.49,2.57-12.63-1.27
					c-3.14-3.84-2.57-9.49,1.27-12.62C1022.65,1394.35,1028.3,1394.92,1031.44,1398.75z"/>
			</g>
			<g>
				<path class="st23" d="M1031.24,1412.68c-4.55,3.72-11.28,3.04-14.99-1.51c-3.72-4.55-3.04-11.27,1.51-14.99
					c4.55-3.72,11.27-3.04,14.99,1.51C1036.46,1402.24,1035.79,1408.96,1031.24,1412.68z M1019.88,1398.79
					c-3.11,2.54-3.58,7.15-1.03,10.26c2.54,3.11,7.15,3.58,10.26,1.03c3.11-2.54,3.58-7.15,1.03-10.26
					C1027.59,1396.7,1022.99,1396.24,1019.88,1398.79z"/>
			</g>
			<g>
				<path class="st24" d="M1076.87,1377.81c3.14,3.84,2.57,9.49-1.27,12.63c-3.84,3.14-9.49,2.57-12.63-1.27
					c-3.14-3.84-2.57-9.49,1.27-12.62C1068.08,1373.4,1073.74,1373.97,1076.87,1377.81z"/>
			</g>
			<g>
				<path class="st24" d="M950.11,1499.91c3.14,3.84,2.57,9.49-1.27,12.63c-3.84,3.14-9.49,2.57-12.63-1.27
					c-3.14-3.84-2.57-9.49,1.27-12.63C941.32,1495.5,946.97,1496.07,950.11,1499.91z"/>
			</g>
			<g>
				<path class="st23" d="M949.9,1513.83c-4.55,3.72-11.28,3.04-14.99-1.51c-3.72-4.55-3.04-11.27,1.51-14.99
					c4.55-3.72,11.27-3.04,14.99,1.51C955.13,1503.39,954.45,1510.12,949.9,1513.83z M938.55,1499.94
					c-3.11,2.54-3.58,7.15-1.03,10.26c2.54,3.11,7.15,3.58,10.26,1.03c3.11-2.54,3.57-7.15,1.03-10.26
					C946.26,1497.86,941.66,1497.4,938.55,1499.94z"/>
			</g>
			<g>
				<g>
					<g>
						<path class="st25" d="M964.12,1398.41h-85.29c-1.25,0-2.27-1.02-2.27-2.27v-14.07c0-1.25,1.02-2.27,2.27-2.27h85.29
							c1.25,0,2.27,1.02,2.27,2.27v14.07C966.39,1397.39,965.37,1398.41,964.12,1398.41z"/>
					</g>
				</g>
			</g>
			<g>
				<g>
					<g>
						<path class="st25" d="M964.12,1365.87h-85.29c-1.25,0-2.27-1.02-2.27-2.27v-14.07c0-1.25,1.02-2.27,2.27-2.27h85.29
							c1.25,0,2.27,1.02,2.27,2.27v14.07C966.39,1364.86,965.37,1365.87,964.12,1365.87z"/>
					</g>
				</g>
			</g>
			<g>
				<path class="st23" d="M1076.67,1391.74c-4.55,3.72-11.28,3.04-14.99-1.51c-3.72-4.55-3.04-11.28,1.51-14.99
					c4.55-3.72,11.28-3.04,14.99,1.51C1081.89,1381.29,1081.22,1388.02,1076.67,1391.74z M1065.31,1377.84
					c-3.11,2.54-3.58,7.15-1.03,10.26c2.54,3.11,7.15,3.58,10.26,1.03c3.11-2.54,3.58-7.15,1.03-10.26
					C1073.03,1375.76,1068.42,1375.3,1065.31,1377.84z"/>
			</g>
			<g>
				<g>
					<polygon class="st23" points="892.73,1656.61 890.71,1655.15 926.16,1605.79 971.92,1606.78 1004.59,1550.8 1041.58,1545.76 
						1062.45,1500.92 1064.71,1501.97 1043.27,1548.04 1006.13,1553.1 973.34,1609.3 927.41,1608.3 					"/>
				</g>
			</g>
			<g>
				<path class="st24" d="M978.74,1605.42c1.45,3.37-0.12,7.28-3.49,8.72c-3.37,1.45-7.28-0.12-8.72-3.49
					c-1.44-3.37,0.12-7.28,3.49-8.72C973.39,1600.49,977.29,1602.05,978.74,1605.42z"/>
			</g>
			<g>
				<path class="st23" d="M975.74,1615.29c-4,1.71-8.64-0.15-10.36-4.14c-1.71-4,0.15-8.64,4.14-10.36c4-1.71,8.64,0.15,10.36,4.14
					C981.59,1608.93,979.74,1613.58,975.74,1615.29z M970.5,1603.08c-2.73,1.17-4.01,4.35-2.83,7.09c1.17,2.73,4.35,4.01,7.08,2.83
					c2.73-1.17,4.01-4.35,2.83-7.08C976.42,1603.18,973.24,1601.91,970.5,1603.08z"/>
			</g>
			<g>
				<path class="st24" d="M1011.53,1549.75c1.45,3.37-0.12,7.28-3.49,8.72c-3.37,1.44-7.28-0.12-8.72-3.49
					c-1.45-3.37,0.12-7.27,3.49-8.72C1006.18,1544.81,1010.09,1546.38,1011.53,1549.75z"/>
			</g>
			<g>
				<path class="st23" d="M1008.54,1559.61c-4,1.71-8.64-0.15-10.36-4.14c-1.71-4,0.14-8.64,4.14-10.36c4-1.71,8.64,0.14,10.36,4.14
					C1014.39,1553.25,1012.53,1557.9,1008.54,1559.61z M1003.3,1547.4c-2.74,1.17-4.01,4.35-2.83,7.08
					c1.17,2.74,4.35,4.01,7.08,2.83c2.74-1.17,4.01-4.35,2.83-7.08C1009.22,1547.5,1006.04,1546.23,1003.3,1547.4z"/>
			</g>
			<g>
				<path class="st24" d="M1048.14,1544.15c1.45,3.37-0.12,7.28-3.49,8.72c-3.37,1.45-7.28-0.12-8.72-3.49
					c-1.45-3.37,0.12-7.27,3.49-8.72C1042.79,1539.22,1046.69,1540.78,1048.14,1544.15z"/>
			</g>
			<g>
				<path class="st24" d="M932.97,1605.04c1.45,3.37-0.12,7.28-3.49,8.72c-3.37,1.45-7.28-0.12-8.72-3.49
					c-1.45-3.37,0.12-7.28,3.49-8.72C927.62,1600.11,931.53,1601.67,932.97,1605.04z"/>
			</g>
			<g>
				<path class="st23" d="M929.98,1614.9c-4,1.71-8.64-0.14-10.36-4.14c-1.71-4,0.14-8.64,4.14-10.35c4-1.71,8.64,0.14,10.36,4.14
					C935.83,1608.54,933.97,1613.19,929.98,1614.9z M924.74,1602.69c-2.74,1.17-4.01,4.35-2.83,7.09c1.17,2.73,4.35,4.01,7.08,2.83
					c2.74-1.17,4.01-4.35,2.83-7.09C930.66,1602.79,927.48,1601.52,924.74,1602.69z"/>
			</g>
			<g>
				<path class="st23" d="M1045.14,1554.02c-4,1.71-8.64-0.14-10.36-4.14c-1.71-4,0.14-8.64,4.14-10.36c4-1.71,8.64,0.14,10.36,4.14
					C1050.99,1547.66,1049.14,1552.3,1045.14,1554.02z M1039.91,1541.81c-2.74,1.17-4.01,4.35-2.83,7.08
					c1.17,2.74,4.35,4.01,7.08,2.83c2.74-1.17,4.01-4.35,2.83-7.08C1045.82,1541.91,1042.64,1540.64,1039.91,1541.81z"/>
			</g>
			<g>
				<g>
					<g>
						<path class="st26" d="M831.71,1304.88c0,0,9.48-2.98,10.25-8.6c0.65-4.78,4.94-10.49,6.26-12.25
							c1.76-2.35,4.48-11.59,7.47-9.4c2.99,2.19-3.75,15.45-4.61,18.51c-0.86,3.06,12.11-2.76,15.32-1.96
							c3.21,0.8,11.64,22.83,2.28,25.8c-9.37,2.97-21.33-0.04-22.87,0.81c-1.54,0.85-6.73,2.43-6.73,2.43L831.71,1304.88z"/>
					</g>
				</g>
			</g>
			<g>
				<g>
					<g>
						<path class="st26" d="M864.05,1291.37c0,0,29.27-7.18,31.62-6.03s2.65,2.76-0.06,3.55c-2.71,0.79-28.08,7.76-28.08,7.76
							s36.07-2.68,38.21-2.16c1.25,0.31,2.01,3.39,0.59,3.94c-1.41,0.55-37.01,5.26-37.01,5.26s33.69-2.44,35.34-1.47
							c1.45,0.85,1.43,3.85-1.05,4.2c-2.49,0.35-33.62,4.39-33.62,4.39s24.63-0.24,25.54,1.41c0.56,1.01,1.34,3.64-5.02,3.5
							c-6.36-0.14-21.39,1.11-21.39,1.11L864.05,1291.37z"/>
					</g>
				</g>
			</g>
			<g>
				<path class="st27" d="M692.66,1273.33c0,0,7.6,13.42,17.77,28.51c0.94,1.39,1.89,2.79,2.87,4.2c0,0,0,0.01,0.01,0.02
					c1.32,1.91,2.67,3.82,4.05,5.72c1.64,2.27,3.32,4.52,5.01,6.71c9.43,12.23,19.35,22.62,26.88,24.48
					c16.3,4.01,98.18-14.15,98.18-14.15l-6.33-32.19c0,0-28.71,9.77-47.89,11.38c-11.77,0.98-26.44,4.84-28.18,3.75
					c-1.75-1.09-35.33-49.53-37.72-54.75c-2.4-5.23-13.14-25.73-22.29-35.53c-9.15-9.8-19.1-6.07-19.1-6.07
					C658.48,1233.25,692.66,1273.33,692.66,1273.33z"/>
			</g>
			<g>
				<path class="st28" d="M729.67,1818.68c0,0,12.66,13.3,25.52,16.08c12.86,2.79,21.85,6.34,21.95,13.97
					c0.1,7.63-37,12.66-51.71,4.97c-21.96-11.48-24.19-8.02-26.62-13.76c-2.43-5.74,2.92-21.09,2.77-22.91
					C701.37,1814.78,729.67,1818.68,729.67,1818.68z"/>
			</g>
			<g>
				<path class="st29" d="M728.25,1812.32c0,0,1.67,6.23,1.42,6.36c-0.25,0.13-28.97,3.35-28.1-1.65c0.7-4.05,1.71-8.46,1.71-8.46
					L728.25,1812.32z"/>
			</g>
			<g>
				<path class="st30" d="M699.27,1438.18c0,0,13.3,96.62,18.73,129.28c6.35,38.19,8.5,69.74,10.28,89.51
					c2.23,24.86,5.18,152.09,6.74,159.36c1.56,7.27-38.75,3.49-38.75,3.49s-21.11-165.87-27.75-192.34
					c-6.18-24.65-24.17-131.14-29.81-124.41c-5.64,6.73-29.75,128.24-33.92,147.68c-4.17,19.44-27.53,175.38-27.53,175.38
					s-25,4.54-40.16-3.11c0,0,11.75-136.39,14.41-172.85c1.01-13.89,3.49-166.53,26.98-228
					C590.93,1389.69,699.27,1438.18,699.27,1438.18z"/>
			</g>
			<path class="st27" d="M660.25,1206.46c0,0,35.2,7.28,39.37,10.98c4.53,3.94,12.53,42.49,13.01,53.22
				c0.48,10.74-4.24,55.6-8.78,72.3c-4.53,16.7-2.89,98.88-0.03,122.02c0,0-52.15,23.36-140.19,2.16c0,0,15.33-76.19,12.54-99.08
				c-3.57-29.32-10.6-101.29-10.6-101.29s-0.22-44.02,5.99-49.27s51.87-11.04,51.87-11.04H660.25z"/>
			<path class="st27" d="M591.44,1215.39c0,0,22.05,6.07,9.92,46.54c-9.5,31.7-10.78,38.5-10.78,38.5l-50.88-12.71
				c0,0,13.02-66.96,37.38-72.72C577.08,1215.01,586.71,1213.25,591.44,1215.39z"/>
			<path class="st31" d="M710.43,1301.83c0.94,1.39,1.89,2.79,2.87,4.2c0,0,0,0.01,0.01,0.02c1.32,1.91,2.67,3.82,4.05,5.72
				c1.04-18.84-3.92-45-3.92-45C714.39,1275.53,710.43,1301.83,710.43,1301.83z"/>
			<path class="st27" d="M662.79,1201.33c0,0-21.76,6.4-39.98-1.13l-1.26,8.91c0,0,24.44,9.29,43.54,5.03L662.79,1201.33z"/>
			<path class="st26" d="M538.03,1463.72c0,0,1.86,11.39,3.4,13.53c1.54,2.14,5.55,12.79,5.95,14.28c0.4,1.49,2.75,12.2,3.16,13.56
				c0.41,1.36-2.67,3.38-4.66,0.48c-1.24-1.8-3.31-8.75-4.16-11c-0.86-2.25-3.49-9.35-4.28-8.09c-0.8,1.26-0.87,10.7-1.06,13.12
				c-0.19,2.42,1.14,9.92,1.78,13.03s4.39,16.16,2.72,16.81s-3.05,0.42-5.08-3.11c0,0-3.42,1.79-5.27-2.52c0,0-3.04,1.01-4.76-4.6
				c0,0-2.11-1.24-2.88-3.25c-0.78-2.01-5.19-19.17-4.96-26.11c0.23-6.94,1.99-11.74,1.83-16.64c-0.16-4.91-2.39-15.46-2.39-15.46
				L538.03,1463.72z"/>
			<g>
				<path class="st27" d="M544.04,1475.74c0,0-12.14,1.92-29.59,0.45c0,0,9.88-112.25,9.37-118.58
					c-0.47-5.87,22.66-110.16,35.37-125.96l19.33,61c-1.47-0.47-21.04,62.21-21.31,68.66
					C556.84,1369.96,544.04,1475.74,544.04,1475.74z"/>
			</g>
			<path class="st32" d="M678.17,1127.19c0.96-13.07-0.01-23.88-1.71-30.56c-2.09-8.23-15.41-5.97-15.41-5.97l0,0
				c-20.31-6.08-32.55-3.29-40.24,0.01c-11.52,9.43-12.39,25.49-11.87,34.34c0.23,2.09,0.47,4.2,0.71,6.25
				c0,0.04,0.01,0.06,0.01,0.06c1.04,8.79,2.1,16.44,2.1,16.44l3.66,4.22c0,0-0.94-14.64,1.31-15.47c1.21-0.44,1.5-3.4,1.51-6.04
				c0.01-2.27-0.18-4.3-0.18-4.3c23.48-10.81,49.85-3.11,50.44-1.61c0.37,0.94,0.91,3.75,1.43,6.24c0.32,1.51,0.63,2.9,0.9,3.69
				c0.7,2.08,0.43,15.29,0.43,15.29l4.58-5.98c0,0,0.58-2.85,1.34-7.15l0,0c0,0,0,0,0,0c0.25-1.4,0.51-2.94,0.77-4.59
				C677.94,1132.07,678.14,1130.2,678.17,1127.19z"/>
		</g>
		<g>
			<g>
				<g>
					
						<rect x="1902.71" y="1629.24" transform="matrix(0.9977 -0.0674 0.0674 0.9977 -109.8533 132.1557)" class="st33" width="1.52" height="129.47"/>
				</g>
				<g>
					
						<rect x="1874.48" y="1405.3" transform="matrix(0.9982 -0.0604 0.0604 0.9982 -91.99 116.062)" class="st33" width="1.52" height="350.98"/>
				</g>
				<g>
					<rect x="1894.65" y="1354.76" class="st33" width="1.52" height="408.7"/>
				</g>
				<g>
					
						<rect x="1789.79" y="1637.39" transform="matrix(0.0225 -0.9997 0.9997 0.0225 231.4581 3513.0229)" class="st33" width="244.76" height="1.52"/>
				</g>
				<g>
					<path class="st34" d="M1894.52,1438.36c0,0-42.48-36.23-29.88-72.39c12.61-36.16,74.86-16.59,55.08,48.64
						C1919.73,1414.62,1913.3,1431.44,1894.52,1438.36z"/>
				</g>
				<g>
					<polygon class="st35" points="1907.5,1420.13 1905.98,1420 1909.27,1381.21 1911.29,1375.45 					"/>
				</g>
				<g>
					<polygon class="st35" points="1886.59,1421.06 1885.07,1421.03 1886.31,1359.72 1887.63,1369.49 					"/>
				</g>
				<g>
					<polygon class="st35" points="1878.73,1411.07 1871.33,1369 1874.01,1375.45 1880.23,1410.8 					"/>
				</g>
				<g>
					<path class="st36" d="M1867.67,1497.82c0,0-36.82-47.66-17.65-81.34c19.17-33.68,142.52-5.84,86.75,115.7
						c-55.77,121.54-98.86,39.79-98.86,39.79L1867.67,1497.82z"/>
				</g>
				<g>
					<polygon class="st37" points="1899.92,1584.62 1898.45,1584.23 1931.91,1458.36 1935.89,1449.29 					"/>
				</g>
				<g>
					<polygon class="st37" points="1889.34,1572.64 1887.82,1572.58 1894.26,1430.71 1896.15,1422.71 					"/>
				</g>
				<g>
					<polygon class="st37" points="1874.48,1526.12 1868.16,1424.68 1870.21,1433.19 1876,1526.02 					"/>
				</g>
				<g>
					<path class="st38" d="M1895.41,1540.67c0,0-5.55-81.77-52.45-51.65c-46.91,30.12-58.51,148.19,52.45,184.07V1540.67z"/>
				</g>
				<g>
					<polygon class="st39" points="1902.76,1619.27 1855.26,1504.49 1852.89,1494.78 1904.17,1618.69 					"/>
				</g>
				<g>
					<path class="st39" d="M1910.5,1627.37c-4.25-0.15-11.27-5.46-21.44-16.21c-7.93-8.38-17.69-20.02-29.02-34.59
						c-19.27-24.79-31.09-41.95-31.26-42.2l-4.29-8.73c0.17,0.25,17.51,25.25,36.75,50c32.02,41.18,44.49,50.03,49.31,50.21
						L1910.5,1627.37z"/>
				</g>
				<g>
					<path class="st39" d="M1917.6,1642.79c-9.78,0-29.78-10.87-59.46-32.29c-22.03-15.91-41.47-32.02-41.66-32.18l6.09,3
						c7.4,6.01,72.38,59.95,95.02,59.95V1642.79z"/>
				</g>
				<g>
					<path class="st39" d="M1851.27,1637.56c1.16,0.64,8.26,1.81,26.56,4.97c10.2,1.76,35.08,5.87,45.76,6.13l-0.04,1.52
						c-10.93-0.27-36.29-4.48-46.69-6.28c-8.44-1.46-17-3.05-23.49-4.36c-10.37-2.1-10.74-2.48-10.98-2.74L1851.27,1637.56z"/>
				</g>
				<g>
					<path class="st40" d="M1910.47,1720.05c0,0-38.76-40.84-29.68-103.59c9.08-62.75,79.69-62.68,79.19-1.72
						C1959.47,1675.7,1946.69,1692.65,1910.47,1720.05z"/>
				</g>
				<g>
					<polygon class="st41" points="1913.51,1715.11 1912.17,1714.74 1931.51,1586.46 1934.26,1577.83 1914.93,1706.68 
						1952.11,1600.78 1952.4,1604.68 					"/>
				</g>
				<g>
					<polygon class="st41" points="1910.07,1716.07 1889.31,1616.8 1889.13,1609.16 1909.72,1706.87 1904.22,1583.15 
						1906.46,1595.79 1911.48,1715.67 					"/>
				</g>
				
					<linearGradient id="SVGID_00000003098854571339302220000008026662589273985982_" gradientUnits="userSpaceOnUse" x1="1843.4619" y1="1795.0986" x2="1947.3623" y2="1795.0986">
					<stop  offset="0" style="stop-color:#BAD0DE"/>
					<stop  offset="1" style="stop-color:#F5F2FF"/>
				</linearGradient>
				<polygon style="fill:url(#SVGID_00000003098854571339302220000008026662589273985982_);" points="1947.36,1756 1922.83,1834.19 
					1868,1834.19 1843.46,1756 				"/>
				<defs>
					<filter id="Adobe_OpacityMaskFilter" filterUnits="userSpaceOnUse" x="1843.46" y="1756" width="103.9" height="78.19">
						<feFlood  style="flood-color:white;flood-opacity:1" result="back"/>
						<feBlend  in="SourceGraphic" in2="back" mode="normal"/>
					</filter>
				</defs>
				
					<mask maskUnits="userSpaceOnUse" x="1843.46" y="1756" width="103.9" height="78.19" id="SVGID_00000034772450929734997550000007057673133891630762_">
					<g class="st43">
						<defs>
							
								<filter id="Adobe_OpacityMaskFilter_00000177485476134952219300000012995162524625545351_" filterUnits="userSpaceOnUse" x="1843.46" y="1756" width="103.9" height="78.19">
								<feFlood  style="flood-color:white;flood-opacity:1" result="back"/>
								<feBlend  in="SourceGraphic" in2="back" mode="normal"/>
							</filter>
						</defs>
						
							<mask maskUnits="userSpaceOnUse" x="1843.46" y="1756" width="103.9" height="78.19" id="SVGID_00000034772450929734997550000007057673133891630762_">
							<g style="filter:url(#Adobe_OpacityMaskFilter_00000177485476134952219300000012995162524625545351_);">
							</g>
						</mask>
						
							<linearGradient id="SVGID_00000182503433587292236350000006808182144786871482_" gradientUnits="userSpaceOnUse" x1="1843.4619" y1="1795.0986" x2="1947.3623" y2="1795.0986">
							<stop  offset="0" style="stop-color:#FFFFFF"/>
							<stop  offset="0.9948" style="stop-color:#000000"/>
						</linearGradient>
						
							<path style="mask:url(#SVGID_00000034772450929734997550000007057673133891630762_);fill:url(#SVGID_00000182503433587292236350000006808182144786871482_);" d="
							M1947.36,1756c0,0-54.01,8.52-54.01,78.19H1868l-24.54-78.19H1947.36z"/>
					</g>
				</mask>
				
					<linearGradient id="SVGID_00000139263730407443891840000011649846627050915970_" gradientUnits="userSpaceOnUse" x1="1843.4619" y1="1795.0986" x2="1947.3623" y2="1795.0986">
					<stop  offset="0" style="stop-color:#9FA0AD"/>
					<stop  offset="0.9948" style="stop-color:#55B5FF"/>
				</linearGradient>
				<path style="fill:url(#SVGID_00000139263730407443891840000011649846627050915970_);" d="M1947.36,1756
					c0,0-54.01,8.52-54.01,78.19H1868l-24.54-78.19H1947.36z"/>
				<path class="st47" d="M1858.79,1840.3L1858.79,1840.3c0-0.02,0-0.03,0.01-0.05L1858.79,1840.3z"/>
			</g>
			<path class="st26" d="M1569.84,1450.31c0,0,7.79,1.57,11.52,1.69c3.73,0.12,20.97-7.7,26.48-6.96
				c5.52,0.74,41.5,16.03,43.13,17.15c1.63,1.12-0.77,3.57-0.77,3.57l-82.6,0.98L1569.84,1450.31z"/>
			<rect x="1375.25" y="1617.72" class="st48" width="13.8" height="174.23"/>
			<path class="st49" d="M1555.42,1771.41c0,0,0.14,7.7,2.64,16.67c1.83,6.58,5.51,32.04,10.21,35.6c4.7,3.56,19.86,13,17.63,22.7
				c-2.23,9.7-4.11,16.46-20.48,10.72c-16.37-5.74-27.31-9.03-30.45-23.39c-3.14-14.36-12.1-27.44-12.1-27.44l-11.83,29.42
				l-6.24-2.51c0,0,9.43-31.78,8.62-34.62s4.32-28.09,24.12-34.34C1557.35,1757.96,1555.42,1771.41,1555.42,1771.41z"/>
			<path class="st49" d="M1664.75,1780.69c0,0,3,7.09,8.66,14.48c4.15,5.42,17.07,27.67,22.76,29.22
				c5.69,1.55,23.28,4.66,24.83,14.48s2.33,16.81-15,17.59c-17.33,0.78-28.71,1.81-36.98-10.34c-8.28-12.16-21.46-20.95-21.46-20.95
				v31.71h-6.72c0,0-3.1-33.01-4.91-35.33c-1.81-2.33-6.46-27.67,9.57-40.86C1661.52,1767.5,1664.75,1780.69,1664.75,1780.69z"/>
			<path class="st26" d="M1488.57,1349.75c0,0,3.85-13.66,4.23-15.44c0.38-1.78,4.02-5.32,8.56-9.01c4.54-3.7,12.32-6.66,13.29-6.36
				c0.96,0.3,2.08,0.16,3.67,2.2c1.59,2.05,1.81,4.65,1.81,4.65s3.14,1.6,3.17,4.83c0,0,2.89,1.64,2.32,5.31
				c0,0,2.78,1.68,2.14,4.31c0,0-3.65,3.55-4.62,5.25c-0.97,1.7-9.06,8.57-17.83,13.96
				C1505.3,1359.45,1494.1,1367.72,1488.57,1349.75z"/>
			<path class="st49" d="M1353.57,1373.23c5.44-8.81,12.7-12.78,35.76,3.17c23.06,15.95,17.64,12.83,23.17,17.88
				s29.72,17.7,29.72,17.7s14.13-14.05,20.91-24.04c7.64-11.25,23.59-41.31,23.59-41.31l22.36,16.65c0,0-43.45,78.77-52.52,84.59
				c-9.07,5.82-36.42-3.91-50.65-9.91c-14.23-6-29.3-13.76-35.8-15.37S1339.37,1396.22,1353.57,1373.23z"/>
			<path class="st50" d="M1513.42,1319.86c0,0-11.27,9.65-9.94,11.66s3.04,1.94,3.04,1.94l-2.84,6.08c0,0,0.39,5.08,5.82,3.17
				c0,0-0.13,4.79,4.89,2.31c0,0,1.33,3.2,3.85,2.46c2.53-0.73,9.52-7.24,9.52-7.24s0.86-2.04-2.14-4.31c0,0,0.75-3.49-2.32-5.31
				c0,0,0.17-2.88-3.17-4.83c0,0-0.13-6.46-5.47-6.85C1514.65,1318.93,1513.89,1319.45,1513.42,1319.86z"/>
			<path class="st51" d="M1461.07,1421.07c0,0,4.54-16.46-0.81-29.2c0,0,2.04,13.19-3.74,22.57
				C1452.34,1421.23,1461.07,1421.07,1461.07,1421.07z"/>
			<path class="st26" d="M1633.88,1604.11c0,0-20.63,46.4-35.35,79.52c-2.47,5.58-4.78,10.77-6.8,15.3
				c-2.36,5.31-4.32,9.71-5.67,12.75c-9.37,21.08-32.42,67.05-32.42,67.05s-17.34,0.66-18.35-14.06c0,0,16.64-31.91,16.64-54.33
				c0-22.42,3.01-88.47,24.43-102.74C1602.48,1590.19,1619.44,1586.9,1633.88,1604.11z"/>
			<path class="st26" d="M1443.17,1515.91c0,0,4.35,4.35,8.03,5.35c3.68,1,65.26,5.69,93.71,15.06
				c28.45,9.37,66.26,15.39,73.29,23.43c7.03,8.03,18.74,52.21,18.41,60.57c-0.33,8.37,25,149.36,28.16,160.36
				c1.67,5.83-22.91,3.6-22.91,3.6s-34.93-83.31-42.39-98.7c-13.71-28.28-14.39-62.92-19.41-68.27c-5.02-5.35-60.91-17.4-93.04-17.4
				c-32.13,0-104.08,2.68-111.78-1.67c-7.7-4.35-55.89-36.14-35.81-78.64C1359.5,1477.09,1443.17,1515.91,1443.17,1515.91z"/>
			<path class="st27" d="M1581.84,1547.02l-50.68,97.4c0,0-15.35-36.4-42.14-42.66c-26.79-6.26-133.69-2.9-133.69-2.9
				s-49.05-62.05-7.05-94.6c42.01-32.55,91.06,5.12,91.06,5.12s10.14,10.98,15.04,11.23
				C1459.29,1520.85,1498.4,1520.29,1581.84,1547.02z"/>
			<path class="st26" d="M1696.17,1824.39c0,0-15.52,3.88-21.46,0c-5.95-3.88-26.17-38.06-32.87-40.11c0,0,6.49-13.17,22.91-3.6
				C1664.75,1780.69,1691.78,1818.7,1696.17,1824.39z"/>
			<path class="st26" d="M1568.27,1823.68c0,0-15.84-2.19-19.92-8.01c-4.07-5.82-10.08-45.07-15.53-49.47c0,0,10.93-9.8,22.6,5.21
				C1555.42,1771.41,1566.32,1816.76,1568.27,1823.68z"/>
			<path class="st26" d="M1415.63,1303.77c0,0-0.96,3.1-2.04,7.71c-0.56,2.35-1.14,5.09-1.66,8.01c-1.41,8.08-2.24,17.52-0.15,23.8
				c0,0-17.18,5.95-30.75-18.33c0,0,5.83-26.16-1.75-42.02C1371.72,1267.09,1415.63,1303.77,1415.63,1303.77z"/>
			<path class="st52" d="M1413.99,1310.35c-0.56,2.35-1.54,6.23-2.06,9.14c-15.96-10.13-21.33-27.19-21.33-27.19
				C1399.72,1300.55,1413.99,1310.35,1413.99,1310.35z"/>
			<path class="st49" d="M1460.17,1404.28c-3.62,16.76-13.13,17.64-12.55,30.02c0.58,12.38,4.27,13.44-2.13,32.96
				c-1.18,3.61-2.15,7.55-2.92,11.56c-0.09,0.47-0.18,0.95-0.27,1.43c-0.42,2.25-0.77,4.52-1.08,6.76
				c-0.57,4.14-0.98,8.19-1.26,11.88c-0.75,9.63,6.34,17.07,6.34,17.07s-62.64,37.53-105.65,32.26c0,0,11.13-46.8,17.27-62.87
				c6.13-16.07,4.28-90.36-0.23-106.3c-6.66-23.52,6.64-58.79,24.82-63.38l28.19,13.06c0,0,28.4,33.91,34.77,39.03
				C1451.83,1372.9,1463.84,1387.28,1460.17,1404.28z"/>
			<path class="st49" d="M1366.98,1335.61c7.96-6.63,19.48-17.98,36.29,4.47c16.8,22.45,29.03,36.91,32.66,43.46
				c3.63,6.54,35.22,52.15,35.22,52.15s30.92,3.31,42.92,4.61c15.14,1.64,68.79,6.85,68.79,6.85l1.5,22.8c0,0-94.64,0.49-105.1,3.13
				s-39.73-23.7-51.32-33.91c-11.59-10.21-44.12-47.38-49.77-50.97C1372.52,1384.62,1346.22,1352.9,1366.98,1335.61z"/>
			<path class="st52" d="M1598.53,1683.63c-2.47,5.58-4.78,10.77-6.8,15.3c-7.58-24.39-6.96-65.16-6.96-65.16
				C1589.33,1662.2,1598.39,1683.31,1598.53,1683.63z"/>
			
				<linearGradient id="SVGID_00000109004740531680208310000018132075605415938736_" gradientUnits="userSpaceOnUse" x1="1372.2593" y1="1659.6735" x2="1439.5228" y2="1259.4562">
				<stop  offset="0" style="stop-color:#E36C44"/>
				<stop  offset="1" style="stop-color:#F75A5A"/>
			</linearGradient>
			
				<rect x="1271.92" y="1598.86" style="fill:url(#SVGID_00000109004740531680208310000018132075605415938736_);" width="217.1" height="23.89"/>
			
				<linearGradient id="SVGID_00000014627537695202788080000016544187981328068747_" gradientUnits="userSpaceOnUse" x1="1406.3527" y1="1665.4032" x2="1473.6155" y2="1265.1896">
				<stop  offset="0" style="stop-color:#E36C44"/>
				<stop  offset="1" style="stop-color:#F75A5A"/>
			</linearGradient>
			<path style="fill:url(#SVGID_00000014627537695202788080000016544187981328068747_);" d="M1384.89,1522.65
				c0,0-5.47,22.14,20.3,27.16c25.77,5.03,57.46,11.45,57.46,51.21h-89.38L1384.89,1522.65z"/>
			
				<linearGradient id="SVGID_00000106827341120200909620000006376208939855108739_" gradientUnits="userSpaceOnUse" x1="1280.5898" y1="1644.2666" x2="1347.8529" y2="1244.0521">
				<stop  offset="0" style="stop-color:#E36C44"/>
				<stop  offset="1" style="stop-color:#F75A5A"/>
			</linearGradient>
			<path style="fill:url(#SVGID_00000106827341120200909620000006376208939855108739_);" d="M1271.92,1622.75l-75.9-318.99
				c0,0,137.21-21.44,153.56,40.18c16.35,61.62,43.24,244.65,75.94,255.96C1458.21,1611.22,1271.92,1622.75,1271.92,1622.75z"/>
			<path class="st51" d="M1448.41,1456.61c0,0-1.4,5.85-2.89,10.7l-33.38-43.29L1448.41,1456.61z"/>
			<polygon class="st49" points="1412.32,1330.67 1412.32,1323.77 1383.03,1309.51 1372.89,1321.22 			"/>
			<path class="st56" d="M1516.16,1836.93c0,6.27-5.08,11.35-11.35,11.35c-6.27,0-11.35-5.08-11.35-11.35
				c0-6.27,5.08-11.35,11.35-11.35C1511.07,1825.58,1516.16,1830.67,1516.16,1836.93z"/>
			<polygon class="st48" points="1260.57,1825.69 1263.45,1833.77 1384.89,1796.14 1379.07,1779.77 			"/>
			<polygon class="st48" points="1504.81,1825.69 1501.93,1833.77 1380.49,1796.14 1385.82,1778.74 			"/>
			<polygon class="st48" points="1419.24,1832.91 1419.24,1842.31 1380.49,1796.14 1385.82,1778.74 			"/>
			<path class="st56" d="M1420.2,1836.93c0,6.27-5.08,11.35-11.35,11.35c-6.27,0-11.35-5.08-11.35-11.35
				c0-6.27,5.08-11.35,11.35-11.35C1415.12,1825.58,1420.2,1830.67,1420.2,1836.93z"/>
			<path class="st56" d="M1271.92,1836.93c0,6.27-5.08,11.35-11.35,11.35c-6.27,0-11.35-5.08-11.35-11.35
				c0-6.27,5.08-11.35,11.35-11.35C1266.84,1825.58,1271.92,1830.67,1271.92,1836.93z"/>
			<polygon class="st57" points="1525.49,1301.8 1532.57,1331.55 1536.92,1349.82 1516.06,1358.16 1506.61,1341.92 1491.23,1315.5 
							"/>
			<polygon class="st58" points="1532.57,1331.55 1536.92,1349.82 1516.06,1358.16 1506.61,1341.92 			"/>
			
				<rect x="1489.78" y="1301.53" transform="matrix(0.9285 -0.3713 0.3713 0.9285 -376.7508 652.68)" class="st58" width="34.15" height="6.73"/>
			
				<rect x="1489.21" y="1306.07" transform="matrix(0.9285 -0.3712 0.3712 0.9285 -378.0572 653.4948)" class="st58" width="38.36" height="5.32"/>
			<path class="st26" d="M1492.96,1334.45c0,0,7.55-6.83,13.31-8.75c1.3-0.43,2.65-0.62,3.54,0.43s0.51,3.67-2.61,6.8
				c-3.12,3.13-5.72,8.6-5.72,8.6S1497.33,1343.8,1492.96,1334.45z"/>
			<path class="st5" d="M1397.97,1209.45c-12.93,2.88-5.22,35.34-13.89,80.73c-8.67,45.39-36.02,52.48-36.02,52.48
				s12.15-20.12,10.82-41.17c-1.04-16.44-20.96-61.3-1.27-90.62c15.21-22.65,42.01-2.09,42.01-2.09L1397.97,1209.45z"/>
			<path class="st26" d="M1419.46,1212.09c11.64,0.78,36.63,9.56,37.04,40.68c0,0-1.88,8.16-4.64,14.42
				c-2.76,6.26,0.85,26.09-0.78,26.86c-1.63,0.77-8.04,1.25-8.04,1.25s-9.17,20.14-16.49,19.12c-7.32-1.03-34.47-9.98-44.55-37.52
				S1372.48,1208.95,1419.46,1212.09z"/>
			<path class="st5" d="M1456.5,1252.77c0,0-20.26,10.64-39.2,11.07c-18.94,0.43-34.46,30.8-34.46,30.8s-22.93-51.45,3.33-77.55
				C1412.35,1191.05,1464.69,1217.52,1456.5,1252.77z"/>
			<path class="st26" d="M1412.87,1263.65c0.32-3.62-3.08-9.5-9.56-5.25c-6.48,4.25-0.51,22.33,4.53,21.21
				C1412.88,1278.48,1412.55,1267.39,1412.87,1263.65z"/>
			<path class="st59" d="M1583.79,1477.59v7.17h341.79v-7.17c0-6.68-4.49-12.1-10.03-12.1h-321.72
				C1588.29,1465.49,1583.79,1470.91,1583.79,1477.59z"/>
			<path class="st60" d="M1802.93,1834.39h103.28v-16.52h-96.42c-3.79,0-6.87,3.07-6.87,6.87V1834.39z"/>
			
				<rect x="1886" y="1484.76" transform="matrix(-1 -1.224647e-16 1.224647e-16 -1 3785.6562 3319.1465)" class="st60" width="13.65" height="349.63"/>
			
				<rect x="1858.58" y="1484.76" transform="matrix(-1 -1.224647e-16 1.224647e-16 -1 3730.8125 3319.1465)" class="st60" width="13.65" height="349.63"/>
			<rect x="1761.72" y="1264.39" class="st61" width="8.03" height="178.06"/>
			<g>
				<path class="st62" d="M1781.41,1465.49h60.11v-3.64h-60.11c-3.13,0-5.39-0.74-6.7-2.21c-1.58-1.77-1.34-4.16-1.34-4.18
					l0.02-0.12l0-0.1v-77.67h-3.64v77.58c-0.06,0.74-0.21,4.12,2.2,6.86C1773.98,1464.32,1777.17,1465.49,1781.41,1465.49z"/>
			</g>
			<path class="st61" d="M1699.26,1459.11h63.69v6.38h-67.66v-2.42C1695.3,1460.88,1697.07,1459.11,1699.26,1459.11z"/>
			<path class="st63" d="M1728.82,1484.76h196.77v-7.17c0-6.68-4.62-12.1-10.33-12.1h-155.63L1728.82,1484.76z"/>
		</g>
		<g>
			<g>
				<path class="st64" d="M1608.67,586.3h-278.77c-2.31,0-4.18-1.87-4.18-4.18v-17.41c0-2.31,1.87-4.18,4.18-4.18h278.77
					c2.31,0,4.18,1.87,4.18,4.18v17.41C1612.85,584.43,1610.98,586.3,1608.67,586.3z"/>
				<path class="st64" d="M1648.7,627.97h-318.81c-2.31,0-4.18-1.87-4.18-4.18v-17.41c0-2.31,1.87-4.18,4.18-4.18h318.81
					c2.31,0,4.18,1.87,4.18,4.18v17.41C1652.88,626.1,1651.01,627.97,1648.7,627.97z"/>
			</g>
			<path class="st27" d="M1221.38,635.74h63.6c5.35,0,9.69-4.34,9.69-9.69v-63.6c0-5.35-4.34-9.69-9.69-9.69h-63.6
				c-5.35,0-9.69,4.34-9.69,9.69v63.6C1211.69,631.4,1216.03,635.74,1221.38,635.74z"/>
			<g>
				<path class="st64" d="M1537.91,703.98h-208.57c-2,0-3.62-1.62-3.62-3.62v-18.52c0-2,1.62-3.62,3.62-3.62h208.57
					c2,0,3.62,1.62,3.62,3.62v18.52C1541.53,702.36,1539.91,703.98,1537.91,703.98z"/>
				<path class="st64" d="M1587.4,745.65h-257.92c-2.08,0-3.77-1.69-3.77-3.77v-18.24c0-2.08,1.69-3.77,3.77-3.77h257.92
					c2.08,0,3.77,1.69,3.77,3.77v18.24C1591.17,743.97,1589.48,745.65,1587.4,745.65z"/>
			</g>
			<g>
				<path class="st65" d="M1243.5,600.58c0-1.08,0.07-2.11,0.21-3.09c0.14-0.98,0.41-1.93,0.81-2.84c0.4-0.91,0.97-1.77,1.72-2.56
					c0.75-0.79,1.73-1.52,2.95-2.18c0.61-0.33,1.42-0.76,2.42-1.3c1.01-0.54,1.99-1.16,2.95-1.86c0.96-0.7,1.79-1.51,2.49-2.42
					c0.7-0.91,1.05-1.93,1.05-3.05c0-1.54-0.56-2.75-1.68-3.62c-1.12-0.87-2.41-1.3-3.86-1.3c-0.94,0-1.77,0.18-2.49,0.53
					c-0.73,0.35-1.38,0.77-1.97,1.26c-0.59,0.49-1.09,1.04-1.51,1.65c-0.42,0.61-0.8,1.15-1.12,1.62l-7.23-5.05
					c1.22-2.85,3.15-5.08,5.79-6.67c2.64-1.59,5.63-2.39,8.95-2.39c1.78,0,3.56,0.26,5.33,0.77c1.78,0.52,3.37,1.33,4.77,2.46
					c1.4,1.12,2.55,2.57,3.44,4.35c0.89,1.78,1.33,3.93,1.33,6.46c0,2.67-0.55,4.9-1.65,6.7c-1.1,1.8-2.73,3.38-4.88,4.74
					c-0.98,0.66-1.98,1.24-2.98,1.76c-1.01,0.52-1.93,1.05-2.77,1.61c-0.84,0.56-1.52,1.19-2.04,1.89c-0.52,0.7-0.77,1.54-0.77,2.53
					H1243.5z M1243.71,617.78v-10.53h9.2v10.53H1243.71z"/>
			</g>
			<path class="st27" d="M1221.38,752.88h63.6c5.35,0,9.69-4.34,9.69-9.69v-63.6c0-5.35-4.34-9.69-9.69-9.69h-63.6
				c-5.35,0-9.69,4.34-9.69,9.69v63.6C1211.69,748.54,1216.03,752.88,1221.38,752.88z"/>
			<g>
				<path class="st65" d="M1243.5,717.72c0-1.08,0.07-2.11,0.21-3.09c0.14-0.98,0.41-1.93,0.81-2.84c0.4-0.91,0.97-1.77,1.72-2.56
					c0.75-0.79,1.73-1.52,2.95-2.18c0.61-0.33,1.42-0.76,2.42-1.3c1.01-0.54,1.99-1.16,2.95-1.86c0.96-0.7,1.79-1.51,2.49-2.42
					c0.7-0.91,1.05-1.93,1.05-3.05c0-1.54-0.56-2.75-1.68-3.62c-1.12-0.87-2.41-1.3-3.86-1.3c-0.94,0-1.77,0.18-2.49,0.53
					c-0.73,0.35-1.38,0.77-1.97,1.26c-0.59,0.49-1.09,1.04-1.51,1.65c-0.42,0.61-0.8,1.15-1.12,1.62l-7.23-5.05
					c1.22-2.85,3.15-5.08,5.79-6.67c2.64-1.59,5.63-2.39,8.95-2.39c1.78,0,3.56,0.26,5.33,0.77c1.78,0.52,3.37,1.33,4.77,2.46
					c1.4,1.12,2.55,2.57,3.44,4.35c0.89,1.78,1.33,3.93,1.33,6.46c0,2.67-0.55,4.9-1.65,6.7c-1.1,1.8-2.73,3.38-4.88,4.74
					c-0.98,0.66-1.98,1.24-2.98,1.76c-1.01,0.52-1.93,1.05-2.77,1.61c-0.84,0.56-1.52,1.19-2.04,1.9c-0.52,0.7-0.77,1.54-0.77,2.53
					H1243.5z M1243.71,734.92v-10.53h9.2v10.53H1243.71z"/>
			</g>
		</g>
		
			<rect x="1900.06" y="760.37" transform="matrix(-1 -1.224647e-16 1.224647e-16 -1 3901.8184 1528.3394)" class="st66" width="101.71" height="7.59"/>
		
			<rect x="1900.06" y="771.29" transform="matrix(-1 -1.224647e-16 1.224647e-16 -1 3901.8184 1563.1382)" class="st66" width="101.71" height="20.56"/>
	</g>
</g>
</svg>
